<svg width="85" height="85" fill="none" xmlns="http://www.w3.org/2000/svg"><g clip-path="url(#clip0_970_14474)"><path d="M36.057 72.335l-.638 7.707H4.863a2.834 2.834 0 01-2.79-3.372l6.204-31.847a1.417 1.417 0 011.389-1.147h3.938L8.885 72.037a1.428 1.428 0 001.828 1.587 48.463 48.463 0 0125.344-1.289zm44.083 7.707H49.583l-.638-7.707a48.463 48.463 0 0125.345 1.29 1.428 1.428 0 001.827-1.588l-4.718-28.361h3.939c.678.001 1.26.482 1.388 1.147l6.205 31.847a2.833 2.833 0 01-2.79 3.372z" fill="#C5D0DC"/><path d="M82.934 76.67l-6.205-31.847a1.417 1.417 0 00-1.388-1.147h-3.939l.01.056c.538.125.954.55 1.067 1.091l6.205 31.847a2.833 2.833 0 01-2.79 3.372h4.25a2.834 2.834 0 002.79-3.372z" fill="#9FA2C0"/><path d="M74.292 73.624a48.463 48.463 0 00-25.344-1.289 32.792 32.792 0 00-6.446 2.04 32.792 32.792 0 00-6.446-2.04 48.463 48.463 0 00-25.344 1.29 1.428 1.428 0 01-1.828-1.588l4.718-28.361.397-2.394a1.428 1.428 0 011.19-1.176 92.598 92.598 0 012.946-.397 10.105 10.105 0 0012.481 4.86 7.461 7.461 0 0012.708 2.436 12.29 12.29 0 004.448.836h.085c.297 2.55 1.63 4.051 6.077 5.539a7.749 7.749 0 013.514 2.323 3 3 0 003.47.893 2.958 2.958 0 001.644-3.613 12.507 12.507 0 00-1.87-3.768 10.538 10.538 0 005.37-7.367c.551-.61.996-1.31 1.317-2.068.821.1 1.629.198 2.436.326a1.428 1.428 0 011.19 1.176l.397 2.394 4.717 28.361a1.428 1.428 0 01-1.827 1.587z" fill="#F5F5F5"/><path d="M76.117 72.037L71.4 43.676l-.397-2.394a1.428 1.428 0 00-1.19-1.176 67.309 67.309 0 00-2.437-.326 7.367 7.367 0 01-.708 1.262c.034.078.061.158.08.24l.397 2.394 4.718 28.361c.045.292-.004.59-.142.85.85.223 1.7.462 2.56.739a1.428 1.428 0 001.836-1.589z" fill="#CFD8DC"/><path d="M49.585 80.042c0 1.558-3.174 2.833-7.084 2.833-3.91 0-7.083-1.275-7.083-2.833l.638-7.707a32.798 32.798 0 016.445 2.04 32.798 32.798 0 016.446-2.04l.638 7.707z" fill="#9FA2C0"/><path d="M68 36.82a7.157 7.157 0 01-.623 2.96 7.347 7.347 0 01-1.318 2.068 10.538 10.538 0 01-5.369 7.367 12.507 12.507 0 011.87 3.768c.095.293.143.6.142.907a2.958 2.958 0 01-1.785 2.706 3 3 0 01-3.471-.893 7.75 7.75 0 00-3.513-2.323c-4.449-1.488-5.78-2.99-6.078-5.54h-.085a12.26 12.26 0 01-4.448-.835 7.462 7.462 0 01-12.708-2.437c-1.12.411-2.305.622-3.499.624a10.122 10.122 0 01-8.103-16.179 4.137 4.137 0 01-.255-1.445 4.413 4.413 0 013.541-4.335 6.233 6.233 0 01-.028-.524 5.726 5.726 0 015.723-5.723 5.59 5.59 0 012.48.566 8.367 8.367 0 017.196-4.094 8.217 8.217 0 015.497 2.083 4.392 4.392 0 017.792.637 11.48 11.48 0 011.218-.07 10.566 10.566 0 0110.512 9.69h.042a4.392 4.392 0 014.392 4.405 4.547 4.547 0 01-.567 2.182A7.509 7.509 0 0168 36.819z" fill="#D563D9"/><path d="M66.558 32.385a4.546 4.546 0 00.566-2.182 4.391 4.391 0 00-4.391-4.405h-.043a10.566 10.566 0 00-10.511-9.69c-.407.002-.814.025-1.219.07a4.376 4.376 0 00-6.19-2.163 4.358 4.358 0 011.94 2.163 10.566 10.566 0 0111.73 9.62h.043a4.392 4.392 0 014.392 4.405 4.546 4.546 0 01-.567 2.182 7.509 7.509 0 011.445 4.434 7.157 7.157 0 01-.623 2.961 7.342 7.342 0 01-1.318 2.068 10.537 10.537 0 01-5.37 7.367 12.508 12.508 0 011.87 3.768c.096.293.144.6.143.907a2.931 2.931 0 01-.825 1.998 2.926 2.926 0 005.075-1.998 2.884 2.884 0 00-.142-.907 12.508 12.508 0 00-1.87-3.768 10.537 10.537 0 005.369-7.367c.552-.61.997-1.31 1.317-2.068.417-.931.63-1.94.624-2.96a7.509 7.509 0 00-1.445-4.435z" fill="#A650A9"/><path d="M57.464 36.81a1.417 1.417 0 00-2.531 1.274 2.11 2.11 0 01-.683 2.67 2.137 2.137 0 01-3.077-.784 1.417 1.417 0 00-2.535 1.268 4.936 4.936 0 008.826-4.423v-.006zm-8.587-.693a8.459 8.459 0 003.511-5.392 1.417 1.417 0 10-2.782-.533 5.647 5.647 0 01-2.346 3.597 5.783 5.783 0 01-7.457-.85 1.419 1.419 0 00-2.097 1.911 8.543 8.543 0 004.54 2.618 4.22 4.22 0 01-3.448 1.774 1.417 1.417 0 100 2.833 7.025 7.025 0 006.6-4.543 8.535 8.535 0 003.478-1.415zm-18.949 3.16a2.125 2.125 0 01-2.716-2.019v-.035a1.401 1.401 0 00-1.416-1.398 1.43 1.43 0 00-1.417 1.433 4.944 4.944 0 004.933 4.943c.48-.001.956-.072 1.416-.208a1.417 1.417 0 00-.807-2.716h.007zm9.455-14.485c0-.783-.635-1.417-1.417-1.417a6.524 6.524 0 00-6.517 6.517 1.417 1.417 0 002.834 0 3.683 3.683 0 013.683-3.684c.782 0 1.416-.634 1.416-1.416z" fill="#A650A9"/><path d="M42.499 4.958a1.417 1.417 0 01-1.417-1.416V2.125a1.417 1.417 0 012.833 0v1.417c0 .782-.634 1.416-1.416 1.416zm22.835 9.752a1.417 1.417 0 01-1.001-2.419l1.416-1.417a1.417 1.417 0 112.004 2.003l-1.417 1.417a1.416 1.416 0 01-1.002.415zm-45.667 0c-.376 0-.736-.15-1.001-.416l-1.417-1.417a1.417 1.417 0 112.003-2.003l1.417 1.417a1.417 1.417 0 01-1.002 2.418zm10.908-5.962a1.42 1.42 0 01-1.31-.874L27.64 3.947a1.417 1.417 0 112.616-1.085l1.628 3.927a1.417 1.417 0 01-1.31 1.959zm23.854 0a1.417 1.417 0 01-1.309-1.96l1.628-3.926a1.417 1.417 0 112.616 1.085l-1.626 3.927c-.22.53-.736.874-1.31.874zm16.863 16.868a1.417 1.417 0 01-.542-2.727l3.927-1.626a1.417 1.417 0 011.083 2.618l-3.925 1.626a1.417 1.417 0 01-.543.11zm-57.586 0c-.186 0-.37-.037-.542-.109l-3.926-1.626a1.417 1.417 0 011.084-2.618l3.927 1.626a1.417 1.417 0 01-.543 2.727zM78.12 44.558a2.833 2.833 0 00-2.78-2.299h-2.736l-.201-1.205a2.848 2.848 0 00-2.368-2.348c-.269-.042-.54-.07-.809-.108a8.642 8.642 0 00-1.076-6.316 5.797 5.797 0 00-4.2-7.755 12.055 12.055 0 00-11.777-9.84c-.142 0-.268.018-.403.022a5.763 5.763 0 00-8.816-1.096 9.724 9.724 0 00-5.29-1.571 9.836 9.836 0 00-7.732 3.808 7.056 7.056 0 00-9.018 6.34 5.83 5.83 0 00-3.572 5.373c.005.406.052.811.142 1.208a11.401 11.401 0 00-1.359 9.775c-.38.053-.767.1-1.133.153a2.85 2.85 0 00-2.386 2.346l-.2 1.21H9.662a2.833 2.833 0 00-2.78 2.293L.68 76.398a4.25 4.25 0 004.18 5.06h29.543c1.173 1.936 4.738 2.834 8.098 2.834 3.325 0 6.855-.877 8.062-2.834h29.579a4.25 4.25 0 004.18-5.059L78.12 44.56zM21.626 30.127a2.992 2.992 0 011.53-5.556 2.938 2.938 0 012.379 1.201 1.417 1.417 0 102.275-1.689 5.723 5.723 0 00-4.017-2.266 4.307 4.307 0 014.2-3.41c.173.009.345.027.516.056-.114.29-.214.587-.298.887a1.417 1.417 0 002.743.709c.16-.623.408-1.22.735-1.774a6.995 6.995 0 015.975-3.41c1.335.006 2.639.4 3.753 1.133a5.76 5.76 0 00-.333 1.858 1.417 1.417 0 002.834 0 2.98 2.98 0 015.96 0 1.417 1.417 0 102.833 0c0-.11-.027-.213-.033-.322a9.196 9.196 0 018.39 7.092 5.727 5.727 0 00-1.832.914 1.417 1.417 0 101.7 2.266 2.986 2.986 0 014.38 3.864 3.022 3.022 0 01-1.341 1.24 1.417 1.417 0 00.603 2.692 1.4 1.4 0 00.601-.134c.375-.182.73-.404 1.058-.662a6.05 6.05 0 01-1.198 6.042l-.034.036a6.119 6.119 0 01-7.225 1.325 5.742 5.742 0 01-1.679-1.263 1.417 1.417 0 00-2.09 1.914 8.585 8.585 0 002.478 1.878 8.727 8.727 0 006.544.605 9.03 9.03 0 01-5.834 3.577 1.417 1.417 0 00.448 2.798 11.66 11.66 0 002.513-.734c.436.772.79 1.587 1.057 2.433.048.147.073.302.073.457 0 .613-.366 1.166-.93 1.406a1.604 1.604 0 01-1.828-.492 9.042 9.042 0 00-4.147-2.755c-3.061-1.026-4.242-1.943-4.744-2.94a13.598 13.598 0 002.172-.453 1.417 1.417 0 10-.833-2.709c-.795.244-1.616.395-2.445.45a10.515 10.515 0 01-4.695-.71 1.417 1.417 0 00-1.588.396 6.066 6.066 0 01-9.784-7.093 1.42 1.42 0 10-2.434-1.46 8.775 8.775 0 00-1.133 6.046 8.657 8.657 0 01-9.795-11.857c.317.321.67.603 1.054.84a1.417 1.417 0 001.462-2.426h.004zm-6.233 11.38c.653-.096 1.328-.181 1.998-.27a11.438 11.438 0 0012.424 5.041 8.874 8.874 0 0013.9 2.356c.963.287 1.954.467 2.957.536.684 2.595 2.662 4.167 6.817 5.56a6.278 6.278 0 012.884 1.9 4.512 4.512 0 003.423 1.608 4.3 4.3 0 001.681-.343 4.362 4.362 0 002.648-4.01 4.2 4.2 0 00-.215-1.34 15.478 15.478 0 00-1.253-2.884 11.942 11.942 0 004.708-7.2c.302-.358.575-.74.816-1.141.475.06.95.115 1.427.194l5.114 30.761a48.628 48.628 0 00-30.804 0V54.542a1.417 1.417 0 10-2.834 0v17.74a48.637 48.637 0 00-30.804-.012l5.113-30.763zM3.757 78.104a1.405 1.405 0 01-.298-1.162l6.204-31.85h2.266L7.484 71.81a2.843 2.843 0 003.656 3.165 47.395 47.395 0 0123.4-1.484l-.423 5.135H4.86c-.427 0-.832-.191-1.103-.521zM42.5 81.458c-3.413 0-5.37-1.008-5.658-1.457l.487-5.88c1.558.388 3.082.9 4.559 1.529.191.092.4.14.612.142.213 0 .422-.05.613-.142 1.476-.633 3-1.148 4.558-1.538l.487 5.887c-.287.45-2.245 1.46-5.658 1.46zm38.744-3.354c-.27.33-.676.521-1.103.521H50.889l-.425-5.145a47.409 47.409 0 0123.41 1.497 2.842 2.842 0 003.643-3.172l-4.441-26.711h2.266l6.205 31.847c.079.413-.032.84-.302 1.163z" fill="#3F446C"/></g><defs><clipPath id="clip0_970_14474"><path fill="#fff" d="M0 0h85v85H0z"/></clipPath></defs></svg>