<svg width="112" height="112" fill="none" xmlns="http://www.w3.org/2000/svg"><g filter="url(#filter0_d_858_501)"><mask id="a" fill="#fff"><path d="M105.844 43.406a1.719 1.719 0 001.718-1.719v-6.875a1.72 1.72 0 00-1.718-1.718H86.937v-13.75h1.72a1.719 1.719 0 001.718-1.72V10.75a1.719 1.719 0 00-1.719-1.719h-19.92a13.734 13.734 0 00-25.472 0h-19.92a1.719 1.719 0 00-1.72 1.719v6.875a1.719 1.719 0 001.72 1.719h1.718v13.75H6.156a1.719 1.719 0 00-1.719 1.718v6.875a1.719 1.719 0 001.72 1.72h1.718v54.707l-2.836 2.423a1.724 1.724 0 00-.495 1.902 1.718 1.718 0 001.612 1.123h99.688a1.716 1.716 0 001.663-2.151 1.727 1.727 0 00-.546-.874l-2.836-2.423V43.406h1.719zM69.63 12.47h17.307v3.437H69.63c.075-.57.115-1.144.12-1.719a14.194 14.194 0 00-.12-1.718zm17.307 30.937h13.75v51.752l-1.89-1.616a15.47 15.47 0 00-10.072-3.73h-1.788V43.406zM56 3.875A10.313 10.313 0 1156 24.5a10.313 10.313 0 010-20.625zm0 24.062a13.75 13.75 0 0012.736-8.593H83.5v70.468h-6.875V60.594a1.719 1.719 0 00-1.719-1.72H37.094a1.718 1.718 0 00-1.72 1.72v29.218H28.5V19.344h14.764A13.75 13.75 0 0056 27.937zm17.187 34.375v27.5H57.72v-27.5h15.468zm-18.906 0v27.5H38.812v-27.5h15.47zM25.062 12.47H42.37c-.075.57-.115 1.144-.12 1.718.005.575.045 1.15.12 1.72H25.062V12.47zM7.875 36.53h17.187v3.438H7.875V36.53zm17.187 6.875v46.406h-1.787a15.47 15.47 0 00-10.072 3.73l-1.89 1.616V43.406h13.75zm-14.265 56.719l4.64-3.97a12.044 12.044 0 017.838-2.905h65.45a12.044 12.044 0 017.837 2.905l4.641 3.97H10.797zm76.14-60.156V36.53h17.188v3.438H86.937z"/><path d="M14.75 50.281h6.875v3.438H14.75V50.28zm0 10.313h6.875v3.437H14.75v-3.437zm0 10.312h6.875v3.438H14.75v-3.438zm0 8.594h6.875v3.437H14.75V79.5zm75.625-29.219h6.875v3.438h-6.875V50.28zm0 10.313h6.875v3.437h-6.875v-3.437zm0 10.312h6.875v3.438h-6.875v-3.438zm0 8.594h6.875v3.437h-6.875V79.5zm-29.219-5.156h3.438v3.437h-3.438v-3.437zm-13.75 0h3.438v3.437h-3.438v-3.437zm15.469-61.875v3.437h-5.156v5.156H54.28v-5.156h-5.156V12.47h5.156V7.312h3.438v5.157h5.156zm13.75 18.906h-41.25a1.719 1.719 0 00-1.719 1.719v6.875a1.719 1.719 0 001.719 1.718h41.25a1.718 1.718 0 001.719-1.718v-6.875a1.718 1.718 0 00-1.72-1.72zm-1.719 6.875H37.094v-3.438h37.812v3.438zm1.719 6.875h-41.25a1.719 1.719 0 00-1.719 1.719v6.875a1.719 1.719 0 001.719 1.718h41.25a1.718 1.718 0 001.719-1.718v-6.875a1.718 1.718 0 00-1.72-1.72zM74.906 52H37.094v-3.438h37.812V52z"/></mask><path d="M105.844 43.406a1.719 1.719 0 001.718-1.719v-6.875a1.72 1.72 0 00-1.718-1.718H86.937v-13.75h1.72a1.719 1.719 0 001.718-1.72V10.75a1.719 1.719 0 00-1.719-1.719h-19.92a13.734 13.734 0 00-25.472 0h-19.92a1.719 1.719 0 00-1.72 1.719v6.875a1.719 1.719 0 001.72 1.719h1.718v13.75H6.156a1.719 1.719 0 00-1.719 1.718v6.875a1.719 1.719 0 001.72 1.72h1.718v54.707l-2.836 2.423a1.724 1.724 0 00-.495 1.902 1.718 1.718 0 001.612 1.123h99.688a1.716 1.716 0 001.663-2.151 1.727 1.727 0 00-.546-.874l-2.836-2.423V43.406h1.719zM69.63 12.47h17.307v3.437H69.63c.075-.57.115-1.144.12-1.719a14.194 14.194 0 00-.12-1.718zm17.307 30.937h13.75v51.752l-1.89-1.616a15.47 15.47 0 00-10.072-3.73h-1.788V43.406zM56 3.875A10.313 10.313 0 1156 24.5a10.313 10.313 0 010-20.625zm0 24.062a13.75 13.75 0 0012.736-8.593H83.5v70.468h-6.875V60.594a1.719 1.719 0 00-1.719-1.72H37.094a1.718 1.718 0 00-1.72 1.72v29.218H28.5V19.344h14.764A13.75 13.75 0 0056 27.937zm17.187 34.375v27.5H57.72v-27.5h15.468zm-18.906 0v27.5H38.812v-27.5h15.47zM25.062 12.47H42.37c-.075.57-.115 1.144-.12 1.718.005.575.045 1.15.12 1.72H25.062V12.47zM7.875 36.53h17.187v3.438H7.875V36.53zm17.187 6.875v46.406h-1.787a15.47 15.47 0 00-10.072 3.73l-1.89 1.616V43.406h13.75zm-14.265 56.719l4.64-3.97a12.044 12.044 0 017.838-2.905h65.45a12.044 12.044 0 017.837 2.905l4.641 3.97H10.797zm76.14-60.156V36.53h17.188v3.438H86.937z" fill="#fff"/><path d="M14.75 50.281h6.875v3.438H14.75V50.28zm0 10.313h6.875v3.437H14.75v-3.437zm0 10.312h6.875v3.438H14.75v-3.438zm0 8.594h6.875v3.437H14.75V79.5zm75.625-29.219h6.875v3.438h-6.875V50.28zm0 10.313h6.875v3.437h-6.875v-3.437zm0 10.312h6.875v3.438h-6.875v-3.438zm0 8.594h6.875v3.437h-6.875V79.5zm-29.219-5.156h3.438v3.437h-3.438v-3.437zm-13.75 0h3.438v3.437h-3.438v-3.437zm15.469-61.875v3.437h-5.156v5.156H54.28v-5.156h-5.156V12.47h5.156V7.312h3.438v5.157h5.156zm13.75 18.906h-41.25a1.719 1.719 0 00-1.719 1.719v6.875a1.719 1.719 0 001.719 1.718h41.25a1.718 1.718 0 001.719-1.718v-6.875a1.718 1.718 0 00-1.72-1.72zm-1.719 6.875H37.094v-3.438h37.812v3.438zm1.719 6.875h-41.25a1.719 1.719 0 00-1.719 1.719v6.875a1.719 1.719 0 001.719 1.718h41.25a1.718 1.718 0 001.719-1.718v-6.875a1.718 1.718 0 00-1.72-1.72zM74.906 52H37.094v-3.438h37.812V52z" fill="#fff"/><path d="M105.844 43.406a1.719 1.719 0 001.718-1.719v-6.875a1.72 1.72 0 00-1.718-1.718H86.937v-13.75h1.72a1.719 1.719 0 001.718-1.72V10.75a1.719 1.719 0 00-1.719-1.719h-19.92a13.734 13.734 0 00-25.472 0h-19.92a1.719 1.719 0 00-1.72 1.719v6.875a1.719 1.719 0 001.72 1.719h1.718v13.75H6.156a1.719 1.719 0 00-1.719 1.718v6.875a1.719 1.719 0 001.72 1.72h1.718v54.707l-2.836 2.423a1.724 1.724 0 00-.495 1.902 1.718 1.718 0 001.612 1.123h99.688a1.716 1.716 0 001.663-2.151 1.727 1.727 0 00-.546-.874l-2.836-2.423V43.406h1.719zM69.63 12.47h17.307v3.437H69.63c.075-.57.115-1.144.12-1.719a14.194 14.194 0 00-.12-1.718zm17.307 30.937h13.75v51.752l-1.89-1.616a15.47 15.47 0 00-10.072-3.73h-1.788V43.406zM56 3.875A10.313 10.313 0 1156 24.5a10.313 10.313 0 010-20.625zm0 24.062a13.75 13.75 0 0012.736-8.593H83.5v70.468h-6.875V60.594a1.719 1.719 0 00-1.719-1.72H37.094a1.718 1.718 0 00-1.72 1.72v29.218H28.5V19.344h14.764A13.75 13.75 0 0056 27.937zm17.187 34.375v27.5H57.72v-27.5h15.468zm-18.906 0v27.5H38.812v-27.5h15.47zM25.062 12.47H42.37c-.075.57-.115 1.144-.12 1.718.005.575.045 1.15.12 1.72H25.062V12.47zM7.875 36.53h17.187v3.438H7.875V36.53zm17.187 6.875v46.406h-1.787a15.47 15.47 0 00-10.072 3.73l-1.89 1.616V43.406h13.75zm-14.265 56.719l4.64-3.97a12.044 12.044 0 017.838-2.905h65.45a12.044 12.044 0 017.837 2.905l4.641 3.97H10.797zm76.14-60.156V36.53h17.188v3.438H86.937z" stroke="#53C9C3" stroke-width="2" mask="url(#a)"/><path d="M14.75 50.281h6.875v3.438H14.75V50.28zm0 10.313h6.875v3.437H14.75v-3.437zm0 10.312h6.875v3.438H14.75v-3.438zm0 8.594h6.875v3.437H14.75V79.5zm75.625-29.219h6.875v3.438h-6.875V50.28zm0 10.313h6.875v3.437h-6.875v-3.437zm0 10.312h6.875v3.438h-6.875v-3.438zm0 8.594h6.875v3.437h-6.875V79.5zm-29.219-5.156h3.438v3.437h-3.438v-3.437zm-13.75 0h3.438v3.437h-3.438v-3.437zm15.469-61.875v3.437h-5.156v5.156H54.28v-5.156h-5.156V12.47h5.156V7.312h3.438v5.157h5.156zm13.75 18.906h-41.25a1.719 1.719 0 00-1.719 1.719v6.875a1.719 1.719 0 001.719 1.718h41.25a1.718 1.718 0 001.719-1.718v-6.875a1.718 1.718 0 00-1.72-1.72zm-1.719 6.875H37.094v-3.438h37.812v3.438zm1.719 6.875h-41.25a1.719 1.719 0 00-1.719 1.719v6.875a1.719 1.719 0 001.719 1.718h41.25a1.718 1.718 0 001.719-1.718v-6.875a1.718 1.718 0 00-1.72-1.72zM74.906 52H37.094v-3.438h37.812V52z" stroke="#53C9C3" stroke-width="2" mask="url(#a)"/></g><defs><filter id="filter0_d_858_501" x=".437" y=".438" width="111.125" height="111.124" filterUnits="userSpaceOnUse" color-interpolation-filters="sRGB"><feFlood flood-opacity="0" result="BackgroundImageFix"/><feColorMatrix in="SourceAlpha" values="0 0 0 0 0 0 0 0 0 0 0 0 0 0 0 0 0 0 127 0" result="hardAlpha"/><feOffset dy="4"/><feGaussianBlur stdDeviation="2"/><feComposite in2="hardAlpha" operator="out"/><feColorMatrix values="0 0 0 0 0.139757 0 0 0 0 0.670833 0 0 0 0 0.644715 0 0 0 0.4 0"/><feBlend in2="BackgroundImageFix" result="effect1_dropShadow_858_501"/><feBlend in="SourceGraphic" in2="effect1_dropShadow_858_501" result="shape"/></filter></defs></svg>