<svg width="112" height="112" fill="none" xmlns="http://www.w3.org/2000/svg"><g filter="url(#filter0_d_858_489)"><mask id="a" fill="#fff"><path d="M42.25 5.594a5.157 5.157 0 100 10.313 5.157 5.157 0 000-10.313zm0 6.875a1.719 1.719 0 110-3.438 1.719 1.719 0 010 3.438zm-22.344 41.25h6.875v3.437h-6.875V53.72zm10.313 0H56v3.437H30.219V53.72zM19.906 64.031h6.875v3.438h-6.875V64.03zm0 10.313h6.875v3.437h-6.875v-3.437zm0 10.312h6.875v3.438h-6.875v-3.438z"/><path d="M105.844 57.156h-1.719A25.975 25.975 0 0188.656 52l-4.125-3.094a1.702 1.702 0 00-2.062 0l-2.406 1.805V15.906a5.172 5.172 0 00-5.157-5.156h-14.06A5.174 5.174 0 0056 7.312h-4.022a10.313 10.313 0 00-19.456 0H28.5a5.174 5.174 0 00-4.847 3.438H9.593a5.172 5.172 0 00-5.155 5.156v82.5a5.172 5.172 0 005.156 5.156h65.312a5.186 5.186 0 004.04-1.976l3.815 1.805a1.676 1.676 0 001.478 0l15.09-7.168a15.398 15.398 0 008.234-13.664V58.875a1.72 1.72 0 00-1.719-1.719zM61.156 14.187h13.75a1.718 1.718 0 011.719 1.72v37.279a26.19 26.19 0 01-3.438 1.805V19.344a1.719 1.719 0 00-1.718-1.72H61.156v-3.437zM26.781 12.47a1.718 1.718 0 011.719-1.72h5.328a1.698 1.698 0 001.684-1.374 6.875 6.875 0 0113.475 0 1.698 1.698 0 001.685 1.375H56a1.718 1.718 0 011.719 1.719v6.875H26.78V12.47zm-1.718 10.31h34.374a1.719 1.719 0 001.72-1.719h8.593v35.132c-2.238.628-4.55.952-6.875.962h-1.719a1.719 1.719 0 00-1.718 1.719v5.156h-29.22v3.438h29.22v6.875h-29.22v3.437h29.22v4.778c.002.701.048 1.402.137 2.097H30.219v3.438h30.267a15.516 15.516 0 003.283 5.156H14.75V21.062h8.594a1.718 1.718 0 001.718 1.72zm49.843 77.344H9.594a1.719 1.719 0 01-1.719-1.719v-82.5a1.719 1.719 0 011.719-1.719h13.75v3.438H13.03a1.719 1.719 0 00-1.719 1.719v75.625a1.719 1.719 0 001.72 1.718H68.65l6.91 3.283a1.74 1.74 0 01-.654.155zm29.219-17.566a11.95 11.95 0 01-6.342 10.588L83.5 99.936l-14.248-6.772a11.988 11.988 0 01-6.377-10.605V60.594a29.39 29.39 0 0017.531-5.844l3.094-2.32 3.094 2.32a29.39 29.39 0 0017.531 5.844v21.965z"/><path d="M52.563 33.094h-5.157v-5.157a1.718 1.718 0 00-1.718-1.718h-6.876a1.719 1.719 0 00-1.718 1.718v5.157h-5.157a1.719 1.719 0 00-1.718 1.718v6.876a1.718 1.718 0 001.718 1.718h5.157v5.157a1.718 1.718 0 001.718 1.718h6.876a1.719 1.719 0 001.718-1.718v-5.157h5.157a1.719 1.719 0 001.718-1.718v-6.876a1.718 1.718 0 00-1.718-1.718zm-1.72 6.875h-5.156a1.719 1.719 0 00-1.718 1.718v5.157H40.53v-5.157a1.718 1.718 0 00-1.718-1.718h-5.157V36.53h5.157a1.719 1.719 0 001.718-1.718v-5.157h3.438v5.157a1.718 1.718 0 001.718 1.718h5.157v3.438zm48.384 23.684A32.73 32.73 0 0184.53 57.5a1.7 1.7 0 00-2.062 0 32.73 32.73 0 01-14.696 6.153 1.732 1.732 0 00-1.46 1.702v17.204a8.584 8.584 0 004.434 7.511l.103.052 11.91 5.654a1.676 1.676 0 001.48 0l12.013-5.706a8.605 8.605 0 004.435-7.51V65.354a1.735 1.735 0 00-1.461-1.702zM97.25 82.56a5.086 5.086 0 01-2.578 4.452L83.5 92.32l-11.138-5.276a5.157 5.157 0 01-2.612-4.486V66.8a36.279 36.279 0 0013.75-5.81 36.279 36.279 0 0013.75 5.81v15.76z"/><path d="M76.121 78.285l-2.43 2.43 5.156 5.156a1.719 1.719 0 002.43 0l13.75-13.75-2.43-2.43-12.534 12.535-3.942-3.941z"/></mask><path d="M42.25 5.594a5.157 5.157 0 100 10.313 5.157 5.157 0 000-10.313zm0 6.875a1.719 1.719 0 110-3.438 1.719 1.719 0 010 3.438zm-22.344 41.25h6.875v3.437h-6.875V53.72zm10.313 0H56v3.437H30.219V53.72zM19.906 64.031h6.875v3.438h-6.875V64.03zm0 10.313h6.875v3.437h-6.875v-3.437zm0 10.312h6.875v3.438h-6.875v-3.438z" fill="#fff"/><path d="M105.844 57.156h-1.719A25.975 25.975 0 0188.656 52l-4.125-3.094a1.702 1.702 0 00-2.062 0l-2.406 1.805V15.906a5.172 5.172 0 00-5.157-5.156h-14.06A5.174 5.174 0 0056 7.312h-4.022a10.313 10.313 0 00-19.456 0H28.5a5.174 5.174 0 00-4.847 3.438H9.593a5.172 5.172 0 00-5.155 5.156v82.5a5.172 5.172 0 005.156 5.156h65.312a5.186 5.186 0 004.04-1.976l3.815 1.805a1.676 1.676 0 001.478 0l15.09-7.168a15.398 15.398 0 008.234-13.664V58.875a1.72 1.72 0 00-1.719-1.719zM61.156 14.187h13.75a1.718 1.718 0 011.719 1.72v37.279a26.19 26.19 0 01-3.438 1.805V19.344a1.719 1.719 0 00-1.718-1.72H61.156v-3.437zM26.781 12.47a1.718 1.718 0 011.719-1.72h5.328a1.698 1.698 0 001.684-1.374 6.875 6.875 0 0113.475 0 1.698 1.698 0 001.685 1.375H56a1.718 1.718 0 011.719 1.719v6.875H26.78V12.47zm-1.718 10.31h34.374a1.719 1.719 0 001.72-1.719h8.593v35.132c-2.238.628-4.55.952-6.875.962h-1.719a1.719 1.719 0 00-1.718 1.719v5.156h-29.22v3.438h29.22v6.875h-29.22v3.437h29.22v4.778c.002.701.048 1.402.137 2.097H30.219v3.438h30.267a15.516 15.516 0 003.283 5.156H14.75V21.062h8.594a1.718 1.718 0 001.718 1.72zm49.843 77.344H9.594a1.719 1.719 0 01-1.719-1.719v-82.5a1.719 1.719 0 011.719-1.719h13.75v3.438H13.03a1.719 1.719 0 00-1.719 1.719v75.625a1.719 1.719 0 001.72 1.718H68.65l6.91 3.283a1.74 1.74 0 01-.654.155zm29.219-17.566a11.95 11.95 0 01-6.342 10.588L83.5 99.936l-14.248-6.772a11.988 11.988 0 01-6.377-10.605V60.594a29.39 29.39 0 0017.531-5.844l3.094-2.32 3.094 2.32a29.39 29.39 0 0017.531 5.844v21.965z" fill="#fff"/><path d="M52.563 33.094h-5.157v-5.157a1.718 1.718 0 00-1.718-1.718h-6.876a1.719 1.719 0 00-1.718 1.718v5.157h-5.157a1.719 1.719 0 00-1.718 1.718v6.876a1.718 1.718 0 001.718 1.718h5.157v5.157a1.718 1.718 0 001.718 1.718h6.876a1.719 1.719 0 001.718-1.718v-5.157h5.157a1.719 1.719 0 001.718-1.718v-6.876a1.718 1.718 0 00-1.718-1.718zm-1.72 6.875h-5.156a1.719 1.719 0 00-1.718 1.718v5.157H40.53v-5.157a1.718 1.718 0 00-1.718-1.718h-5.157V36.53h5.157a1.719 1.719 0 001.718-1.718v-5.157h3.438v5.157a1.718 1.718 0 001.718 1.718h5.157v3.438zm48.384 23.684A32.73 32.73 0 0184.53 57.5a1.7 1.7 0 00-2.062 0 32.73 32.73 0 01-14.696 6.153 1.732 1.732 0 00-1.46 1.702v17.204a8.584 8.584 0 004.434 7.511l.103.052 11.91 5.654a1.676 1.676 0 001.48 0l12.013-5.706a8.605 8.605 0 004.435-7.51V65.354a1.735 1.735 0 00-1.461-1.702zM97.25 82.56a5.086 5.086 0 01-2.578 4.452L83.5 92.32l-11.138-5.276a5.157 5.157 0 01-2.612-4.486V66.8a36.279 36.279 0 0013.75-5.81 36.279 36.279 0 0013.75 5.81v15.76z" fill="#fff"/><path d="M76.121 78.285l-2.43 2.43 5.156 5.156a1.719 1.719 0 002.43 0l13.75-13.75-2.43-2.43-12.534 12.535-3.942-3.941z" fill="#fff"/><path d="M42.25 5.594a5.157 5.157 0 100 10.313 5.157 5.157 0 000-10.313zm0 6.875a1.719 1.719 0 110-3.438 1.719 1.719 0 010 3.438zm-22.344 41.25h6.875v3.437h-6.875V53.72zm10.313 0H56v3.437H30.219V53.72zM19.906 64.031h6.875v3.438h-6.875V64.03zm0 10.313h6.875v3.437h-6.875v-3.437zm0 10.312h6.875v3.438h-6.875v-3.438z" stroke="#F8878E" stroke-width="2" mask="url(#a)"/><path d="M105.844 57.156h-1.719A25.975 25.975 0 0188.656 52l-4.125-3.094a1.702 1.702 0 00-2.062 0l-2.406 1.805V15.906a5.172 5.172 0 00-5.157-5.156h-14.06A5.174 5.174 0 0056 7.312h-4.022a10.313 10.313 0 00-19.456 0H28.5a5.174 5.174 0 00-4.847 3.438H9.593a5.172 5.172 0 00-5.155 5.156v82.5a5.172 5.172 0 005.156 5.156h65.312a5.186 5.186 0 004.04-1.976l3.815 1.805a1.676 1.676 0 001.478 0l15.09-7.168a15.398 15.398 0 008.234-13.664V58.875a1.72 1.72 0 00-1.719-1.719zM61.156 14.187h13.75a1.718 1.718 0 011.719 1.72v37.279a26.19 26.19 0 01-3.438 1.805V19.344a1.719 1.719 0 00-1.718-1.72H61.156v-3.437zM26.781 12.47a1.718 1.718 0 011.719-1.72h5.328a1.698 1.698 0 001.684-1.374 6.875 6.875 0 0113.475 0 1.698 1.698 0 001.685 1.375H56a1.718 1.718 0 011.719 1.719v6.875H26.78V12.47zm-1.718 10.31h34.374a1.719 1.719 0 001.72-1.719h8.593v35.132c-2.238.628-4.55.952-6.875.962h-1.719a1.719 1.719 0 00-1.718 1.719v5.156h-29.22v3.438h29.22v6.875h-29.22v3.437h29.22v4.778c.002.701.048 1.402.137 2.097H30.219v3.438h30.267a15.516 15.516 0 003.283 5.156H14.75V21.062h8.594a1.718 1.718 0 001.718 1.72zm49.843 77.344H9.594a1.719 1.719 0 01-1.719-1.719v-82.5a1.719 1.719 0 011.719-1.719h13.75v3.438H13.03a1.719 1.719 0 00-1.719 1.719v75.625a1.719 1.719 0 001.72 1.718H68.65l6.91 3.283a1.74 1.74 0 01-.654.155zm29.219-17.566a11.95 11.95 0 01-6.342 10.588L83.5 99.936l-14.248-6.772a11.988 11.988 0 01-6.377-10.605V60.594a29.39 29.39 0 0017.531-5.844l3.094-2.32 3.094 2.32a29.39 29.39 0 0017.531 5.844v21.965z" stroke="#F8878E" stroke-width="2" mask="url(#a)"/><path d="M52.563 33.094h-5.157v-5.157a1.718 1.718 0 00-1.718-1.718h-6.876a1.719 1.719 0 00-1.718 1.718v5.157h-5.157a1.719 1.719 0 00-1.718 1.718v6.876a1.718 1.718 0 001.718 1.718h5.157v5.157a1.718 1.718 0 001.718 1.718h6.876a1.719 1.719 0 001.718-1.718v-5.157h5.157a1.719 1.719 0 001.718-1.718v-6.876a1.718 1.718 0 00-1.718-1.718zm-1.72 6.875h-5.156a1.719 1.719 0 00-1.718 1.718v5.157H40.53v-5.157a1.718 1.718 0 00-1.718-1.718h-5.157V36.53h5.157a1.719 1.719 0 001.718-1.718v-5.157h3.438v5.157a1.718 1.718 0 001.718 1.718h5.157v3.438zm48.384 23.684A32.73 32.73 0 0184.53 57.5a1.7 1.7 0 00-2.062 0 32.73 32.73 0 01-14.696 6.153 1.732 1.732 0 00-1.46 1.702v17.204a8.584 8.584 0 004.434 7.511l.103.052 11.91 5.654a1.676 1.676 0 001.48 0l12.013-5.706a8.605 8.605 0 004.435-7.51V65.354a1.735 1.735 0 00-1.461-1.702zM97.25 82.56a5.086 5.086 0 01-2.578 4.452L83.5 92.32l-11.138-5.276a5.157 5.157 0 01-2.612-4.486V66.8a36.279 36.279 0 0013.75-5.81 36.279 36.279 0 0013.75 5.81v15.76z" stroke="#F8878E" stroke-width="2" mask="url(#a)"/><path d="M76.121 78.285l-2.43 2.43 5.156 5.156a1.719 1.719 0 002.43 0l13.75-13.75-2.43-2.43-12.534 12.535-3.942-3.941z" stroke="#F8878E" stroke-width="2" mask="url(#a)"/></g><defs><filter id="filter0_d_858_489" x=".438" y=".422" width="111.125" height="111.14" filterUnits="userSpaceOnUse" color-interpolation-filters="sRGB"><feFlood flood-opacity="0" result="BackgroundImageFix"/><feColorMatrix in="SourceAlpha" values="0 0 0 0 0 0 0 0 0 0 0 0 0 0 0 0 0 0 127 0" result="hardAlpha"/><feOffset dy="4"/><feGaussianBlur stdDeviation="2"/><feComposite in2="hardAlpha" operator="out"/><feColorMatrix values="0 0 0 0 0.958333 0 0 0 0 0.359375 0 0 0 0 0.394906 0 0 0 0.4 0"/><feBlend in2="BackgroundImageFix" result="effect1_dropShadow_858_489"/><feBlend in="SourceGraphic" in2="effect1_dropShadow_858_489" result="shape"/></filter></defs></svg>