<svg width="75" height="75" fill="none" xmlns="http://www.w3.org/2000/svg"><g clip-path="url(#clip0_970_14528)"><path d="M28.75 54.862h17.5v16.413h-17.5V54.862z" fill="#AFBCCB"/><path d="M73.75 46.25v10a2.507 2.507 0 01-2.5 2.5H3.75a2.507 2.507 0 01-2.5-2.5v-10h72.5z" fill="#AFBCCB"/><path d="M70 46.25v10a2.507 2.507 0 01-2.5 2.5H3.75a2.507 2.507 0 01-2.5-2.5v-10H70z" fill="#C5D0DC"/><path d="M73.75 3.75v45H1.25v-45a2.507 2.507 0 012.5-2.5h67.5a2.488 2.488 0 012.5 2.5z" fill="#F0F6FC"/><path d="M70 3.75v45H1.25v-45a2.507 2.507 0 012.5-2.5H67.5a2.488 2.488 0 012.5 2.5z" fill="#F0F6FC"/><path d="M52.5 71.25v1.25c0 .69-.56 1.25-1.25 1.25h-27.5c-.69 0-1.25-.56-1.25-1.25v-1.25a5 5 0 015-5h20a5 5 0 015 5z" fill="#37474F"/><path d="M48.75 71.25v1.25c0 .69-.56 1.25-1.25 1.25H23.75c-.69 0-1.25-.56-1.25-1.25v-1.25a5 5 0 015-5h16.25a5 5 0 015 5z" fill="#C5D0DC"/><path d="M16.25 71.25v1.25c0 .69-.56 1.25-1.25 1.25H2.5c-.69 0-1.25-.56-1.25-1.25v-1.25a7.485 7.485 0 015.637-7.263c.2-.05.4-.087.613-.124a7.005 7.005 0 012.5 0 7.288 7.288 0 014.05 2.087 7.433 7.433 0 012.2 5.3z" fill="#F0F6FC"/><path d="M12.5 71.25v1.25c0 .69-.56 1.25-1.25 1.25H2.5c-.69 0-1.25-.56-1.25-1.25v-1.25a7.485 7.485 0 015.637-7.263A7.528 7.528 0 0112.5 71.25z" fill="#F0F6FC"/><path d="M52.562 22.8a50.316 50.316 0 01-2.75 5.025 15.943 15.943 0 00-1.887 5.663c-.025.25-.063.487-.088.737l-4.4 9.438a3.79 3.79 0 01-1.525-2.1 37.462 37.462 0 01-1.887-8.175c-.363-2.6-1.563-3.125-2.538-3.238-.45.035-.88.2-1.238.475a3.955 3.955 0 00-1.287 2.763c-.625 4.537-1.9 10.362-3.788 10.362a2.084 2.084 0 01-1.474-.6 7.281 7.281 0 01-1.55-3.313 40.37 40.37 0 01-1.075-6.35 15.942 15.942 0 00-1.888-5.662 47.873 47.873 0 01-2.762-5.025c-1.6-4.088-1.975-9.55 1.437-12.813a9.165 9.165 0 015.388-2.412 10.918 10.918 0 017 1.563 8.32 8.32 0 011.25.937 10.162 10.162 0 015.75-2.5c.419-.05.84-.075 1.262-.075a9.485 9.485 0 016.625 2.487c3.4 3.263 3.025 8.725 1.425 12.813z" fill="#CFD8DC"/><path d="M49.18 22.8a50.195 50.195 0 01-2.75 5.025 15.953 15.953 0 00-1.888 5.663c-.025.25-.063.487-.088.737l-3.425 7.338a37.463 37.463 0 01-1.887-8.175c-.363-2.6-1.563-3.125-2.537-3.238a10.668 10.668 0 00-1.788-.062 4.856 4.856 0 00-1.2.162 2.32 2.32 0 00-1.25.9 4.962 4.962 0 00-.787 2.238c-.5 3.662-1.426 8.162-2.763 9.762a7.286 7.286 0 01-1.55-3.313 40.368 40.368 0 01-1.075-6.35 15.95 15.95 0 00-1.887-5.662 47.768 47.768 0 01-2.763-5.025c-1.6-4.088-1.975-9.55 1.437-12.813a9.167 9.167 0 015.388-2.412c2.137.237 4.212-1.412 5.75 0 .387-.35.8 1.825 1.25 1.563a8.32 8.32 0 011.25.937 10.166 10.166 0 015.75-2.5 9.164 9.164 0 015.385 2.412c3.402 3.263 3.027 8.725 1.427 12.813z" fill="#F5F5F5"/><path d="M65.56 56.562l1.263 2.188 6.613 11.45a2.366 2.366 0 11-4.1 2.362L61.46 58.925l1.115-3.04 2.985.677z" fill="#D563D9"/><path d="M65.837 56.4l-.275.162-3.788 2.188-.312.175-.275.163a1.225 1.225 0 01-.613.162h-.012a1.232 1.232 0 01-1-.5.67.67 0 01-.088-.113l-2.087-3.6 4.425-2.55 2.412-1.387 2.075 3.587c.34.602.134 1.365-.463 1.713z" fill="#F1C5F2"/><path d="M63.337 57.65l-.275.163-2.488 1.437h-.012a1.232 1.232 0 01-1-.5.67.67 0 01-.088-.113l-2.087-3.6 4.425-2.55 1.987 3.45c.34.602.134 1.365-.462 1.713z" fill="#F1C5F2"/><path d="M61.151 53.65a11.86 11.86 0 01-13.6-1.262 11.376 11.376 0 01-2.387-2.825c-.05-.075-.1-.15-.15-.238-3.262-5.65-1.325-12.876 4.325-16.138a11.233 11.233 0 014.05-1.424 11.76 11.76 0 019.775 2.887 11.41 11.41 0 012.312 2.863c3.262 5.65 1.326 12.875-4.325 16.137z" fill="#F0F6FC"/><path d="M57.401 53.65a11.703 11.703 0 01-4.024 1.425 11.78 11.78 0 01-5.826-2.687 11.375 11.375 0 01-2.387-2.825c-.05-.075-.1-.15-.15-.238-3.262-5.65-1.325-12.876 4.325-16.138a11.233 11.233 0 014.05-1.424 11.753 11.753 0 016.025 2.887 11.41 11.41 0 012.312 2.863c3.262 5.65 1.326 12.875-4.325 16.137z" fill="#F0F6FC"/><path d="M55.263 56.482a13.062 13.062 0 01-4.493-25.335 13.062 13.062 0 0115.786 5.742 13.059 13.059 0 01-11.293 19.593zm-.039-23.624a10.561 10.561 0 00-5.252 19.714 10.562 10.562 0 0014.419-14.435 10.5 10.5 0 00-9.167-5.278v-.001z" fill="#606060"/><path d="M73.75 50h-7.975a1.25 1.25 0 010-2.5H72.5V3.75c0-.69-.56-1.25-1.25-1.25H3.75c-.69 0-1.25.56-1.25 1.25V47.5h42.2a1.25 1.25 0 010 2.5H1.25C.56 50 0 49.44 0 48.75v-45A3.75 3.75 0 013.75 0h67.5A3.75 3.75 0 0175 3.75v45c0 .69-.56 1.25-1.25 1.25z" fill="#3F446C"/><path d="M71.248 60h-4.425a1.25 1.25 0 010-2.5h4.425c.69 0 1.25-.56 1.25-1.25V50h-6.725a1.25 1.25 0 010-2.5h7.975c.69 0 1.25.56 1.25 1.25v7.5a3.75 3.75 0 01-3.75 3.75zm-11.685 0H3.75A3.75 3.75 0 010 56.25v-7.5c0-.69.56-1.25 1.25-1.25H44.7a1.25 1.25 0 010 2.5H2.5v6.25c0 .69.56 1.25 1.25 1.25h55.813a1.25 1.25 0 010 2.5z" fill="#3F446C"/><path d="M46.25 67.5h-17.5c-.69 0-1.25-.56-1.25-1.25v-7.5c0-.69.56-1.25 1.25-1.25h17.5c.69 0 1.25.56 1.25 1.25v7.5c0 .69-.56 1.25-1.25 1.25zM30 65h15v-5H30v5z" fill="#3F446C"/><path d="M52.5 75h-30c-.69 0-1.25-.56-1.25-1.25v-2.5A6.257 6.257 0 0127.5 65h20a6.257 6.257 0 016.25 6.25v2.5A1.25 1.25 0 0152.5 75zm-28.75-2.5h27.5v-1.25a3.75 3.75 0 00-3.75-3.75h-20a3.75 3.75 0 00-3.75 3.75v1.25zM40 55h-5a1.25 1.25 0 110-2.5h5a1.25 1.25 0 110 2.5zM15 75H2.5A2.5 2.5 0 010 72.5v-1.25a8.75 8.75 0 018.75-8.75 8.75 8.75 0 018.75 8.75v1.25A2.5 2.5 0 0115 75zM8.75 65a6.257 6.257 0 00-6.25 6.25v1.25H15v-1.25A6.257 6.257 0 008.75 65z" fill="#3F446C"/><path d="M8.75 68.75c-.69 0-1.25-.56-1.25-1.25v-3.75a1.25 1.25 0 012.5 0v3.75c0 .69-.56 1.25-1.25 1.25zM31.171 45c-2.929 0-3.81-3.271-4.232-4.844a41.21 41.21 0 01-1.11-6.533 14.5 14.5 0 00-1.75-5.21c-.318-.595-.664-1.166-1.009-1.736a22.411 22.411 0 01-1.808-3.427c-1.725-4.399-2.175-10.433 1.73-14.174C26.96 5.272 34.13 5.305 38.34 9.15a1.252 1.252 0 01-.463 2.117A1.252 1.252 0 0136.654 11c-3.233-2.951-8.92-3-11.931-.115-3.013 2.885-2.5 7.978-1.133 11.455.453 1.06.997 2.08 1.625 3.048a33.59 33.59 0 011.075 1.853 16.944 16.944 0 012.027 6.104c.182 2.076.53 4.135 1.038 6.156.393 1.46.886 3 1.82 3 .3-.196 1.582-2.293 2.558-9.286.463-3.279 2.227-4.153 3.625-4.307a1.25 1.25 0 11.276 2.484c-.376.041-1.137.126-1.427 2.172C34.61 45 32.11 45 31.171 45z" fill="#3F446C"/><path d="M47.839 35.475h-.125a1.25 1.25 0 01-1.125-1.369l.088-.737a17.023 17.023 0 012.027-6.125 35.59 35.59 0 011.088-1.875 19.95 19.95 0 001.602-3.015c1.427-3.645 1.881-8.568-1.125-11.454-3.006-2.886-8.693-2.854-11.926.1a1.25 1.25 0 01-1.685-1.848c4.217-3.846 11.383-3.876 15.343-.064 3.895 3.737 3.442 9.77 1.72 14.168a22.277 22.277 0 01-1.79 3.397c-.35.577-.7 1.154-1.018 1.757a14.597 14.597 0 00-1.75 5.217l-.085.722a1.25 1.25 0 01-1.24 1.126zm-4.425 9.435a1.211 1.211 0 01-.462-.095c-.684-.289-2.762-1.167-4.164-11.25-.284-2.034-1.031-2.125-1.432-2.169a1.25 1.25 0 11.29-2.483c1.398.163 3.162 1.043 3.617 4.307.974 6.99 2.25 9.083 2.666 9.299.604.312.864 1.038.594 1.662a1.24 1.24 0 01-1.109.73z" fill="#3F446C"/><path d="M42.607 18.038a1.25 1.25 0 01-1.2-.9c-.915-3.124-4.64-6.045-4.677-6.074a1.25 1.25 0 111.533-1.976c.179.138 4.398 3.443 5.544 7.346a1.25 1.25 0 01-1.2 1.604zm-17.567.927a1.25 1.25 0 01-1.221-.991 6.688 6.688 0 013.183-7.238 1.25 1.25 0 011.205 2.19 4.209 4.209 0 00-1.937 4.53 1.25 1.25 0 01-1.23 1.51zM6.25 8.75C5.56 8.75 5 8.19 5 7.5V6.25a1.25 1.25 0 112.5 0V7.5c0 .69-.56 1.25-1.25 1.25zm0 12.5C5.56 21.25 5 20.69 5 20v-7.5a1.25 1.25 0 012.5 0V20c0 .69-.56 1.25-1.25 1.25zm49.013 35.232a13.062 13.062 0 01-4.493-25.335 13.062 13.062 0 0115.786 5.742 13.059 13.059 0 01-11.293 19.593zm-.039-23.624a10.561 10.561 0 00-5.252 19.714 10.562 10.562 0 0014.419-14.435 10.5 10.5 0 00-9.167-5.278v-.001zM71.392 75c-.32 0-.638-.042-.946-.125a3.589 3.589 0 01-2.196-1.692L60.375 59.55a1.251 1.251 0 011.08-1.882c.45.001.863.242 1.085.632l7.875 13.638a1.108 1.108 0 001.516.417c.538-.31.725-.996.416-1.535l-7.875-13.633a1.249 1.249 0 112.165-1.25l7.875 13.638a3.642 3.642 0 01-1.329 4.943 3.58 3.58 0 01-1.791.482z" fill="#3F446C"/><path d="M60.556 60.506a2.47 2.47 0 01-1.956-.956 2.153 2.153 0 01-.16-.211l-2.133-3.675a1.25 1.25 0 012.162-1.25l2.088 3.601.607-.351 4.037-2.336-2.058-3.603a1.25 1.25 0 012.165-1.25l2.075 3.589a2.53 2.53 0 01-.915 3.417l-4.644 2.684a2.533 2.533 0 01-1.268.341zM48.749 46.25a1.25 1.25 0 01-1.232-1.044 8.054 8.054 0 013.154-8.405 10.717 10.717 0 014.125-1.783 1.25 1.25 0 01.416 2.464c-.641.112-6.234 1.265-5.227 7.312a1.25 1.25 0 01-1.236 1.456z" fill="#3F446C"/></g><defs><clipPath id="clip0_970_14528"><path fill="#fff" d="M0 0h75v75H0z"/></clipPath></defs></svg>