<svg width="75" height="75" fill="none" xmlns="http://www.w3.org/2000/svg"><g clip-path="url(#clip0_970_14570)"><path d="M58.85 7.5A6.969 6.969 0 0062.5 15H4.613A7.5 7.5 0 018.75 1.25h57.5a7.459 7.459 0 00-7.4 6.25z" fill="#F7F8F9"/><path d="M58.85 7.5a7.459 7.459 0 017.4-6.25H62.5a7.459 7.459 0 00-7.4 6.25 6.969 6.969 0 003.65 7.5h3.75a6.969 6.969 0 01-3.65-7.5z" fill="#E6E7EC"/><path d="M73.75 8.75v40a2.507 2.507 0 01-2.5 2.5H62.5V15a6.969 6.969 0 01-3.65-7.5 7.5 7.5 0 0114.9 1.25z" fill="#C5D0DC"/><path d="M66.251 1.25a7.524 7.524 0 00-1.849.25 7.5 7.5 0 015.6 7.25v40a2.507 2.507 0 01-2.5 2.5h3.75a2.507 2.507 0 002.5-2.5v-40a7.5 7.5 0 00-7.5-7.5z" fill="#AFBCCB"/><path d="M62.5 15v56.25a2.507 2.507 0 01-2.5 2.5H7.5a2.507 2.507 0 01-2.5-2.5V15h57.5z" fill="#F0F6FC"/><path d="M58.75 15v56.25a2.507 2.507 0 01-2.5 2.5H60a2.507 2.507 0 002.5-2.5V15h-3.75z" fill="#C8C9CE"/><path d="M30 22.5h-5c-.69 0-1.25.56-1.25 1.25v5c0 .69.56 1.25 1.25 1.25h5c.69 0 1.25-.56 1.25-1.25v-5c0-.69-.56-1.25-1.25-1.25zm12.5 0h-5c-.69 0-1.25.56-1.25 1.25v5c0 .69.56 1.25 1.25 1.25h5c.69 0 1.25-.56 1.25-1.25v-5c0-.69-.56-1.25-1.25-1.25zm12.5 0h-5c-.69 0-1.25.56-1.25 1.25v5c0 .69.56 1.25 1.25 1.25h5c.69 0 1.25-.56 1.25-1.25v-5c0-.69-.56-1.25-1.25-1.25zM17.5 35h-5c-.69 0-1.25.56-1.25 1.25v5c0 .69.56 1.25 1.25 1.25h5c.69 0 1.25-.56 1.25-1.25v-5c0-.69-.56-1.25-1.25-1.25zM30 35h-5c-.69 0-1.25.56-1.25 1.25v5c0 .69.56 1.25 1.25 1.25h5c.69 0 1.25-.56 1.25-1.25v-5c0-.69-.56-1.25-1.25-1.25zm12.5 0h-5c-.69 0-1.25.56-1.25 1.25v5c0 .69.56 1.25 1.25 1.25h5c.69 0 1.25-.56 1.25-1.25v-5c0-.69-.56-1.25-1.25-1.25zM55 35h-5c-.69 0-1.25.56-1.25 1.25v5c0 .69.56 1.25 1.25 1.25h5c.69 0 1.25-.56 1.25-1.25v-5c0-.69-.56-1.25-1.25-1.25zM17.5 47.5h-5c-.69 0-1.25.56-1.25 1.25v5c0 .69.56 1.25 1.25 1.25h5c.69 0 1.25-.56 1.25-1.25v-5c0-.69-.56-1.25-1.25-1.25zm12.5 0h-5c-.69 0-1.25.56-1.25 1.25v5c0 .69.56 1.25 1.25 1.25h5c.69 0 1.25-.56 1.25-1.25v-5c0-.69-.56-1.25-1.25-1.25zm12.5 0h-5c-.69 0-1.25.56-1.25 1.25v5c0 .69.56 1.25 1.25 1.25h5c.69 0 1.25-.56 1.25-1.25v-5c0-.69-.56-1.25-1.25-1.25zm12.5 0h-5c-.69 0-1.25.56-1.25 1.25v5c0 .69.56 1.25 1.25 1.25h5c.69 0 1.25-.56 1.25-1.25v-5c0-.69-.56-1.25-1.25-1.25zM17.5 60h-5c-.69 0-1.25.56-1.25 1.25v5c0 .69.56 1.25 1.25 1.25h5c.69 0 1.25-.56 1.25-1.25v-5c0-.69-.56-1.25-1.25-1.25zM30 60h-5c-.69 0-1.25.56-1.25 1.25v5c0 .69.56 1.25 1.25 1.25h5c.69 0 1.25-.56 1.25-1.25v-5c0-.69-.56-1.25-1.25-1.25zm12.5 0h-5c-.69 0-1.25.56-1.25 1.25v5c0 .69.56 1.25 1.25 1.25h5c.69 0 1.25-.56 1.25-1.25v-5c0-.69-.56-1.25-1.25-1.25z" fill="#F1C5F2"/><path d="M71.709 1.915A8.706 8.706 0 0066.274 0H8.75a8.737 8.737 0 00-5 15.911V71.25A3.75 3.75 0 007.5 75H60a3.75 3.75 0 003.75-3.75V52.5h7.5A3.75 3.75 0 0075 48.75v-40a8.713 8.713 0 00-3.291-6.835zM8.75 2.5h51.375a8.617 8.617 0 00-2.512 4.811 8.487 8.487 0 001.535 6.439H5.026A6.238 6.238 0 018.75 2.5zm52.5 68.75c0 .69-.56 1.25-1.25 1.25H7.5c-.69 0-1.25-.56-1.25-1.25v-55h55v55zm11.25-22.5c0 .69-.56 1.25-1.25 1.25h-7.5V15a1.24 1.24 0 00-.684-1.099v-.012a5.729 5.729 0 01-2.99-6.193A6.25 6.25 0 0172.5 8.75v40z" fill="#3F446C"/><path d="M25 31.25h5a2.5 2.5 0 002.5-2.5v-5a2.5 2.5 0 00-2.5-2.5h-5a2.5 2.5 0 00-2.5 2.5v5a2.5 2.5 0 002.5 2.5zm0-7.5h5v5h-5v-5zm12.5 7.5h5a2.5 2.5 0 002.5-2.5v-5a2.5 2.5 0 00-2.5-2.5h-5a2.5 2.5 0 00-2.5 2.5v5a2.5 2.5 0 002.5 2.5zm0-7.5h5v5h-5v-5zm12.5 7.5h5a2.5 2.5 0 002.5-2.5v-5a2.5 2.5 0 00-2.5-2.5h-5a2.5 2.5 0 00-2.5 2.5v5a2.5 2.5 0 002.5 2.5zm0-7.5h5v5h-5v-5zm-37.5 20h5a2.5 2.5 0 002.5-2.5v-5a2.5 2.5 0 00-2.5-2.5h-5a2.5 2.5 0 00-2.5 2.5v5a2.5 2.5 0 002.5 2.5zm0-7.5h5v5h-5v-5zm12.5 7.5h5a2.5 2.5 0 002.5-2.5v-5a2.5 2.5 0 00-2.5-2.5h-5a2.5 2.5 0 00-2.5 2.5v5a2.5 2.5 0 002.5 2.5zm0-7.5h5v5h-5v-5zm12.5 7.5h5a2.5 2.5 0 002.5-2.5v-5a2.5 2.5 0 00-2.5-2.5h-5a2.5 2.5 0 00-2.5 2.5v5a2.5 2.5 0 002.5 2.5zm0-7.5h5v5h-5v-5zm12.5 7.5h5a2.5 2.5 0 002.5-2.5v-5a2.5 2.5 0 00-2.5-2.5h-5a2.5 2.5 0 00-2.5 2.5v5a2.5 2.5 0 002.5 2.5zm0-7.5h5v5h-5v-5zm-37.5 20h5a2.5 2.5 0 002.5-2.5v-5a2.5 2.5 0 00-2.5-2.5h-5a2.5 2.5 0 00-2.5 2.5v5a2.5 2.5 0 002.5 2.5zm0-7.5h5v5h-5v-5zm12.5 7.5h5a2.5 2.5 0 002.5-2.5v-5a2.5 2.5 0 00-2.5-2.5h-5a2.5 2.5 0 00-2.5 2.5v5a2.5 2.5 0 002.5 2.5zm0-7.5h5v5h-5v-5zm12.5 7.5h5a2.5 2.5 0 002.5-2.5v-5a2.5 2.5 0 00-2.5-2.5h-5a2.5 2.5 0 00-2.5 2.5v5a2.5 2.5 0 002.5 2.5zm0-7.5h5v5h-5v-5zm12.5 7.5h5a2.5 2.5 0 002.5-2.5v-5a2.5 2.5 0 00-2.5-2.5h-5a2.5 2.5 0 00-2.5 2.5v5a2.5 2.5 0 002.5 2.5zm0-7.5h5v5h-5v-5zm-37.5 20h5a2.5 2.5 0 002.5-2.5v-5a2.5 2.5 0 00-2.5-2.5h-5a2.5 2.5 0 00-2.5 2.5v5a2.5 2.5 0 002.5 2.5zm0-7.5h5v5h-5v-5zm12.5 7.5h5a2.5 2.5 0 002.5-2.5v-5a2.5 2.5 0 00-2.5-2.5h-5a2.5 2.5 0 00-2.5 2.5v5a2.5 2.5 0 002.5 2.5zm0-7.5h5v5h-5v-5zm12.5 7.5h5a2.5 2.5 0 002.5-2.5v-5a2.5 2.5 0 00-2.5-2.5h-5a2.5 2.5 0 00-2.5 2.5v5a2.5 2.5 0 002.5 2.5zm0-7.5h5v5h-5v-5zM8.75 8.75H52.5a1.25 1.25 0 000-2.5H8.75a1.25 1.25 0 100 2.5z" fill="#3F446C"/></g><defs><clipPath id="clip0_970_14570"><path fill="#fff" d="M0 0h75v75H0z"/></clipPath></defs></svg>