<svg width="80" height="80" fill="none" xmlns="http://www.w3.org/2000/svg"><g clip-path="url(#clip0_970_14503)"><path d="M65.335 26v5.333H14.668V26a2.675 2.675 0 012.667-2.667h45.333A2.675 2.675 0 0165.335 26z" fill="#F0F6FC"/><path d="M62.668 23.333h-4A2.675 2.675 0 0161.335 26v5.333h4V26a2.675 2.675 0 00-2.667-2.667z" fill="#fff"/><path d="M65.335 31.333v.774a21.697 21.697 0 01-4.427 12.946c-2.56 3.4-5.573 9.134-7.16 18.28h-10.04a10.4 10.4 0 00-1.093-7.8 8.6 8.6 0 00-1.12-1.4c-3.734-3.693-10.4-3.2-15.72.88a15.55 15.55 0 00-7.24-10.466 23.326 23.326 0 01-3.867-12.44v-.774h50.667z" fill="#F0F6FC"/><path d="M61.333 31.333v.774a21.697 21.697 0 01-4.427 12.946c-2.56 3.4-5.573 9.134-7.16 18.28h4c1.587-9.146 4.6-14.88 7.16-18.28a21.697 21.697 0 004.427-12.946v-.774h-4z" fill="#C5D0DC"/><path d="M69.332 65.933v.147a2.612 2.612 0 01-.973 2.04l-4.973 3.973a2.603 2.603 0 01-1.627.574h-23.88c.373-.32.733-.654 1.093-1.014a16.983 16.983 0 004.734-8.32h23.026a2.595 2.595 0 012.6 2.6z" fill="#F0F6FC"/><path d="M66.735 63.333h-4a2.595 2.595 0 012.6 2.6v.147a2.612 2.612 0 01-.973 2.04l-4.974 3.973a2.603 2.603 0 01-1.626.574h4a2.6 2.6 0 001.626-.574l4.974-3.973a2.612 2.612 0 00.973-2.04v-.147a2.595 2.595 0 00-2.6-2.6z" fill="#fff"/><path d="M43.706 63.333a16.982 16.982 0 01-4.733 8.32c-.36.36-.72.694-1.093 1.014-5.427 4.64-12.574 5.36-16.467 1.493a2.16 2.16 0 01-.24-.267 7.826 7.826 0 01-.88-1.133c3.293-3.12 5.773-.747 9.067-4.027 3.346-3.333.84-5.84 4.186-9.173 3.28-3.28 5.774-.907 9.054-4.027h.013a10.4 10.4 0 011.093 7.8z" fill="#D563D9"/><path d="M42.614 55.533H42.6c-3.28 3.12-5.773.747-9.053 4.027-3.346 3.333-.84 5.84-4.186 9.173-3.294 3.28-5.774.907-9.067 4.027-2.76-4.36-1.347-11.173 3.64-16.12a19.143 19.143 0 011.84-1.627c5.32-4.08 11.986-4.573 15.72-.88a8.6 8.6 0 011.12 1.4z" fill="#F1C5F2"/><path d="M23.935 56.64c-4.987 4.947-6.4 11.76-3.64 16.12.258.404.553.783.88 1.133a12.812 12.812 0 01-5.227 2.547v-.013c-.133-5.334-4.186-5.414-4.186-10.867 0-5.56 4.186-5.56 4.186-11.12 0-5.453-4.053-5.533-4.186-10.867a9.983 9.983 0 012.093-.24 9.712 9.712 0 014.68 1.214 15.55 15.55 0 017.24 10.466 19.12 19.12 0 00-1.84 1.627z" fill="#D563D9"/><path d="M11.759 65.56c0 5.453 4.053 5.533 4.186 10.867v.013C8.092 78.107 1.32 70.107 1.332 60 1.32 51.76 5.84 44.893 11.76 43.573c.133 5.334 4.186 5.414 4.186 10.867 0 5.56-4.186 5.56-4.186 11.12z" fill="#F1C5F2"/><path d="M13.332 26v6.107c.007 2.16.327 4.309.948 6.378a1.334 1.334 0 002.557-.757 19.886 19.886 0 01-.817-5.067h6.645a1.333 1.333 0 000-2.666H16V26c0-.736.597-1.333 1.333-1.333h45.333c.737 0 1.334.597 1.334 1.333v4H30.665a1.333 1.333 0 100 2.667h33.31A20.328 20.328 0 0159.84 44.25c-2.357 3.13-5.466 8.725-7.2 17.749h-3.52a1.333 1.333 0 000 2.667h17.613c.7 0 1.266.567 1.267 1.266v.147c.002.387-.172.754-.472.999l-4.972 3.973c-.227.182-.51.28-.8.281H45.119a1.333 1.333 0 000 2.667h16.64a3.96 3.96 0 002.458-.864l4.982-3.977a3.932 3.932 0 001.466-3.079v-.147A3.937 3.937 0 0066.732 62H55.365c1.31-3.685 4.211-8 10.634-8 11.524 0 13.717-11.49 13.926-12.787a5.045 5.045 0 00-4.98-5.88h-8.533a21.91 21.91 0 00.253-3.226V26a4 4 0 00-4-4H17.332a4 4 0 00-4 4zm61.613 12a2.383 2.383 0 011.83.852c.45.531.64 1.235.521 1.921-.285 1.76-2.173 10.56-11.297 10.56a12.987 12.987 0 00-8.431 2.8 33.136 33.136 0 014.407-8.285A23.753 23.753 0 0065.844 38h9.101z" fill="#3F446C"/><path d="M42.432 53.188c-4.684-4.652-13.409-3.525-19.444 2.512a17.302 17.302 0 00-5.418 11.935 9.883 9.883 0 0010.346 10.338 17.432 17.432 0 0012-5.381 17.294 17.294 0 005.418-11.933 10.267 10.267 0 00-2.902-7.471zm-17.561 4.4a14.827 14.827 0 0110.1-4.63 7.734 7.734 0 015.579 2.12c.07.07.12.158.188.233-.855.49-1.81.78-2.792.846a8.503 8.503 0 00-7.814 7.8 5.867 5.867 0 01-5.552 5.539 8.943 8.943 0 00-3.818 1.22 8.68 8.68 0 01-.526-3.077 14.84 14.84 0 014.635-10.051zm13.163 13.113c-5.002 5.003-12.035 6.134-15.679 2.514-.07-.072-.12-.16-.188-.235a6.48 6.48 0 012.792-.845 8.503 8.503 0 007.815-7.8 5.867 5.867 0 015.549-5.535 8.971 8.971 0 003.819-1.22c.358.985.536 2.026.525 3.075A14.83 14.83 0 0138.034 70.7z" fill="#3F446C"/><path d="M13.857 78c.809.004 1.614-.089 2.4-.277a1.334 1.334 0 001.02-1.334 9.509 9.509 0 00-2.36-6.101 6.83 6.83 0 01-1.816-4.736A6.942 6.942 0 0114.92 60.8a9.741 9.741 0 000-12.699 7.517 7.517 0 01-1.716-3.406 7.59 7.59 0 01.65-.028c3.546.012 6.8 2.249 8.933 6.133a1.333 1.333 0 102.338-1.28c-2.574-4.699-6.786-7.51-11.27-7.525-.803 0-1.604.09-2.387.266C4.811 43.76-.013 51.217 0 60c-.013 9.91 6.201 17.985 13.857 18zm-3.242-32.667a10.077 10.077 0 002.185 4.371 6.83 6.83 0 011.816 4.736 6.933 6.933 0 01-1.828 4.76 9.747 9.747 0 000 12.699 7.489 7.489 0 011.716 3.412c-.208.017-.42.025-.639.025C7.676 75.321 2.656 68.444 2.667 60c-.011-6.745 3.318-12.73 7.948-14.667zm20.482-30.761A4.367 4.367 0 0029.332 18a1.333 1.333 0 002.667 0c0-.612.266-.875.901-1.467a4.37 4.37 0 001.765-3.425A4.367 4.367 0 0032.9 9.68c-.635-.588-.901-.85-.901-1.463 0-.612.266-.872.901-1.466a4.362 4.362 0 001.765-3.418 1.333 1.333 0 00-2.666 0c0 .61-.267.871-.9 1.459a4.359 4.359 0 00-1.767 3.425 4.364 4.364 0 001.765 3.428c.642.588.902.851.902 1.467 0 .616-.26.872-.902 1.46zm8 0A4.367 4.367 0 0037.332 18a1.333 1.333 0 002.667 0c0-.612.266-.875.901-1.467a4.37 4.37 0 001.765-3.425A4.367 4.367 0 0040.9 9.68c-.635-.588-.901-.85-.901-1.463 0-.612.266-.872.901-1.466a4.362 4.362 0 001.765-3.418 1.333 1.333 0 00-2.666 0c0 .61-.267.871-.9 1.459a4.359 4.359 0 00-1.767 3.425 4.364 4.364 0 001.765 3.428c.642.588.902.851.902 1.467 0 .616-.26.872-.902 1.46zm8 0A4.367 4.367 0 0045.332 18a1.333 1.333 0 002.667 0c0-.612.266-.875.901-1.467a4.37 4.37 0 001.765-3.425A4.367 4.367 0 0048.9 9.68c-.635-.588-.901-.85-.901-1.463 0-.612.266-.872.901-1.466a4.362 4.362 0 001.765-3.418 1.333 1.333 0 00-2.666 0c0 .61-.267.871-.9 1.459a4.359 4.359 0 00-1.767 3.425 4.364 4.364 0 001.765 3.428c.642.588.902.851.902 1.467 0 .616-.26.872-.902 1.46z" fill="#3F446C"/></g><defs><clipPath id="clip0_970_14503"><path fill="#fff" d="M0 0h80v80H0z"/></clipPath></defs></svg>