<svg width="120" height="120" fill="none" xmlns="http://www.w3.org/2000/svg"><g filter="url(#filter0_d_858_538)" clip-path="url(#clip0_858_538)"><path d="M42.11 115.764c12.639 0 22.922-10.273 22.922-22.9 0-12.107-20.608-42.289-21.485-43.567-.65-.952-2.227-.945-2.876 0-.876 1.279-21.462 31.462-21.462 43.567 0 12.627 10.273 22.9 22.9 22.9zm0-62.362c6.524 9.813 19.435 30.983 19.435 39.462 0 10.705-8.719 19.414-19.436 19.414-10.704 0-19.414-8.709-19.414-19.414 0-8.475 12.897-29.647 19.415-39.462zM82.937 76.27c9.844 0 17.854-8.002 17.854-17.84 0-9.177-14.736-30.927-16.417-33.377-.65-.95-2.227-.946-2.875 0-1.679 2.45-16.4 24.2-16.4 33.378 0 9.837 8.001 17.839 17.838 17.839zm0-47.103c5.037 7.637 14.367 23.063 14.367 29.264 0 7.913-6.445 14.352-14.367 14.352-7.913 0-14.352-6.439-14.352-14.352 0-6.2 9.32-21.627 14.353-29.264z" fill="#fff"/><path d="M42.108 104.618c6.494 0 11.777-5.259 11.777-11.724a1.743 1.743 0 10-3.487 0c0 4.543-3.718 8.237-8.29 8.237a1.743 1.743 0 100 3.487zm40.829-39.496c3.594 0 6.602-2.915 6.705-6.497a1.744 1.744 0 00-1.692-1.793c-.972-.006-1.766.73-1.793 1.694-.05 1.715-1.494 3.11-3.22 3.11a1.743 1.743 0 100 3.486zM54.853 4.947c-.65-.95-2.227-.946-2.875 0C50.79 6.68 40.377 22.07 40.377 28.667c0 7.19 5.849 13.037 13.038 13.037 7.197 0 13.05-5.848 13.05-13.038.001-6.599-10.424-21.986-11.612-23.719zm-1.438 33.27c-5.266 0-9.551-4.285-9.551-9.55 0-4.063 5.976-14.094 9.552-19.592 3.582 5.496 9.563 15.527 9.563 19.591 0 5.266-4.29 9.551-9.563 9.551z" fill="#fff"/><path d="M43.134 49.58h0c.436.635 5.798 8.487 11.05 17.688 2.626 4.6 5.219 9.53 7.154 14.057 1.943 4.546 3.194 8.621 3.194 11.539 0 12.351-10.059 22.4-22.423 22.4-12.351 0-22.4-10.049-22.4-22.4 0-2.917 1.25-6.993 3.19-11.538 1.933-4.527 4.523-9.457 7.147-14.058 5.246-9.201 10.602-17.053 11.038-17.688.214-.313.601-.494 1.025-.494.424 0 .81.179 1.025.493zm-.608 3.545l-.416-.627-.416.627c-3.265 4.916-8.128 12.677-12.177 20.275-2.024 3.799-3.85 7.565-5.17 10.92-1.314 3.339-2.152 6.326-2.152 8.544 0 10.982 8.934 19.914 19.914 19.914 10.993 0 19.936-8.932 19.936-19.914 0-2.22-.838-5.206-2.154-8.546-1.322-3.355-3.15-7.121-5.176-10.92-4.053-7.598-8.921-15.358-12.189-20.273zm41.436-27.789h0c.837 1.22 4.932 7.257 8.815 14.13 1.942 3.436 3.826 7.072 5.224 10.415 1.403 3.359 2.29 6.36 2.29 8.55 0 9.56-7.785 17.339-17.354 17.339-9.56 0-17.338-7.778-17.338-17.34 0-2.188.885-5.19 2.287-8.55 1.396-3.342 3.279-6.978 5.219-10.415 3.88-6.872 7.97-12.909 8.806-14.129h0c.214-.313.6-.493 1.025-.494.423 0 .81.18 1.026.494zm-.607 3.556l-.418-.634-.417.634c-2.521 3.826-6.118 9.607-9.087 15.212-1.485 2.802-2.816 5.569-3.778 8.03-.957 2.448-1.57 4.648-1.57 6.297 0 8.19 6.662 14.852 14.852 14.852 8.198 0 14.867-6.662 14.867-14.852 0-1.65-.614-3.85-1.57-6.297-.964-2.462-2.297-5.228-3.783-8.03-2.971-5.606-6.572-11.386-9.096-15.212zm-42.49 73.983v-.001c0-.687.557-1.243 1.244-1.243 4.844 0 8.789-3.915 8.789-8.737a1.243 1.243 0 112.486 0c0 6.187-5.056 11.224-11.276 11.224a1.242 1.242 0 01-1.243-1.243zm48.277-44.264h0c-.095 3.31-2.88 6.01-6.205 6.01a1.243 1.243 0 110-2.486c1.994 0 3.663-1.606 3.72-3.594h0c.019-.678.574-1.21 1.284-1.209a1.244 1.244 0 011.201 1.279zM54.441 5.23h0a145.29 145.29 0 016.229 9.997c1.372 2.436 2.702 5.013 3.687 7.385.991 2.387 1.609 4.51 1.609 6.054 0 6.914-5.63 12.538-12.55 12.538-6.914 0-12.54-5.624-12.54-12.538 0-1.544.618-3.666 1.608-6.054.984-2.371 2.313-4.949 3.684-7.384A145.24 145.24 0 0152.39 5.23c.215-.313.601-.494 1.025-.494.424 0 .81.18 1.026.494zm-.606 3.572l-.42-.643-.418.644c-1.793 2.756-4.19 6.652-6.141 10.374-.976 1.86-1.844 3.685-2.47 5.308-.62 1.607-1.022 3.068-1.022 4.181 0 5.542 4.509 10.051 10.052 10.051 5.549 0 10.063-4.508 10.063-10.05 0-1.114-.403-2.576-1.024-4.184-.626-1.622-1.495-3.447-2.472-5.308-1.953-3.721-4.352-7.617-6.148-10.373z" stroke="#FCA059"/></g><defs><clipPath id="clip0_858_538"><path fill="#fff" d="M0 0h120v120H0z"/></clipPath><filter id="filter0_d_858_538" x="15.209" y="4.236" width="89.582" height="119.528" filterUnits="userSpaceOnUse" color-interpolation-filters="sRGB"><feFlood flood-opacity="0" result="BackgroundImageFix"/><feColorMatrix in="SourceAlpha" values="0 0 0 0 0 0 0 0 0 0 0 0 0 0 0 0 0 0 127 0" result="hardAlpha"/><feOffset dy="4"/><feGaussianBlur stdDeviation="2"/><feComposite in2="hardAlpha" operator="out"/><feColorMatrix values="0 0 0 0 0.870833 0 0 0 0 0.502198 0 0 0 0 0.217708 0 0 0 0.4 0"/><feBlend in2="BackgroundImageFix" result="effect1_dropShadow_858_538"/><feBlend in="SourceGraphic" in2="effect1_dropShadow_858_538" result="shape"/></filter></defs></svg>