<svg width="112" height="112" fill="none" xmlns="http://www.w3.org/2000/svg"><g filter="url(#filter0_d_858_526)"><mask id="a" fill="#fff"><path d="M102.406.438H9.594a5.172 5.172 0 00-5.156 5.156v61.875a5.172 5.172 0 005.156 5.156h3.437v22.344a1.718 1.718 0 001.719 1.719h20.797a8.592 8.592 0 009.284 6.831 8.593 8.593 0 10-9.284-10.269H16.469V72.625H95.53V93.25H76.453a8.594 8.594 0 100 3.438H97.25a1.719 1.719 0 001.719-1.72V72.626h3.437a5.171 5.171 0 005.156-5.156V5.594a5.171 5.171 0 00-5.156-5.157zM39.122 93.25a5.155 5.155 0 110 3.438h4.847V93.25h-4.847zm33.756 3.438a5.155 5.155 0 110-3.438h-4.847v3.438h4.847zm31.247-29.22a1.72 1.72 0 01-1.719 1.72H9.594a1.719 1.719 0 01-1.719-1.72V5.595a1.719 1.719 0 011.719-1.719h92.812a1.721 1.721 0 011.719 1.719V67.47z"/><path d="M71.469 7.313H13.03a1.719 1.719 0 00-1.719 1.718v55a1.719 1.719 0 001.72 1.719h58.437a1.719 1.719 0 001.719-1.719v-55a1.719 1.719 0 00-1.72-1.719zm-1.719 55h-55V10.75h55v51.563zm12.031-44.688a5.156 5.156 0 100-10.312 5.156 5.156 0 000 10.312zm0-6.875a1.718 1.718 0 110 3.436 1.718 1.718 0 010-3.436zm13.75-3.437a5.156 5.156 0 100 10.311 5.156 5.156 0 000-10.311zm0 6.875a1.718 1.718 0 110-3.437 1.718 1.718 0 010 3.437zm-13.75 17.187a5.156 5.156 0 100-10.312 5.156 5.156 0 000 10.312zm0-6.875a1.718 1.718 0 110 3.436 1.718 1.718 0 010-3.436zm13.75-3.437a5.156 5.156 0 100 10.311 5.156 5.156 0 000-10.311zm0 6.875a1.718 1.718 0 110-3.437 1.718 1.718 0 010 3.436zM76.625 38.25h24.063v3.438H76.625V38.25zm0 10.313h24.063V52H76.625v-3.438zm0 10.312h24.063v3.438H76.625v-3.438z"/><path d="M66.313 34.813v3.437h-8.594a1.72 1.72 0 01-1.667-1.306l-1.77-7.082-5.209 20.832A1.708 1.708 0 0147.423 52h-.017a1.693 1.693 0 01-1.65-1.272l-3.815-13.956-4.968 12.426a1.718 1.718 0 01-1.804 1.066 1.697 1.697 0 01-1.496-1.46l-2.096-14.73-1.393 6.273a1.745 1.745 0 01-1.684 1.34H18.187V38.25h8.938l3.128-14.128a1.686 1.686 0 011.753-1.34 1.72 1.72 0 011.633 1.477l2.527 17.703 4.486-11.223a1.718 1.718 0 013.248.19l3.438 12.546 5.276-21.106a1.718 1.718 0 013.334 0l3.111 12.444h7.254z"/></mask><path d="M102.406.438H9.594a5.172 5.172 0 00-5.156 5.156v61.875a5.172 5.172 0 005.156 5.156h3.437v22.344a1.718 1.718 0 001.719 1.719h20.797a8.592 8.592 0 009.284 6.831 8.593 8.593 0 10-9.284-10.269H16.469V72.625H95.53V93.25H76.453a8.594 8.594 0 100 3.438H97.25a1.719 1.719 0 001.719-1.72V72.626h3.437a5.171 5.171 0 005.156-5.156V5.594a5.171 5.171 0 00-5.156-5.157zM39.122 93.25a5.155 5.155 0 110 3.438h4.847V93.25h-4.847zm33.756 3.438a5.155 5.155 0 110-3.438h-4.847v3.438h4.847zm31.247-29.22a1.72 1.72 0 01-1.719 1.72H9.594a1.719 1.719 0 01-1.719-1.72V5.595a1.719 1.719 0 011.719-1.719h92.812a1.721 1.721 0 011.719 1.719V67.47z" fill="#fff"/><path d="M71.469 7.313H13.03a1.719 1.719 0 00-1.719 1.718v55a1.719 1.719 0 001.72 1.719h58.437a1.719 1.719 0 001.719-1.719v-55a1.719 1.719 0 00-1.72-1.719zm-1.719 55h-55V10.75h55v51.563zm12.031-44.688a5.156 5.156 0 100-10.312 5.156 5.156 0 000 10.312zm0-6.875a1.718 1.718 0 110 3.436 1.718 1.718 0 010-3.436zm13.75-3.437a5.156 5.156 0 100 10.311 5.156 5.156 0 000-10.311zm0 6.875a1.718 1.718 0 110-3.437 1.718 1.718 0 010 3.437zm-13.75 17.187a5.156 5.156 0 100-10.312 5.156 5.156 0 000 10.312zm0-6.875a1.718 1.718 0 110 3.436 1.718 1.718 0 010-3.436zm13.75-3.437a5.156 5.156 0 100 10.311 5.156 5.156 0 000-10.311zm0 6.875a1.718 1.718 0 110-3.437 1.718 1.718 0 010 3.436zM76.625 38.25h24.063v3.438H76.625V38.25zm0 10.313h24.063V52H76.625v-3.438zm0 10.312h24.063v3.438H76.625v-3.438z" fill="#fff"/><path d="M66.313 34.813v3.437h-8.594a1.72 1.72 0 01-1.667-1.306l-1.77-7.082-5.209 20.832A1.708 1.708 0 0147.423 52h-.017a1.693 1.693 0 01-1.65-1.272l-3.815-13.956-4.968 12.426a1.718 1.718 0 01-1.804 1.066 1.697 1.697 0 01-1.496-1.46l-2.096-14.73-1.393 6.273a1.745 1.745 0 01-1.684 1.34H18.187V38.25h8.938l3.128-14.128a1.686 1.686 0 011.753-1.34 1.72 1.72 0 011.633 1.477l2.527 17.703 4.486-11.223a1.718 1.718 0 013.248.19l3.438 12.546 5.276-21.106a1.718 1.718 0 013.334 0l3.111 12.444h7.254z" fill="#fff"/><path d="M102.406.438H9.594a5.172 5.172 0 00-5.156 5.156v61.875a5.172 5.172 0 005.156 5.156h3.437v22.344a1.718 1.718 0 001.719 1.719h20.797a8.592 8.592 0 009.284 6.831 8.593 8.593 0 10-9.284-10.269H16.469V72.625H95.53V93.25H76.453a8.594 8.594 0 100 3.438H97.25a1.719 1.719 0 001.719-1.72V72.626h3.437a5.171 5.171 0 005.156-5.156V5.594a5.171 5.171 0 00-5.156-5.157zM39.122 93.25a5.155 5.155 0 110 3.438h4.847V93.25h-4.847zm33.756 3.438a5.155 5.155 0 110-3.438h-4.847v3.438h4.847zm31.247-29.22a1.72 1.72 0 01-1.719 1.72H9.594a1.719 1.719 0 01-1.719-1.72V5.595a1.719 1.719 0 011.719-1.719h92.812a1.721 1.721 0 011.719 1.719V67.47z" stroke="#987DE1" stroke-width="2" mask="url(#a)"/><path d="M71.469 7.313H13.03a1.719 1.719 0 00-1.719 1.718v55a1.719 1.719 0 001.72 1.719h58.437a1.719 1.719 0 001.719-1.719v-55a1.719 1.719 0 00-1.72-1.719zm-1.719 55h-55V10.75h55v51.563zm12.031-44.688a5.156 5.156 0 100-10.312 5.156 5.156 0 000 10.312zm0-6.875a1.718 1.718 0 110 3.436 1.718 1.718 0 010-3.436zm13.75-3.437a5.156 5.156 0 100 10.311 5.156 5.156 0 000-10.311zm0 6.875a1.718 1.718 0 110-3.437 1.718 1.718 0 010 3.437zm-13.75 17.187a5.156 5.156 0 100-10.312 5.156 5.156 0 000 10.312zm0-6.875a1.718 1.718 0 110 3.436 1.718 1.718 0 010-3.436zm13.75-3.437a5.156 5.156 0 100 10.311 5.156 5.156 0 000-10.311zm0 6.875a1.718 1.718 0 110-3.437 1.718 1.718 0 010 3.436zM76.625 38.25h24.063v3.438H76.625V38.25zm0 10.313h24.063V52H76.625v-3.438zm0 10.312h24.063v3.438H76.625v-3.438z" stroke="#987DE1" stroke-width="2" mask="url(#a)"/><path d="M66.313 34.813v3.437h-8.594a1.72 1.72 0 01-1.667-1.306l-1.77-7.082-5.209 20.832A1.708 1.708 0 0147.423 52h-.017a1.693 1.693 0 01-1.65-1.272l-3.815-13.956-4.968 12.426a1.718 1.718 0 01-1.804 1.066 1.697 1.697 0 01-1.496-1.46l-2.096-14.73-1.393 6.273a1.745 1.745 0 01-1.684 1.34H18.187V38.25h8.938l3.128-14.128a1.686 1.686 0 011.753-1.34 1.72 1.72 0 011.633 1.477l2.527 17.703 4.486-11.223a1.718 1.718 0 013.248.19l3.438 12.546 5.276-21.106a1.718 1.718 0 013.334 0l3.111 12.444h7.254z" stroke="#987DE1" stroke-width="2" mask="url(#a)"/></g><defs><filter id="filter0_d_858_526" x=".438" y=".438" width="111.125" height="111.125" filterUnits="userSpaceOnUse" color-interpolation-filters="sRGB"><feFlood flood-opacity="0" result="BackgroundImageFix"/><feColorMatrix in="SourceAlpha" values="0 0 0 0 0 0 0 0 0 0 0 0 0 0 0 0 0 0 127 0" result="hardAlpha"/><feOffset dy="4"/><feGaussianBlur stdDeviation="2"/><feComposite in2="hardAlpha" operator="out"/><feColorMatrix values="0 0 0 0 0.474778 0 0 0 0 0.355764 0 0 0 0 0.783333 0 0 0 0.4 0"/><feBlend in2="BackgroundImageFix" result="effect1_dropShadow_858_526"/><feBlend in="SourceGraphic" in2="effect1_dropShadow_858_526" result="shape"/></filter></defs></svg>