<svg width="112" height="112" fill="none" xmlns="http://www.w3.org/2000/svg"><g filter="url(#filter0_d_858_519)"><mask id="a" fill="#fff"><path d="M88.656 52a18.742 18.742 0 00-10.312 3.077 18.887 18.887 0 00-29.219 15.83c0 14.059 13.802 24.285 22.223 29.218H42.25a1.719 1.719 0 01-1.719-1.719V86.375a5.171 5.171 0 00-5.156-5.156H9.594A1.719 1.719 0 017.875 79.5v-8.594a1.719 1.719 0 011.719-1.719h25.781a5.172 5.172 0 005.156-5.156v-5.156h1.719a1.719 1.719 0 001.719-1.719v-8.593h20.625a8.593 8.593 0 008.594-8.594v-6.875a1.719 1.719 0 00-1.72-1.719H69.75V10.75a5.172 5.172 0 00-5.156-5.156h-1.719A5.172 5.172 0 0057.719.437H54.28a1.719 1.719 0 00-1.718 1.72v10.312a1.719 1.719 0 001.718 1.719h3.438a5.172 5.172 0 005.156-5.157h1.719a1.719 1.719 0 011.719 1.719v20.625h-1.72a1.719 1.719 0 00-1.718 1.719v5.156H14.75v-5.156a1.719 1.719 0 00-1.719-1.719h-1.719V10.75a1.719 1.719 0 011.72-1.719h1.718a5.172 5.172 0 005.156 5.156h3.438a1.719 1.719 0 001.718-1.718V2.156A1.719 1.719 0 0023.345.437h-3.438a5.172 5.172 0 00-5.156 5.157h-1.719a5.172 5.172 0 00-5.156 5.156v20.625h-1.72a1.719 1.719 0 00-1.718 1.719v6.875a8.593 8.593 0 008.593 8.593h20.625v8.594a1.719 1.719 0 001.719 1.719h1.719v5.156a1.719 1.719 0 01-1.719 1.719H9.594a5.172 5.172 0 00-5.156 5.156V79.5a5.172 5.172 0 005.156 5.156h25.781a1.718 1.718 0 011.719 1.719v12.031a5.172 5.172 0 005.156 5.156h36.094c.236-.002.469-.049.687-.137a72.979 72.979 0 0014.713-9.023c6.978-5.586 13.818-13.596 13.818-23.496A18.917 18.917 0 0088.656 52zM59.437 9.031a1.719 1.719 0 01-1.718 1.719H56V3.875h1.719a1.719 1.719 0 011.718 1.719V9.03zm-41.25-3.437a1.719 1.719 0 011.72-1.719h1.718v6.875h-1.719a1.719 1.719 0 01-1.718-1.719V5.594zm17.188 39.531H13.031a5.172 5.172 0 01-5.156-5.156v-5.157h3.438v5.157a1.719 1.719 0 001.718 1.718h51.563a1.719 1.719 0 001.719-1.718v-5.157h3.437v5.157a5.172 5.172 0 01-5.156 5.156H42.25a1.719 1.719 0 00-1.719 1.719v8.593h-3.437v-8.593a1.719 1.719 0 00-1.719-1.719zm42.969 44.688A12.032 12.032 0 1190.375 77.78a12.045 12.045 0 01-12.031 12.031zm1.719 9.28v-5.946a15.469 15.469 0 10-3.438 0v5.947c-6.531-3.386-24.063-13.819-24.063-28.188a15.452 15.452 0 0124.75-12.358 1.701 1.701 0 002.063 0 15.452 15.452 0 0124.75 12.358c0 14.369-17.531 24.802-24.063 28.188z"/><path d="M78.344 69.188a8.594 8.594 0 108.594 8.593 8.604 8.604 0 00-8.594-8.594zm0 13.75a5.156 5.156 0 110-10.312 5.156 5.156 0 010 10.311zm8.384-64.514l-2.43 2.43 4.862 4.861a1.72 1.72 0 002.43 0l9.723-9.723-2.43-2.43-8.508 8.508-3.647-3.646z"/><path d="M106.497 7.45L91.028 1.005a1.574 1.574 0 00-1.306 0L74.253 7.45a1.696 1.696 0 00-1.066 1.581v11.79a13.653 13.653 0 004.022 9.712l11.946 11.945a1.7 1.7 0 002.44 0l11.946-11.945a13.648 13.648 0 004.021-9.71V9.03a1.69 1.69 0 00-1.065-1.581zm-2.372 13.372a10.189 10.189 0 01-3.025 7.287L90.375 38.834 79.65 28.11a10.19 10.19 0 01-3.025-7.287v-10.64l13.75-5.74 13.75 5.74v10.64z"/></mask><path d="M88.656 52a18.742 18.742 0 00-10.312 3.077 18.887 18.887 0 00-29.219 15.83c0 14.059 13.802 24.285 22.223 29.218H42.25a1.719 1.719 0 01-1.719-1.719V86.375a5.171 5.171 0 00-5.156-5.156H9.594A1.719 1.719 0 017.875 79.5v-8.594a1.719 1.719 0 011.719-1.719h25.781a5.172 5.172 0 005.156-5.156v-5.156h1.719a1.719 1.719 0 001.719-1.719v-8.593h20.625a8.593 8.593 0 008.594-8.594v-6.875a1.719 1.719 0 00-1.72-1.719H69.75V10.75a5.172 5.172 0 00-5.156-5.156h-1.719A5.172 5.172 0 0057.719.437H54.28a1.719 1.719 0 00-1.718 1.72v10.312a1.719 1.719 0 001.718 1.719h3.438a5.172 5.172 0 005.156-5.157h1.719a1.719 1.719 0 011.719 1.719v20.625h-1.72a1.719 1.719 0 00-1.718 1.719v5.156H14.75v-5.156a1.719 1.719 0 00-1.719-1.719h-1.719V10.75a1.719 1.719 0 011.72-1.719h1.718a5.172 5.172 0 005.156 5.156h3.438a1.719 1.719 0 001.718-1.718V2.156A1.719 1.719 0 0023.345.437h-3.438a5.172 5.172 0 00-5.156 5.157h-1.719a5.172 5.172 0 00-5.156 5.156v20.625h-1.72a1.719 1.719 0 00-1.718 1.719v6.875a8.593 8.593 0 008.593 8.593h20.625v8.594a1.719 1.719 0 001.719 1.719h1.719v5.156a1.719 1.719 0 01-1.719 1.719H9.594a5.172 5.172 0 00-5.156 5.156V79.5a5.172 5.172 0 005.156 5.156h25.781a1.718 1.718 0 011.719 1.719v12.031a5.172 5.172 0 005.156 5.156h36.094c.236-.002.469-.049.687-.137a72.979 72.979 0 0014.713-9.023c6.978-5.586 13.818-13.596 13.818-23.496A18.917 18.917 0 0088.656 52zM59.437 9.031a1.719 1.719 0 01-1.718 1.719H56V3.875h1.719a1.719 1.719 0 011.718 1.719V9.03zm-41.25-3.437a1.719 1.719 0 011.72-1.719h1.718v6.875h-1.719a1.719 1.719 0 01-1.718-1.719V5.594zm17.188 39.531H13.031a5.172 5.172 0 01-5.156-5.156v-5.157h3.438v5.157a1.719 1.719 0 001.718 1.718h51.563a1.719 1.719 0 001.719-1.718v-5.157h3.437v5.157a5.172 5.172 0 01-5.156 5.156H42.25a1.719 1.719 0 00-1.719 1.719v8.593h-3.437v-8.593a1.719 1.719 0 00-1.719-1.719zm42.969 44.688A12.032 12.032 0 1190.375 77.78a12.045 12.045 0 01-12.031 12.031zm1.719 9.28v-5.946a15.469 15.469 0 10-3.438 0v5.947c-6.531-3.386-24.063-13.819-24.063-28.188a15.452 15.452 0 0124.75-12.358 1.701 1.701 0 002.063 0 15.452 15.452 0 0124.75 12.358c0 14.369-17.531 24.802-24.063 28.188z" fill="#fff"/><path d="M78.344 69.188a8.594 8.594 0 108.594 8.593 8.604 8.604 0 00-8.594-8.594zm0 13.75a5.156 5.156 0 110-10.312 5.156 5.156 0 010 10.311zm8.384-64.514l-2.43 2.43 4.862 4.861a1.72 1.72 0 002.43 0l9.723-9.723-2.43-2.43-8.508 8.508-3.647-3.646z" fill="#fff"/><path d="M106.497 7.45L91.028 1.005a1.574 1.574 0 00-1.306 0L74.253 7.45a1.696 1.696 0 00-1.066 1.581v11.79a13.653 13.653 0 004.022 9.712l11.946 11.945a1.7 1.7 0 002.44 0l11.946-11.945a13.648 13.648 0 004.021-9.71V9.03a1.69 1.69 0 00-1.065-1.581zm-2.372 13.372a10.189 10.189 0 01-3.025 7.287L90.375 38.834 79.65 28.11a10.19 10.19 0 01-3.025-7.287v-10.64l13.75-5.74 13.75 5.74v10.64z" fill="#fff"/><path d="M88.656 52a18.742 18.742 0 00-10.312 3.077 18.887 18.887 0 00-29.219 15.83c0 14.059 13.802 24.285 22.223 29.218H42.25a1.719 1.719 0 01-1.719-1.719V86.375a5.171 5.171 0 00-5.156-5.156H9.594A1.719 1.719 0 017.875 79.5v-8.594a1.719 1.719 0 011.719-1.719h25.781a5.172 5.172 0 005.156-5.156v-5.156h1.719a1.719 1.719 0 001.719-1.719v-8.593h20.625a8.593 8.593 0 008.594-8.594v-6.875a1.719 1.719 0 00-1.72-1.719H69.75V10.75a5.172 5.172 0 00-5.156-5.156h-1.719A5.172 5.172 0 0057.719.437H54.28a1.719 1.719 0 00-1.718 1.72v10.312a1.719 1.719 0 001.718 1.719h3.438a5.172 5.172 0 005.156-5.157h1.719a1.719 1.719 0 011.719 1.719v20.625h-1.72a1.719 1.719 0 00-1.718 1.719v5.156H14.75v-5.156a1.719 1.719 0 00-1.719-1.719h-1.719V10.75a1.719 1.719 0 011.72-1.719h1.718a5.172 5.172 0 005.156 5.156h3.438a1.719 1.719 0 001.718-1.718V2.156A1.719 1.719 0 0023.345.437h-3.438a5.172 5.172 0 00-5.156 5.157h-1.719a5.172 5.172 0 00-5.156 5.156v20.625h-1.72a1.719 1.719 0 00-1.718 1.719v6.875a8.593 8.593 0 008.593 8.593h20.625v8.594a1.719 1.719 0 001.719 1.719h1.719v5.156a1.719 1.719 0 01-1.719 1.719H9.594a5.172 5.172 0 00-5.156 5.156V79.5a5.172 5.172 0 005.156 5.156h25.781a1.718 1.718 0 011.719 1.719v12.031a5.172 5.172 0 005.156 5.156h36.094c.236-.002.469-.049.687-.137a72.979 72.979 0 0014.713-9.023c6.978-5.586 13.818-13.596 13.818-23.496A18.917 18.917 0 0088.656 52zM59.437 9.031a1.719 1.719 0 01-1.718 1.719H56V3.875h1.719a1.719 1.719 0 011.718 1.719V9.03zm-41.25-3.437a1.719 1.719 0 011.72-1.719h1.718v6.875h-1.719a1.719 1.719 0 01-1.718-1.719V5.594zm17.188 39.531H13.031a5.172 5.172 0 01-5.156-5.156v-5.157h3.438v5.157a1.719 1.719 0 001.718 1.718h51.563a1.719 1.719 0 001.719-1.718v-5.157h3.437v5.157a5.172 5.172 0 01-5.156 5.156H42.25a1.719 1.719 0 00-1.719 1.719v8.593h-3.437v-8.593a1.719 1.719 0 00-1.719-1.719zm42.969 44.688A12.032 12.032 0 1190.375 77.78a12.045 12.045 0 01-12.031 12.031zm1.719 9.28v-5.946a15.469 15.469 0 10-3.438 0v5.947c-6.531-3.386-24.063-13.819-24.063-28.188a15.452 15.452 0 0124.75-12.358 1.701 1.701 0 002.063 0 15.452 15.452 0 0124.75 12.358c0 14.369-17.531 24.802-24.063 28.188z" stroke="#4D9AF4" stroke-width="2" mask="url(#a)"/><path d="M78.344 69.188a8.594 8.594 0 108.594 8.593 8.604 8.604 0 00-8.594-8.594zm0 13.75a5.156 5.156 0 110-10.312 5.156 5.156 0 010 10.311zm8.384-64.514l-2.43 2.43 4.862 4.861a1.72 1.72 0 002.43 0l9.723-9.723-2.43-2.43-8.508 8.508-3.647-3.646z" stroke="#4D9AF4" stroke-width="2" mask="url(#a)"/><path d="M106.497 7.45L91.028 1.005a1.574 1.574 0 00-1.306 0L74.253 7.45a1.696 1.696 0 00-1.066 1.581v11.79a13.653 13.653 0 004.022 9.712l11.946 11.945a1.7 1.7 0 002.44 0l11.946-11.945a13.648 13.648 0 004.021-9.71V9.03a1.69 1.69 0 00-1.065-1.581zm-2.372 13.372a10.189 10.189 0 01-3.025 7.287L90.375 38.834 79.65 28.11a10.19 10.19 0 01-3.025-7.287v-10.64l13.75-5.74 13.75 5.74v10.64z" stroke="#4D9AF4" stroke-width="2" mask="url(#a)"/></g><defs><filter id="filter0_d_858_519" x=".438" y=".438" width="111.125" height="111.125" filterUnits="userSpaceOnUse" color-interpolation-filters="sRGB"><feFlood flood-opacity="0" result="BackgroundImageFix"/><feColorMatrix in="SourceAlpha" values="0 0 0 0 0 0 0 0 0 0 0 0 0 0 0 0 0 0 127 0" result="hardAlpha"/><feOffset dy="4"/><feGaussianBlur stdDeviation="2"/><feComposite in2="hardAlpha" operator="out"/><feColorMatrix values="0 0 0 0 0.189375 0 0 0 0 0.487335 0 0 0 0 0.841667 0 0 0 0.4 0"/><feBlend in2="BackgroundImageFix" result="effect1_dropShadow_858_519"/><feBlend in="SourceGraphic" in2="effect1_dropShadow_858_519" result="shape"/></filter></defs></svg>