<svg width="373" height="331" fill="none" xmlns="http://www.w3.org/2000/svg"><g style="mix-blend-mode:luminosity" opacity=".04" fill-rule="evenodd" clip-rule="evenodd"><path d="M144.003 216.948c-7.208 3.234-15.82 3.136-23.31-.196-18.161-7.936-28.177-39.389-56.543-47.031-26.773-7.251-53.453 12.639-58.227 41.054-24.808 181.073 355.452 140.9 366.312-11.072 2.246-32.53-23.404-58.005-51.769-57.32-23.591.588-36.51 21.851-55.981 36.058-35.199 25.965-74.985 39.781-120.482 38.507z" fill="#5DB02A"/><path d="M48.703 192.943c-1.498 4.213.468 8.916 4.4 10.386 4.12 1.568 8.8-.98 9.923-5.389 2.34.392 4.774 2.547 6.46 4.997v.098c.28.294.842.392 1.217.196.28-.196.468-.49.468-.882-1.498-15.285-18.162-20.38-22.468-9.406z" fill="#245903"/><path d="M169.563 287.79c-2.996 0-6.928-17.147-8.051-22.34l8.893.294 9.081.392c-1.592 5.095-6.553 21.654-9.923 21.654zm-42.781-5.389c-3.089-.49-4.4-18.127-4.774-23.418l8.8 1.763 8.893 1.764c-2.34 4.899-9.736 20.381-12.919 19.891zm-39.978-10.582c-2.808-.882-2.434-18.519-2.34-23.908l8.612 2.743 8.613 2.744c-2.715 4.605-11.702 19.303-14.885 18.421zM69.02 220.672c2.528.882 1.124 16.461.656 21.164l-7.396-2.939-7.302-3.038c2.622-3.821 11.328-16.069 14.043-15.187zm150.058 17.342c2.621-.783 10.204 12.542 12.544 16.756l-7.676 2.057-7.676 2.156c0-4.703.093-20.087 2.808-20.969zm89.31-16.755c1.779-2.057-6.834-14.795-9.642-18.616l-4.868 6.467-4.868 6.466c4.119 1.96 17.506 7.937 19.378 5.683zm-34.819 34.197c2.247-1.47-2.153-16.363-3.557-20.87l-6.647 4.507-6.553 4.605c3.371 3.135 14.323 13.228 16.757 11.758z" fill="#fff"/><path d="M256.247 193.432c0 .098-.093.196-.187.294-.187.49-.374.98-.374 1.47 0 .588.187.98.374 1.47.281.392.562.686.843.98.093 0 .187.098.187.098a2.55 2.55 0 001.404.392c.562 0 1.03-.098 1.404-.392.468-.294.843-.588 1.03-1.078.281-.49.374-.882.374-1.47 0-.49-.093-.98-.374-1.47-.187-.49-.562-.784-1.03-1.077-.374-.294-.842-.392-1.404-.392a2.55 2.55 0 00-1.404.392c-.281.195-.562.489-.843.783z" fill="#4C9C1A"/><path d="M313.165 174.13c-50.084 106.899-157.646 103.666-248.92 63.885-23.684-11.366-74.423-15.579-62.44 28.611.842 3.037 4.119 1.665 3.37-1.078-11.14-40.761 38.194-32.726 57.666-24.202 93.146 40.565 202.394 43.015 253.413-65.746l-3.089-1.47z" fill="#245903"/><path d="M296.696 174.522c-1.779.392-3.464-.784-3.839-2.744-.28-1.861.843-3.723 2.622-4.115 7.395-1.372 13.574-.392 18.816 2.744 5.242 3.135 9.361 8.034 12.919 14.403.936 1.666.468 3.723-1.124 4.703-1.591.98-3.557.49-4.493-1.176-3.089-5.389-6.459-9.406-10.579-11.855-3.838-2.254-8.518-3.038-14.322-1.96z" fill="#245903"/><path d="M175.457 79.773c-18.535 11.17-22.373 34.392-25.275 56.144-2.622 20.086-2.622 95.631-30.612 80.444-7.208 13.717 2.153 22.242 14.323 22.438 47.556.784 137.706-8.623 155.025-75.251-7.396-52.617-67.683-111.406-113.461-83.775z" fill="#5DB02A"/><path d="M177.887 132.096c21.625-6.271 36.042 50.951.281 56.34-27.054 4.115-32.765-46.934-.281-56.34z" fill="#fff"/><path d="M230.508 196.764c-.281.294-.468.49-.655.882-.281.49-.374.882-.374 1.47 0 .489.093.979.374 1.469.094.196.187.294.281.49.187.196.468.392.749.588.468.294.842.392 1.404.392a2.55 2.55 0 001.404-.392 2.789 2.789 0 001.03-1.078c.281-.49.374-.98.374-1.469 0-.588-.093-.98-.374-1.47a2.789 2.789 0 00-1.03-1.078 2.55 2.55 0 00-1.404-.392c-.562 0-.936.098-1.404.392-.094.098-.281.098-.375.196zm11.973-.882c-.281.294-.468.49-.655.882-.281.49-.375.882-.375 1.47 0 .489.094.979.375 1.469.093.196.187.294.28.49.188.196.469.392.749.588.468.294.843.392 1.405.392a2.55 2.55 0 001.404-.392 2.789 2.789 0 001.03-1.078c.28-.49.374-.98.374-1.469 0-.588-.094-.98-.374-1.47a2.789 2.789 0 00-1.03-1.078 2.55 2.55 0 00-1.404-.392c-.562 0-.937.098-1.405.392-.093.098-.28.098-.374.196zm-87.154-1.274c-.281-.098-.562-.196-.937-.196-.468 0-.936.196-1.404.392a5.516 5.516 0 00-1.03 1.078c-.093.196-.093.392-.187.588-.093.294-.187.588-.187.882 0 .588.187 1.078.374 1.47.281.49.656.882 1.03 1.078.468.293.936.391 1.404.391.562 0 1.03-.098 1.405-.391a1.898 1.898 0 001.029-1.078c.281-.392.375-.882.375-1.47 0-.49-.094-.98-.375-1.47-.187-.392-.561-.784-1.029-1.078-.094-.098-.281-.098-.468-.196zm1.121 10.877c-.281-.098-.562-.196-.936-.196-.469 0-.937.196-1.405.392a5.505 5.505 0 00-1.029 1.077c-.094.196-.094.392-.188.588-.093.294-.187.588-.187.882 0 .588.187 1.078.375 1.47.28.49.655.882 1.029 1.078.468.294.936.392 1.405.392.561 0 1.029-.098 1.404-.392a1.903 1.903 0 001.03-1.078c.28-.392.374-.882.374-1.47 0-.49-.094-.98-.374-1.47-.188-.391-.562-.783-1.03-1.077-.094-.098-.281-.098-.468-.196zm10.769-3.822c-.281-.097-.561-.195-.936-.195-.468 0-.936.195-1.404.391a5.487 5.487 0 00-1.03 1.078c-.094.196-.094.392-.187.588-.094.294-.187.588-.187.882 0 .588.187 1.078.374 1.47.281.49.655.882 1.03 1.078a2.55 2.55 0 001.404.391c.562 0 1.03-.097 1.404-.391a1.9 1.9 0 001.03-1.078c.281-.392.375-.882.375-1.47 0-.49-.094-.98-.375-1.47-.187-.392-.562-.784-1.03-1.078-.093-.098-.281-.098-.468-.196z" fill="#4C9C1A"/><path d="M180.043 148.361c8.613.587 15.166 8.426 14.604 17.342-.562 9.015-8.051 15.874-16.57 15.286-8.706-.588-15.072-8.427-14.604-17.343.188-2.548.843-4.899 1.966-6.957v.49h.094v.49l.094.098v.294l.093.098v.098l.094.098v.196l.093.098v.098l.094.098v.098l.094.098v.098l.093.098v.098h.094v.098l.093.098v.098h.094v.098l.094.098.093.098.094.097.094.098v.098h.093v.098l.094.098.093.098h.094v.098h.094v.098h.093l.094.098h.093l.188.196h.093v.098h.094l.094.098h.093v.098h.187l.094.098h.094l.093.098h.094l.093.098h.281v.098h.375v.098h.468l.093.098h.281c2.902.196 5.336-2.057 5.524-5.095.187-3.037-1.966-5.683-4.868-5.879h-.468c2.808-1.862 6.084-2.743 9.548-2.547zm6.46 21.36c1.31.098 2.246 1.176 2.153 2.547-.094 1.372-1.124 2.352-2.434 2.254-1.311-.098-2.247-1.176-2.153-2.646.093-1.273 1.123-2.253 2.434-2.155z" fill="#377D0B"/><path d="M227.882 129.841c-21.999-4.703-32.764 53.499 3.277 56.34 27.429 2.156 29.769-49.089-3.277-56.34z" fill="#fff"/><path d="M229.848 146.107c8.612.588 15.165 8.427 14.604 17.343-.562 9.014-8.051 15.873-16.57 15.285-8.706-.588-15.072-8.426-14.604-17.343.187-2.547.843-4.899 1.966-6.956v.49h.094v.489l.093.098v.294l.094.098v.098l.093.098v.196l.094.098v.098l.094.098v.098l.093.098v.098l.094.098v.098h.094v.098l.093.098v.098h.094v.098l.093.098.094.098.094.098.093.098v.098h.094v.098l.093.098.094.098h.094v.098h.093v.098h.094l.094.098h.093l.187.196h.094v.098h.094l.093.098h.094v.098h.187l.094.098h.093l.094.098h.094l.093.098h.281v.098h.374v.098h.469l.093.098h.281c2.902.196 5.336-2.058 5.523-5.095.187-3.038-1.966-5.683-4.868-5.879h-.468c2.809-1.862 6.085-2.744 9.549-2.548zm6.459 21.36c1.311.098 2.247 1.176 2.153 2.548-.093 1.372-1.123 2.352-2.434 2.254-1.31-.098-2.246-1.176-2.153-2.646.094-1.274 1.124-2.254 2.434-2.156z" fill="#377D0B"/><path d="M159.451 128.862c1.685-8.133 10.391-12.738 17.225-13.13 3.089-.294 4.494 3.822 1.124 4.214-9.175.587-14.23 4.311-18.349 8.916zm88.084-9.014c-4.774-7.937-15.633-9.211-23.123-6.957-3.276.882-3.276 6.075.375 5.095 9.923-3.136 16.663-1.274 22.748 1.862z" fill="#3A3A3A"/><path d="M139.413.309c-33.982 26.945-30.892 78.19 6.272 101.314a79.058 79.058 0 0010.204 5.389c11.608-10.092 31.736-16.657 54.577-16.657 15.072 0 29.021 2.841 40.067 7.74 7.957 1.274 15.821 5.292 23.872 13.914.468.49 1.217.686 1.872.49.281-.098.655-.294.843-.49 16.101-22.34 10.859-52.323-11.609-69.274-27.522-20.772-49.802-6.663-79.384-3.625-26.025 2.743-43.156-14.306-43.999-37.528v-.098c0-.098 0-.196-.094-.294-.28-.881-1.217-1.273-2.153-1.175-.187.098-.374.196-.468.294z" fill="#86328D"/><path d="M239.118 205.876c-.281-.098-.562-.196-.937-.196-.468 0-.936.196-1.404.392a5.482 5.482 0 00-1.029 1.078c-.094.196-.094.392-.188.588-.093.294-.187.588-.187.882 0 .588.187 1.077.375 1.469.28.49.655.882 1.029 1.078a2.55 2.55 0 001.404.392c.562 0 1.03-.098 1.405-.392a1.898 1.898 0 001.029-1.078c.281-.392.375-.881.375-1.469 0-.49-.094-.98-.375-1.47-.187-.392-.561-.784-1.029-1.078-.094-.098-.281-.098-.468-.196z" fill="#4C9C1A"/><path d="M266.075 111.911c-39.692-24.3-96.422-19.205-110.558-3.528-.281-4.409-.843-9.798-.655-13.521 29.207-17.147 66.747-17.54 113.179 3.625l-1.966 13.424z" fill="#245903"/><path d="M227.037 17.063c8.145 0 15.072 1.96 22.093 6.173 7.021 4.311 12.077 9.603 16.196 16.951 4.025 7.349 5.897 14.6 5.897 23.124 0 8.525-1.872 15.775-5.897 23.124-4.119 7.349-9.175 12.64-16.196 16.951-7.021 4.213-13.948 6.173-22.093 6.173-8.144 0-15.071-1.96-22.093-6.173-7.021-4.311-12.076-9.602-16.195-16.951-4.025-7.349-5.897-14.6-5.897-23.124s1.872-15.775 5.897-23.124c4.119-7.348 9.174-12.64 16.195-16.95 7.022-4.214 13.949-6.174 22.093-6.174z" fill="#C4C6C8"/><path d="M185.855 46.556c3.932-10.68 11.421-19.4 21.157-24.495l20.034 41.25-41.191-16.755zm80.502 37.821c-4.868 10.093-13.293 17.931-23.497 22.047l-15.821-43.21 39.318 21.163z" fill="#ECECED"/><path d="M227.036 55.277c1.404 0 2.621.294 3.838 1.078s2.059 1.666 2.808 2.94c.749 1.273 1.03 2.547 1.03 4.017 0 1.47-.281 2.743-1.03 4.017-.749 1.274-1.591 2.156-2.808 2.94-1.217.784-2.434 1.078-3.838 1.078s-2.621-.294-3.838-1.078-2.06-1.666-2.809-2.94c-.749-1.274-1.03-2.547-1.03-4.017 0-1.47.281-2.744 1.03-4.017.749-1.274 1.592-2.156 2.809-2.94 1.217-.784 2.434-1.078 3.838-1.078z" fill="#245903"/></g></svg>