<svg width="269" height="228" fill="none" xmlns="http://www.w3.org/2000/svg"><g style="mix-blend-mode:luminosity" opacity=".05" fill-rule="evenodd" clip-rule="evenodd"><path d="M103.823 149.439c-5.197 2.227-11.406 2.16-16.806-.135-13.093-5.467-20.315-27.132-40.765-32.397-19.303-4.994-38.538 8.707-41.98 28.28-17.886 124.726 256.269 97.054 264.098-7.627 1.62-22.407-16.873-39.956-37.323-39.483-17.009.405-26.323 15.051-40.361 24.837-25.377 17.886-54.062 27.402-86.863 26.525z" fill="#5DB02A"/><path d="M35.114 132.903c-1.08 2.902.338 6.142 3.172 7.154 2.97 1.08 6.345-.675 7.155-3.712 1.687.27 3.442 1.755 4.657 3.442v.068c.202.202.607.27.877.135a.71.71 0 00.337-.608c-1.08-10.528-13.093-14.038-16.198-6.479z" fill="#245903"/><path d="M122.247 198.236c-2.159 0-4.994-11.811-5.804-15.388l6.412.202 6.547.27c-1.148 3.51-4.725 14.916-7.155 14.916zm-30.843-3.712c-2.227-.338-3.172-12.487-3.442-16.131l6.344 1.215 6.412 1.215c-1.687 3.374-7.02 14.038-9.314 13.701zm-28.82-7.289c-2.025-.608-1.755-12.757-1.687-16.469l6.21 1.89 6.208 1.89c-1.957 3.172-8.436 13.296-10.73 12.689zM49.76 152.003c1.823.608.81 11.339.473 14.579l-5.332-2.025-5.264-2.092c1.89-2.633 8.167-11.069 10.124-10.462zm108.191 11.947c1.89-.54 7.357 8.639 9.044 11.541l-5.534 1.417-5.535 1.485c0-3.24.068-13.836 2.025-14.443zm64.388-11.542c1.282-1.417-4.927-10.191-6.952-12.823l-3.509 4.454-3.51 4.455c2.97 1.35 12.621 5.467 13.971 3.914zm-25.107 23.555c1.619-1.012-1.553-11.271-2.565-14.376l-4.792 3.105-4.725 3.172c2.43 2.16 10.327 9.112 12.082 8.099z" fill="#fff"/><path d="M184.746 133.24c0 .068-.067.135-.135.203-.135.337-.27.675-.27 1.012 0 .405.135.675.27 1.013.203.27.405.472.608.675.067 0 .135.067.135.067.337.202.675.27 1.012.27.405 0 .743-.068 1.012-.27.338-.202.608-.405.743-.742.202-.338.27-.608.27-1.013 0-.337-.068-.675-.27-1.012-.135-.338-.405-.54-.743-.743-.269-.202-.607-.27-1.012-.27-.337 0-.675.068-1.012.27-.203.135-.405.338-.608.54z" fill="#4C9C1A"/><path d="M225.781 119.945c-36.108 73.634-113.657 71.407-179.462 44.005-17.076-7.829-53.657-10.732-45.018 19.708.607 2.092 2.97 1.147 2.43-.743-8.032-28.077 27.537-22.542 41.575-16.67 67.155 27.941 145.919 29.629 182.703-45.288l-2.228-1.012z" fill="#245903"/><path d="M213.903 120.215c-1.282.269-2.497-.54-2.767-1.89-.203-1.283.607-2.565 1.889-2.835 5.332-.945 9.787-.27 13.566 1.89 3.78 2.16 6.75 5.534 9.314 9.921.675 1.148.338 2.565-.809 3.24-1.148.675-2.565.337-3.24-.81-2.227-3.712-4.657-6.479-7.627-8.167-2.767-1.552-6.142-2.092-10.326-1.349z" fill="#245903"/><path d="M126.5 54.95c-13.364 7.693-16.131 23.69-18.223 38.672-1.89 13.837-1.89 65.873-22.07 55.412-5.197 9.449 1.552 15.321 10.326 15.456 34.286.54 99.282-5.94 111.768-51.835-5.332-36.243-48.797-76.739-81.801-57.706z" fill="#5DB02A"/><path d="M128.255 90.99c15.59-4.319 25.984 35.097.202 38.809-19.505 2.835-23.622-32.33-.202-38.808z" fill="#fff"/><path d="M166.185 135.535c-.202.203-.337.338-.472.608-.203.337-.27.607-.27 1.012 0 .338.067.675.27 1.013.067.135.135.202.202.337.135.135.338.27.54.405.338.202.608.27 1.013.27.337 0 .675-.068 1.012-.27.338-.203.54-.405.742-.742.203-.338.27-.675.27-1.013 0-.405-.067-.675-.27-1.012a1.954 1.954 0 00-.742-.743 1.908 1.908 0 00-1.012-.27c-.405 0-.675.068-1.013.27-.067.068-.202.068-.27.135zm8.639-.607c-.202.202-.337.337-.472.607-.202.338-.27.608-.27 1.012 0 .338.068.675.27 1.013.067.135.135.202.202.337.135.135.338.27.54.405.338.203.608.27 1.013.27.337 0 .675-.067 1.012-.27a1.96 1.96 0 00.743-.742c.202-.338.27-.675.27-1.013 0-.404-.068-.674-.27-1.012a1.96 1.96 0 00-.743-.742 1.899 1.899 0 00-1.012-.27c-.405 0-.675.067-1.013.27-.067.067-.202.067-.27.135zm-62.835-.877c-.202-.068-.405-.135-.675-.135-.337 0-.675.135-1.012.269-.27.203-.54.473-.742.743-.068.135-.068.27-.135.405-.068.202-.135.405-.135.607 0 .405.135.743.27 1.013.202.337.472.607.742.742.337.203.675.27 1.012.27.405 0 .743-.067 1.013-.27.337-.135.607-.405.742-.742.203-.27.27-.608.27-1.013 0-.337-.067-.675-.27-1.012-.135-.27-.405-.54-.742-.743-.068-.067-.203-.067-.338-.134zm.809 7.491c-.202-.067-.405-.135-.675-.135-.337 0-.675.135-1.012.27-.27.203-.54.473-.742.743-.068.135-.068.27-.135.405-.068.202-.135.405-.135.607 0 .405.135.742.27 1.012.202.338.472.608.742.743.337.202.675.27 1.012.27.405 0 .743-.068 1.013-.27.337-.135.607-.405.742-.743.203-.27.27-.607.27-1.012 0-.337-.067-.675-.27-1.012-.135-.27-.405-.54-.742-.743-.068-.067-.203-.067-.338-.135zm7.763-2.632c-.203-.067-.405-.135-.675-.135-.338 0-.675.135-1.013.27-.27.203-.54.473-.742.743-.068.135-.068.27-.135.404-.068.203-.135.405-.135.608 0 .405.135.742.27 1.012.202.338.472.608.742.743.338.202.675.27 1.013.27.405 0 .742-.068 1.012-.27.337-.135.607-.405.742-.743.203-.27.27-.607.27-1.012 0-.338-.067-.675-.27-1.012-.135-.27-.405-.54-.742-.743-.067-.067-.202-.067-.337-.135z" fill="#4C9C1A"/><path d="M129.807 102.194c6.209.405 10.934 5.804 10.529 11.946-.405 6.21-5.805 10.934-11.946 10.529-6.277-.405-10.867-5.804-10.529-11.946.135-1.755.607-3.375 1.417-4.792v.337h.068v.338l.067.067v.203l.068.067v.068l.067.067v.135l.068.068v.067l.067.068v.067l.068.068v.067l.067.068v.067h.068v.068l.067.067v.068h.067v.067l.068.068.067.067.068.068.067.067v.068h.068v.067l.067.068.068.067h.067v.068h.068v.067h.067l.068.068h.067l.135.135h.068v.067h.067l.068.068h.067v.067h.135l.068.068h.067l.068.067h.067l.068.067h.202v.068h.27v.067h.338l.067.068h.203c2.092.135 3.847-1.417 3.982-3.51.135-2.092-1.418-3.914-3.51-4.049h-.337c2.024-1.283 4.387-1.89 6.884-1.755zm4.657 14.713c.945.068 1.62.81 1.552 1.755-.067.945-.81 1.62-1.755 1.553-.944-.068-1.619-.81-1.552-1.823.068-.877.81-1.552 1.755-1.485z" fill="#377D0B"/><path d="M164.295 89.437c-15.86-3.24-23.622 36.851 2.363 38.809 19.775 1.484 21.462-33.814-2.363-38.809z" fill="#fff"/><path d="M165.713 100.642c6.209.405 10.934 5.804 10.529 11.946-.405 6.209-5.805 10.934-11.946 10.529-6.277-.405-10.867-5.805-10.529-11.946.135-1.755.607-3.375 1.417-4.792v.337h.068v.338l.067.067v.203l.068.067v.068l.067.067v.135l.068.067v.068l.067.067v.068l.068.067v.068l.067.067v.068h.068v.067l.067.068v.067h.067v.068l.068.067.067.068.068.067.067.068v.067h.068v.068l.067.067.068.068h.067v.067h.068v.068h.067l.068.067h.067l.135.135h.068v.068h.067l.068.067h.067v.068h.135l.068.067h.067l.068.068h.067l.068.067h.202v.068h.27v.067h.338l.067.068h.203c2.092.135 3.847-1.418 3.982-3.51.135-2.092-1.418-3.914-3.51-4.049h-.337c2.024-1.283 4.387-1.89 6.884-1.755zm4.657 14.713c.945.068 1.62.81 1.552 1.755-.067.945-.81 1.62-1.755 1.552-.944-.067-1.619-.81-1.552-1.822.068-.877.81-1.552 1.755-1.485z" fill="#377D0B"/><path d="M114.959 88.763c1.215-5.602 7.492-8.774 12.419-9.044 2.227-.203 3.239 2.632.81 2.902-6.615.405-10.259 2.97-13.229 6.142zm63.511-6.209c-3.443-5.467-11.272-6.345-16.671-4.792-2.362.607-2.362 4.184.27 3.51 7.154-2.16 12.014-.878 16.401 1.282z" fill="#3A3A3A"/><path d="M100.516.213c-24.5 18.56-22.273 53.859 4.522 69.787a57.843 57.843 0 007.357 3.712c8.369-6.952 22.88-11.474 39.348-11.474 10.866 0 20.922 1.958 28.887 5.332 5.736.878 11.406 3.645 17.21 9.584.338.338.878.473 1.35.338.203-.068.472-.203.607-.338 11.609-15.388 7.83-36.04-8.369-47.717-19.842-14.309-35.906-4.59-57.233-2.497-18.763 1.89-31.114-9.854-31.722-25.85v-.067c0-.068 0-.135-.067-.203-.203-.607-.878-.877-1.553-.81-.135.068-.27.135-.337.203z" fill="#86328D"/><path d="M172.395 141.812c-.202-.068-.405-.135-.675-.135-.337 0-.675.135-1.012.27-.27.202-.54.472-.743.742-.067.135-.067.27-.135.405-.067.203-.135.405-.135.608 0 .405.135.742.27 1.012.203.338.473.608.743.743.337.202.675.27 1.012.27.405 0 .743-.068 1.012-.27.338-.135.608-.405.743-.743.202-.27.27-.607.27-1.012 0-.338-.068-.675-.27-1.013-.135-.27-.405-.54-.743-.742-.067-.068-.202-.068-.337-.135z" fill="#4C9C1A"/><path d="M191.833 77.087c-28.617-16.739-69.517-13.229-79.709-2.43-.202-3.037-.607-6.75-.472-9.314 21.057-11.811 48.122-12.081 81.598 2.497l-1.417 9.247z" fill="#245903"/><path d="M163.688 11.754c5.872 0 10.867 1.35 15.929 4.252 5.062 2.97 8.706 6.614 11.676 11.676 2.902 5.062 4.252 10.056 4.252 15.928 0 5.872-1.35 10.867-4.252 15.928-2.97 5.062-6.614 8.707-11.676 11.677-5.062 2.902-10.057 4.252-15.929 4.252s-10.866-1.35-15.928-4.252c-5.062-2.97-8.707-6.615-11.676-11.677-2.902-5.061-4.252-10.056-4.252-15.928 0-5.872 1.35-10.866 4.252-15.928 2.969-5.062 6.614-8.707 11.676-11.676 5.062-2.902 10.056-4.252 15.928-4.252z" fill="#C4C6C8"/><path d="M133.992 32.069c2.834-7.357 8.234-13.364 15.253-16.873l14.443 28.414-29.696-11.541zm58.043 26.052c-3.509 6.952-9.584 12.351-16.941 15.186l-11.406-29.764 28.347 14.578z" fill="#ECECED"/><path d="M163.688 38.076c1.013 0 1.89.203 2.768.743a5.818 5.818 0 012.024 2.024c.54.878.743 1.755.743 2.768 0 1.012-.203 1.89-.743 2.767a5.818 5.818 0 01-2.024 2.025c-.878.54-1.755.742-2.768.742-1.012 0-1.889-.203-2.767-.742a5.82 5.82 0 01-2.025-2.025c-.539-.878-.742-1.755-.742-2.767 0-1.013.203-1.89.742-2.768a5.82 5.82 0 012.025-2.024c.878-.54 1.755-.743 2.767-.743z" fill="#245903"/></g></svg>