<svg width="792" height="672" fill="none" xmlns="http://www.w3.org/2000/svg"><g style="mix-blend-mode:luminosity" opacity=".08" fill-rule="evenodd" clip-rule="evenodd"><path d="M305.934 440.35c-15.314 6.563-33.611 6.364-49.522-.398-38.582-16.109-59.862-79.95-120.123-95.462-56.88-14.717-113.56 25.655-123.703 83.33-52.703 367.53 755.147 285.99 778.217-22.473 4.773-66.028-49.72-117.737-109.981-116.345-50.118 1.194-77.563 44.351-118.93 73.188-74.779 52.703-159.303 80.745-255.958 78.16z" fill="#5DB02A"/><path d="M103.47 391.625c-3.182 8.552.995 18.098 9.348 21.081 8.751 3.182 18.695-1.989 21.081-10.938 4.972.795 10.143 5.17 13.723 10.142v.199c.596.597 1.79.796 2.585.398.597-.398.995-.994.995-1.79-3.182-31.025-38.583-41.367-47.732-19.092z" fill="#245903"/><path d="M360.225 584.14c-6.364 0-14.717-34.804-17.103-45.345l18.893.597 19.292.796c-3.381 10.341-13.922 43.952-21.082 43.952zm-90.886-10.939c-6.563-.995-9.347-36.793-10.143-47.533l18.695 3.58 18.894 3.58c-4.972 9.944-20.684 41.367-27.446 40.373zm-84.923-21.479c-5.967-1.789-5.171-37.588-4.972-48.526l18.297 5.568 18.297 5.569c-5.768 9.347-24.86 39.179-31.622 37.389zM146.63 447.907c5.369 1.79 2.386 33.411 1.392 42.958l-15.712-5.967-15.512-6.165c5.568-7.756 24.064-32.616 29.832-30.826zm318.803 35.202c5.569-1.591 21.678 25.457 26.65 34.009l-16.308 4.176-16.308 4.375c0-9.546.199-40.77 5.966-42.56zM655.166 449.1c3.778-4.176-14.519-30.03-20.485-37.787l-10.342 13.126-10.341 13.126c8.75 3.978 37.19 16.11 41.168 11.535zm-73.985 69.41c4.773-2.984-4.575-33.213-7.558-42.362l-14.12 9.149-13.922 9.347c7.16 6.364 30.429 26.849 35.6 23.866z" fill="#fff"/><path d="M544.39 392.618c0 .199-.199.398-.398.597-.397.994-.795 1.989-.795 2.983 0 1.193.398 1.989.795 2.983.597.796 1.194 1.392 1.79 1.989.199 0 .398.199.398.199.994.597 1.989.795 2.983.795 1.193 0 2.188-.198 2.983-.795.995-.597 1.79-1.193 2.188-2.188.597-.994.796-1.79.796-2.983 0-.994-.199-1.989-.796-2.983-.398-.995-1.193-1.591-2.188-2.188-.795-.596-1.79-.795-2.983-.795-.994 0-1.989.199-2.983.795-.597.398-1.193.995-1.79 1.591z" fill="#4C9C1A"/><path d="M665.308 353.44C558.907 570.418 330.394 563.855 136.486 483.11 86.17 460.04-21.623 451.488 3.834 541.183c1.79 6.165 8.75 3.381 7.16-2.188-23.667-82.734 81.142-66.426 122.509-49.123 197.886 82.336 429.979 87.308 538.368-133.449l-6.563-2.983z" fill="#245903"/><path d="M630.306 354.235c-3.779.795-7.359-1.591-8.154-5.569-.597-3.779 1.79-7.557 5.568-8.353 15.712-2.784 28.838-.795 39.975 5.569s19.888 16.308 27.446 29.235c1.988 3.381.994 7.558-2.387 9.546-3.381 1.989-7.557.995-9.546-2.386-6.563-10.939-13.723-19.093-22.474-24.065-8.154-4.574-18.098-6.165-30.428-3.977z" fill="#245903"/><path d="M372.756 161.919c-39.378 22.672-47.532 69.806-53.698 113.958-5.568 40.77-5.568 194.106-65.033 163.28-15.314 27.843 4.574 45.146 30.428 45.544 101.031 1.591 292.553-17.502 329.345-152.74-15.711-106.799-143.79-226.127-241.042-170.042z" fill="#5DB02A"/><path d="M377.927 268.121c45.941-12.728 76.569 103.418.597 114.356-57.477 8.353-69.608-95.263-.597-114.356z" fill="#fff"/><path d="M489.696 399.381c-.596.597-.994.994-1.392 1.79-.596.994-.795 1.79-.795 2.983 0 .995.199 1.989.795 2.983.199.398.398.597.597.995.398.397.994.795 1.591 1.193.994.597 1.79.796 2.983.796.995 0 1.989-.199 2.983-.796.995-.597 1.591-1.193 2.188-2.188.597-.994.796-1.988.796-2.983 0-1.193-.199-1.989-.796-2.983s-1.193-1.591-2.188-2.188c-.994-.596-1.988-.795-2.983-.795-1.193 0-1.989.199-2.983.795-.199.199-.597.199-.796.398zm25.457-1.791c-.596.597-.994.995-1.392 1.79-.596.995-.795 1.79-.795 2.983 0 .995.199 1.989.795 2.984.199.397.398.596.597.994.398.398.994.795 1.591 1.193.994.597 1.79.796 2.983.796.995 0 1.989-.199 2.983-.796.995-.596 1.591-1.193 2.188-2.187.597-.995.796-1.989.796-2.984 0-1.193-.199-1.988-.796-2.983-.597-.994-1.193-1.591-2.188-2.188-.994-.596-1.988-.795-2.983-.795-1.193 0-1.989.199-2.983.795-.199.199-.597.199-.796.398zm-185.155-2.585c-.597-.199-1.194-.398-1.989-.398-.995 0-1.989.398-2.983.796a11.393 11.393 0 00-2.188 2.188c-.199.397-.199.795-.398 1.193-.199.597-.398 1.193-.398 1.79 0 1.193.398 2.187.796 2.983.597.994 1.392 1.79 2.188 2.188.994.596 1.988.795 2.983.795 1.193 0 2.188-.199 2.983-.795a3.945 3.945 0 002.188-2.188c.596-.796.795-1.79.795-2.983 0-.995-.199-1.989-.795-2.983-.398-.796-1.194-1.591-2.188-2.188-.199-.199-.597-.199-.994-.398zm2.384 22.076c-.597-.199-1.193-.398-1.989-.398-.994 0-1.989.398-2.983.796a11.388 11.388 0 00-2.188 2.187c-.199.398-.199.796-.397 1.194-.199.596-.398 1.193-.398 1.79 0 1.193.398 2.187.795 2.983.597.994 1.392 1.79 2.188 2.187.994.597 1.989.796 2.983.796 1.193 0 2.188-.199 2.983-.796a3.937 3.937 0 002.188-2.187c.597-.796.796-1.79.796-2.983 0-.995-.199-1.989-.796-2.984-.398-.795-1.193-1.591-2.188-2.187-.199-.199-.596-.199-.994-.398zm22.873-7.756c-.597-.199-1.194-.398-1.989-.398-.995 0-1.989.398-2.983.796a11.365 11.365 0 00-2.188 2.188c-.199.397-.199.795-.398 1.193-.199.597-.398 1.193-.398 1.79 0 1.193.398 2.188.796 2.983.596.994 1.392 1.79 2.188 2.188.994.596 1.988.795 2.983.795 1.193 0 2.187-.199 2.983-.795a3.945 3.945 0 002.188-2.188c.596-.795.795-1.79.795-2.983 0-.995-.199-1.989-.795-2.983-.398-.796-1.194-1.591-2.188-2.188-.199-.199-.597-.199-.994-.398z" fill="#4C9C1A"/><path d="M382.501 301.133c18.297 1.194 32.218 17.104 31.025 35.202-1.193 18.297-17.104 32.219-35.202 31.025-18.496-1.193-32.019-17.103-31.025-35.201.398-5.171 1.79-9.944 4.177-14.121v.995h.198v.994l.199.199v.597l.199.198v.199l.199.199v.398l.199.199v.199l.199.199v.199l.199.198v.199l.199.199v.199h.198v.199l.199.199v.199h.199v.199l.199.198.199.199.199.199.199.199v.199h.199v.199l.198.199.199.199h.199v.198h.199v.199h.199l.199.199h.199l.398.398h.198v.199h.199l.199.199h.199v.199h.398l.199.199h.199l.198.198h.199l.199.199h.597v.199h.795v.199h.995l.199.199h.596c6.166.398 11.336-4.177 11.734-10.342.398-6.165-4.176-11.535-10.342-11.933h-.994c5.966-3.778 12.927-5.568 20.286-5.171zm13.722 43.356c2.785.199 4.774 2.387 4.575 5.171-.199 2.784-2.387 4.773-5.171 4.574-2.784-.198-4.773-2.386-4.574-5.369.198-2.586 2.386-4.575 5.17-4.376z" fill="#377D0B"/><path d="M484.127 263.545c-46.736-9.547-69.608 108.588 6.961 114.356 58.272 4.375 63.244-99.639-6.961-114.356z" fill="#fff"/><path d="M488.304 296.56c18.297 1.193 32.219 17.104 31.026 35.202-1.194 18.297-17.104 32.218-35.202 31.025-18.496-1.193-32.02-17.104-31.025-35.202.398-5.171 1.79-9.944 4.176-14.12v.994h.199v.995l.199.198v.597l.199.199v.199l.199.199v.398l.199.198v.199l.198.199v.199l.199.199v.199l.199.199v.199h.199v.198l.199.199v.199h.199v.199l.199.199.199.199.199.199.198.199v.198h.199v.199l.199.199.199.199h.199v.199h.199v.199h.199l.199.199h.198l.398.398h.199v.198h.199l.199.199h.199v.199h.397l.199.199h.199l.199.199h.199l.199.199h.597v.199h.795v.199h.994l.199.198h.597c6.165.398 11.336-4.176 11.734-10.341.398-6.166-4.177-11.535-10.342-11.933h-.994c5.966-3.779 12.927-5.569 20.285-5.171zm13.723 43.356c2.785.199 4.773 2.386 4.574 5.171-.198 2.784-2.386 4.773-5.17 4.574-2.785-.199-4.774-2.387-4.575-5.37.199-2.585 2.387-4.574 5.171-4.375z" fill="#377D0B"/><path d="M338.749 261.556c3.579-16.507 22.075-25.854 36.593-26.65 6.563-.596 9.547 7.757 2.387 8.552-19.49 1.194-30.23 8.751-38.98 18.098zm187.145-18.296c-10.143-16.109-33.213-18.695-49.123-14.121-6.961 1.79-6.961 12.331.795 10.342 21.081-6.364 35.401-2.585 48.328 3.779z" fill="#3A3A3A"/><path d="M296.189.626c-72.194 54.692-65.631 158.707 13.325 205.642 7.358 4.376 14.518 7.955 21.678 10.939 24.661-20.485 67.42-33.81 115.947-33.81 32.019 0 61.652 5.768 85.12 15.712 16.905 2.585 33.611 10.739 50.715 28.241.994.994 2.585 1.392 3.977.994.597-.199 1.392-.597 1.79-.994 34.207-45.345 23.07-106.202-24.661-140.608-58.471-42.163-105.804-13.524-168.65-7.36-55.289 5.57-91.684-29.036-93.474-76.17v-.199c0-.199 0-.398-.199-.597-.596-1.79-2.585-2.585-4.574-2.386-.398.199-.795.398-.994.596z" fill="#86328D"/><path d="M507.995 417.876c-.597-.199-1.194-.397-1.989-.397-.994 0-1.989.397-2.983.795a11.393 11.393 0 00-2.188 2.188c-.199.397-.199.795-.398 1.193-.199.597-.397 1.193-.397 1.79 0 1.193.397 2.188.795 2.983.597.995 1.392 1.79 2.188 2.188.994.596 1.989.795 2.983.795 1.193 0 2.188-.199 2.983-.795a3.938 3.938 0 002.188-2.188c.596-.795.795-1.79.795-2.983 0-.994-.199-1.989-.795-2.983-.398-.796-1.193-1.591-2.188-2.188-.199-.199-.596-.199-.994-.398z" fill="#4C9C1A"/><path d="M565.272 227.15c-84.325-49.322-204.846-38.98-234.877-7.159-.597-8.95-1.79-19.888-1.392-27.446 62.05-34.804 141.801-35.599 240.446 7.359l-4.177 27.246z" fill="#245903"/><path d="M482.339 34.635c17.303 0 32.02 3.977 46.936 12.53 14.916 8.75 25.655 19.49 34.406 34.405 8.552 14.916 12.529 29.634 12.529 46.936 0 17.303-3.977 32.02-12.529 46.936-8.751 14.916-19.49 25.655-34.406 34.406-14.916 8.552-29.633 12.529-46.936 12.529-17.302 0-32.02-3.977-46.936-12.529-14.916-8.751-25.655-19.49-34.406-34.406-8.552-14.916-12.529-29.633-12.529-46.936 0-17.302 3.977-32.02 12.529-46.936 8.751-14.916 19.49-25.655 34.406-34.406 14.916-8.552 29.634-12.53 46.936-12.53z" fill="#C4C6C8"/><path d="M394.832 94.497c8.353-21.678 24.263-39.378 44.947-49.72l42.56 83.729-87.507-34.009zm171.036 76.768c-10.341 20.485-28.241 36.395-49.918 44.748l-33.611-87.706 83.529 42.958z" fill="#ECECED"/><path d="M482.339 112.198c2.984 0 5.569.597 8.154 2.188 2.586 1.591 4.376 3.381 5.967 5.967 1.591 2.585 2.188 5.17 2.188 8.154 0 2.983-.597 5.568-2.188 8.154-1.591 2.585-3.381 4.375-5.967 5.966-2.585 1.591-5.17 2.188-8.154 2.188-2.983 0-5.568-.597-8.154-2.188-2.585-1.591-4.375-3.381-5.966-5.966-1.591-2.586-2.188-5.171-2.188-8.154 0-2.984.597-5.569 2.188-8.154 1.591-2.586 3.381-4.376 5.966-5.967 2.586-1.591 5.171-2.188 8.154-2.188z" fill="#245903"/></g></svg>