<svg width="160" height="135" fill="none" xmlns="http://www.w3.org/2000/svg"><path fill-rule="evenodd" clip-rule="evenodd" d="M98.036 88.489c3.077 1.319 6.753 1.279 9.949-.08 7.752-3.237 12.028-16.063 24.135-19.18 11.428-2.957 22.816 5.155 24.853 16.743C167.562 159.813 5.254 143.43.619 81.456c-.959-13.266 9.99-23.655 22.097-23.375 10.069.24 15.583 8.91 23.894 14.705 15.024 10.588 32.006 16.222 51.426 15.703z" fill="#5DB02A"/><path fill-rule="evenodd" clip-rule="evenodd" d="M138.712 78.7c.64 1.717-.199 3.635-1.878 4.235-1.758.639-3.756-.4-4.235-2.198-.999.16-2.038 1.039-2.757 2.038v.04c-.12.12-.36.16-.52.08a.42.42 0 01-.199-.36c.639-6.233 7.751-8.311 9.589-3.836z" fill="#245903"/><path fill-rule="evenodd" clip-rule="evenodd" d="M87.127 117.378c1.279 0 2.957-6.992 3.437-9.11l-3.796.12-3.876.16c.68 2.078 2.797 8.83 4.235 8.83zm18.261-2.197c1.319-.2 1.878-7.392 2.038-9.55l-3.756.72-3.796.719c.999 1.998 4.155 8.311 5.514 8.111zm17.062-4.315c1.199-.36 1.039-7.552.999-9.75l-3.676 1.119-3.676 1.119c1.159 1.878 4.995 7.872 6.353 7.512zm7.592-20.858c-1.079.36-.48 6.713-.28 8.63l3.157-1.198 3.117-1.239c-1.119-1.558-4.835-6.553-5.994-6.193zM65.99 97.08c-1.12-.32-4.356 5.115-5.355 6.833l3.277.839 3.277.879c0-1.918-.04-8.191-1.2-8.55zm-38.12-6.832c-.76-.839 2.917-6.033 4.115-7.592l2.078 2.637 2.078 2.638c-1.758.799-7.472 3.236-8.271 2.317zm14.864 13.945c-.959-.6.92-6.673 1.519-8.511l2.837 1.838 2.797 1.878c-1.439 1.278-6.114 5.394-7.153 4.795z" fill="#fff"/><path fill-rule="evenodd" clip-rule="evenodd" d="M50.127 78.9c0 .04.04.08.08.12.08.2.16.399.16.599 0 .24-.08.4-.16.599-.12.16-.24.28-.36.4-.04 0-.08.04-.08.04-.2.12-.4.16-.6.16-.239 0-.439-.04-.599-.16-.2-.12-.36-.24-.44-.44-.119-.2-.159-.36-.159-.6 0-.2.04-.399.16-.599.08-.2.24-.32.44-.44.16-.12.359-.16.599-.16.2 0 .4.04.6.16.119.08.239.2.359.32z" fill="#4C9C1A"/><path fill-rule="evenodd" clip-rule="evenodd" d="M25.832 71.028c21.377 43.594 67.289 42.275 106.247 26.052 10.11-4.635 31.767-6.353 26.652 11.668-.359 1.239-1.758.679-1.438-.44 4.755-16.622-16.303-13.346-24.614-9.87-39.758 16.543-86.389 17.542-108.166-26.81l1.319-.6z" fill="#245903"/><path fill-rule="evenodd" clip-rule="evenodd" d="M32.865 71.187c.76.16 1.478-.32 1.638-1.118.12-.76-.36-1.519-1.119-1.679-3.156-.56-5.794-.16-8.031 1.12-2.238 1.278-3.996 3.276-5.514 5.873-.4.68-.2 1.518.48 1.918.678.4 1.518.2 1.917-.48 1.319-2.197 2.757-3.835 4.515-4.834 1.639-.92 3.636-1.24 6.114-.8z" fill="#245903"/><path fill-rule="evenodd" clip-rule="evenodd" d="M84.61 32.548c7.912 4.555 9.55 14.026 10.789 22.896 1.119 8.191 1.119 38.999 13.066 32.805 3.077 5.595-.919 9.07-6.113 9.15-20.299.32-58.778-3.516-66.17-30.687 3.156-21.457 28.89-45.432 48.428-34.164z" fill="#5DB02A"/><path fill-rule="evenodd" clip-rule="evenodd" d="M83.571 53.886c-9.23-2.557-15.383 20.778-.12 22.976 11.548 1.678 13.986-19.14.12-22.976z" fill="#fff"/><path fill-rule="evenodd" clip-rule="evenodd" d="M61.115 80.258c.12.12.2.2.28.36.12.2.16.36.16.6 0 .2-.04.399-.16.599-.04.08-.08.12-.12.2-.08.08-.2.16-.32.24-.2.12-.36.159-.6.159-.2 0-.399-.04-.599-.16-.2-.12-.32-.24-.44-.44s-.159-.399-.159-.599c0-.24.04-.4.16-.6.12-.199.24-.319.44-.439s.399-.16.599-.16c.24 0 .4.04.6.16.039.04.119.04.159.08zM56 79.899c.12.12.2.2.28.36.12.2.16.36.16.599 0 .2-.04.4-.16.6-.04.08-.08.12-.12.2-.08.079-.2.159-.32.239-.2.12-.359.16-.599.16-.2 0-.4-.04-.6-.16-.199-.12-.319-.24-.439-.44s-.16-.4-.16-.6c0-.239.04-.399.16-.599.12-.2.24-.32.44-.439.2-.12.4-.16.6-.16.239 0 .399.04.599.16.04.04.12.04.16.08zm37.201-.52c.12-.04.24-.08.4-.08.2 0 .4.08.6.16.159.12.319.28.439.44.04.08.04.159.08.239.04.12.08.24.08.36 0 .24-.08.44-.16.599-.12.2-.28.36-.44.44-.2.12-.4.16-.6.16-.239 0-.439-.04-.599-.16a.792.792 0 01-.44-.44c-.119-.16-.159-.36-.159-.6 0-.2.04-.399.16-.599.08-.16.24-.32.44-.44.04-.04.12-.04.2-.08zm-.479 4.435c.12-.04.24-.08.4-.08.199 0 .399.08.599.16.16.12.32.28.439.44.04.08.04.16.08.239.04.12.08.24.08.36 0 .24-.08.44-.16.599-.12.2-.28.36-.44.44-.2.12-.4.16-.599.16-.24 0-.44-.04-.6-.16a.791.791 0 01-.439-.44c-.12-.16-.16-.36-.16-.6 0-.2.04-.399.16-.599.08-.16.24-.32.44-.44.04-.04.12-.04.2-.08zm-4.596-1.558c.12-.04.24-.08.4-.08.2 0 .4.08.6.16.16.12.319.28.439.44.04.08.04.159.08.239.04.12.08.24.08.36 0 .24-.08.439-.16.599-.12.2-.28.36-.44.44-.2.12-.4.16-.6.16-.239 0-.439-.04-.599-.16a.791.791 0 01-.439-.44c-.12-.16-.16-.36-.16-.6 0-.2.04-.4.16-.599.08-.16.24-.32.44-.44.04-.04.12-.04.2-.08z" fill="#4C9C1A"/><path fill-rule="evenodd" clip-rule="evenodd" d="M82.652 60.519c-3.676.24-6.473 3.436-6.233 7.072.24 3.676 3.436 6.473 7.072 6.234 3.716-.24 6.433-3.437 6.234-7.073-.08-1.039-.36-1.998-.84-2.837v.2h-.04v.2l-.04.04v.12l-.04.04v.04l-.04.04v.08l-.04.04v.04l-.04.04v.04l-.04.04v.04l-.04.039v.04h-.04v.04l-.04.04v.04h-.04v.04l-.04.04-.039.04-.04.04-.04.04v.04h-.04v.04l-.04.04-.04.04h-.04v.04h-.04v.04h-.04l-.04.04h-.04l-.08.08h-.04v.04h-.04l-.04.04h-.04v.04h-.08l-.04.04h-.04l-.04.04h-.04l-.04.039h-.119v.04h-.16v.04h-.2l-.04.04h-.12a2.204 2.204 0 01-2.357-2.078c-.08-1.239.84-2.317 2.078-2.397h.2c-1.199-.76-2.598-1.12-4.076-1.04zm-2.757 8.71c-.56.04-.96.48-.92 1.04.04.559.48.958 1.04.918.56-.04.959-.479.919-1.078a.952.952 0 00-1.04-.88z" fill="#377D0B"/><path fill-rule="evenodd" clip-rule="evenodd" d="M62.234 52.967c9.39-1.918 13.985 21.817-1.399 22.975-11.707.88-12.706-20.018 1.399-22.975z" fill="#fff"/><path fill-rule="evenodd" clip-rule="evenodd" d="M61.394 59.6c-3.676.24-6.473 3.437-6.233 7.073.24 3.676 3.436 6.473 7.073 6.233 3.716-.24 6.433-3.436 6.233-7.072-.08-1.04-.36-1.998-.84-2.837v.2h-.04v.2l-.04.04v.12l-.039.04v.039l-.04.04v.08l-.04.04v.04l-.04.04v.04l-.04.04v.04l-.04.04v.04h-.04v.04l-.04.04v.04h-.04v.04l-.04.04-.04.04-.04.04-.04.04v.04h-.04v.04l-.04.04-.04.039h-.04v.04h-.04v.04h-.04l-.04.04h-.04l-.08.08h-.04v.04h-.039l-.04.04h-.04v.04h-.08l-.04.04h-.04l-.04.04h-.04l-.04.04h-.12v.04h-.16v.04h-.2l-.04.04h-.119a2.204 2.204 0 01-2.357-2.078c-.08-1.239.839-2.318 2.077-2.398h.2c-1.199-.759-2.597-1.119-4.076-1.039zm-2.757 8.711c-.559.04-.959.48-.919 1.039.04.56.48.959 1.04.919.559-.04.958-.48.918-1.079a.952.952 0 00-1.039-.879z" fill="#377D0B"/><path fill-rule="evenodd" clip-rule="evenodd" d="M91.443 52.568c-.72-3.316-4.435-5.194-7.352-5.354-1.319-.12-1.918 1.558-.48 1.718 3.916.24 6.074 1.758 7.832 3.636zm-37.601-3.677c2.038-3.236 6.673-3.756 9.87-2.837 1.398.36 1.398 2.477-.16 2.078-4.236-1.279-7.113-.52-9.71.76z" fill="#3A3A3A"/><path fill-rule="evenodd" clip-rule="evenodd" d="M99.993.143c14.505 10.988 13.186 31.886-2.677 41.316a34.256 34.256 0 01-4.355 2.198c-4.955-4.116-13.546-6.793-23.296-6.793-6.433 0-12.387 1.159-17.102 3.157-3.396.52-6.752 2.157-10.189 5.674-.2.2-.52.28-.799.2-.12-.04-.28-.12-.36-.2-6.872-9.11-4.635-21.338 4.955-28.25 11.748-8.471 21.258-2.718 33.884-1.479 11.108 1.119 18.42-5.834 18.78-15.304v-.04c0-.04 0-.08.04-.12.12-.359.52-.519.92-.479.08.04.16.08.2.12z" fill="#86328D"/><path fill-rule="evenodd" clip-rule="evenodd" d="M57.439 83.974c.12-.04.24-.08.4-.08.199 0 .399.08.599.16.16.12.32.28.439.44.04.08.04.16.08.24.04.119.08.239.08.359 0 .24-.08.44-.16.6a1.16 1.16 0 01-.44.439c-.2.12-.4.16-.599.16-.24 0-.44-.04-.6-.16a.792.792 0 01-.439-.44c-.12-.16-.16-.36-.16-.6 0-.199.04-.399.16-.599.08-.16.24-.32.44-.44.04-.04.12-.04.2-.079z" fill="#4C9C1A"/><path fill-rule="evenodd" clip-rule="evenodd" d="M45.93 45.655c16.943-9.91 41.157-7.832 47.19-1.438.12-1.799.36-3.996.28-5.515-12.466-6.992-28.49-7.152-48.308 1.479l.839 5.474z" fill="#245903"/><path fill-rule="evenodd" clip-rule="evenodd" d="M62.593 6.976c-3.476 0-6.433.799-9.43 2.517-2.997 1.758-5.154 3.916-6.913 6.913-1.718 2.996-2.517 5.953-2.517 9.43 0 3.476.8 6.433 2.517 9.43 1.758 2.997 3.916 5.154 6.913 6.912 2.997 1.719 5.954 2.518 9.43 2.518s6.433-.8 9.43-2.518c2.997-1.758 5.155-3.915 6.913-6.912 1.718-2.997 2.517-5.954 2.517-9.43 0-3.477-.799-6.434-2.517-9.43-1.758-2.997-3.916-5.155-6.913-6.913-2.997-1.718-5.954-2.517-9.43-2.517z" fill="#C4C6C8"/><path fill-rule="evenodd" clip-rule="evenodd" d="M80.175 19.003c-1.678-4.355-4.875-7.912-9.03-9.99l-8.552 16.823 17.582-6.833zM45.811 34.427c2.078 4.115 5.674 7.312 10.03 8.99l6.752-17.621-16.782 8.63z" fill="#ECECED"/><path fill-rule="evenodd" clip-rule="evenodd" d="M62.593 22.56c-.599 0-1.119.12-1.638.44a3.43 3.43 0 00-1.199 1.198c-.32.52-.44 1.039-.44 1.638 0 .6.12 1.119.44 1.638.32.52.68.88 1.2 1.2.518.319 1.038.439 1.637.439.6 0 1.12-.12 1.639-.44.52-.32.879-.68 1.198-1.199.32-.52.44-1.038.44-1.638 0-.6-.12-1.119-.44-1.638-.32-.52-.679-.88-1.198-1.199-.52-.32-1.04-.44-1.639-.44z" fill="#245903"/></svg>