<svg width="499" height="443" fill="none" xmlns="http://www.w3.org/2000/svg"><g style="mix-blend-mode:luminosity" opacity=".04" fill-rule="evenodd" clip-rule="evenodd"><path d="M193.271 290.213c-9.643 4.325-21.164 4.194-31.182-.263-24.294-10.616-37.694-52.69-75.638-62.914-35.815-9.699-71.505 16.908-77.892 54.919-33.185 242.221 475.491 188.481 490.017-14.811 3.006-43.516-31.307-77.595-69.251-76.677-31.557.786-48.839 29.229-74.886 48.234-47.086 34.734-100.308 53.215-161.168 51.512z" fill="#5DB02A"/><path d="M65.79 258.1c-2.003 5.636.627 11.928 5.886 13.894 5.51 2.097 11.772-1.311 13.275-7.209 3.13.524 6.386 3.408 8.64 6.685v.131c.376.393 1.128.524 1.628.262.376-.262.627-.656.627-1.18C93.841 250.236 71.55 243.42 65.79 258.1z" fill="#245903"/><path d="M227.461 384.978c-4.007 0-9.267-22.937-10.77-29.884l11.897.393 12.147.524c-2.129 6.816-8.766 28.967-13.274 28.967zm-57.227-7.209c-4.132-.656-5.885-24.249-6.386-31.327l11.771 2.36 11.897 2.359c-3.131 6.554-13.024 27.263-17.282 26.608zm-53.48-14.156c-3.756-1.18-3.256-24.772-3.13-31.981l11.521 3.67 11.521 3.67c-3.632 6.16-15.654 25.821-19.912 24.641zm-23.786-68.42c3.38 1.18 1.502 22.02.876 28.312l-9.893-3.932-9.767-4.063c3.506-5.112 15.152-21.496 18.784-20.317zm200.734 23.2c3.507-1.049 13.65 16.777 16.781 22.413l-10.269 2.753-10.269 2.883c0-6.291.126-26.869 3.757-28.049zM413.17 295.98c2.38-2.753-9.141-19.792-12.898-24.904l-6.512 8.651-6.512 8.65c5.51 2.622 23.418 10.617 25.922 7.603zm-46.578 45.744c3.005-1.966-2.881-21.889-4.759-27.918l-8.891 6.029-8.766 6.161c4.508 4.194 19.16 17.694 22.416 15.728z" fill="#fff"/><path d="M343.423 258.755c0 .131-.125.262-.25.393-.251.656-.501 1.311-.501 1.967 0 .786.25 1.31.501 1.966.375.524.751.917 1.127 1.31.125 0 .25.131.25.131a3.41 3.41 0 001.879.525c.751 0 1.377-.131 1.878-.525.626-.393 1.127-.786 1.378-1.441.375-.656.501-1.18.501-1.966 0-.656-.126-1.311-.501-1.967-.251-.655-.752-1.048-1.378-1.441-.501-.394-1.127-.525-1.878-.525a3.41 3.41 0 00-1.879.525c-.375.262-.751.655-1.127 1.048z" fill="#4C9C1A"/><path d="M419.561 232.934c-66.997 143-210.884 138.674-332.981 85.459-31.683-15.204-99.557-20.84-83.527 38.273 1.127 4.063 5.51 2.228 4.508-1.442-14.902-54.525 51.093-43.778 77.14-32.374 124.602 54.263 270.743 57.54 338.992-87.95l-4.132-1.966z" fill="#245903"/><path d="M397.53 233.459c-2.38.524-4.634-1.049-5.135-3.67-.375-2.491 1.127-4.981 3.507-5.505 9.893-1.835 18.158-.525 25.17 3.67 7.013 4.194 12.523 10.747 17.282 19.267 1.252 2.228.626 4.981-1.503 6.292-2.129 1.31-4.758.655-6.011-1.573-4.132-7.209-8.64-12.583-14.15-15.86-5.135-3.015-11.396-4.063-19.16-2.621z" fill="#245903"/><path d="M235.351 106.712c-24.795 14.943-29.93 46.007-33.812 75.105-3.506 26.869-3.506 127.926-40.949 107.61-9.643 18.35 2.88 29.753 19.16 30.015 63.615 1.049 184.21-11.534 207.377-100.663-9.893-70.386-90.54-149.029-151.776-112.067z" fill="#5DB02A"/><path d="M238.6 176.705c28.928-8.388 48.213 68.158.376 75.367-36.191 5.505-43.83-62.784-.376-75.367z" fill="#fff"/><path d="M308.989 263.212c-.376.393-.626.655-.877 1.18-.375.655-.501 1.179-.501 1.966 0 .655.126 1.31.501 1.966.125.262.251.393.376.655.25.262.626.524 1.002.787.626.393 1.127.524 1.878.524.626 0 1.252-.131 1.879-.524.626-.394 1.001-.787 1.377-1.442.376-.656.501-1.311.501-1.966 0-.787-.125-1.311-.501-1.966-.376-.656-.751-1.049-1.377-1.442a3.419 3.419 0 00-1.879-.524c-.751 0-1.252.131-1.878.524-.125.131-.376.131-.501.262zm16.017-1.18c-.375.393-.626.655-.876 1.18-.376.655-.501 1.179-.501 1.966 0 .655.125 1.31.501 1.966.125.262.25.393.376.655.25.262.626.524 1.001.787.626.393 1.127.524 1.879.524.626 0 1.252-.131 1.878-.524.626-.394 1.002-.787 1.378-1.442.375-.656.501-1.311.501-1.966 0-.787-.126-1.311-.501-1.966-.376-.656-.752-1.049-1.378-1.442a3.413 3.413 0 00-1.878-.524c-.752 0-1.253.131-1.879.524-.125.131-.375.131-.501.262zm-116.585-1.703c-.375-.132-.751-.263-1.252-.263-.626 0-1.252.263-1.878.525a7.36 7.36 0 00-1.378 1.441c-.125.263-.125.525-.25.787-.126.393-.251.786-.251 1.18 0 .786.251 1.441.501 1.966.376.655.877 1.179 1.378 1.441a3.406 3.406 0 001.878.525c.751 0 1.377-.131 1.878-.525a2.54 2.54 0 001.378-1.441c.376-.525.501-1.18.501-1.966 0-.656-.125-1.311-.501-1.967-.251-.524-.751-1.048-1.378-1.441-.125-.131-.375-.131-.626-.262zm1.5 14.549c-.375-.131-.751-.263-1.252-.263-.626 0-1.252.263-1.878.525a7.337 7.337 0 00-1.378 1.442c-.125.262-.125.524-.25.786-.126.393-.251.786-.251 1.18 0 .786.251 1.441.501 1.966.376.655.877 1.179 1.378 1.442a3.413 3.413 0 001.878.524c.751 0 1.377-.131 1.878-.524a2.545 2.545 0 001.378-1.442c.376-.525.501-1.18.501-1.966 0-.656-.125-1.311-.501-1.966-.251-.525-.751-1.049-1.378-1.442-.125-.131-.375-.131-.626-.262zm14.405-5.112c-.376-.131-.752-.262-1.253-.262-.626 0-1.252.262-1.878.524a7.365 7.365 0 00-1.378 1.442c-.125.262-.125.524-.25.786-.125.394-.251.787-.251 1.18 0 .786.251 1.442.501 1.966.376.656.877 1.18 1.378 1.442a3.413 3.413 0 001.878.524c.752 0 1.378-.131 1.879-.524a2.538 2.538 0 001.377-1.442c.376-.524.501-1.18.501-1.966 0-.655-.125-1.311-.501-1.966-.25-.524-.751-1.049-1.377-1.442-.126-.131-.376-.131-.626-.262z" fill="#4C9C1A"/><path d="M241.485 198.462c11.521.787 20.287 11.273 19.535 23.2-.751 12.059-10.769 21.234-22.165 20.447-11.646-.786-20.162-11.272-19.535-23.199.25-3.408 1.127-6.554 2.629-9.307v.656h.126v.655l.125.131v.393l.125.132v.131l.125.131v.262l.125.131v.131l.126.131v.131l.125.131v.131l.125.131v.131h.125v.131l.126.132v.131h.125v.131l.125.131.125.131.125.131.126.131v.131h.125v.131l.125.131.125.131h.126v.131h.125v.131h.125l.125.131h.126l.25.263h.125v.131h.125l.126.131h.125v.131h.25l.126.131h.125l.125.131h.125l.126.131h.375v.131h.501v.131h.626l.125.131h.376c3.882.262 7.138-2.752 7.389-6.815.25-4.064-2.63-7.603-6.512-7.865h-.626c3.756-2.49 8.139-3.67 12.773-3.408zm8.641 28.574c1.753.131 3.005 1.573 2.88 3.408s-1.503 3.146-3.256 3.015c-1.753-.132-3.006-1.573-2.88-3.539.125-1.704 1.502-3.015 3.256-2.884z" fill="#377D0B"/><path d="M305.481 173.689c-29.428-6.291-43.83 71.565 4.383 75.367 36.692 2.883 39.823-65.668-4.383-75.367z" fill="#fff"/><path d="M308.106 195.448c11.521.787 20.287 11.272 19.536 23.2-.752 12.059-10.77 21.234-22.166 20.447-11.646-.786-20.162-11.272-19.535-23.2.25-3.407 1.127-6.553 2.629-9.306v.656h.126v.655l.125.131v.393l.125.131v.131l.125.132v.262l.126.131v.131l.125.131v.131l.125.131v.131l.125.131v.131h.125v.131l.126.131v.131h.125v.132l.125.131.125.131.126.131.125.131v.131h.125v.131l.125.131.126.131h.125v.131h.125v.131h.125l.125.131h.126l.25.262h.125v.132h.126l.125.131h.125v.131h.25l.126.131h.125l.125.131h.125l.126.131h.375v.131h.501v.131h.626l.126.131h.375c3.882.262 7.138-2.752 7.389-6.816.25-4.063-2.63-7.602-6.512-7.864h-.626c3.757-2.49 8.14-3.67 12.773-3.408zm8.641 28.574c1.753.131 3.005 1.573 2.88 3.408s-1.503 3.145-3.256 3.014c-1.753-.131-3.005-1.572-2.88-3.539.125-1.703 1.502-3.014 3.256-2.883z" fill="#377D0B"/><path d="M213.936 172.379c2.254-10.879 13.9-17.039 23.041-17.564 4.133-.393 6.011 5.112 1.503 5.637-12.272.786-19.034 5.767-24.544 11.927zm117.834-12.058c-6.387-10.617-20.913-12.321-30.932-9.306-4.382 1.179-4.382 8.126.501 6.815 13.275-4.194 22.291-1.704 30.431 2.491z" fill="#3A3A3A"/><path d="M187.134.413c-45.458 36.045-41.326 104.595 8.39 135.528 4.633 2.884 9.141 5.243 13.65 7.209 15.528-13.5 42.452-22.282 73.008-22.282 20.161 0 38.82 3.801 53.597 10.355 10.645 1.704 21.164 7.078 31.933 18.612.626.655 1.628.917 2.505.655.376-.131.876-.393 1.127-.655 21.539-29.885 14.526-69.993-15.528-92.668-36.817-27.787-66.622-8.913-106.194-4.85-34.813 3.67-57.73-19.136-58.857-50.2v-.131c0-.131 0-.262-.125-.393-.376-1.18-1.628-1.704-2.88-1.573-.251.13-.501.262-.626.393z" fill="#86328D"/><path d="M320.505 275.402c-.375-.132-.751-.263-1.252-.263-.626 0-1.252.263-1.878.525a7.36 7.36 0 00-1.378 1.441c-.125.263-.125.525-.25.787-.126.393-.251.786-.251 1.18 0 .786.251 1.441.501 1.966.376.655.877 1.179 1.378 1.441a3.406 3.406 0 001.878.525c.751 0 1.377-.131 1.878-.525a2.544 2.544 0 001.378-1.441c.376-.525.501-1.18.501-1.966 0-.656-.125-1.311-.501-1.967-.251-.524-.752-1.048-1.378-1.441-.125-.131-.375-.131-.626-.262z" fill="#4C9C1A"/><path d="M356.567 149.703c-53.097-32.505-128.985-25.69-147.894-4.718-.376-5.898-1.127-13.107-.877-18.088 39.071-22.938 89.288-23.462 151.401 4.85l-2.63 17.956z" fill="#245903"/><path d="M304.346 22.826c10.895 0 20.162 2.621 29.554 8.257 9.392 5.767 16.154 12.845 21.664 22.676 5.385 9.83 7.889 19.53 7.889 30.933 0 11.403-2.504 21.102-7.889 30.933-5.51 9.83-12.272 16.908-21.664 22.675-9.392 5.636-18.659 8.258-29.554 8.258s-20.162-2.622-29.554-8.258c-9.392-5.767-16.154-12.845-21.664-22.675-5.385-9.831-7.89-19.53-7.89-30.933 0-11.404 2.505-21.103 7.89-30.933 5.51-9.83 12.272-16.909 21.664-22.676 9.392-5.636 18.659-8.257 29.554-8.257z" fill="#C4C6C8"/><path d="M249.258 62.279c5.259-14.287 15.278-25.953 28.301-32.769l26.799 55.182-55.1-22.413zm107.689 50.593c-6.512 13.5-17.782 23.986-31.432 29.491l-21.163-57.802 52.595 28.311z" fill="#ECECED"/><path d="M304.347 73.945c1.878 0 3.506.393 5.134 1.441 1.628 1.049 2.755 2.229 3.757 3.933 1.002 1.703 1.378 3.407 1.378 5.373 0 1.967-.376 3.67-1.378 5.374-1.002 1.704-2.129 2.884-3.757 3.933-1.628 1.048-3.256 1.441-5.134 1.441-1.879 0-3.507-.393-5.135-1.441-1.627-1.049-2.755-2.229-3.756-3.933-1.002-1.704-1.378-3.407-1.378-5.374 0-1.966.376-3.67 1.378-5.373 1.001-1.704 2.129-2.884 3.756-3.933 1.628-1.048 3.256-1.441 5.135-1.441z" fill="#245903"/></g></svg>