<svg width="353" height="382" fill="none" xmlns="http://www.w3.org/2000/svg"><g opacity=".3"><path d="M268.703 102.335c100.779-39.49 137.777 163.314-58.362 191.779-163.75 23.793-163.937-147.618-93.305-140.767" stroke="#1B1918" stroke-width="1.89" stroke-linecap="round" stroke-linejoin="round"/><path fill-rule="evenodd" clip-rule="evenodd" d="M125.569 180.629c-6.229 2.616-13.828 2.554-20.306-.187-15.883-6.664-24.54-32.825-49.268-39.24-23.357-6.042-46.652 10.526-50.825 34.195-21.676 150.919 310.122 117.534 319.59-9.218 1.993-27.095-20.43-48.334-45.158-47.774-20.554.498-31.89 18.25-48.77 30.084-30.769 21.614-65.462 33.199-105.263 32.14z" fill="#5DB02A"/><path fill-rule="evenodd" clip-rule="evenodd" d="M42.542 160.511c-1.308 3.488.374 7.349 3.862 8.657 3.55 1.246 7.599-.809 8.595-4.484 2.056.311 4.111 2.055 5.668 4.173.25.311.685.374 1.06.187.248-.125.373-.436.373-.685-1.246-12.769-15.82-17.004-19.558-7.848z" fill="#245903"/><path fill-rule="evenodd" clip-rule="evenodd" d="M148.178 239.614c-2.678 0-6.166-14.263-7.163-18.623l7.848.249 7.848.311c-1.37 4.298-5.73 18.063-8.533 18.063zm-37.62-4.484c-2.616-.437-3.799-15.074-4.111-19.558l7.724 1.495 7.661 1.494c-2.056 4.049-8.471 17.005-11.274 16.569zm-34.818-8.97c-2.491-.685-2.118-15.322-2.055-19.807l7.536 2.305 7.474 2.305c-2.429 3.737-10.214 15.945-12.955 15.197zm-15.509-42.479c2.18.747.997 13.703.56 17.627l-6.477-2.429-6.353-2.554c2.305-3.176 9.903-13.391 12.27-12.644zm130.988 14.451c2.242-.623 8.907 10.401 10.9 13.827l-6.727 1.806-6.602 1.807c0-3.987.062-16.693 2.429-17.44zm77.982-14.015c1.495-1.744-6.042-12.27-8.346-15.447l-4.36 5.357-4.236 5.419c3.613 1.557 15.323 6.54 16.942 4.671zm-30.397 28.403c1.931-1.246-1.868-13.579-3.114-17.316l-5.793 3.737-5.73 3.737c2.927 2.679 12.457 11.087 14.637 9.842z" fill="#fff"/><path fill-rule="evenodd" clip-rule="evenodd" d="M223.607 160.947c-.062.062-.062.124-.124.187-.249.436-.312.809-.312 1.245 0 .436.063.81.312 1.184.187.311.436.56.747.809.063 0 .063.063.125.063.374.249.747.311 1.183.311.436 0 .81-.062 1.246-.311.374-.187.623-.499.872-.872.187-.374.311-.748.311-1.184 0-.436-.124-.809-.311-1.245a2.9 2.9 0 00-.872-.872c-.436-.187-.81-.312-1.246-.312-.436 0-.809.125-1.183.312a2.641 2.641 0 00-.748.685z" fill="#4C9C1A"/><path fill-rule="evenodd" clip-rule="evenodd" d="M273.436 144.815c-43.787 89.007-137.528 86.328-217.316 53.254-20.68-9.467-64.965-13.018-54.5 23.794.81 2.491 3.612 1.37 2.927-.872-9.717-33.946 33.385-27.219 50.39-20.181 81.283 33.759 176.705 35.877 221.177-54.75l-2.678-1.245z" fill="#245903"/><path d="M258.487 142.323c11.399-2.18 18.873 3.177 24.603 12.831" stroke="#245903" stroke-width="2.683" stroke-linecap="round" stroke-linejoin="round"/><path fill-rule="evenodd" clip-rule="evenodd" d="M153.1 66.209c-16.132 9.405-19.496 28.714-21.987 46.901-2.305 16.693-2.367 79.726-26.783 67.082-6.291 11.399 1.931 18.562 12.519 18.686 41.483.685 120.212-7.163 135.286-62.847-6.478-43.787-59.048-92.868-99.035-69.822z" fill="#5DB02A"/><path fill-rule="evenodd" clip-rule="evenodd" d="M155.217 109.747c18.935-5.232 31.579 42.542.249 47.089-23.606 3.425-28.589-39.178-.249-47.089z" fill="#fff"/><path fill-rule="evenodd" clip-rule="evenodd" d="M201.122 163.75c-.187.187-.374.374-.499.623-.249.374-.311.747-.311 1.183 0 .499.062.872.311 1.246.063.125.125.249.25.374.186.187.373.373.622.498.374.187.748.311 1.184.311.436 0 .81-.124 1.183-.311.374-.249.685-.498.872-.872.249-.374.374-.747.374-1.246 0-.436-.125-.809-.374-1.183-.187-.374-.498-.623-.872-.872-.373-.187-.747-.312-1.183-.312-.436 0-.81.125-1.184.312-.124.062-.249.187-.373.249zm10.402-.686c-.187.187-.374.374-.499.623-.249.374-.311.748-.311 1.184 0 .498.062.872.311 1.245.063.125.125.25.249.374.187.187.374.374.623.498.374.187.748.312 1.184.312.436 0 .809-.125 1.183-.312.374-.249.685-.498.872-.872.249-.373.374-.747.374-1.245 0-.436-.125-.81-.374-1.184-.187-.373-.498-.623-.872-.872-.374-.187-.747-.311-1.183-.311-.436 0-.81.124-1.184.311-.124.063-.249.187-.373.249zm-76.051-1.245c-.249-.062-.498-.125-.747-.125-.499 0-.872.125-1.246.312a2.9 2.9 0 00-.872.872c-.062.187-.125.311-.187.436-.062.249-.125.498-.125.809 0 .436.125.81.312 1.184a2.9 2.9 0 00.872.872c.374.187.747.311 1.246.311.436 0 .809-.124 1.183-.311a2.9 2.9 0 00.872-.872c.187-.374.311-.748.311-1.184 0-.498-.124-.872-.311-1.245a2.9 2.9 0 00-.872-.872c-.187-.063-.311-.125-.436-.187zm.934 9.156c-.249-.063-.498-.125-.747-.125-.499 0-.872.125-1.246.311-.374.25-.623.499-.872.872-.062.187-.125.312-.187.436-.062.25-.125.499-.125.81 0 .436.125.81.312 1.184.249.373.498.622.872.872.374.186.747.311 1.246.311.436 0 .809-.125 1.183-.311.374-.25.623-.499.872-.872.187-.374.312-.748.312-1.184 0-.498-.125-.872-.312-1.246a2.924 2.924 0 00-.872-.872c-.187-.062-.311-.124-.436-.186zm9.467-3.238c-.249-.063-.498-.125-.748-.125-.498 0-.872.125-1.245.311-.374.25-.623.499-.872.872a3.115 3.115 0 01-.187.436c-.062.25-.125.499-.125.81 0 .436.125.81.312 1.184.249.373.498.622.872.872.373.186.747.311 1.245.311.436 0 .81-.125 1.184-.311.374-.25.623-.499.872-.872.187-.374.311-.748.311-1.184 0-.498-.124-.872-.311-1.246a2.924 2.924 0 00-.872-.872 3.009 3.009 0 01-.436-.186z" fill="#4C9C1A"/><path fill-rule="evenodd" clip-rule="evenodd" d="M157.086 123.389a13.55 13.55 0 0112.644 14.45 13.551 13.551 0 01-14.451 12.644c-7.474-.498-13.08-6.914-12.644-14.45.125-2.118.748-4.111 1.744-5.793v.436l.062.063v.311l.063.062v.125l.062.124v.125l.062.062v.125l.063.062.062.125v.124l.062.063.062.062v.124h.063v.063l.062.062v.062h.062v.125h.063v.062l.062.062v.063h.062v.062l.062.062h.063v.063l.062.062.062.062.063.062.062.125.062.062.062.063h.063l.062.062.062.062.063.062.062.063.062.062h.062v.062l.187.125h.063l.062.062.062.062h.125v.063h.062l.125.062.062.062.124.063h.125l.062.062h.063l.062.062h.124l.063.062h.187v.063h.249l.062.062h.311l.25.062a4.568 4.568 0 004.796-4.235c.124-2.492-1.744-4.672-4.236-4.796h-.436c2.367-1.557 5.232-2.305 8.347-2.18zm5.605 17.814c1.121.062 1.931.996 1.869 2.055-.125 1.121-1.059 1.931-2.118 1.869-1.059-.063-1.931-.997-1.806-2.118.062-1.059.996-1.869 2.055-1.806z" fill="#377D0B"/><path fill-rule="evenodd" clip-rule="evenodd" d="M198.88 107.878c-19.184-3.924-28.527 44.535 2.927 46.964 23.856 1.806 25.911-40.984-2.927-46.964z" fill="#fff"/><path fill-rule="evenodd" clip-rule="evenodd" d="M200.562 121.457a13.551 13.551 0 0112.644 14.451 13.551 13.551 0 01-14.451 12.644c-7.474-.498-13.08-6.914-12.644-14.45.125-2.118.748-4.111 1.744-5.793v.436l.062.062v.312l.063.062v.125l.062.124v.125l.062.062v.125l.063.062.062.124v.125l.062.062.063.063v.124h.062v.062l.062.063v.062h.062v.125h.063v.062l.062.062v.062h.062v.063l.063.062h.062v.062l.062.063.062.062.063.062.062.125.062.062.063.062h.062l.062.063.062.062.063.062.062.062.062.063h.063v.062l.186.125h.063l.062.062.062.062h.125v.062h.062l.125.063.062.062.125.062h.124l.062.063h.063l.062.062h.125l.062.062h.187v.062h.249l.062.063h.312l.249.062a4.568 4.568 0 004.796-4.235c.124-2.492-1.744-4.672-4.236-4.797h-.436c2.367-1.557 5.232-2.304 8.347-2.18zm5.605 17.814c1.121.063 1.931.997 1.869 2.056-.125 1.121-1.059 1.931-2.118 1.868-1.059-.062-1.931-.996-1.806-2.117.062-1.059.996-1.869 2.055-1.807z" fill="#377D0B"/><path fill-rule="evenodd" clip-rule="evenodd" d="M139.147 107.006c1.495-6.789 9.031-10.588 15.073-10.9 2.679-.249 3.987 3.24.997 3.55-8.035.499-12.457 3.551-16.07 7.35zm76.86-7.473c-4.235-6.602-13.64-7.661-20.056-5.793-2.927.748-2.927 5.045.249 4.236 8.596-2.616 14.451-1.06 19.807 1.557z" fill="#3A3A3A"/><path fill-rule="evenodd" clip-rule="evenodd" d="M119.028.25c-27.717 20.99-25.662 68.763 12.083 77.047 29.711 6.478 43.165-13.391 74.37-2.118 12.956 4.734 25.101 13.579 32.576 25.724 4.609-19.744 17.128-27.343 16.132-37.247-1.121-12.208-13.641-23.855-33.946-13.64-1.184-31.268-43.787-23.98-66.023-21.8-19.621 1.93-32.514-10.34-33.137-26.97-.062-.935-1.183-1.495-2.055-.997z" fill="#86328D"/><path fill-rule="evenodd" clip-rule="evenodd" d="M208.597 171.224c-.25-.062-.499-.125-.748-.125-.498 0-.872.125-1.246.312a2.912 2.912 0 00-.872.872 2.94 2.94 0 01-.187.436c-.062.249-.124.498-.124.81 0 .436.124.809.311 1.183.249.374.499.623.872.872.374.187.748.311 1.246.311.436 0 .81-.124 1.184-.311.373-.249.622-.498.872-.872.186-.374.311-.747.311-1.183 0-.499-.125-.872-.311-1.246a2.924 2.924 0 00-.872-.872c-.187-.062-.312-.125-.436-.187z" fill="#4C9C1A"/><path d="M174.9 359.826c-45.033 45.095-124.884 11.399-109.437-57.801" stroke="#1B1918" stroke-width="1.89"/><path d="M153.971 294.053c23.98 5.668 40.611 35.877 20.866 65.774 27.531-34.257 54.936-58.673 91.81-80.91m2.119-176.582c4.733-1.869 9.343-3.177 13.765-3.987" stroke="#1B1918" stroke-width="3.78" stroke-linecap="round" stroke-linejoin="round"/><path d="M289.818 267.206c-20.492 12.457-46.715 22.049-79.477 26.783-30.583 4.485-55.497 2.118-75.304-4.671M99.72 155.465c5.107-1.993 10.962-2.865 17.315-2.242" stroke="#1B1918" stroke-width="3.78" stroke-linecap="round" stroke-linejoin="round"/><path fill-rule="evenodd" clip-rule="evenodd" d="M66.707 285.394c9.156.623 16.132 8.533 15.51 17.751-.561 9.157-8.534 16.133-17.752 15.51-9.156-.561-16.07-8.533-15.51-17.752a17.143 17.143 0 012.118-7.1v.249l.063.124v.312l.062.062v.249l.062.125v.124l.063.125v.124l.062.125.062.125.062.124v.125l.063.124.062.125.062.062v.062l.063.063v.062l.062.062v.063l.062.062v.062h.062l.063.062v.063l.062.062v.062l.062.063.063.124.062.062h.062v.063l.062.062.063.125.124.062.063.124.062.063h.062l.062.062v.062l.063.063h.062l.062.062v.062h.063l.062.062.062.063h.062l.063.062v.062l.249.125h.062l.062.062.125.062v.063h.062l.063.062H54l.062.062h.062l.125.063.124.062.125.062.125.062.124.063h.125l.124.062h.125l.062.062h.187l.062.063h.187l.063.062h.311l.25.062c3.051.187 5.73-2.118 5.916-5.17.187-3.052-2.117-5.73-5.17-5.917h-.498c2.865-1.931 6.416-2.865 10.215-2.678zm6.852 21.862c1.37.063 2.367 1.246 2.304 2.554-.124 1.308-1.245 2.305-2.616 2.242-1.308-.062-2.304-1.245-2.242-2.553.124-1.308 1.246-2.367 2.554-2.243z" fill="#99369E"/></g></svg>