<svg width="16" height="16" fill="none" xmlns="http://www.w3.org/2000/svg"><g clip-path="url(#clip0_963_8598)"><path d="M13.928.941h-1.412v1.412a.472.472 0 01-.941 0V.94h-7.53v1.412a.472.472 0 01-.941 0V.94H1.692C.986.941.47 1.553.47 2.353v1.694h15.059V2.353c0-.8-.848-1.412-1.6-1.412zM.468 5.035v8.612c0 .847.518 1.412 1.271 1.412h12.236c.753 0 1.6-.612 1.6-1.412V5.035H.469zm4.189 7.906h-1.13a.371.371 0 01-.376-.376v-1.177a.37.37 0 01.377-.376h1.176a.37.37 0 01.377.376v1.177c-.048.235-.189.376-.424.376zm0-4.235h-1.13a.371.371 0 01-.376-.377V7.153c0-.188.141-.377.377-.377h1.176c.188 0 .377.142.377.377v1.176c-.048.236-.189.377-.424.377zm3.765 4.235H7.245a.371.371 0 01-.376-.376v-1.177a.37.37 0 01.376-.376h1.177a.37.37 0 01.376.376v1.177c0 .235-.141.376-.376.376zm0-4.235H7.245a.371.371 0 01-.376-.377V7.153a.37.37 0 01.376-.377h1.177c.188 0 .376.142.376.377v1.176c0 .236-.141.377-.376.377zm3.764 4.235H11.01a.371.371 0 01-.377-.376v-1.177c0-.188.142-.376.377-.376h1.176a.37.37 0 01.377.376v1.177c0 .235-.141.376-.377.376zm0-4.235H11.01a.371.371 0 01-.377-.377V7.153c0-.188.142-.377.377-.377h1.176c.189 0 .377.142.377.377v1.176c0 .236-.141.377-.377.377z" fill="#5DB02A"/></g><defs><clipPath id="clip0_963_8598"><path fill="#fff" d="M0 0h16v16H0z"/></clipPath></defs></svg>