<svg width="915" height="365" fill="none" xmlns="http://www.w3.org/2000/svg"><path d="M844.545 211.92v-11.68c-1.097-2.737-2.562-4.927-4.575-6.57-2.013-1.642-4.209-2.372-6.405-2.372-3.476 0-6.039 1.46-7.868 4.197-1.83 2.738-2.746 6.388-2.746 10.768 0 4.38.916 8.03 2.746 10.767 1.829 2.92 4.392 4.198 7.868 4.198h11.164v-9.308h-.184zm20.497 20.805H816.18c-2.745-1.277-5.124-3.285-7.32-5.84-4.392-5.292-6.588-12.41-6.588-21.17 0-8.76 2.196-15.695 6.588-20.805 4.392-5.11 10.065-7.665 17.202-7.665 3.477 0 6.954.913 10.615 2.555 3.477 1.825 6.038 4.198 7.868 7.118V176.15c0-10.585-4.391-15.877-13.358-15.877-6.223 0-12.079 2.92-17.752 8.76l-7.686-14.6c3.843-4.015 8.418-6.935 13.725-8.76 5.307-1.825 10.615-2.738 15.922-2.738 9.332 0 16.652 2.373 21.776 7.118 5.124 4.745 7.87 11.862 7.87 21.535v61.137zm-95.893-87.6h20.496v87.6h-94.611v-87.6h20.496v69.715h16.287v-69.715h20.496v69.715h16.47v-69.715h.366zm-120.414 71.54c7.869 0 11.895-9.307 11.895-27.922 0-18.433-4.026-27.74-11.895-27.74-7.686 0-11.712 9.307-11.712 27.74 0 18.615 3.843 27.922 11.712 27.922zm0 18.25c-10.797 0-19.032-4.38-24.521-13.14-5.491-8.76-8.419-19.71-8.419-32.85s2.745-24.09 8.419-32.85c5.489-8.76 13.724-13.14 24.521-13.14 10.98 0 19.215 4.38 24.705 13.14 5.49 8.76 8.418 19.71 8.418 32.85s-2.745 24.09-8.418 32.85c-5.49 8.76-13.908 13.14-24.705 13.14zm-54.9-2.19h-20.679v-69.897h-14.274v-17.703h49.044v17.703h-14.274v69.897h.183zm-85.278 0h-20.496v-87.6h20.496v33.033h18.483v-33.033h20.679v87.6H527.04V195.86h-18.483v36.865zm-53.07-51.647c0-14.418-4.026-21.535-12.261-21.535-4.575 0-7.686 2.19-9.699 6.57-2.013 4.38-2.928 9.307-2.928 14.965h24.888zm-9.516 53.837c-11.163 0-19.764-4.197-25.803-12.775-6.039-8.395-9.15-19.527-9.15-33.397 0-13.323 2.928-24.273 8.601-32.85 5.673-8.578 13.908-12.958 24.339-12.958 10.614 0 18.483 4.198 23.607 12.593 5.124 8.395 7.869 19.345 7.869 33.032v7.118h-44.469c.183 6.752 1.647 12.227 4.575 16.425 2.928 4.197 7.137 6.205 12.81 6.205 5.49 0 10.248-2.92 14.64-8.76l10.065 11.497c-7.686 9.125-16.653 13.87-27.084 13.87zm-89.67-61.685c-1.281 18.068-4.758 31.208-10.797 39.42h25.986v-80.847h-12.81l-2.379 41.427zm-32.025 39.238c.549-.365.915-.548 1.281-.913 1.464-1.277 3.111-4.927 4.575-10.767s2.562-14.6 3.294-26.463l4.026-56.757c.183-3.285 2.928-6.023 6.405-6.023h50.691v100.923h9.516v20.075h-95.709v-20.075h15.921z" fill="#86348B"/><path fill-rule="evenodd" clip-rule="evenodd" d="M143.837 128.845c20.862 5.293 24.339 33.945 34.221 47.085 3.294 4.563 8.601 7.3 14.64 7.3 5.673 0 11.346-3.103 14.823-8.03 7.503-10.22 3.111-29.93 16.287-43.435 12.444-12.593 33.489-10.95 45.201 2.373 71.004 87.052-151.89 191.442-206.058 114.974-14.457-20.44-1.098-49.64 24.34-51.282-4.21-32.12 23.423-77.38 56.546-68.985z" fill="#5FB130"/><path fill-rule="evenodd" clip-rule="evenodd" d="M149.328 154.943c-14.457 0-13.908 36.317 9.15 33.397 17.385-2.373 12.444-33.397-9.15-33.397z" fill="#fff"/><path fill-rule="evenodd" clip-rule="evenodd" d="M239.547 139.065c2.196 1.643 2.562 4.745.732 6.935-1.83 2.19-5.124 2.373-7.137.365-1.281 1.095-1.83 2.92-2.013 4.745 0 .365-.366.548-.549.548-.183 0-.366-.183-.549-.365-3.843-8.395 3.843-16.608 9.516-12.228z" fill="#2A5A28"/><path fill-rule="evenodd" clip-rule="evenodd" d="M202.766 228.855c1.647-.912-1.464-11.315-2.562-14.417l-4.758 3.102-4.758 3.103c2.378 2.372 10.248 9.307 12.078 8.212zm21.957-16.972c1.464-1.278-3.294-10.95-4.758-13.87l-4.209 3.832-4.209 3.833c2.745 1.825 11.712 7.482 13.176 6.205zm18.665-18.798c1.281-1.46-4.392-10.402-6.222-13.322l-3.843 4.197-3.843 4.198c3.111 1.642 12.444 6.387 13.908 4.927zm-6.221-32.667c-1.098 1.277 4.575 8.942 6.222 11.314l3.111-4.014 3.111-4.016c-2.562-1.095-11.163-4.744-12.444-3.284zM159.577 219c-1.647.365-1.647 9.855-1.647 12.775l4.941-1.46 4.941-1.46c-1.464-2.19-6.405-10.22-8.235-9.855zm-54.534 20.623c-1.647-.548-.915-10.038-.549-12.958l4.758 1.825 4.758 1.825c-1.83 2.373-7.32 9.855-8.967 9.308zm30.012 6.387c-1.647 0-4.026-9.307-4.575-12.045l5.124.183 5.124.182c-1.098 2.92-3.843 11.68-5.673 11.68z" fill="#fff"/><path fill-rule="evenodd" clip-rule="evenodd" d="M125.172 207.867c.915.365 1.281 1.46.915 2.373-.366.912-1.464 1.277-2.379.912-.915-.365-1.281-1.46-.915-2.372.366-.913 1.464-1.46 2.379-.913zm2.195-5.474c.915.365 1.281 1.46.915 2.372-.366.913-1.464 1.278-2.379.913s-1.281-1.46-.915-2.373c.366-.912 1.464-1.277 2.379-.912zm-7.5 1.642c.915.365 1.281 1.46.915 2.372-.366.913-1.464 1.278-2.379.913s-1.281-1.46-.915-2.373c.366-.912 1.464-1.46 2.379-.912zm58.74-20.075c.732-.547 1.83-.365 2.379.365.549.73.366 1.825-.366 2.373-.732.547-1.83.364-2.379-.366-.732-.73-.549-1.824.366-2.372zm1.098 6.57c.732-.547 1.83-.365 2.379.365.549.73.366 1.825-.366 2.373-.732.547-1.83.365-2.379-.365-.549-.73-.366-1.825.366-2.373zm-7.321-.365c.732-.547 1.83-.365 2.379.365.549.73.366 1.825-.366 2.373-.732.547-1.83.365-2.379-.548-.732-.547-.549-1.642.366-2.19z" fill="#4D9D34"/><path d="M87.472 216.445C148.96 256.047 207.337 219 245.218 167.9c9.516-13.87 36.234-32.85 43.554-5.658.549 1.825-1.83 2.19-2.196.548-6.771-25.185-31.476-4.563-39.528 6.387-38.613 52.013-98.271 89.425-160.857 49.093l1.281-1.825z" fill="#2A5A28"/><path fill-rule="evenodd" clip-rule="evenodd" d="M150.245 178.667c-.732.183-1.098 1.095-.915 1.825.183.73 1.098 1.095 1.83.913.732-.183 1.098-1.095.915-1.825-.366-.73-1.098-1.095-1.83-.913zm.366-13.687c-5.124 1.825-7.869 7.482-6.039 12.775 1.83 5.11 7.503 7.847 12.81 6.022 5.124-1.825 7.869-7.482 6.039-12.775-.549-1.277-1.281-2.555-2.379-3.65l-.183.183h-.183c-1.647.547-3.66-.365-4.209-2.008-.549-1.642.366-3.65 2.013-4.197-3.477 2.92-5.673 2.92-7.869 3.65z" fill="#397E32"/><path fill-rule="evenodd" clip-rule="evenodd" d="M151.709 168.265c-3.477 1.278-5.307 4.928-4.026 8.395 1.281 3.468 4.941 5.293 8.418 4.015 3.477-1.277 5.307-4.927 4.026-8.395-1.098-3.467-4.941-5.292-8.418-4.015z" fill="#2C2B2A"/><path fill-rule="evenodd" clip-rule="evenodd" d="M117.853 162.242c12.81-6.57 29.097 25.915 7.32 33.763-16.653 6.022-26.535-23.725-7.32-33.763z" fill="#fff"/><path fill-rule="evenodd" clip-rule="evenodd" d="M118.952 185.968c-.732.182-1.098 1.095-.915 1.825.183.73 1.098 1.095 1.83.912.732-.182 1.098-1.095.915-1.825-.366-.73-1.098-1.095-1.83-.912zm.366-13.688c-5.124 1.825-7.869 7.483-6.039 12.775 1.83 5.11 7.503 7.848 12.81 6.022 5.124-1.825 7.869-7.482 6.039-12.775-.549-1.46-1.281-2.737-2.379-3.832l-.183.182h-.183c-1.647.548-3.66-.364-4.209-2.007-.549-1.825.366-3.65 2.013-4.197-3.477 3.102-5.673 3.102-7.869 3.832z" fill="#397E32"/><path fill-rule="evenodd" clip-rule="evenodd" d="M120.416 175.565c-3.477 1.277-5.307 4.928-4.026 8.395 1.281 3.468 4.941 5.293 8.418 4.015 3.477-1.277 5.307-4.927 4.026-8.395-1.098-3.467-4.941-5.293-8.418-4.015z" fill="#2C2B2A"/><path d="M157.745 148.92c-1.098-4.927-6.405-7.847-10.797-8.212-2.013-.183-2.928 2.19-.732 2.555 5.856.547 8.967 2.92 11.529 5.657zm-51.604 12.41c-.915-5.658 3.66-10.95 8.052-12.958 2.013-1.095 4.026 1.095 1.83 2.373-5.856 2.737-8.235 6.57-9.882 10.585z" fill="#444243"/><path d="M95.16 207.137c1.097-.365 2.378.183 2.744 1.278.366 1.095-.183 2.372-1.28 2.737-3.478 1.278-5.857 3.285-7.32 5.658-1.465 2.555-2.014 5.84-2.014 9.672 0 1.095-.915 2.19-2.196 2.19-1.098 0-2.196-.912-2.196-2.19 0-4.38.732-8.395 2.562-11.68 2.196-3.285 5.124-6.022 9.7-7.665z" fill="#2A5A28"/><path fill-rule="evenodd" clip-rule="evenodd" d="M150.608 65.517c26.535 11.133 34.77 45.078 16.287 67.161-27.267 32.485-62.037-3.468-77.775 31.025-.183.365-.549.73-1.098.73-.183 0-.366 0-.549-.183-14.457-11.497-17.202-32.12-6.588-47.267 12.993-18.798 29.646-13.688 48.495-17.156 16.653-3.102 23.973-17.52 19.764-32.667v-.182c0-.548.549-1.096 1.098-1.096.183-.365.366-.365.366-.365z" fill="#86348B"/></svg>