<svg width="57" height="54" fill="none" xmlns="http://www.w3.org/2000/svg"><g clip-path="url(#clip0_858_409)"><path fill-rule="evenodd" clip-rule="evenodd" d="M19.26 14.446c4.678 1.189 5.458 7.626 7.674 10.578.739 1.025 1.93 1.64 3.284 1.64 1.272 0 2.544-.697 3.324-1.804 1.683-2.296.698-6.724 3.653-9.758 2.79-2.83 7.51-2.46 10.137.533C63.257 35.192 13.267 58.644 1.12 41.465c-3.243-4.592-.247-11.152 5.458-11.521-.944-7.216 5.254-17.384 12.682-15.498z" fill="#5FB130"/><path fill-rule="evenodd" clip-rule="evenodd" d="M20.49 20.31c-3.242 0-3.119 8.158 2.053 7.502 3.899-.533 2.79-7.503-2.053-7.503z" fill="#fff"/><path fill-rule="evenodd" clip-rule="evenodd" d="M40.724 16.742c.493.369.575 1.066.164 1.558a1.083 1.083 0 01-1.6.082c-.287.246-.41.656-.452 1.066 0 .082-.082.123-.123.123-.04 0-.082-.041-.123-.082-.862-1.886.862-3.731 2.134-2.747z" fill="#2A5A28"/><path fill-rule="evenodd" clip-rule="evenodd" d="M32.475 36.914c.37-.205-.328-2.542-.575-3.239l-1.067.697-1.067.697c.534.533 2.299 2.091 2.709 1.845zm4.925-3.813c.328-.287-.739-2.46-1.067-3.116l-.944.861-.944.861c.615.41 2.627 1.681 2.955 1.394zm4.186-4.223c.287-.328-.985-2.337-1.395-2.993l-.862.943-.862.943c.697.369 2.79 1.435 3.119 1.107zm-1.396-7.339c-.246.287 1.027 2.009 1.396 2.542l.698-.902.697-.902c-.574-.246-2.503-1.066-2.79-.738zM22.789 34.7c-.37.082-.37 2.214-.37 2.87l1.109-.328 1.108-.328c-.329-.492-1.437-2.296-1.847-2.214zm-12.231 4.633c-.369-.123-.205-2.255-.123-2.91l1.067.41 1.067.41c-.41.532-1.641 2.213-2.01 2.09zm6.732 1.435c-.37 0-.904-2.091-1.027-2.706l1.15.041 1.148.041c-.246.656-.861 2.624-1.272 2.624z" fill="#fff"/><path fill-rule="evenodd" clip-rule="evenodd" d="M15.073 32.199c.205.082.288.328.205.533-.082.205-.328.287-.533.205-.205-.082-.287-.328-.205-.533.082-.205.328-.328.533-.205zm.493-1.23c.205.082.287.328.205.533-.082.205-.329.287-.534.205-.205-.082-.287-.328-.205-.533.082-.205.328-.287.534-.205zm-1.683.369c.205.082.287.328.205.533-.082.205-.328.287-.533.205-.206-.082-.288-.328-.206-.533.082-.205.329-.328.534-.205zm13.174-4.51a.39.39 0 01.534.082.389.389 0 01-.082.533.39.39 0 01-.534-.082c-.164-.164-.123-.41.082-.533zm.247 1.476a.39.39 0 01.533.082.388.388 0 01-.082.533.39.39 0 01-.534-.082.388.388 0 01.083-.533zm-1.642-.082a.39.39 0 01.533.082.388.388 0 01-.082.533c-.164.123-.41.082-.533-.123-.164-.123-.123-.37.082-.492z" fill="#4D9D34"/><path d="M6.618 34.126c13.79 8.897 26.883.574 35.379-10.906 2.134-3.116 8.126-7.38 9.768-1.27.123.41-.41.491-.493.122-1.518-5.658-7.059-1.025-8.865 1.435-8.66 11.685-22.04 20.09-36.076 11.03l.287-.41z" fill="#2A5A28"/><path fill-rule="evenodd" clip-rule="evenodd" d="M20.696 25.639c-.165.04-.247.246-.206.41.041.164.247.246.41.205.165-.041.247-.246.206-.41-.082-.164-.246-.246-.41-.205zm.082-3.075c-1.15.41-1.765 1.68-1.355 2.87.41 1.148 1.683 1.763 2.873 1.353 1.15-.41 1.765-1.681 1.355-2.87a2.563 2.563 0 00-.534-.82l-.041.04h-.041c-.37.124-.82-.081-.944-.45-.123-.37.082-.82.451-.943-.78.656-1.272.656-1.764.82z" fill="#397E32"/><path fill-rule="evenodd" clip-rule="evenodd" d="M21.024 23.302c-.78.287-1.19 1.107-.903 1.886.287.779 1.108 1.189 1.888.902.78-.287 1.19-1.107.903-1.886-.246-.78-1.108-1.19-1.888-.902z" fill="#2C2B2A"/><path fill-rule="evenodd" clip-rule="evenodd" d="M13.431 21.949c2.873-1.476 6.526 5.822 1.642 7.585-3.735 1.353-5.951-5.33-1.642-7.585z" fill="#fff"/><path fill-rule="evenodd" clip-rule="evenodd" d="M13.678 27.279c-.165.041-.247.246-.206.41.041.164.247.246.41.205.165-.041.247-.246.206-.41-.082-.164-.246-.246-.41-.205zm.082-3.075c-1.15.41-1.765 1.681-1.355 2.87.41 1.148 1.683 1.763 2.873 1.353 1.15-.41 1.765-1.681 1.355-2.87a2.341 2.341 0 00-.534-.861l-.041.041h-.041c-.37.123-.82-.082-.944-.451-.123-.41.082-.82.451-.943-.78.697-1.272.697-1.764.861z" fill="#397E32"/><path fill-rule="evenodd" clip-rule="evenodd" d="M14.006 24.942c-.78.287-1.19 1.107-.903 1.886.287.78 1.108 1.19 1.888.902.78-.287 1.19-1.107.903-1.886-.246-.779-1.108-1.189-1.888-.902z" fill="#2C2B2A"/><path d="M22.378 18.956c-.246-1.107-1.436-1.763-2.421-1.845-.451-.041-.657.492-.164.574 1.313.123 2.01.656 2.585 1.27zm-11.574 2.788c-.205-1.27.821-2.46 1.806-2.91.452-.247.903.245.41.532-1.313.615-1.846 1.476-2.216 2.378z" fill="#444243"/><path d="M8.342 32.035c.246-.082.534.041.616.287.082.246-.041.533-.288.615-.78.287-1.313.738-1.641 1.271-.329.574-.452 1.312-.452 2.173a.499.499 0 01-.492.492.499.499 0 01-.493-.492c0-.984.164-1.886.575-2.624.492-.738 1.15-1.353 2.175-1.722z" fill="#2A5A28"/><path fill-rule="evenodd" clip-rule="evenodd" d="M20.778.219c5.951 2.501 7.798 10.127 3.653 15.088-6.116 7.298-13.914-.779-17.443 6.97a.277.277 0 01-.247.164c-.04 0-.082 0-.123-.041-3.242-2.583-3.858-7.216-1.477-10.619 2.914-4.223 6.649-3.075 10.876-3.854 3.735-.697 5.377-3.936 4.433-7.339V.547c0-.123.123-.246.246-.246.04-.082.082-.082.082-.082z" fill="#86348B"/></g><defs><clipPath id="clip0_858_409"><path fill="#fff" transform="translate(0 .5)" d="M0 0h57v53H0z"/></clipPath></defs></svg>