<svg width="16" height="17" fill="none" xmlns="http://www.w3.org/2000/svg"><g clip-path="url(#clip0_16_4179)" fill="#fff"><path d="M10.313 5.188a1.095 1.095 0 01-1.094-1.094V.5H3.625a1.72 1.72 0 00-1.719 1.719V14.78a1.72 1.72 0 001.719 1.72h8.75a1.72 1.72 0 001.719-1.719V5.187h-3.781zM4.468 11.75H6.74a.469.469 0 010 .938H4.47a.469.469 0 010-.938zM4 9.719c0-.26.21-.469.469-.469h6.875a.469.469 0 010 .938H4.469A.469.469 0 014 9.717zm7.344-2.969a.469.469 0 010 .938H4.469a.469.469 0 010-.938h6.875z"/><path d="M10.156 4.094c0 .086.07.156.156.156h3.573a1.712 1.712 0 00-.329-.43L10.543.97a1.723 1.723 0 00-.387-.276v3.4z"/></g><defs><clipPath id="clip0_16_4179"><path fill="#fff" transform="translate(0 .5)" d="M0 0h16v16H0z"/></clipPath></defs></svg>