<svg width="253" height="101" fill="none" xmlns="http://www.w3.org/2000/svg"><path d="M233.519 58.641v-3.232c-.304-.758-.708-1.364-1.265-1.818-.557-.455-1.164-.657-1.771-.657-.961 0-1.67.405-2.176 1.162-.506.758-.759 1.768-.759 2.98s.253 2.221.759 2.979c.506.808 1.215 1.162 2.176 1.162h3.087V58.64h-.051zm5.667 5.757h-13.51c-.759-.353-1.417-.909-2.024-1.616-1.214-1.464-1.822-3.434-1.822-5.858 0-2.424.608-4.343 1.822-5.757 1.214-1.414 2.783-2.121 4.756-2.121.962 0 1.923.252 2.935.707.962.505 1.67 1.161 2.176 1.97v-2.98c0-2.929-1.214-4.394-3.694-4.394-1.72 0-3.339.809-4.908 2.425l-2.125-4.04a9.405 9.405 0 013.795-2.425 13.453 13.453 0 014.402-.757c2.581 0 4.605.657 6.021 1.97 1.417 1.313 2.176 3.282 2.176 5.959v16.917zm-26.514-24.24h5.667v24.24h-26.16v-24.24h5.667v19.291h4.503V40.158h5.668v19.291h4.554V40.158h.101zm-33.295 19.796c2.176 0 3.289-2.575 3.289-7.727 0-5.1-1.113-7.675-3.289-7.675-2.125 0-3.238 2.575-3.238 7.675 0 5.152 1.062 7.727 3.238 7.727zm0 5.05c-2.985 0-5.262-1.212-6.78-3.636-1.518-2.424-2.328-5.454-2.328-9.09s.759-6.666 2.328-9.09c1.518-2.424 3.795-3.636 6.78-3.636 3.036 0 5.313 1.212 6.831 3.636 1.518 2.424 2.328 5.454 2.328 9.09s-.759 6.666-2.328 9.09c-1.518 2.424-3.846 3.636-6.831 3.636zm-15.18-.606h-5.718V45.057h-3.947v-4.899h13.561v4.898h-3.947v19.342h.051zm-23.58 0h-5.667v-24.24h5.667v9.14h5.111v-9.14h5.718v24.24h-5.718V54.197h-5.111v10.201zm-14.674-14.291c0-3.99-1.113-5.96-3.39-5.96-1.265 0-2.125.607-2.682 1.819-.556 1.212-.809 2.575-.809 4.14h6.881zm-2.631 14.897c-3.086 0-5.465-1.162-7.134-3.535-1.67-2.323-2.53-5.404-2.53-9.242 0-3.686.809-6.716 2.378-9.09 1.568-2.373 3.845-3.585 6.73-3.585 2.934 0 5.11 1.162 6.527 3.484 1.417 2.323 2.176 5.353 2.176 9.141v1.97h-12.296c.051 1.868.455 3.383 1.265 4.544.81 1.162 1.973 1.717 3.542 1.717 1.518 0 2.834-.808 4.048-2.424l2.783 3.182c-2.125 2.525-4.605 3.838-7.489 3.838zM98.518 47.935c-.354 5-1.315 8.636-2.985 10.908h7.185V36.471h-3.542l-.658 11.464zm-8.855 10.857c.152-.1.253-.151.354-.252.405-.353.86-1.364 1.265-2.98.405-1.616.709-4.04.911-7.322l1.113-15.706a1.774 1.774 0 011.771-1.666h14.017v27.926h2.631v5.555H85.261v-5.554h4.402z" fill="#86348B"/><path fill-rule="evenodd" clip-rule="evenodd" d="M39.772 35.653c5.768 1.465 6.73 9.393 9.462 13.029.91 1.262 2.378 2.02 4.048 2.02 1.569 0 3.137-.858 4.099-2.222 2.074-2.828.86-8.282 4.503-12.019 3.44-3.484 9.26-3.03 12.498.657 19.633 24.088-41.998 52.974-56.976 31.815-3.997-5.657-.303-13.737 6.73-14.191-1.164-8.888 6.477-21.412 15.636-19.089z" fill="#5FB130"/><path fill-rule="evenodd" clip-rule="evenodd" d="M41.29 42.874c-3.998 0-3.846 10.05 2.53 9.242 4.807-.657 3.44-9.242-2.53-9.242z" fill="#fff"/><path fill-rule="evenodd" clip-rule="evenodd" d="M66.236 38.481c.607.454.708 1.313.202 1.919a1.337 1.337 0 01-1.974.101c-.354.303-.505.808-.556 1.313 0 .101-.101.151-.152.151-.05 0-.101-.05-.152-.1-1.062-2.324 1.063-4.596 2.632-3.384z" fill="#2A5A28"/><path fill-rule="evenodd" clip-rule="evenodd" d="M56.065 63.327c.455-.252-.405-3.131-.709-3.99l-1.315.859-1.316.858c.658.657 2.834 2.576 3.34 2.273zm6.072-4.697c.405-.353-.91-3.03-1.316-3.838l-1.163 1.061-1.164 1.06c.759.506 3.238 2.071 3.643 1.718zm5.161-5.201c.354-.404-1.214-2.879-1.72-3.687l-1.063 1.162-1.063 1.161c.86.455 3.441 1.768 3.846 1.364zm-1.72-9.039c-.304.353 1.264 2.474 1.72 3.13l.86-1.11.86-1.111c-.708-.303-3.086-1.313-3.44-.91zM44.123 60.6c-.455.101-.455 2.727-.455 3.535l1.366-.404 1.366-.404c-.405-.606-1.77-2.828-2.277-2.727zm-15.079 5.706c-.455-.151-.253-2.777-.152-3.585l1.316.505 1.316.505c-.506.657-2.024 2.727-2.48 2.575zm8.299 1.768c-.456 0-1.113-2.575-1.265-3.333l1.417.05 1.416.051c-.303.808-1.062 3.232-1.568 3.232z" fill="#fff"/><path fill-rule="evenodd" clip-rule="evenodd" d="M34.61 57.52c.253.1.355.403.253.656-.1.252-.404.353-.657.252-.253-.1-.355-.403-.253-.656.1-.252.404-.404.657-.252zm.608-1.515c.253.1.354.403.253.656-.102.252-.405.353-.658.252-.253-.1-.354-.403-.253-.656.101-.252.405-.353.658-.252zm-2.075.454c.253.101.354.404.253.656-.101.253-.405.354-.658.253-.253-.101-.354-.404-.253-.657.102-.252.405-.404.658-.252zm16.243-5.555a.48.48 0 01.657.101.478.478 0 01-.1.656.48.48 0 01-.659-.1c-.202-.203-.151-.505.102-.657zm.304 1.818a.48.48 0 01.657.101.478.478 0 01-.101.657.48.48 0 01-.658-.101.478.478 0 01.101-.657zm-2.025-.101a.48.48 0 01.658.101.478.478 0 01-.101.657c-.203.151-.506.1-.658-.152-.202-.151-.152-.454.101-.606z" fill="#4D9D34"/><path d="M24.187 59.893C41.188 70.852 57.33 60.6 67.804 46.46c2.631-3.838 10.019-9.09 12.043-1.566.152.506-.506.607-.607.152-1.873-6.969-8.704-1.263-10.93 1.767-10.677 14.393-27.172 24.745-44.478 13.585l.355-.505z" fill="#2A5A28"/><path fill-rule="evenodd" clip-rule="evenodd" d="M41.542 49.44c-.202.05-.303.303-.253.505.051.202.304.303.506.252.203-.05.304-.303.253-.505-.1-.202-.303-.303-.506-.252zm.102-3.788c-1.417.505-2.176 2.07-1.67 3.535.506 1.414 2.075 2.172 3.542 1.666 1.417-.505 2.176-2.07 1.67-3.535a3.156 3.156 0 00-.658-1.01l-.05.051h-.051c-.456.151-1.012-.101-1.164-.556-.152-.454.101-1.01.556-1.161-.96.808-1.568.808-2.175 1.01z" fill="#397E32"/><path fill-rule="evenodd" clip-rule="evenodd" d="M41.947 46.561c-.961.353-1.467 1.364-1.113 2.323.354.96 1.366 1.465 2.328 1.111.961-.353 1.467-1.363 1.113-2.323-.304-.96-1.366-1.464-2.328-1.111z" fill="#2C2B2A"/><path fill-rule="evenodd" clip-rule="evenodd" d="M32.586 44.895c3.542-1.819 8.046 7.17 2.024 9.342-4.604 1.666-7.337-6.565-2.024-9.343z" fill="#fff"/><path fill-rule="evenodd" clip-rule="evenodd" d="M32.89 51.46c-.202.05-.304.303-.253.505.05.201.304.302.506.252.202-.05.304-.303.253-.505-.101-.202-.304-.303-.506-.253zm.101-3.788c-1.417.505-2.176 2.07-1.67 3.535.506 1.414 2.075 2.172 3.542 1.666 1.417-.505 2.176-2.07 1.67-3.534a2.883 2.883 0 00-.658-1.061l-.05.05h-.05c-.456.152-1.013-.1-1.165-.555-.151-.505.102-1.01.557-1.162-.961.859-1.569.859-2.176 1.061z" fill="#397E32"/><path fill-rule="evenodd" clip-rule="evenodd" d="M33.295 48.581c-.962.353-1.468 1.363-1.113 2.323.354.96 1.366 1.464 2.327 1.111.962-.354 1.468-1.364 1.113-2.323-.303-.96-1.366-1.465-2.327-1.111z" fill="#2C2B2A"/><path d="M43.617 41.208c-.303-1.364-1.77-2.172-2.985-2.273-.557-.05-.81.606-.203.707 1.62.152 2.48.808 3.188 1.566zm-14.269 3.434c-.253-1.566 1.012-3.03 2.226-3.586.557-.302 1.114.303.506.657-1.619.758-2.277 1.818-2.732 2.929z" fill="#444243"/><path d="M26.312 57.318c.304-.101.658.05.76.353.1.303-.052.657-.355.758-.961.353-1.62.908-2.024 1.565-.405.707-.557 1.616-.557 2.676a.615.615 0 01-.607.606.615.615 0 01-.607-.606c0-1.212.202-2.323.708-3.232.608-.909 1.417-1.666 2.682-2.12z" fill="#2A5A28"/><path fill-rule="evenodd" clip-rule="evenodd" d="M41.644 18.13c7.337 3.08 9.614 12.473 4.503 18.584-7.54 8.989-17.153-.96-21.505 8.584a.342.342 0 01-.303.203c-.051 0-.102 0-.152-.051-3.998-3.181-4.757-8.888-1.822-13.08 3.593-5.201 8.197-3.787 13.41-4.746 4.604-.859 6.628-4.848 5.464-9.04v-.05c0-.152.152-.303.303-.303.051-.102.102-.102.102-.102z" fill="#86348B"/></svg>