<svg width="307" height="96" fill="none" xmlns="http://www.w3.org/2000/svg"><g clip-path="url(#clip0_9_1488)"><path fill-rule="evenodd" clip-rule="evenodd" d="M56.55 19.846c10.245.223 12.126 10.163 12.126 21.725 0 7.224-4.217 19.673-8.69 24.63-3.387 3.754-4.25 5.13-8.26 5.807-5.565.725-2.387-16.05-9.73-15.5-5.858-.052-3.142 14.107-7.498 15.354-1.84.526-5.996-1.402-10.458-7.189-3.64-4.724-7.968-16.818-7.968-23.26 0-11.331.839-20.024 10.795-21.189 5.72.252 8.1 3.419 15.933 3.419 9.199-.55 8.313-3.848 13.75-3.797z" fill="#93C12F"/><path d="M103.996 59.823l1.499 9.128h10.224l-8.383-46.257H94.521L84.774 68.95H95l1.567-9.128h7.43zm-6.408-8.167l1.364-8.785c.409-2.47 1.09-7.618 1.567-10.5h.137c.409 2.882 1.022 7.892 1.363 10.5l1.159 8.785h-5.59zm21.417 17.295h10.565V21.458h-10.565v47.493zm18.348-46.257c-.817 5.765-2.658 11.461-4.85 17.912l5.26-.686c3.407-5.765 6.27-11.461 8.315-17.913l-8.725.686zm31.504-1.236v16.334h-.136c-.682-1.51-2.249-3.157-5.453-3.157-5.862 0-11.042 5.834-11.042 17.502 0 8.647 2.931 17.375 10.701 17.375 2.863 0 5.658-1.796 6.953-4.198h.136l.545 3.637h9.066c-.137-3.569-.273-7.206-.273-10.775V21.458h-10.497zm0 35.62c0 .892-.136 1.579-.341 2.06-.477 1.235-1.294 1.715-2.249 1.715-1.908 0-3.612-2.334-3.612-8.442 0-4.942 1.022-8.853 3.612-8.853 1.5 0 2.113 1.372 2.454 2.814.136.617.136 1.304.136 1.852v8.854zm41.047-.618c.204-1.03.341-2.539.341-5.422 0-11.324-4.84-16.402-12.201-16.402-7.907 0-14.314 6.725-14.314 18.256 0 10.638 5.385 16.483 14.996 16.483 3.68 0 7.497-.63 9.951-1.522l-1.295-7.549c-1.772.549-4.09 1.098-6.748 1.098-4.021 0-6.612-1.853-6.748-4.942h16.018zm-16.018-7.343c0-2.883.954-6.863 3.613-6.863 2.726 0 3.271 3.568 3.271 6.863h-6.884zm20.735 19.834h10.564V48.705c0-1.373.273-2.54.546-3.157.613-1.304 1.499-1.99 2.658-1.99 2.113 0 2.727 2.196 2.727 4.53V68.95h10.564V47.744c0-7.275-2.181-13.108-9.269-13.108-3.477 0-6.476 1.715-8.316 4.392h-.137l-.545-3.843h-9.065c.136 3.431.273 7.206.273 10.775v22.99zm34.162-39.806v6.04h-3.886v7.412h3.886V57.01c0 5.559 1.159 8.304 3.203 10.157 1.772 1.579 4.226 2.208 7.021 2.208 2.59 0 4.771-.275 6.134-.63v-8.304c-.886.137-1.567.206-2.453.206-1.704 0-3.34-.892-3.34-4.598V42.597h6.611v-7.412h-6.611v-9.128l-10.565 3.088zm45.409 20.384c0-6.52-1.159-14.894-12.815-14.894-5.248 0-9.474 1.648-11.519 2.746l1.84 7.069c2.182-1.304 4.431-2.059 7.362-2.059 2.726 0 4.43 1.441 4.43 3.294v.618c-7.565.069-15.745 3.638-15.745 12.697 0 6.04 3.885 10.512 9.202 10.512 2.999 0 5.726-1.178 7.702-3.786h.136l.546 3.225h9.406c-.409-2.333-.545-5.01-.545-7.755V49.53zm-10.361 8.922c0 .549-.068 1.03-.204 1.372-.614 1.51-2.045 1.99-3.136 1.99-1.159 0-2.863-1.097-2.863-3.98 0-3.569 3.136-4.804 6.203-4.873v5.49z" fill="#3C5D3B"/><path fill-rule="evenodd" clip-rule="evenodd" d="M40.694 20.1s-.179-7.664 4.501-13.622C49.592.88 59.522-.728 60.378.226c.884.984.19 11.036-5.128 15.376C48.831 20.84 40.694 20.1 40.694 20.1z" fill="#B0CB1F"/><path fill-rule="evenodd" clip-rule="evenodd" d="M40.66 19.97s-.007-.336.023-.919L59.859-.107c.236.043.403.11.485.202.884.986.191 11.037-5.128 15.377-6.418 5.239-14.556 4.497-14.556 4.497z" fill="#009846"/><path d="M88.174 88.262a3.37 3.37 0 01-.562.209 2.335 2.335 0 01-.611.077 1.87 1.87 0 01-1.282-.48c-.356-.316-.628-.77-.816-1.364-.192-.594-.287-1.306-.29-2.138 0-.528.045-1.038.14-1.525a5.18 5.18 0 01.429-1.317 2.61 2.61 0 01.73-.924 1.702 1.702 0 011.047-.348c.265.004.495.037.694.103.2.062.35.12.458.183l.314-1.386a2.117 2.117 0 00-.377-.165 3.683 3.683 0 00-.503-.117 2.993 2.993 0 00-.544-.048c-.636.004-1.201.15-1.694.436a3.807 3.807 0 00-1.256 1.188 5.782 5.782 0 00-.782 1.764A8.336 8.336 0 0083 84.566c.004 1.173.16 2.163.468 2.963.307.799.736 1.404 1.292 1.81.554.411 1.204.617 1.947.617.36-.004.685-.04.971-.118.29-.073.523-.165.705-.278l-.21-1.298zm7.435-3.608c.011-.132.018-.271.018-.425.004-.15.004-.327.004-.521 0-.612-.053-1.196-.161-1.756a5.532 5.532 0 00-.506-1.507 2.908 2.908 0 00-.897-1.05c-.367-.26-.81-.388-1.327-.395a2.639 2.639 0 00-1.787.686c-.51.454-.908 1.096-1.195 1.935-.282.837-.429 1.83-.432 2.989 0 1.089.14 2.035.415 2.834.276.796.688 1.412 1.236 1.848.548.436 1.225.656 2.035.664.27 0 .534-.018.803-.059.269-.037.524-.095.768-.169a3.35 3.35 0 00.65-.278l-.252-1.254a2.697 2.697 0 01-.726.3c-.286.078-.6.114-.95.118a2.229 2.229 0 01-.869-.161c-.283-.11-.537-.312-.768-.598-.23-.286-.412-.69-.551-1.21-.14-.517-.213-1.18-.22-1.991h4.712zM90.918 83.4a6.77 6.77 0 01.136-1.093 4.83 4.83 0 01.32-.993 2.28 2.28 0 01.507-.719c.199-.18.43-.271.692-.275.261-.004.513.106.743.323.234.22.422.553.565 1.008.144.458.21 1.038.2 1.749h-3.163zm5.53-4.224v1.43h2.303v9.218h1.613v-9.218h2.304v-1.43h-6.22zm7.56 0v10.582c.329.055.668.099 1.023.128.353.033.702.048 1.051.048a6.014 6.014 0 001.756-.246 4.174 4.174 0 001.491-.788 3.09 3.09 0 00.806-1.082c.199-.436.3-.942.304-1.514-.004-.594-.108-1.107-.314-1.54a2.903 2.903 0 00-.845-1.067 3.68 3.68 0 00-1.236-.623 5.243 5.243 0 00-1.48-.202c-.14 0-.297.007-.468.018a6.95 6.95 0 00-.496.048v-3.762h-1.592zm1.592 5.06c.102-.011.206-.022.311-.03.105-.01.227-.014.36-.014.338 0 .656.04.96.12.3.082.565.21.799.382.234.176.416.4.552.675.132.278.199.612.202 1-.007.514-.119.936-.342 1.266-.223.333-.52.58-.893.74a3.124 3.124 0 01-1.236.239 3.64 3.64 0 01-.356-.015c-.116-.007-.234-.018-.357-.029v-4.334zm14.558 4.026a3.388 3.388 0 01-.562.209 2.338 2.338 0 01-.611.077 1.868 1.868 0 01-1.281-.48c-.356-.316-.629-.77-.817-1.364-.192-.594-.286-1.306-.29-2.138 0-.528.045-1.038.14-1.525.094-.488.237-.928.429-1.317a2.62 2.62 0 01.73-.924 1.698 1.698 0 011.047-.348c.265.004.496.037.695.103.199.062.349.12.457.183l.314-1.386a2.108 2.108 0 00-.377-.165 3.658 3.658 0 00-.503-.117 2.984 2.984 0 00-.544-.048c-.635.004-1.201.15-1.693.436a3.803 3.803 0 00-1.257 1.188 5.794 5.794 0 00-.782 1.764 8.344 8.344 0 00-.269 2.156c.004 1.173.161 2.163.468 2.963.307.799.736 1.404 1.292 1.81.555.411 1.204.617 1.948.617.359-.004.684-.04.97-.118.29-.073.524-.165.705-.278l-.209-1.298zm.67-9.086v1.43h2.304v9.218h1.613v-9.218h2.304v-1.43h-6.221zM131.343 79c-.44 0-.859.103-1.264.315-.405.213-.764.54-1.085.987-.318.443-.573 1.015-.758 1.716-.185.696-.283 1.532-.286 2.504.003.935.087 1.745.258 2.435.168.685.401 1.257.702 1.704.3.451.649.789 1.047 1.009a2.626 2.626 0 002.461.048c.395-.191.757-.5 1.089-.925.328-.428.594-.993.796-1.697.199-.708.3-1.57.307-2.596-.003-.928-.087-1.738-.258-2.427-.167-.69-.401-1.262-.698-1.716-.3-.455-.646-.796-1.04-1.02a2.501 2.501 0 00-1.271-.337zm-.063 1.364c.283.004.524.095.723.275.198.176.363.414.488.711.13.297.227.627.301.99.07.363.118.73.146 1.104a14.117 14.117 0 010 2.123 9.833 9.833 0 01-.146 1.11c-.07.364-.164.694-.29.99-.126.301-.283.54-.478.716a1.01 1.01 0 01-.702.275 1.147 1.147 0 01-.747-.264 1.928 1.928 0 01-.506-.693 4.704 4.704 0 01-.311-.975 8.941 8.941 0 01-.154-1.119 14.117 14.117 0 01-.003-2.163c.028-.374.08-.74.15-1.104a4.72 4.72 0 01.3-.99c.129-.297.294-.535.496-.71.202-.18.447-.272.733-.276zm4.796 9.46h1.488l.167-4.488a96.811 96.811 0 00.119-2.97c.01-.51.021-1.045.028-1.606h.042a63.348 63.348 0 001.047 4.268l1.319 4.73h1.174l1.361-4.884c.21-.785.401-1.526.572-2.218.171-.697.318-1.32.433-1.874h.063c.01.502.021.953.031 1.353.011.4.021.77.035 1.11.011.342.025.672.039.995.01.322.028.66.042 1.008l.188 4.576h1.529l-.691-10.648h-1.948l-1.278 4.686c-.087.312-.167.598-.24.865-.07.268-.14.532-.203.788a37.81 37.81 0 00-.199.807c-.066.279-.14.59-.216.928h-.042a52.455 52.455 0 00-.3-1.18 42.646 42.646 0 00-.294-1.071c-.101-.352-.209-.73-.328-1.137l-1.32-4.686h-1.905l-.713 10.648zm17.071 0a7.697 7.697 0 01-.073-.748 20.31 20.31 0 01-.028-.836c-.004-.283-.004-.561-.004-.836v-4.598c0-.803-.097-1.485-.303-2.053-.203-.565-.521-.998-.95-1.299-.429-.3-.981-.45-1.658-.454-.339.004-.66.04-.967.11-.307.07-.583.157-.824.264a2.652 2.652 0 00-.576.33l.356 1.188c.241-.168.503-.3.782-.4.283-.099.58-.15.894-.15.422.004.751.106.988.308.234.205.398.488.492.847.091.363.136.785.133 1.265v.33a5.824 5.824 0 00-1.638.238 4.178 4.178 0 00-1.375.708 3.291 3.291 0 00-.949 1.203c-.231.483-.35 1.059-.353 1.723.003.612.112 1.144.321 1.599.21.454.496.806.859 1.055.359.25.771.378 1.229.382a2.09 2.09 0 001.162-.345c.342-.224.625-.543.848-.953h.063l.105 1.122h1.466zm-1.697-3.344c0 .088 0 .187-.003.29a2.34 2.34 0 01-.038.304 2.53 2.53 0 01-.318.887 1.488 1.488 0 01-.524.536 1.288 1.288 0 01-.666.183.999.999 0 01-.573-.183c-.188-.125-.342-.323-.468-.602-.125-.278-.192-.649-.195-1.107.003-.459.073-.84.209-1.144.136-.3.311-.543.531-.723.216-.176.45-.311.701-.395.252-.085.496-.143.733-.169a4.83 4.83 0 01.611-.033v2.156zm2.933-7.304v1.43h2.304v9.218h1.613v-9.218h2.304v-1.43h-6.221zM164.898 79c-.44 0-.859.103-1.264.315-.405.213-.765.54-1.086.987-.318.443-.572 1.015-.757 1.716-.185.696-.283 1.532-.287 2.504.004.935.088 1.745.259 2.435.167.685.401 1.257.702 1.704.3.451.649.789 1.047 1.009a2.63 2.63 0 002.461.048c.394-.191.757-.5 1.089-.925.328-.428.593-.993.796-1.697.199-.708.3-1.57.307-2.596-.003-.928-.087-1.738-.258-2.427-.168-.69-.402-1.262-.699-1.716-.3-.455-.645-.796-1.04-1.02a2.498 2.498 0 00-1.27-.337zm-.063 1.364c.282.004.523.095.722.275.199.176.363.414.489.711.129.297.227.627.301.99.069.363.118.73.146 1.104a14.37 14.37 0 010 2.123c-.028.374-.077.744-.146 1.11a4.98 4.98 0 01-.29.99c-.126.301-.283.54-.478.716-.193.18-.427.271-.702.275a1.143 1.143 0 01-.747-.264 1.942 1.942 0 01-.507-.693 4.765 4.765 0 01-.31-.975 8.941 8.941 0 01-.154-1.119 14.117 14.117 0 01-.003-2.163c.028-.374.08-.74.15-1.104a4.72 4.72 0 01.3-.99c.129-.297.293-.535.496-.71.202-.18.447-.272.733-.276zm5.529-1.188v4.884a27.5 27.5 0 01-.042 1.79 7.786 7.786 0 01-.192 1.385c-.097.389-.244.686-.436.895a1.565 1.565 0 01-.36.312c-.135.084-.303.15-.499.194l.294 1.342c.188 0 .377-.022.558-.066.182-.044.353-.11.51-.198a2.31 2.31 0 00.904-.792c.23-.341.401-.755.52-1.24a9.876 9.876 0 00.237-1.664c.039-.627.06-1.313.056-2.068v-3.366h2.221v9.24h1.612V79.176h-5.383zM180.942 79c-.44 0-.859.103-1.264.315-.405.213-.765.54-1.086.987-.317.443-.572 1.015-.757 1.716-.185.696-.283 1.532-.286 2.504.003.935.087 1.745.258 2.435.168.685.401 1.257.702 1.704.3.451.649.789 1.047 1.009a2.63 2.63 0 002.461.048c.395-.191.757-.5 1.089-.925.328-.428.594-.993.796-1.697.199-.708.3-1.57.307-2.596-.003-.928-.087-1.738-.258-2.427-.168-.69-.402-1.262-.698-1.716-.3-.455-.646-.796-1.041-1.02a2.495 2.495 0 00-1.27-.337zm-.063 1.364c.283.004.524.095.723.275.198.176.363.414.488.711.13.297.227.627.301.99.069.363.118.73.146 1.104a14.37 14.37 0 010 2.123c-.028.374-.077.744-.146 1.11a4.98 4.98 0 01-.29.99c-.126.301-.283.54-.478.716-.193.18-.426.271-.702.275a1.147 1.147 0 01-.747-.264 1.942 1.942 0 01-.507-.693 4.765 4.765 0 01-.31-.975 8.941 8.941 0 01-.154-1.119 14.117 14.117 0 01-.003-2.163c.028-.374.08-.74.15-1.104a4.72 4.72 0 01.3-.99c.129-.297.293-.535.496-.71.202-.18.447-.272.733-.276zm5.131-1.188v10.648h1.592v-9.196h3.121v-1.452h-4.713zm6.116 0v10.648h1.655c.192-.436.384-.895.587-1.382.199-.492.391-.968.576-1.441.185-.47.352-.895.499-1.28.147-.381.262-.686.349-.913.22-.58.43-1.173.632-1.778.199-.606.394-1.24.583-1.896h.042a70.297 70.297 0 00-.112 2.34c-.01.399-.021.832-.028 1.293-.003.466-.007.983-.007 1.559v3.498h1.487V79.176h-1.696l-1.697 4.62c-.146.407-.307.84-.478 1.298-.171.458-.342.928-.517 1.408-.174.48-.339.957-.492 1.43h-.042c.035-.554.06-1.107.081-1.657.017-.547.028-1.104.035-1.672.007-.569.01-1.163.01-1.775v-3.652h-1.467zm8.358 0v4.29c.004.653.108 1.195.314 1.628.206.432.496.759.873.975.381.217.827.323 1.347.323.234 0 .465-.022.699-.066.237-.04.457-.103.67-.187.209-.08.398-.18.559-.297h.062v3.982h1.592V79.176h-1.612v5.434c-.2.135-.423.25-.674.34-.248.093-.521.14-.814.144-.373-.004-.663-.088-.866-.25a1.275 1.275 0 01-.426-.674 3.613 3.613 0 01-.111-.968v-4.026h-1.613zm14.222 5.478c.011-.132.018-.271.018-.425.003-.15.003-.327.003-.521 0-.612-.052-1.196-.16-1.756a5.529 5.529 0 00-.507-1.507c-.23-.44-.53-.792-.897-1.05-.367-.26-.81-.388-1.326-.395a2.641 2.641 0 00-1.788.686c-.509.454-.908 1.096-1.194 1.935-.282.837-.429 1.83-.433 2.989 0 1.089.14 2.035.416 2.834.276.796.688 1.412 1.236 1.848.548.436 1.225.656 2.035.664.269 0 .534-.018.803-.059.269-.037.523-.095.768-.169.241-.076.457-.168.649-.278l-.251-1.254a2.714 2.714 0 01-.727.3c-.286.078-.6.114-.949.118a2.227 2.227 0 01-.869-.161c-.283-.11-.538-.312-.768-.598-.231-.286-.412-.69-.552-1.21-.139-.517-.213-1.18-.22-1.991h4.713zm-4.692-1.254c.014-.367.063-.734.137-1.093a4.83 4.83 0 01.32-.993 2.28 2.28 0 01.507-.719c.199-.18.429-.271.691-.275.262-.004.513.106.744.323.233.22.422.553.565 1.008.143.458.21 1.038.199 1.749h-3.163zm11.185 4.862a3.355 3.355 0 01-.562.209 2.327 2.327 0 01-.611.077 1.87 1.87 0 01-1.281-.48c-.356-.316-.628-.77-.817-1.364-.192-.594-.286-1.306-.289-2.138 0-.528.045-1.038.139-1.525a5.22 5.22 0 01.429-1.317c.193-.388.437-.696.73-.924a1.702 1.702 0 011.047-.348c.266.004.496.037.695.103.199.062.349.12.457.183l.315-1.386a2.14 2.14 0 00-.377-.165 3.728 3.728 0 00-.503-.117 2.995 2.995 0 00-.545-.048c-.635.004-1.201.15-1.693.436a3.81 3.81 0 00-1.256 1.188 5.746 5.746 0 00-.782 1.764 8.301 8.301 0 00-.269 2.156c.003 1.173.16 2.163.467 2.963.308.799.737 1.404 1.292 1.81.555.411 1.205.617 1.948.617.36-.004.684-.04.971-.118a2.5 2.5 0 00.705-.278l-.21-1.298zm1.592-9.086v10.648h1.571v-4.796h.168c.436 0 .799.091 1.089.275a2.1 2.1 0 01.719.792c.188.34.346.755.475 1.243.115.477.23.928.349 1.349.122.425.248.803.384 1.137h1.634a10.417 10.417 0 01-.315-.899 32.327 32.327 0 01-.279-.982c-.087-.334-.167-.653-.244-.957a6.942 6.942 0 00-.496-1.383 3.484 3.484 0 00-.789-1.07 2.315 2.315 0 00-1.166-.561l3.163-4.796h-1.801l-2.66 4.62h-.231v-4.62h-1.571zm7.687 0v10.648h1.655a70.135 70.135 0 001.163-2.823c.184-.47.352-.895.499-1.28l.349-.913c.22-.58.429-1.173.632-1.778.199-.606.394-1.24.583-1.896h.042c-.025.403-.049.796-.067 1.174-.017.377-.035.766-.045 1.165-.011.4-.021.833-.028 1.294-.004.466-.007.983-.007 1.559v3.498h1.487V79.176h-1.697l-1.696 4.62c-.147.407-.307.84-.478 1.298-.171.458-.342.928-.517 1.408-.175.48-.339.957-.492 1.43h-.042c.035-.554.059-1.107.08-1.657.018-.547.028-1.104.035-1.672.007-.569.011-1.163.011-1.775v-3.652h-1.467zm7.667 0l2.345 5.302-2.408 5.346h1.634l.942-2.398.342-.906c.116-.297.223-.605.328-.92h.042c.122.348.238.667.342.96.105.294.217.583.328.866l.964 2.398h1.759l-2.387-5.39 2.409-5.258h-1.655l-.922 2.288-.328.895c-.112.308-.227.634-.342.975h-.042c-.112-.319-.224-.634-.328-.943-.105-.311-.22-.62-.342-.927l-.943-2.288h-1.738zm11.247 0v10.648h1.571v-4.796h.168c.436 0 .799.091 1.089.275a2.1 2.1 0 01.719.792c.189.34.346.755.475 1.243.115.477.23.928.349 1.349.122.425.248.803.384 1.137h1.634a10.417 10.417 0 01-.315-.899 32.327 32.327 0 01-.279-.982c-.087-.334-.167-.653-.244-.957a6.942 6.942 0 00-.496-1.383 3.484 3.484 0 00-.789-1.07 2.311 2.311 0 00-1.166-.561l3.163-4.796h-1.801l-2.66 4.62h-.231v-4.62h-1.571zm8.085 0v4.884c.004.656-.01 1.25-.041 1.79a7.872 7.872 0 01-.193 1.385c-.097.389-.244.686-.436.895a1.581 1.581 0 01-.359.312 1.62 1.62 0 01-.5.194l.294 1.342c.188 0 .377-.022.558-.066.182-.044.353-.11.51-.198.374-.187.677-.451.904-.792.231-.341.401-.755.52-1.24a9.87 9.87 0 00.238-1.664c.038-.627.059-1.313.055-2.068v-3.366h2.221v9.24h1.613V79.176h-5.384zm7.624 0v10.648h1.655c.192-.436.384-.895.587-1.382.199-.492.391-.968.576-1.441.185-.47.352-.895.499-1.28.147-.381.262-.686.349-.913.22-.58.429-1.173.632-1.778.199-.606.394-1.24.583-1.896h.042c-.025.403-.049.796-.067 1.174-.017.377-.035.766-.045 1.165-.01.4-.021.833-.028 1.294-.003.466-.007.983-.007 1.559v3.498h1.487V79.176h-1.696l-1.697 4.62c-.146.407-.307.84-.478 1.298-.171.458-.342.928-.517 1.408-.174.48-.339.957-.492 1.43h-.042a61.968 61.968 0 00.115-3.33c.007-.568.011-1.162.011-1.774v-3.652h-1.467zm8.504 0v10.648h1.613v-4.686h2.995v4.686h1.613V79.176h-1.613v4.51h-2.995v-4.51h-1.613zm8.483 0v10.648h1.655c.192-.436.384-.895.587-1.382.199-.492.391-.968.576-1.441.185-.47.352-.895.499-1.28.147-.381.262-.686.349-.913.22-.58.429-1.173.632-1.778.199-.606.394-1.24.583-1.896h.042a66.23 66.23 0 00-.112 2.34c-.01.399-.021.832-.028 1.293-.003.466-.007.983-.007 1.559v3.498h1.487V79.176h-1.696l-1.697 4.62c-.146.407-.307.84-.478 1.298-.171.458-.342.928-.517 1.408-.174.48-.339.957-.492 1.43h-.042c.035-.554.06-1.107.081-1.657.017-.547.028-1.104.035-1.672.007-.569.01-1.163.01-1.775v-3.652h-1.467zm8.504 0v10.648h1.571v-4.796h.168c.437 0 .8.091 1.089.275.29.183.531.447.72.792.188.34.345.755.474 1.243.115.477.231.928.349 1.349.122.425.248.803.384 1.137h1.634a10.424 10.424 0 01-.314-.899 27.424 27.424 0 01-.279-.982c-.088-.334-.168-.653-.245-.957a7.003 7.003 0 00-.495-1.383 3.5 3.5 0 00-.789-1.07 2.32 2.32 0 00-1.166-.561l3.162-4.796h-1.801l-2.66 4.62h-.231v-4.62h-1.571z" fill="#929CA8"/></g><defs><clipPath id="clip0_9_1488"><path fill="#fff" d="M0 0h307v96H0z"/></clipPath></defs></svg>