<svg width="26" height="26" fill="none" xmlns="http://www.w3.org/2000/svg"><path d="M21.878 20.346H4.122a2.18 2.18 0 01-2.177-2.177V7.204a2.18 2.18 0 012.177-2.177h17.756a2.18 2.18 0 012.177 2.177v10.965a2.18 2.18 0 01-2.177 2.177zM4.122 5.86a1.346 1.346 0 00-1.345 1.345V18.17a1.346 1.346 0 001.345 1.346h17.756a1.346 1.346 0 001.345-1.346V7.204a1.346 1.346 0 00-1.345-1.345H4.122z" fill="#fff"/><path d="M13 15.135a.417.417 0 01-.275-.104L2.699 6.18l.55-.624L13 14.165l9.751-8.607.55.624-10.025 8.85a.415.415 0 01-.276.103z" fill="#fff"/><path d="M2.473 19.04l6.735-7.674.625.55-6.735 7.673-.625-.549zm13.715-7.133l.625-.549 6.735 7.674-.625.55-6.735-7.675z" fill="#fff"/></svg>