<svg width="80" height="80" fill="none" xmlns="http://www.w3.org/2000/svg"><path d="M19.693 53.063a8.8 8.8 0 01-8.026 5.125 16.404 16.404 0 01-1.908-.141 10.977 10.977 0 01-4.295-1.61 6.566 6.566 0 01-.676-.529c-2.11-1.87-3.262-5.02-3.101-8.302.254-5.205 3.992-11.562 10.812-12.633 0 0 2.185 1 2.95 1.283a24.08 24.08 0 003.175.96c1.387.362 1.77 1.85 1.625 4.25-.308 5.323.643 8.927-.556 11.597z" fill="#FF977B"/><path d="M64.927 9.514H16.684a4.317 4.317 0 00-4.317 4.317v36.527a4.317 4.317 0 004.317 4.317h48.243a4.317 4.317 0 004.317-4.317V13.831a4.317 4.317 0 00-4.317-4.317z" fill="#3F446C"/><path d="M64.927 55.3H16.684a4.947 4.947 0 01-4.942-4.942V13.831a4.947 4.947 0 014.942-4.942h48.243a4.947 4.947 0 014.942 4.942v36.527a4.947 4.947 0 01-4.942 4.941zM16.684 10.138a3.696 3.696 0 00-3.692 3.692v36.527a3.695 3.695 0 003.692 3.691h48.243a3.696 3.696 0 003.692-3.691V13.831a3.696 3.696 0 00-3.692-3.692H16.684z" fill="#3F446C"/><path d="M64.414 12.41H17.195a2.132 2.132 0 00-2.133 2.132v35.105c0 1.177.955 2.132 2.133 2.132h47.219a2.132 2.132 0 002.132-2.132V14.542a2.132 2.132 0 00-2.132-2.133z" fill="#1B89E5"/><path d="M64.414 52.404H17.196a2.761 2.761 0 01-2.759-2.757V14.542a2.761 2.761 0 012.758-2.758h47.218a2.761 2.761 0 012.758 2.758v35.105a2.76 2.76 0 01-2.757 2.757zm-47.218-39.37a1.51 1.51 0 00-1.509 1.508v35.105a1.51 1.51 0 001.508 1.507h47.218a1.51 1.51 0 001.508-1.507V14.542a1.51 1.51 0 00-1.508-1.508H17.196z" fill="#3F446C"/><path d="M26.318 31.46h-1.663c-.875 0-1.585.71-1.585 1.584v1.992c0 .875.71 1.585 1.585 1.585h1.663c.875 0 1.585-.71 1.585-1.585v-1.992c0-.875-.71-1.584-1.585-1.584zm10.016 0H34.67c-.875 0-1.584.71-1.584 1.584v1.992c0 .875.71 1.585 1.584 1.585h1.664c.875 0 1.584-.71 1.584-1.585v-1.992c0-.875-.709-1.584-1.584-1.584zm10.016 0h-1.664c-.875 0-1.584.71-1.584 1.584v1.992c0 .875.709 1.585 1.584 1.585h1.664c.875 0 1.584-.71 1.584-1.585v-1.992c0-.875-.71-1.584-1.584-1.584zm10.656 0h-1.664c-.875 0-1.584.71-1.584 1.584v1.992c0 .875.71 1.585 1.584 1.585h1.664c.875 0 1.584-.71 1.584-1.585v-1.992c0-.875-.709-1.584-1.584-1.584zm-30.789 9.329h-1.664c-.875 0-1.584.709-1.584 1.584v1.992c0 .875.71 1.584 1.584 1.584h1.664c.875 0 1.584-.71 1.584-1.584v-1.992c0-.875-.71-1.584-1.584-1.584zm10.016 0h-1.664c-.875 0-1.585.709-1.585 1.584v1.992c0 .875.71 1.584 1.585 1.584h1.663c.876 0 1.585-.71 1.585-1.584v-1.992c0-.875-.71-1.584-1.584-1.584zm10.015 0h-1.664c-.875 0-1.584.709-1.584 1.584v1.992c0 .875.71 1.584 1.584 1.584h1.664c.875 0 1.585-.71 1.585-1.584v-1.992c0-.875-.71-1.584-1.585-1.584zm10.656 0h-1.663c-.875 0-1.585.709-1.585 1.584v1.992c0 .875.71 1.584 1.585 1.584h1.663c.875 0 1.585-.71 1.585-1.584v-1.992c0-.875-.71-1.584-1.585-1.584z" fill="#fff"/><path d="M26.318 37.246h-1.663a2.211 2.211 0 01-2.21-2.21v-1.992a2.212 2.212 0 012.21-2.209h1.663a2.212 2.212 0 012.21 2.21v1.992a2.21 2.21 0 01-2.21 2.209zm-1.663-5.161a.96.96 0 00-.96.96v1.992a.96.96 0 00.96.959h1.663a.96.96 0 00.96-.96v-1.992a.96.96 0 00-.96-.959h-1.663zm11.68 5.161H34.67a2.211 2.211 0 01-2.21-2.21v-1.992a2.212 2.212 0 012.21-2.209h1.665a2.21 2.21 0 012.208 2.21v1.992a2.21 2.21 0 01-2.208 2.209zm-1.665-5.161a.96.96 0 00-.96.96v1.992a.96.96 0 00.96.959h1.665a.96.96 0 00.958-.96v-1.992a.96.96 0 00-.958-.959H34.67zm11.182 3.352a1.32 1.32 0 01-.938-.387l-.425-.425a.625.625 0 01.884-.882l.425.425a.074.074 0 00.082.016.074.074 0 00.024-.016l1.344-1.345a.624.624 0 01.884.884l-1.344 1.344a1.322 1.322 0 01-.936.386z" fill="#3F446C"/><path d="M46.35 37.246h-1.664a2.211 2.211 0 01-2.21-2.21v-1.992a2.212 2.212 0 012.21-2.209h1.664a2.212 2.212 0 012.21 2.21v1.992a2.21 2.21 0 01-2.21 2.209zm-1.664-5.161a.96.96 0 00-.96.96v1.992a.96.96 0 00.96.959h1.664a.96.96 0 00.96-.96v-1.992a.96.96 0 00-.958-.959h-1.666zm12.32 5.161h-1.664a2.211 2.211 0 01-2.21-2.21v-1.992a2.212 2.212 0 012.21-2.209h1.664a2.212 2.212 0 012.21 2.21v1.992a2.211 2.211 0 01-2.21 2.209zm-1.664-5.161a.96.96 0 00-.96.96v1.992a.96.96 0 00.96.959h1.664a.96.96 0 00.96-.96v-1.992a.96.96 0 00-.96-.959h-1.664zM25.717 44.768a1.319 1.319 0 01-.937-.387l-.425-.425a.625.625 0 11.884-.884l.424.425a.076.076 0 00.107 0l1.344-1.344a.625.625 0 11.885.883l-1.345 1.345a1.32 1.32 0 01-.937.387z" fill="#3F446C"/><path d="M26.217 46.575h-1.665a2.212 2.212 0 01-2.208-2.21v-1.99a2.21 2.21 0 012.208-2.209h1.665a2.211 2.211 0 012.209 2.209v1.992a2.212 2.212 0 01-2.21 2.208zm-1.665-5.16a.96.96 0 00-.958.96v1.992a.96.96 0 00.958.96h1.665a.96.96 0 00.959-.96v-1.992a.96.96 0 00-.96-.959l-1.664-.002zm11.182 3.353a1.322 1.322 0 01-.937-.386l-.423-.426a.625.625 0 11.884-.884l.425.425a.076.076 0 00.053.022.075.075 0 00.053-.022l1.345-1.344a.624.624 0 01.883.884l-1.345 1.344a1.322 1.322 0 01-.938.387z" fill="#3F446C"/><path d="M36.233 46.575h-1.664a2.212 2.212 0 01-2.21-2.21v-1.99a2.21 2.21 0 012.21-2.209h1.663a2.211 2.211 0 012.21 2.209v1.992a2.212 2.212 0 01-2.21 2.208zm-1.664-5.16a.96.96 0 00-.96.96v1.992a.96.96 0 00.96.96h1.663a.96.96 0 00.96-.96v-1.992a.96.96 0 00-.96-.959l-1.663-.002zm11.681 5.16h-1.664a2.212 2.212 0 01-2.211-2.21v-1.99a2.211 2.211 0 012.209-2.209h1.666a2.211 2.211 0 012.209 2.209v1.992a2.211 2.211 0 01-2.209 2.208zm-1.664-5.16a.962.962 0 00-.961.96v1.992a.96.96 0 00.959.96h1.666a.96.96 0 00.959-.96v-1.992a.96.96 0 00-.959-.96h-1.664zm11.819 3.353a1.323 1.323 0 01-.938-.386l-.425-.426a.625.625 0 11.885-.884l.425.425a.074.074 0 00.081.017.074.074 0 00.024-.017l1.345-1.345a.625.625 0 01.885.884l-1.345 1.345a1.321 1.321 0 01-.937.387z" fill="#3F446C"/><path d="M56.904 46.575H55.24a2.212 2.212 0 01-2.209-2.21v-1.99a2.211 2.211 0 012.209-2.209h1.664a2.211 2.211 0 012.21 2.209v1.992a2.212 2.212 0 01-2.21 2.208zm-1.664-5.16a.96.96 0 00-.959.96v1.992a.96.96 0 00.959.96h1.664a.96.96 0 00.96-.96v-1.992a.96.96 0 00-.96-.959l-1.664-.002zm6.207-12.861H20.062a.624.624 0 110-1.25H61.45a.624.624 0 110 1.25h-.003z" fill="#3F446C"/><path d="M41.957 15.605h-1.182a1.71 1.71 0 00-1.71 1.708v.294a.368.368 0 01-.37.368h-.293a1.71 1.71 0 00-1.707 1.713v1.183a1.71 1.71 0 001.71 1.71h.293a.368.368 0 01.368.367v.294a1.71 1.71 0 001.709 1.709h1.182a1.71 1.71 0 001.708-1.709v-.296a.37.37 0 01.37-.368h.295a1.71 1.71 0 001.708-1.709v-1.181a1.71 1.71 0 00-1.708-1.71h-.296a.37.37 0 01-.369-.367v-.298a1.71 1.71 0 00-1.708-1.708z" fill="#fff"/><path d="M44.544 17.1a2.737 2.737 0 00-2.667-2.126h-1.025a2.737 2.737 0 00-2.664 2.125 2.737 2.737 0 00-2.126 2.664v1.026a2.736 2.736 0 002.126 2.665 2.737 2.737 0 002.664 2.125h1.025a2.738 2.738 0 002.665-2.125 2.738 2.738 0 002.125-2.665v-1.025a2.737 2.737 0 00-2.123-2.664zm.875 3.687a1.484 1.484 0 01-1.48 1.483h-.257a.32.32 0 00-.319.32v.257a1.484 1.484 0 01-1.486 1.482h-1.025a1.484 1.484 0 01-1.483-1.482v-.255a.32.32 0 00-.319-.32h-.255a1.484 1.484 0 01-1.48-1.483v-1.026a1.484 1.484 0 011.482-1.483h.255a.32.32 0 00.32-.32v-.255a1.483 1.483 0 011.482-1.481h1.023a1.484 1.484 0 011.482 1.482v.256a.32.32 0 00.32.32h.26a1.484 1.484 0 011.483 1.482l-.003 1.023zM11.557 58.813c-1.37 0-4.807-.24-7.291-2.438C2.022 54.39.786 51.101.957 47.578c.273-5.586 4.338-12.12 11.336-13.222a.625.625 0 11.196 1.235c-6.347 1-10.035 6.953-10.283 12.047-.151 3.102.956 6.09 2.888 7.8 1.5 1.33 3.918 2.125 6.461 2.125h.01a8.178 8.178 0 007.452-4.76c.678-1.505.605-3.437.513-5.888-.063-1.598-.13-3.41-.009-5.488.166-2.882-.532-3.438-1.159-3.602-1.062-.28-2.02.788-2.425 1.983-.973 2.861-2.185 6.426-5.194 8.093a.625.625 0 01-.605-1.094c2.587-1.433 3.664-4.604 4.614-7.402.687-2.03 2.341-3.202 3.924-2.791 2.073.54 2.206 2.894 2.092 4.884-.117 2.019-.05 3.799.01 5.368.098 2.614.176 4.677-.623 6.451a9.418 9.418 0 01-8.59 5.496h-.008z" fill="#3F446C"/><path d="M6.112 56.166a6.887 6.887 0 01-1.018-.728c-1.932-1.71-3.04-4.7-2.888-7.8.25-5.095 3.938-11.048 10.283-12.049a.625.625 0 10-.196-1.235C5.295 35.458 1.23 41.991.957 47.577.785 51.1 2.02 54.389 4.266 56.374c.424.372.885.7 1.375.978a6.39 6.39 0 00.471-1.186z" fill="#3F446C"/><path d="M76.62 56.128c-2.579-3.687-4.957-4.15-5.46-4.265a4.885 4.885 0 00-2.33.135 2.617 2.617 0 00-1.226-.555 3.84 3.84 0 00-3.026.813 10.02 10.02 0 00-.706.745c-1.313-2.128-3.256-5.355-4.023-7.04-.553-1.207-2.313-1.273-3.227-.125-2.309 2.896 3.146 10.643 4.187 13.313.249.56.374 1.167.366 1.78-.082 1.475-1.567 1.671-3.041 1.594-1.938-.107-5.655-.424-5.59 2.785 0 .355.077.705.227 1.026.97 2.067 4.898 1.773 7.74 2.938 3.003 1.227 9.678 2.45 14.04-1.25 4.072-3.455 4.513-8.39 2.07-11.894z" fill="#FF977B"/><path d="M77.131 55.77c-1.214-1.736-3.206-3.928-5.832-4.516a5.289 5.289 0 00-2.35.063 3.307 3.307 0 00-1.233-.489 4.464 4.464 0 00-3.523.931c-.08.063-.15.136-.224.205-1.793-2.933-3.022-5.097-3.553-6.265a2.236 2.236 0 00-1.81-1.293 2.77 2.77 0 00-2.474 1.036c-2 2.512.744 7.58 2.75 11.28.492.86.94 1.743 1.342 2.648.213.477.323.994.323 1.517-.02.366-.062 1.125-2.382 1.006l-.188-.01c-1.539-.087-3.866-.22-5.171 1.036a3.096 3.096 0 00-.888 2.398c0 .441.098.877.287 1.277.75 1.603 2.75 1.996 4.86 2.41 1.094.178 2.168.459 3.209.838a18.759 18.759 0 006.725 1.264 12.09 12.09 0 007.95-2.614c4.095-3.465 4.992-8.696 2.182-12.723zm-2.988 11.768c-4.167 3.534-10.587 2.296-13.399 1.147a18.619 18.619 0 00-3.437-.907c-1.793-.352-3.487-.684-3.976-1.727a1.788 1.788 0 01-.163-.762 1.876 1.876 0 01.505-1.47c.911-.878 2.99-.76 4.233-.687l.194.01c2.371.118 3.61-.61 3.698-2.178a4.841 4.841 0 00-.407-2.047 29.71 29.71 0 00-1.41-2.792c-1.63-3.006-4.357-8.039-2.872-9.903a1.511 1.511 0 011.345-.576 1.01 1.01 0 01.824.572c.75 1.652 2.625 4.781 4.063 7.114.75 1.222 1.301 2.087 1.301 2.087a.625.625 0 101.055-.671s-.437-.688-1.062-1.7a3.257 3.257 0 012.859-.994c.34.057.662.201.93.418.264.226.455.523.552.855a.625.625 0 001.152.103.625.625 0 00.044-.476 3.254 3.254 0 00-.228-.54c.373-.038.75-.017 1.117.063 2.203.493 3.961 2.45 5.048 4.004 2.423 3.48 1.616 8.025-1.966 11.057zm-48.32-32.1a1.324 1.324 0 01-.938-.388l-.424-.425a.625.625 0 01.883-.884l.425.425a.074.074 0 00.082.017.075.075 0 00.024-.017l1.345-1.344a.625.625 0 01.884.884l-1.345 1.344a1.324 1.324 0 01-.936.388z" fill="#3F446C"/><path d="M19.694 52.85a8.799 8.799 0 01-8.026 5.125c-.125 0-1.593-.385-3.072-.794a3.9 3.9 0 01-2.76-4.796l.011-.038c.281-.95 1.467-2.203 2.66-3.288a38.148 38.148 0 012.812-2.292c2.117-1.232 3.176-4.555 4.125-7.368.529-1.555 1.788-2.75 3.175-2.392 1.387.358 1.769 1.85 1.625 4.25-.302 5.323.65 8.927-.55 11.593z" fill="#FF977B"/><path d="M20.776 46.866c-.06-1.57-.125-3.35-.01-5.368.115-1.99-.02-4.344-2.092-4.884-1.582-.41-3.236.761-3.924 2.791-.95 2.797-2.026 5.97-4.614 7.402a.625.625 0 10.606 1.094c3.01-1.667 4.22-5.232 5.192-8.095.405-1.194 1.365-2.262 2.425-1.982.625.163 1.325.72 1.16 3.602-.121 2.078-.053 3.89.008 5.488.092 2.448.165 4.383-.513 5.889a8.178 8.178 0 01-7.451 4.76h-.008a11.084 11.084 0 01-4.881-1.089c-.128.404-.29.797-.487 1.172a12.714 12.714 0 005.368 1.166h.008a9.418 9.418 0 008.591-5.494c.799-1.775.721-3.839.622-6.452z" fill="#3F446C"/></svg>