<svg width="80" height="80" fill="none" xmlns="http://www.w3.org/2000/svg"><path d="M58.204 47.609c5.603 3.118 4.282 10.05.31 12.487a9 9 0 01-6.395.831l-.333-.035a57.15 57.15 0 01-6.417-1.455c-6.282-1.957-6.352-4.548-7.188-6.894-1.145-3.22 3.098-8.056 10.713-4.136 3.906 0 5.703-2.808 9.31-.798z" fill="#874B41"/><path d="M54.112 61.813a7.437 7.437 0 01-2.163-.29.624.624 0 11.369-1.194 8.294 8.294 0 005.87-.766 7 7 0 003.147-5.978 6.242 6.242 0 00-3.433-5.432c-1.935-1.079-3.25-.604-4.913-.004-1.298.542-2.685.84-4.09.881a.625.625 0 010-1.25 10.316 10.316 0 003.666-.806c1.727-.625 3.513-1.268 5.945.087a7.448 7.448 0 014.075 6.5 8.176 8.176 0 01-3.743 7.068 9.54 9.54 0 01-4.73 1.184z" fill="#3F446C"/><path d="M31.605 66.086c2.36 1.75 5.158 3.07 8.231 3.004 6.055-.133 10.879-3.192 14.438-7.922a28.53 28.53 0 00-1.389-.922 33.976 33.976 0 00-4.798-2.451v-.007c-.338-.137-.682-.282-1.02-.413-1.293-.516-2.663-1.7-3.166-4.612-.08-.48-.135-.966-.165-1.453a12.469 12.469 0 01-3.972.938 12.471 12.471 0 01-3.972-.938c-.034.5-.083.964-.151 1.39-.496 2.954-1.866 4.159-3.18 4.675-.338.13-.682.276-1.02.413v.007a33.214 33.214 0 00-5.5 2.902c1.313 2.21 3.684 3.92 5.664 5.39z" fill="#FF7364"/><path d="M60.715 67.425c1.639 2.176.469 3.518-1.645 4.647-3.586 1.914-11.86 3.807-19.313 3.807-7.451 0-15.722-1.893-19.302-3.807-2.113-1.129-3.29-2.47-1.645-4.647a29.36 29.36 0 0112.627-9.63c1.549 2.781 8.336 6.409 8.336 6.409s6.746-3.642 8.313-6.41a33.974 33.974 0 014.798 2.452 28.453 28.453 0 017.831 7.18z" fill="#0E8E8B"/><path d="M51.194 67.577H46.16c-.57 0-1.032.462-1.032 1.032v2.637c0 .57.462 1.032 1.032 1.032h5.033c.57 0 1.032-.462 1.032-1.032v-2.637c0-.57-.462-1.032-1.032-1.032z" fill="#fff"/><path d="M43.897 52.763a6.783 6.783 0 01-4.096 1.273 6.695 6.695 0 01-4.164-1.335c.069-.427.206-2.53.24-3.032 1.688.647 6.058.647 7.745 0 .034.53.2 2.654.275 3.094z" fill="#ED4850"/><path d="M58.005 33.667c1.804.847 2.286 2.875 1.48 5.011-.846 2.26-3.428 3.885-5.693 3.036h-.007a4.408 4.408 0 01-2.118-4.655c.194-1.42.771-2.99 3.358-3.675a5.432 5.432 0 012.63.139c.12.04.237.088.35.144zM25.74 41.714h-.007c-2.258.846-4.846-.778-5.693-3.036-.847-2.258-.254-4.42 1.832-5.156a5.432 5.432 0 012.629-.138c3.757 1.34 3.582 7.774 1.24 8.33z" fill="#FF7364"/><path d="M27.563 21.243c4.02-6.368 8.508-9.544 15.625-8.147.924.192 1.832.45 2.718.775 9.842 3.786 8.798 14.585 9.119 20.05-.151 2-.269 3.339-.42 4.763a14.614 14.614 0 01-4.956 9.569 19.505 19.505 0 01-5.913 3.587v.006a12.474 12.474 0 01-3.973.938 12.477 12.477 0 01-3.972-.938v-.006c-3.553-1.37-8.131-4.351-10.052-9.59a14.872 14.872 0 01-.819-3.566c-.151-1.424-.261-2.76-.42-4.763 0-8.376 1.52-10.22 3.063-12.678z" fill="#FF977B"/><path d="M48.512 32.455v1.188a1.301 1.301 0 01-2.602 0v-1.188a1.3 1.3 0 012.602 0zm-14.781 0v1.188a1.301 1.301 0 01-2.602 0v-1.188a1.302 1.302 0 012.602 0z" fill="#3F446C"/><path d="M30.675 27.237c-1.542 2.458-3.455 4.709-6.175 6.147a5.433 5.433 0 00-2.63.138 17.831 17.831 0 01-1.982-8.625c0-11.085 8.846-20.776 19.93-20.776a13.268 13.268 0 017.578 2.333A8.031 8.031 0 0049.51 7.59c6.366 2.203 10.511 9.817 10.511 17.307 0 3.559-.391 5.865-2.016 8.77a2.657 2.657 0 00-.351-.145 5.43 5.43 0 00-2.63-.138c-5.136-5.142-1.274-17.058-9.375-18.104-.778-.104-1.438-.625-2.217-.778-7.119-1.398-8.736 6.367-12.757 12.735z" fill="#874B41"/><path d="M39.804 38.875c-.015 0-1.527-.025-1.527-.941a.625.625 0 011.117-.386c.133.043.27.069.41.077a1.68 1.68 0 00.417-.077.625.625 0 011.116.386c0 .917-1.518.941-1.533.941zm.001 4.352c-1.362 0-2.42-.526-2.832-1.406a.626.626 0 011.133-.53c.154.332.682.688 1.699.688 1.016 0 1.55-.355 1.705-.688a.624.624 0 111.132.529c-.411.881-1.472 1.407-2.837 1.407zm9.575-10.573a.625.625 0 01-.624-.625c0-.35-.506-.739-1.234-.739-.727 0-1.233.39-1.233.739a.625.625 0 01-1.25 0c0-1.115 1.09-1.989 2.483-1.989s2.484.875 2.484 1.989a.625.625 0 01-.625.625zM50.894 29a.622.622 0 01-.437-.179c-1.782-1.745-5.196-1.441-6.479-1.034a.626.626 0 11-.375-1.192c1.25-.395 5.35-1 7.73 1.334A.625.625 0 0150.896 29h-.002zM33.98 32.654a.625.625 0 01-.626-.625c0-.35-.506-.739-1.233-.739-.727 0-1.234.39-1.234.739a.625.625 0 11-1.25 0c0-1.115 1.091-1.989 2.484-1.989s2.483.875 2.483 1.989a.625.625 0 01-.625.625zm-3.304-4.791a.625.625 0 01-.2-1.218 9.952 9.952 0 015.563-.052.626.626 0 11-.375 1.192 8.68 8.68 0 00-4.79.044.61.61 0 01-.198.034z" fill="#3F446C"/><path d="M61.217 67.049a29.014 29.014 0 00-8-7.334 34.762 34.762 0 00-4.805-2.462c-.28-.12-.867-.364-1.112-.459-1.694-.671-2.638-2.347-2.894-5.088 2.07-.85 3.983-2.04 5.658-3.524a15.615 15.615 0 004.09-5.715c.296.066.598.1.9.1A5.692 5.692 0 0060.07 38.9c.856-2.27.348-4.386-1.238-5.473 1.503-2.895 1.813-5.28 1.813-8.53 0-8.178-4.599-15.705-10.933-17.897a7.433 7.433 0 01-1.947-1.05 13.975 13.975 0 00-7.945-2.453c-11.142 0-20.555 9.8-20.555 21.4a18.174 18.174 0 001.773 8.325 3.683 3.683 0 00-1.605 1.687 5.17 5.17 0 00.023 3.992 5.694 5.694 0 005.013 3.671c.305-.001.61-.036.907-.102 2.274 5.52 7.255 8.206 9.75 9.242-.25 2.74-1.195 4.415-2.89 5.084-.25.096-1.088.443-1.114.46a29.952 29.952 0 00-12.807 9.794 3.436 3.436 0 00-.842 2.808c.296 1.35 1.678 2.225 2.691 2.767 3.568 1.907 11.875 3.88 19.598 3.88 7.722 0 16.029-1.973 19.604-3.88 1.011-.54 2.39-1.415 2.687-2.764a3.446 3.446 0 00-.835-2.811zM58.9 38.459c-.633 1.687-2.477 3.114-4.313 2.817.313-.998.527-2.024.637-3.063l.035-.33a3.005 3.005 0 011.65-1.211.625.625 0 10-.192-1.235 3.48 3.48 0 00-1.278.557c.054-.617.109-1.29.168-2.062a4.576 4.576 0 011.848.18c.097.032.191.07.283.117 1.423.671 1.878 2.33 1.162 4.23zM20.514 24.896c0-10.922 8.84-20.15 19.305-20.15a12.69 12.69 0 017.209 2.212c.694.52 1.462.932 2.278 1.223 5.848 2.023 10.092 9.053 10.092 16.715 0 3.063-.29 5.299-1.693 7.99a6.092 6.092 0 00-2.432-.172c-1.864-2.048-2.401-5.206-2.908-8.274-.738-4.483-1.506-9.118-6.634-9.78a21.158 21.158 0 00-2.178-.771c-5.962-.878-8.338 3.531-10.904 8.5-.775 1.5-1.575 3.05-2.5 4.517-1.739 2.77-3.577 4.625-5.765 5.827a6.447 6.447 0 00-2.165.053 17.072 17.072 0 01-1.705-7.89zm.113 13.563a3.947 3.947 0 01-.063-3.025 2.517 2.517 0 011.517-1.322 4.571 4.571 0 011.837-.176c.06.74.114 1.418.17 2.063a3.483 3.483 0 00-1.28-.563.625.625 0 00-.2 1.234 3 3 0 011.658 1.214l.034.328c.11 1.04.324 2.066.638 3.063-1.834.303-3.679-1.127-4.311-2.816zm5.7 3.041c-.4-1.102-.664-2.25-.784-3.417a160.718 160.718 0 01-.387-4.354c2.305-1.31 4.239-3.271 6.049-6.157.954-1.512 1.768-3.086 2.554-4.61 2.548-4.93 4.547-8.766 9.554-7.845.691.125 1.75.717 2.256.784 4.208.543 4.837 4.344 5.563 8.744.54 3.271 1.103 6.646 3.25 8.964-.143 1.861-.256 3.14-.398 4.474a13.984 13.984 0 01-4.75 9.17 18.4 18.4 0 01-5.722 3.469 15.856 15.856 0 01-3.749.903 19.59 19.59 0 01-3.75-.902c-2.21-.845-7.574-3.459-9.686-9.223zm6.362 16.456c2.072-.817 3.287-2.772 3.642-5.79a11.81 11.81 0 003.432.709c1.174-.063 2.331-.3 3.434-.706.36 3.017 1.575 4.972 3.644 5.792.096.037.194.078.29.117-1.722 2.168-6.166 4.75-7.355 5.415-1.196-.664-5.67-3.24-7.385-5.414.1-.043.198-.084.298-.123zm28.147 11.635c-.141.634-.813 1.266-2.057 1.93-3.437 1.835-11.492 3.733-19.015 3.733-7.524 0-15.575-1.898-19.01-3.733-1.246-.666-1.92-1.299-2.062-1.932a2.262 2.262 0 01.62-1.787 28.648 28.648 0 0111.897-9.216c2.025 2.808 8.005 6.026 8.273 6.169a.62.62 0 00.592 0c.267-.143 6.217-3.375 8.244-6.173a32.665 32.665 0 014.238 2.197 27.765 27.765 0 017.663 7.024 2.264 2.264 0 01.616 1.788z" fill="#3F446C"/><path d="M51.198 72.904h-5.032a1.66 1.66 0 01-1.658-1.658V68.61a1.66 1.66 0 011.658-1.657h5.032a1.66 1.66 0 011.657 1.656v2.637a1.66 1.66 0 01-1.657 1.658zm-5.032-4.701a.408.408 0 00-.408.406v2.637a.408.408 0 00.408.408h5.032a.407.407 0 00.407-.408V68.61a.408.408 0 00-.407-.407h-5.032z" fill="#3F446C"/></svg>