<svg width="80" height="80" fill="none" xmlns="http://www.w3.org/2000/svg"><path d="M40.002 8.542A76.779 76.779 0 0164.71 12.65a3.965 3.965 0 012.813 4.118c-1.034 9.212-4.28 33.904-5.926 36.6-3.272 5.36-14.954 14.09-19.64 17.467a3.403 3.403 0 01-3.928 0c-4.682-3.375-16.352-12.107-19.626-17.466-1.645-2.696-4.891-27.389-5.925-36.6a3.964 3.964 0 012.812-4.118 76.778 76.778 0 0124.712-4.109z" fill="#3F446C"/><path d="M40 12.65a69.189 69.189 0 0121.625 3.483c1.562.524 1.875 1.968 1.706 3.491-.876 7.81-3.626 28.745-5.024 31.03-2.927 4.795-13.788 12.767-17.25 15.238a1.83 1.83 0 01-2.134 0c-3.46-2.471-14.309-10.443-17.236-15.237-1.392-2.286-4.144-23.221-5.02-31.03-.172-1.523.143-2.967 1.705-3.491A69.187 69.187 0 0140 12.65z" fill="#1B89E5"/><path d="M41.101 29.08h-2.233a3.233 3.233 0 00-3.229 3.232v.555a.697.697 0 01-.695.695h-.556a3.232 3.232 0 00-3.228 3.229v2.234a3.232 3.232 0 003.228 3.229h.556a.697.697 0 01.695.696v.555a3.232 3.232 0 003.23 3.229H41.1a3.232 3.232 0 003.229-3.23v-.558a.697.697 0 01.696-.696h.558a3.233 3.233 0 003.227-3.228v-2.23a3.233 3.233 0 00-3.227-3.23h-.558a.696.696 0 01-.697-.695v-.555a3.232 3.232 0 00-3.228-3.228v-.003z" fill="#fff"/><path d="M39.993 72.083a3.981 3.981 0 01-2.33-.742c-4.846-3.496-16.474-12.213-19.791-17.647-1.9-3.111-5.403-31.413-6.014-36.856a4.567 4.567 0 013.235-4.78 77.797 77.797 0 0124.783-4.141h.25a77.794 77.794 0 0124.784 4.14 4.567 4.567 0 013.235 4.78c-.61 5.444-4.115 33.746-6.014 36.857-3.319 5.437-14.957 14.153-19.807 17.647a3.981 3.981 0 01-2.331.742zm-.117-62.916a76.529 76.529 0 00-24.386 4.076 3.328 3.328 0 00-2.39 3.456c1.322 11.777 4.401 33.993 5.839 36.343 3.199 5.241 14.67 13.833 19.455 17.285a2.765 2.765 0 003.198 0c4.788-3.452 16.27-12.041 19.472-17.285 1.437-2.35 4.516-24.566 5.838-36.343a3.327 3.327 0 00-2.39-3.456 76.529 76.529 0 00-24.386-4.076c-.042 0-.08-.018-.125 0h-.125z" fill="#3F446C"/><path d="M39.994 66.86a2.46 2.46 0 01-1.432-.46c-3.323-2.375-14.405-10.506-17.405-15.42-1.619-2.652-4.594-26.667-5.11-31.285-.309-2.74.987-3.77 2.127-4.154a70.006 70.006 0 0121.717-3.516h.219a70.006 70.006 0 0121.717 3.516c1.14.383 2.437 1.415 2.128 4.154-.519 4.618-3.492 28.633-5.111 31.286-3 4.913-14.092 13.045-17.42 15.42a2.457 2.457 0 01-1.43.459zm-.103-53.585a68.699 68.699 0 00-21.319 3.451c-.381.125-1.544.518-1.283 2.829 1.119 9.978 3.726 28.794 4.937 30.774 2.875 4.712 13.79 12.714 17.063 15.054a1.21 1.21 0 001.408 0c3.28-2.34 14.203-10.343 17.08-15.054 1.209-1.98 3.815-20.796 4.937-30.774.26-2.312-.902-2.7-1.284-2.829a68.703 68.703 0 00-21.32-3.45h-.22z" fill="#3F446C"/><path d="M45.587 32.313h-.005a4.483 4.483 0 00-4.478-4.479h-2.233a4.484 4.484 0 00-4.479 4.479 4.484 4.484 0 00-4.478 4.478v2.234a4.483 4.483 0 004.478 4.479 4.484 4.484 0 004.479 4.479h2.233a4.483 4.483 0 004.478-4.479V43.5h.005a4.484 4.484 0 004.476-4.478v-2.23a4.484 4.484 0 00-4.476-4.48zm3.226 6.71a3.233 3.233 0 01-3.226 3.227h-.559a.697.697 0 00-.696.696v.559a3.232 3.232 0 01-3.228 3.228h-2.233a3.232 3.232 0 01-3.229-3.228v-.555a.697.697 0 00-.695-.696h-.556a3.232 3.232 0 01-3.228-3.229V36.79a3.232 3.232 0 013.228-3.226h.556a.697.697 0 00.695-.697v-.553a3.232 3.232 0 013.229-3.229h2.233a3.232 3.232 0 013.228 3.229v.558a.697.697 0 00.696.692h.56a3.233 3.233 0 013.225 3.23v2.23z" fill="#3F446C"/><path d="M53.227 70.074a8.984 8.984 0 100-17.969 8.984 8.984 0 000 17.969z" fill="#78C5EF"/><path d="M53.227 70.699a9.61 9.61 0 119.609-9.61 9.62 9.62 0 01-9.61 9.61zm0-17.968a8.36 8.36 0 108.359 8.358 8.369 8.369 0 00-8.36-8.358z" fill="#3F446C"/><path d="M52.469 64.072a3.438 3.438 0 01-2.442-1.01l-1.09-1.088a1.25 1.25 0 011.767-1.767l1.088 1.088a.954.954 0 001.348 0l3.684-3.683a1.25 1.25 0 011.767 1.767l-3.681 3.683a3.437 3.437 0 01-2.441 1.01z" fill="#3F446C"/></svg>