<svg width="80" height="80" fill="none" xmlns="http://www.w3.org/2000/svg"><path d="M50.722 72.472H29.277l1.946-17.554h17.554l1.945 17.554z" fill="#D3CDCD"/><path d="M50.722 73.097H29.277a.624.624 0 01-.62-.694l1.945-17.554a.625.625 0 01.621-.556h17.554a.625.625 0 01.621.556l1.946 17.554a.625.625 0 01-.622.694zm-20.75-1.25h20.052l-1.807-16.304H31.783l-1.81 16.304z" fill="#3F446C"/><path d="M71.47 12.228H8.531a1.984 1.984 0 00-1.984 1.984V57.67c0 1.096.888 1.984 1.984 1.984H71.47a1.984 1.984 0 001.984-1.984V14.212a1.984 1.984 0 00-1.984-1.984z" fill="#E8E2E2"/><path d="M9.25 15.022h61.462v31.996H9.25V15.022z" fill="#3F446C"/><path d="M71.47 60.279H8.53a2.613 2.613 0 01-2.608-2.61V14.212a2.613 2.613 0 012.609-2.61h62.937a2.613 2.613 0 012.609 2.61v43.457a2.613 2.613 0 01-2.606 2.61zM8.53 12.852a1.36 1.36 0 00-1.358 1.36v43.457a1.36 1.36 0 001.359 1.36h62.937a1.36 1.36 0 001.359-1.36V14.212a1.36 1.36 0 00-1.359-1.36H8.531z" fill="#3F446C"/><path d="M70.713 47.643H9.25a.625.625 0 01-.625-.625V15.022a.625.625 0 01.625-.625h61.463a.625.625 0 01.625.625v31.996a.625.625 0 01-.625.625zm-60.837-1.25h60.212V15.647H9.875v30.746z" fill="#3F446C"/><path d="M20.75 6.48h38.535a1.466 1.466 0 011.466 1.466v39.072H19.285V7.945a1.466 1.466 0 011.466-1.466z" fill="#1B89E5"/><path d="M40.889 13.962h-1.294a1.875 1.875 0 00-1.871 1.871v.322a.404.404 0 01-.403.404h-.322a1.875 1.875 0 00-1.87 1.87v1.296a1.875 1.875 0 001.87 1.87h.322a.404.404 0 01.404.404v.322a1.875 1.875 0 001.87 1.87h1.294a1.875 1.875 0 001.871-1.87V22a.403.403 0 01.403-.403h.324a1.875 1.875 0 001.87-1.87V18.43a1.875 1.875 0 00-1.87-1.869h-.324a.404.404 0 01-.403-.403v-.324a1.875 1.875 0 00-1.871-1.87v-.003z" fill="#fff"/><path d="M46.784 29.735H24.868a.77.77 0 100 1.54h21.916a.77.77 0 000-1.54zm0 5.575H24.868a.77.77 0 000 1.54h21.916a.77.77 0 100-1.54zm0 5.577H24.868a.77.77 0 000 1.54h21.916a.77.77 0 100-1.54z" fill="#3F446C"/><path d="M60.75 47.643H19.286a.625.625 0 01-.625-.625V7.946a2.094 2.094 0 012.09-2.091h38.535a2.094 2.094 0 012.09 2.091v39.072a.625.625 0 01-.624.625zm-40.84-1.25h40.216V7.946a.842.842 0 00-.841-.841H20.75a.842.842 0 00-.841.841v38.447z" fill="#3F446C"/><path d="M43.612 15.71a2.87 2.87 0 00-2.813-2.3h-1.114a2.87 2.87 0 00-2.809 2.298 2.871 2.871 0 00-2.298 2.812v1.12a2.871 2.871 0 002.298 2.806 2.87 2.87 0 002.81 2.298h1.117a2.87 2.87 0 002.813-2.3 2.87 2.87 0 002.3-2.812v-1.113a2.87 2.87 0 00-2.304-2.81zm1.05 3.925a1.618 1.618 0 01-1.616 1.615h-.28a.349.349 0 00-.348.348v.28a1.617 1.617 0 01-1.615 1.616h-1.118a1.618 1.618 0 01-1.616-1.616V21.6a.349.349 0 00-.348-.35h-.278a1.618 1.618 0 01-1.615-1.616v-1.117a1.618 1.618 0 011.615-1.615h.278a.349.349 0 00.348-.348v-.278a1.617 1.617 0 011.616-1.616h1.117a1.618 1.618 0 011.616 1.616v.279a.349.349 0 00.348.349h.28a1.617 1.617 0 011.616 1.615v1.116zm7.728 12.353a1.527 1.527 0 01-1.084-.449l-.57-.57a.593.593 0 11.84-.838l.569.57a.348.348 0 00.49 0l1.802-1.805a.593.593 0 11.84.84l-1.805 1.803a1.53 1.53 0 01-1.082.448zm0 5.234a1.526 1.526 0 01-1.083-.448l-.57-.569a.593.593 0 11.839-.839l.57.57a.347.347 0 00.49 0l1.802-1.804a.593.593 0 11.84.84l-1.805 1.802a1.526 1.526 0 01-1.082.448zm0 5.236a1.527 1.527 0 01-1.084-.447l-.57-.57a.593.593 0 01.84-.84l.569.57a.347.347 0 00.49 0l1.802-1.803a.593.593 0 01.84.838l-1.805 1.805a1.528 1.528 0 01-1.082.447z" fill="#3F446C"/><path d="M54.16 70.226H25.746a1.647 1.647 0 100 3.294H54.16a1.647 1.647 0 100-3.294z" fill="#E8E2E2"/><path d="M54.163 74.145H25.747a2.273 2.273 0 010-4.544h28.416a2.272 2.272 0 010 4.544zm-28.416-3.294a1.022 1.022 0 000 2.044h28.416a1.022 1.022 0 000-2.044H25.747z" fill="#3F446C"/></svg>