<svg width="80" height="80" fill="none" xmlns="http://www.w3.org/2000/svg"><path d="M17.914 31.529l37.36-13.687a1.431 1.431 0 011.837.852l4.622 12.617a4.26 4.26 0 01-2.537 5.463L28.491 48.022a4.26 4.26 0 01-5.463-2.533l-5.114-13.96z" fill="#AACC56"/><path d="M15.06 37.363l37.36-13.687a1.431 1.431 0 011.836.852l4.622 12.618a4.257 4.257 0 01-2.534 5.465L25.639 53.86a4.257 4.257 0 01-5.466-2.535L15.06 37.363z" fill="#8A9E3E"/><path d="M62.601 31.015l-4.617-12.617a2.37 2.37 0 00-3.038-1.411L17.58 30.659a.937.937 0 00-.558 1.203l5.11 13.961a5.188 5.188 0 006.666 3.095l30.708-11.236a5.2 5.2 0 003.095-6.667zm-1.867 3.188a3.287 3.287 0 01-1.41 1.5L55.128 24.23a2.37 2.37 0 00-3.039-1.41l-26.233 9.598a.937.937 0 10.642 1.761l26.235-9.599a.495.495 0 01.635.294L57.58 36.39 28.153 47.157a3.322 3.322 0 01-4.261-1.978l-4.787-13.082L55.59 18.75a.491.491 0 01.634.294l4.617 12.618a3.298 3.298 0 01-.106 2.538v.002z" fill="#3F446C"/><path d="M18.946 30.087H61.51a2.337 2.337 0 012.336 2.336v35.202a2.336 2.336 0 01-2.336 2.336H18.946a5.841 5.841 0 01-5.84-5.84V35.928a5.84 5.84 0 015.84-5.841z" fill="#B75348"/><path d="M61.509 70.899H18.946a6.786 6.786 0 01-6.778-6.778V35.927a6.785 6.785 0 016.777-6.778h42.562a3.277 3.277 0 013.274 3.274v35.202a3.278 3.278 0 01-3.272 3.274zM18.946 31.024a4.909 4.909 0 00-4.903 4.902V64.12a4.909 4.909 0 004.903 4.903H61.51a1.4 1.4 0 001.398-1.399v-35.2a1.4 1.4 0 00-1.398-1.4H18.946z" fill="#3F446C"/><path d="M63.427 56.496h-9.978a2.92 2.92 0 01-2.425-1.293l-2.384-3.552a2.92 2.92 0 010-3.254l2.384-3.552a2.922 2.922 0 012.425-1.293h9.978a3.505 3.505 0 013.504 3.504v5.938a3.505 3.505 0 01-3.504 3.502z" fill="#C76659"/><path d="M19.5 25.33a6.68 6.68 0 100-13.361 6.68 6.68 0 000 13.361z" fill="#F8AF50"/><path d="M19.5 22.29a3.64 3.64 0 100-7.281 3.64 3.64 0 000 7.281z" fill="#ED7C38"/><path d="M37.088 17.819a3.912 3.912 0 100-7.824 3.912 3.912 0 000 7.824z" fill="#F8AF50"/><path d="M56.057 52.752a2.729 2.729 0 100-5.457 2.729 2.729 0 000 5.457z" fill="#FFEFE7"/><path d="M63.43 57.434h-9.978a3.852 3.852 0 01-3.203-1.708l-2.384-3.551a3.844 3.844 0 010-4.3l2.383-3.552a3.85 3.85 0 013.204-1.708h9.978a4.447 4.447 0 014.442 4.441v5.938a4.447 4.447 0 01-4.442 4.44zM53.452 44.49a1.98 1.98 0 00-1.647.875l-2.383 3.555a1.976 1.976 0 000 2.21l2.384 3.55a1.98 1.98 0 001.646.879h9.978a2.57 2.57 0 002.567-2.567v-5.937a2.569 2.569 0 00-2.567-2.567l-9.978.002zm-33.95-18.223a7.618 7.618 0 117.617-7.618 7.625 7.625 0 01-7.617 7.618zm0-13.361a5.743 5.743 0 105.743 5.743 5.75 5.75 0 00-5.743-5.744z" fill="#3F446C"/><path d="M19.5 23.227a4.579 4.579 0 110-9.157 4.579 4.579 0 010 9.157zm0-7.28a2.704 2.704 0 100 5.406 2.704 2.704 0 000-5.407zm17.588 2.81a4.85 4.85 0 110-9.7 4.85 4.85 0 010 9.7zm0-7.825a2.975 2.975 0 100 5.95 2.975 2.975 0 000-5.95zm18.968 42.756a3.666 3.666 0 11.002-7.333 3.666 3.666 0 01-.002 7.333zm0-5.458a1.79 1.79 0 101.792 1.791 1.794 1.794 0 00-1.792-1.788v-.003z" fill="#3F446C"/></svg>