<svg width="80" height="80" fill="none" xmlns="http://www.w3.org/2000/svg"><path d="M40.126 18.447L31.272 29.74 10.847 57.168c-.588.791-.15 1.762.724 2.22 4.208 2.201 16.141 5.015 16.141 5.015.226.07.463.1.7.09l25.295-1.07a5.305 5.305 0 002.094-.529l13.159-6.408a1.429 1.429 0 00.554-2.176l-21.72-28.373-7.668-7.49z" fill="#339EEF"/><path d="M27.527 65c-.449-.104-12.017-2.846-16.247-5.059A2.416 2.416 0 0110 58.375a1.903 1.903 0 01.345-1.58l20.425-27.43 8.866-11.302a.625.625 0 01.929-.061l7.666 7.49c.023.02.044.042.062.067l21.72 28.375a2.053 2.053 0 01-.797 3.125l-13.142 6.397a5.87 5.87 0 01-2.34.592l-25.296 1.07a5.13 5.13 0 01-.91-.118zm12.661-45.619l-8.425 10.744-20.414 27.416a.644.644 0 00-.129.556 1.193 1.193 0 00.64.737c4.09 2.14 15.875 4.933 15.996 4.96.17.055.35.08.529.075L53.68 62.8a4.626 4.626 0 001.846-.467l13.161-6.408a.812.812 0 00.482-.905.8.8 0 00-.15-.328L47.325 26.354l-7.137-6.973z" fill="#3F446C"/><path d="M11.5 70.912a.625.625 0 01-.206-1.215l16.16-5.64.463-7.86a.625.625 0 01.337-.518l9.137-4.722L31.256 39.6a.625.625 0 01.116-.75l9.663-9.313-1.528-11.004a.625.625 0 111.239-.172l1.57 11.322a.625.625 0 01-.187.536l-9.548 9.205 6.21 11.5a.627.627 0 01-.262.852l-9.388 4.849-.465 7.92a.626.626 0 01-.418.553l-16.554 5.777a.625.625 0 01-.205.037z" fill="#3F446C"/><path d="M38.242 52.815a1.594 1.594 0 100-3.188 1.594 1.594 0 000 3.188zM31.84 40.936a1.594 1.594 0 100-3.188 1.594 1.594 0 000 3.188zm-3.281 16.908a1.594 1.594 0 100-3.188 1.594 1.594 0 000 3.188zm-.504 8.279a1.594 1.594 0 100-3.187 1.594 1.594 0 000 3.187zm-16.553 5.47a1.306 1.306 0 100-2.613 1.306 1.306 0 000 2.613zM41.7 31.362a1.594 1.594 0 100-3.187 1.594 1.594 0 000 3.187z" fill="#3F446C"/><path d="M40.125 13.334l5.966-2.29a.626.626 0 00-.07-1.188l-5.896-1.498v4.976z" fill="#FF4A64"/><path d="M46.174 9.25l-5.895-1.5a.625.625 0 00-.779.606V19.65a.625.625 0 101.25 0v-5.885l5.563-2.136a1.25 1.25 0 00-.141-2.38l.002.002zm-5.426 3.175V9.161l5.118 1.3-5.118 1.964z" fill="#3F446C"/></svg>