<svg width="80" height="80" fill="none" xmlns="http://www.w3.org/2000/svg"><path d="M73.386 39.04l-9.823-7.425a3.6 3.6 0 00-4.342 0L49.4 39.04a3.6 3.6 0 00-1.428 2.875v23.984h26.84V41.91a3.6 3.6 0 00-1.427-2.872zm-66.772 0l9.823-7.425a3.6 3.6 0 014.342 0l9.82 7.424a3.6 3.6 0 011.429 2.875v23.984H5.188V41.91a3.6 3.6 0 011.426-2.872z" fill="#1B89E5"/><path d="M20.879 44.65H19.32a1.2 1.2 0 00-1.2 1.2v1.557a1.2 1.2 0 001.2 1.2h1.558a1.2 1.2 0 001.2-1.2V45.85a1.2 1.2 0 00-1.2-1.2zm-8.371 0H10.95a1.2 1.2 0 00-1.2 1.2v1.557a1.2 1.2 0 001.2 1.2h1.558a1.2 1.2 0 001.2-1.2V45.85a1.2 1.2 0 00-1.2-1.2zm8.371 7.723H19.32a1.2 1.2 0 00-1.2 1.2v1.557a1.2 1.2 0 001.2 1.2h1.558a1.2 1.2 0 001.2-1.2v-1.557a1.2 1.2 0 00-1.2-1.2zm-8.371 0H10.95a1.2 1.2 0 00-1.2 1.2v1.557a1.2 1.2 0 001.2 1.2h1.558a1.2 1.2 0 001.2-1.2v-1.557a1.2 1.2 0 00-1.2-1.2zm46.613-3.765h1.558a1.2 1.2 0 001.2-1.2V45.85a1.2 1.2 0 00-1.2-1.2H59.12a1.2 1.2 0 00-1.2 1.2v1.558a1.2 1.2 0 001.2 1.2zm8.372 0h1.557a1.2 1.2 0 001.2-1.2V45.85a1.2 1.2 0 00-1.2-1.2h-1.557a1.2 1.2 0 00-1.2 1.2v1.558a1.2 1.2 0 001.2 1.2zm-8.372 7.722h1.558a1.2 1.2 0 001.2-1.2v-1.557a1.2 1.2 0 00-1.2-1.2H59.12a1.2 1.2 0 00-1.2 1.2v1.558a1.2 1.2 0 001.2 1.2zm8.372 0h1.557a1.2 1.2 0 001.2-1.2v-1.557a1.2 1.2 0 00-1.2-1.2h-1.557a1.2 1.2 0 00-1.2 1.2v1.558a1.2 1.2 0 001.2 1.2z" fill="#42A4F6"/><path d="M32.028 66.52H5.188a.625.625 0 01-.625-.626V41.911a4.25 4.25 0 011.675-3.37l9.82-7.425a4.24 4.24 0 015.096 0l9.822 7.425a4.25 4.25 0 011.677 3.37v23.983a.625.625 0 01-.625.625zM5.81 65.27h25.591V41.91a2.99 2.99 0 00-1.18-2.375L20.4 32.113a2.986 2.986 0 00-3.588 0l-9.821 7.425a2.99 2.99 0 00-1.181 2.375V65.27z" fill="#3F446C"/><path d="M20.879 49.232H19.32a1.826 1.826 0 01-1.825-1.824V45.85a1.826 1.826 0 011.825-1.825h1.558a1.826 1.826 0 011.825 1.825v1.558a1.827 1.827 0 01-1.825 1.824zm-1.558-3.957a.576.576 0 00-.575.575v1.558a.575.575 0 00.575.574h1.558a.576.576 0 00.575-.574V45.85a.576.576 0 00-.575-.575H19.32zm-6.812 3.957H10.95a1.827 1.827 0 01-1.826-1.824V45.85a1.827 1.827 0 011.824-1.825h1.559a1.826 1.826 0 011.825 1.825v1.558a1.827 1.827 0 01-1.824 1.824zm-1.558-3.957a.576.576 0 00-.575.575v1.558a.575.575 0 00.575.574h1.558a.575.575 0 00.575-.574V45.85a.575.575 0 00-.575-.575H10.95zm9.928 11.68H19.32a1.827 1.827 0 01-1.825-1.825v-1.557a1.827 1.827 0 011.825-1.825h1.558a1.827 1.827 0 011.825 1.825v1.557a1.827 1.827 0 01-1.825 1.825zM19.32 53a.575.575 0 00-.575.575v1.558a.576.576 0 00.575.575h1.558a.576.576 0 00.575-.575v-1.56a.576.576 0 00-.575-.575L19.32 53zm-6.812 3.955h-1.559a1.827 1.827 0 01-1.824-1.825v-1.557a1.827 1.827 0 011.824-1.825h1.559a1.827 1.827 0 011.825 1.825v1.557a1.827 1.827 0 01-1.825 1.825zM10.949 53a.575.575 0 00-.574.575v1.558a.575.575 0 00.574.575h1.559a.576.576 0 00.575-.575v-1.56a.576.576 0 00-.575-.575L10.949 53zm63.864 13.52h-26.84a.625.625 0 01-.625-.626V41.911a4.25 4.25 0 011.677-3.37l9.82-7.425a4.24 4.24 0 015.096 0l9.822 7.425a4.25 4.25 0 011.676 3.37v23.983a.626.626 0 01-.626.625zm-26.217-1.25h25.592V41.91a2.99 2.99 0 00-1.182-2.375l-9.818-7.423a2.986 2.986 0 00-3.589 0l-9.82 7.425a2.99 2.99 0 00-1.181 2.375l-.002 23.356z" fill="#3F446C"/><path d="M60.68 49.232h-1.554a1.826 1.826 0 01-1.825-1.824V45.85a1.826 1.826 0 011.825-1.825h1.557a1.826 1.826 0 011.825 1.825v1.558a1.827 1.827 0 01-1.828 1.824zm-1.554-3.957a.576.576 0 00-.575.575v1.558a.575.575 0 00.575.574h1.557a.576.576 0 00.575-.574V45.85a.576.576 0 00-.575-.575h-1.557zm9.925 3.957h-1.558a1.826 1.826 0 01-1.825-1.824V45.85a1.827 1.827 0 011.825-1.825h1.558a1.827 1.827 0 011.825 1.825v1.558a1.827 1.827 0 01-1.825 1.824zm-1.558-3.957a.576.576 0 00-.575.575v1.558a.575.575 0 00.575.574h1.558a.575.575 0 00.575-.574V45.85a.576.576 0 00-.575-.575h-1.558zm-6.813 11.68h-1.554A1.826 1.826 0 0157.3 55.13v-1.558a1.827 1.827 0 011.825-1.822h1.557a1.826 1.826 0 011.825 1.825v1.557a1.827 1.827 0 01-1.828 1.823zM59.126 53a.576.576 0 00-.575.575v1.557a.575.575 0 00.575.576h1.557a.576.576 0 00.575-.575v-1.56a.576.576 0 00-.575-.575L59.126 53zm9.925 3.955h-1.558a1.827 1.827 0 01-1.825-1.825v-1.557a1.827 1.827 0 011.825-1.825h1.558a1.826 1.826 0 011.825 1.825v1.557a1.827 1.827 0 01-1.825 1.825zM67.493 53a.575.575 0 00-.575.575v1.558a.575.575 0 00.575.575h1.558a.576.576 0 00.575-.575v-1.56a.576.576 0 00-.575-.575L67.493 53z" fill="#3F446C"/><path d="M25.363 26.926L37.831 17.5a3.6 3.6 0 014.342 0l12.468 9.426a3.602 3.602 0 011.429 2.872v36.096H23.934V29.798a3.601 3.601 0 011.429-2.872z" fill="#42A4F6"/><path d="M49.148 46.029h-1.557a1.2 1.2 0 00-1.2 1.2v1.557a1.2 1.2 0 001.2 1.2h1.557a1.2 1.2 0 001.2-1.2V47.23a1.2 1.2 0 00-1.2-1.2zm-18.296 3.958h1.557a1.2 1.2 0 001.2-1.2v-1.558a1.2 1.2 0 00-1.2-1.2h-1.557a1.2 1.2 0 00-1.2 1.2v1.558a1.2 1.2 0 001.2 1.2zm9.925-3.958h-1.558a1.2 1.2 0 00-1.2 1.2v1.557a1.2 1.2 0 001.2 1.2h1.558a1.2 1.2 0 001.2-1.2V47.23a1.2 1.2 0 00-1.2-1.2zm8.371-8.947h-1.557a1.2 1.2 0 00-1.2 1.2v1.558a1.2 1.2 0 001.2 1.2h1.557a1.2 1.2 0 001.2-1.2v-1.558a1.2 1.2 0 00-1.2-1.2zm-18.296 3.957h1.557a1.2 1.2 0 001.2-1.2V38.28a1.2 1.2 0 00-1.2-1.2h-1.557a1.2 1.2 0 00-1.2 1.2v1.558a1.2 1.2 0 001.2 1.2zm9.925-3.957h-1.558a1.2 1.2 0 00-1.2 1.2v1.558a1.2 1.2 0 001.2 1.2h1.558a1.2 1.2 0 001.2-1.2v-1.558a1.2 1.2 0 00-1.2-1.2zm8.371 17.894h-1.557a1.2 1.2 0 00-1.2 1.2v1.558a1.2 1.2 0 001.2 1.2h1.557a1.2 1.2 0 001.2-1.2v-1.558a1.2 1.2 0 00-1.2-1.2zm-18.296 3.958h1.557a1.2 1.2 0 001.2-1.2v-1.558a1.2 1.2 0 00-1.2-1.2h-1.557a1.2 1.2 0 00-1.2 1.2v1.558a1.2 1.2 0 001.2 1.2zm9.925-3.958h-1.558a1.2 1.2 0 00-1.2 1.2v1.558a1.2 1.2 0 001.2 1.2h1.558a1.2 1.2 0 001.2-1.2v-1.558a1.2 1.2 0 00-1.2-1.2z" fill="#78C5EF"/><path d="M40.375 25.706h-.75a1.08 1.08 0 00-1.079 1.078v.188a.233.233 0 01-.233.232h-.187a1.08 1.08 0 00-1.08 1.08v.75a1.08 1.08 0 001.08 1.078h.187a.233.233 0 01.233.233v.187a1.08 1.08 0 001.079 1.074h.75a1.081 1.081 0 001.08-1.08v-.187a.233.233 0 01.232-.233h.187a1.08 1.08 0 001.08-1.079v-.745a1.08 1.08 0 00-1.08-1.078h-.187a.233.233 0 01-.233-.233v-.187a1.08 1.08 0 00-1.079-1.078z" fill="#fff"/><path d="M56.069 66.52H23.934a.625.625 0 01-.625-.625V29.798a4.25 4.25 0 011.676-3.37L37.453 17a4.241 4.241 0 015.096 0l12.468 9.428a4.25 4.25 0 011.677 3.37v36.097a.625.625 0 01-.625.625zm-31.51-1.25h30.885V29.798a2.989 2.989 0 00-1.181-2.375L41.795 18a2.987 2.987 0 00-3.588 0l-12.468 9.425a2.99 2.99 0 00-1.18 2.375v35.47z" fill="#3F446C"/><path d="M49.148 50.612h-1.557a1.827 1.827 0 01-1.825-1.825v-1.558a1.828 1.828 0 011.825-1.825h1.557a1.828 1.828 0 011.825 1.825v1.558a1.827 1.827 0 01-1.825 1.825zm-1.557-3.958a.576.576 0 00-.575.575v1.558a.576.576 0 00.575.575h1.557a.575.575 0 00.575-.575v-1.558a.575.575 0 00-.575-.575h-1.557zM32.41 50.612h-1.558a1.827 1.827 0 01-1.825-1.825v-1.558a1.828 1.828 0 011.825-1.825h1.558a1.828 1.828 0 011.825 1.825v1.558a1.827 1.827 0 01-1.825 1.825zm-1.558-3.958a.576.576 0 00-.575.575v1.558a.576.576 0 00.575.575h1.558a.575.575 0 00.575-.575v-1.558a.575.575 0 00-.575-.575h-1.558zm9.928 3.958h-1.557a1.827 1.827 0 01-1.825-1.825v-1.558a1.828 1.828 0 011.825-1.825h1.558a1.828 1.828 0 011.825 1.825v1.558a1.827 1.827 0 01-1.825 1.825zm-1.557-3.958a.576.576 0 00-.575.575v1.558a.576.576 0 00.575.575h1.558a.575.575 0 00.575-.575v-1.558a.575.575 0 00-.575-.575h-1.558zm9.925-4.99h-1.557a1.827 1.827 0 01-1.825-1.825v-1.558a1.827 1.827 0 011.825-1.824h1.557a1.827 1.827 0 011.825 1.824v1.559a1.827 1.827 0 01-1.825 1.824zm-1.557-3.957a.575.575 0 00-.575.574v1.559a.576.576 0 00.575.574h1.557a.575.575 0 00.575-.575v-1.558a.576.576 0 00-.575-.574h-1.557zM32.41 41.664h-1.558a1.827 1.827 0 01-1.825-1.825v-1.558a1.827 1.827 0 011.825-1.824h1.558a1.827 1.827 0 011.825 1.824v1.559a1.827 1.827 0 01-1.825 1.824zm-1.558-3.957a.575.575 0 00-.575.574v1.559a.576.576 0 00.575.574h1.558a.575.575 0 00.575-.575v-1.558a.575.575 0 00-.575-.574h-1.558zm9.928 3.957h-1.557a1.827 1.827 0 01-1.825-1.825v-1.558a1.827 1.827 0 011.825-1.824h1.558a1.827 1.827 0 011.825 1.824v1.559a1.827 1.827 0 01-1.825 1.824zm-1.557-3.957a.575.575 0 00-.575.574v1.559a.576.576 0 00.575.574h1.558a.575.575 0 00.575-.575v-1.558a.576.576 0 00-.575-.574h-1.558zm9.925 21.853h-1.557a1.827 1.827 0 01-1.825-1.826v-1.557a1.827 1.827 0 011.825-1.825h1.557a1.827 1.827 0 011.825 1.825v1.557a1.827 1.827 0 01-1.825 1.825zm-1.557-3.958a.575.575 0 00-.575.575v1.557a.576.576 0 00.575.575h1.557a.576.576 0 00.575-.575v-1.557a.575.575 0 00-.575-.575h-1.557zM32.41 59.56h-1.558a1.827 1.827 0 01-1.825-1.826v-1.557a1.827 1.827 0 011.825-1.825h1.558a1.827 1.827 0 011.825 1.825v1.557a1.827 1.827 0 01-1.825 1.825zm-1.558-3.958a.575.575 0 00-.575.575v1.557a.576.576 0 00.575.575h1.558a.576.576 0 00.575-.575v-1.557a.575.575 0 00-.575-.575h-1.558zm9.928 3.958h-1.557a1.827 1.827 0 01-1.825-1.826v-1.557a1.827 1.827 0 011.825-1.825h1.558a1.827 1.827 0 011.825 1.825v1.557a1.827 1.827 0 01-1.825 1.825zm-1.557-3.958a.575.575 0 00-.575.575v1.557a.576.576 0 00.575.575h1.558a.576.576 0 00.575-.575v-1.557a.575.575 0 00-.575-.575h-1.558zm3.367-29.535a2.334 2.334 0 00-2.213-1.61h-.75a2.332 2.332 0 00-2.216 1.61 2.332 2.332 0 00-1.61 2.215v.75a2.334 2.334 0 001.61 2.216 2.333 2.333 0 002.216 1.608h.75a2.336 2.336 0 002.216-1.612 2.334 2.334 0 001.611-2.215v-.746a2.332 2.332 0 00-1.613-2.216zm.362 2.962a1.08 1.08 0 01-1.079 1.078h-.187a.233.233 0 00-.233.233v.187a1.081 1.081 0 01-1.076 1.08h-.75a1.08 1.08 0 01-1.079-1.08v-.188a.233.233 0 00-.233-.232h-.187a1.08 1.08 0 01-1.08-1.08v-.75a1.08 1.08 0 011.08-1.078h.187a.233.233 0 00.233-.233v-.187a1.08 1.08 0 011.079-1.073h.75a1.08 1.08 0 011.08 1.079v.187a.233.233 0 00.232.233h.187a1.08 1.08 0 011.08 1.079l-.004.745z" fill="#3F446C"/><path d="M31.823 63.418a2.715 2.715 0 00-2.583 0c-1.015.397-2.135.74-2.61 0-1.384-2.157-.51-3.743-2.687-3.595-1.172.08-1.563 1.473-2.493 1.447-.857-.024-1.45-.687-2.141-1.567-1.397-1.782-3.23-1.575-3.675-.1-.32 1.059.768 2.329-.16 3.116-.659.562-1.538.02-2.023-.396a2.017 2.017 0 00-1.785-.53c-1.599.45-.834 1.683-1.628 1.787-1.518.198-1.274-1.733-3.91-1.733-2.637 0-3.928 2.542-2.078 4.047h28.319s.786-1.706-.546-2.476zm40.094.759c-.768-.846-.519-2.017-3.49-1.513-2.112.359 1.31-2.907-2.04-4.083-2.688-.942-4.389 2.68-5.907 3.372-1.289.588-1.598-1.278-2.678-1.533-.703-.167-2.312.125-2.835 2.119-.522 1.993-2.21.346-3.181.36-2.202.03-1.425 2.995-3.196 2.995h27c-.358-2.716-2.615-.552-3.673-1.717z" fill="#3CD652"/><path d="M77.598 65.27h-1.504c-.462-1.643-1.817-1.483-2.58-1.391-.63.076-.946.089-1.138-.125a2.926 2.926 0 01-.334-.49c-.562-.95-1.192-1.646-3.712-1.22.02-.108.047-.232.07-.336.202-.93.624-2.864-1.81-3.719-2.182-.768-3.802.928-4.982 2.165a6.034 6.034 0 01-1.391 1.228c-.271.125-.369.095-.875-.514a2.713 2.713 0 00-1.4-1.056c-1.14-.269-3.006.35-3.583 2.571a.827.827 0 01-.26.5c-.188.093-.688-.112-1.055-.262a3.285 3.285 0 00-1.27-.344c-1.576.021-2.06 1.224-2.38 2.02-.308.767-.443.975-.807.975H33.192a2.235 2.235 0 00-1.055-2.392 3.338 3.338 0 00-3.125-.041c-.398.155-1.609.625-1.856.244a6.582 6.582 0 01-.806-1.943c-.283-1.015-.577-2.063-2.452-1.938a2.733 2.733 0 00-1.768.977c-.3.295-.495.458-.665.47-.54-.017-.985-.46-1.666-1.328-.875-1.12-2.026-1.672-3.075-1.473a2.192 2.192 0 00-1.687 1.578 3.238 3.238 0 00.075 1.704c.162.7.176.93-.041 1.115-.359.306-1.074-.274-1.214-.394a2.65 2.65 0 00-2.36-.656 2.03 2.03 0 00-1.6 1.656c-.01.038-.02.082-.031.12-.284.02-.422-.11-.772-.47a3.63 3.63 0 00-2.966-1.276 3.563 3.563 0 00-3.511 2.226 2.408 2.408 0 00.113 1.821h-.332a.625.625 0 000 1.25h75.2a.625.625 0 100-1.25v-.003zm-27.043-.51c.35-.872.562-1.228 1.235-1.236.27.045.533.129.778.25.62.255 1.392.572 2.089.225a1.882 1.882 0 00.912-1.302c.438-1.691 1.757-1.747 2.086-1.668.24.057.477.34.726.64.434.523 1.161 1.398 2.354.854a6.599 6.599 0 001.777-1.5c1.312-1.376 2.341-2.313 3.664-1.85 1.322.465 1.244 1.167 1 2.273-.125.563-.25 1.147.15 1.563a1.33 1.33 0 001.2.272c1.882-.32 2.104.054 2.437.62.137.25.3.482.485.696.648.714 1.554.604 2.215.523.598-.073.911-.106 1.094.15H50.335a9.67 9.67 0 00.22-.51zm-46.753-.921a2.345 2.345 0 012.325-1.367 2.43 2.43 0 012.07.898 2.095 2.095 0 001.92.83 1.188 1.188 0 00.991-1.053c.091-.367.146-.589.727-.75a1.437 1.437 0 011.208.404c1.03.88 2.09 1.029 2.835.396.832-.705.61-1.656.45-2.35a2.287 2.287 0 01-.096-1.063.941.941 0 01.723-.71c.452-.081 1.173.138 1.86 1.015.76.97 1.482 1.773 2.615 1.806a2.197 2.197 0 001.58-.829c.374-.37.624-.595.973-.62.862-.057.895.063 1.164 1.028.197.807.52 1.577.958 2.282.8 1.246 2.53.569 3.363.244a2.125 2.125 0 012.042-.041 1.103 1.103 0 01.41 1.312H4.273a1.297 1.297 0 01-.47-1.432z" fill="#3F446C"/></svg>