<svg width="80" height="80" fill="none" xmlns="http://www.w3.org/2000/svg"><path d="M61.697 41.093c-1.812-3.13-3.729-6.526-4.095-10.125C56.195 17.128 48.463 8.98 38.338 8.98c-2.732 0-6.126.566-8.38 3.208-6.438 2.36-8.607 10.87-9.898 18.34-.371 2.148-1.769 3.831-3.146 6.669-5.222 10.758.518 18.85 17.087 18.397l8.758-.01c20.683 1.525 22.017-9.17 18.938-14.49z" fill="#3F446C"/><path d="M59.589 69.576a28.688 28.688 0 00-8.116-7.384 35.583 35.583 0 00-5.704-2.796 4.633 4.633 0 01-2.204-2.183 11.134 11.134 0 01-1.2-4.643l-.006-.022a11.817 11.817 0 01-3.981.9 11.613 11.613 0 01-3.912-.878 10.746 10.746 0 01-1.218 4.618 4.779 4.779 0 01-2.258 2.21 35.077 35.077 0 00-6.757 3.465v.007a28.92 28.92 0 00-7.057 6.708c-1.66 2.197-.474 3.557 1.667 4.7 1.006.513 2.053.942 3.13 1.283a55.823 55.823 0 0016.405 2.564 56.687 56.687 0 0015.71-2.336 22.968 22.968 0 003.835-1.513c2.138-1.143 3.325-2.503 1.666-4.7z" fill="#FF977B"/><path d="M43.566 57.213a3.633 3.633 0 01-.334.286c-2.56 1.938-7.078 1.932-9.637-.007a3.17 3.17 0 01-.349-.306 9.082 9.082 0 00.92-2.47 13.148 13.148 0 00.3-2.148c.188.07.37.14.551.203.505.175 1.02.321 1.542.438.118.028.236.055.348.077.37.07.742.119 1.116.146.125.007.244.014.356.014.111 0 .23-.007.362-.014a7.5 7.5 0 00.871-.105 2.69 2.69 0 00.322-.062c.397-.077.79-.174 1.178-.293a5.17 5.17 0 00.481-.153c.138-.038.273-.085.404-.14.12-.041.245-.09.363-.132l.007.021a15.266 15.266 0 00.278 2.07c.18.9.49 1.767.921 2.575z" fill="#FF7364"/><path d="M42.557 54.166a8.978 8.978 0 01-8.291.084 13.15 13.15 0 00.202-1.68 3.62 3.62 0 01-.181-.077c.035-1.304.056-2.943.097-3.647 1.243.517 2.567.815 3.912.879a11.826 11.826 0 003.982-.9l.007.02c.041.719.088 3.21.076 3.703 0 0 .112 1.123.196 1.618z" fill="#ED4850"/><path d="M42.36 52.548a14.75 14.75 0 009.532-12.61c0-.015.008-.036.008-.05.272-2.6.034-5.215-1.974-6.889-6.631-5.509-8.604-14.375-14.204-13.82a3.882 3.882 0 00-3.082 2.238c-2.733 5.76-3.535 7.75-6.108 10.697-1.855 2.133-1.967 4.965-1.667 7.775v.048a14.758 14.758 0 009.602 12.632c1.243.518 2.567.815 3.912.879a11.816 11.816 0 003.981-.9zm17.229 17.028c1.66 2.197.474 3.556-1.666 4.7a23.029 23.029 0 01-3.835 1.513s-.238-7.245-2.615-13.597a28.687 28.687 0 018.116 7.384z" fill="#FF977B"/><path d="M51.475 62.192c2.375 6.352 2.615 13.597 2.615 13.597a56.717 56.717 0 01-15.71 2.336 55.824 55.824 0 01-16.407-2.566 38.412 38.412 0 012.259-12.69v-.008a35.075 35.075 0 016.757-3.465 4.78 4.78 0 002.262-2.209c.108.111.225.213.349.307 2.559 1.937 7.077 1.945 9.636.007.118-.088.23-.184.335-.286a4.634 4.634 0 002.204 2.182c1.98.76 3.887 1.695 5.7 2.795z" fill="#1B89E5"/><path d="M17.176 69.576a28.919 28.919 0 017.057-6.708 38.411 38.411 0 00-2.26 12.69 20.608 20.608 0 01-3.13-1.282c-2.14-1.144-3.327-2.504-1.667-4.7z" fill="#FF977B"/><path d="M35.901 42.722a.266.266 0 00-.256.334c.444 1.691.783 2.833 2.694 2.833 1.91 0 2.25-1.142 2.694-2.833a.265.265 0 00-.138-.306.266.266 0 00-.117-.028H35.9z" fill="#fff"/><path d="M61.368 23.256c.063.4 4.125-2.648 4.125-2.648h3.857a8.615 8.615 0 008.515-8.594 31.82 31.82 0 000-1.156A8.609 8.609 0 0069.35 2.27a981.097 981.097 0 00-6.36 0 8.61 8.61 0 00-8.514 8.587v1.156a8.63 8.63 0 007.516 8.528s-.716 2.109-.625 2.714z" fill="#E8E2E2"/><path d="M44.72 33.556a1.31 1.31 0 00-1.31 1.31v.649a1.31 1.31 0 102.62 0v-.65a1.31 1.31 0 00-1.31-1.31zm-12.761 3.269a1.31 1.31 0 001.31-1.31v-.65a1.31 1.31 0 10-2.62 0v.65c0 .724.586 1.31 1.31 1.31zm29.444-12.901a.702.702 0 01-.655-.577 7.116 7.116 0 01.425-2.307 9.235 9.235 0 01-7.321-9.024v-1.158a9.213 9.213 0 019.138-9.212c2.125-.006 4.24-.006 6.363 0a9.213 9.213 0 019.138 9.211c.007.385.007.774 0 1.168a9.215 9.215 0 01-9.138 9.208h-3.65c-3.063 2.287-3.912 2.69-4.3 2.69zm1.59-21.028a7.96 7.96 0 00-7.891 7.962v1.157a7.976 7.976 0 006.968 7.907.625.625 0 01.515.82c-.173.51-.327 1.032-.438 1.465a59.572 59.572 0 002.97-2.099.625.625 0 01.375-.125h3.857a7.964 7.964 0 007.89-7.97c.006-.39.006-.764 0-1.144a7.962 7.962 0 00-7.89-7.973c-1.06-.004-5.296-.004-6.356 0zM38.34 40.613c-.433 0-1.25-.176-1.25-.845a.626.626 0 011.075-.433.68.68 0 00.347 0 .625.625 0 011.075.433c.002.67-.815.845-1.247.845zm0 5.901c-2.422 0-2.88-1.723-3.25-3.108a1.04 1.04 0 011-1.312h4.49a1.04 1.04 0 011.003 1.312c-.362 1.385-.82 3.108-3.243 3.108zm-1.97-3.168c.392 1.415.703 1.918 1.97 1.918s1.578-.503 1.97-1.918h-3.94z" fill="#3F446C"/><path d="M46.961 34.18a.624.624 0 01-.476-.22 2.232 2.232 0 00-2.845-.263.625.625 0 01-.769-.985 3.486 3.486 0 014.566.438.625.625 0 01-.476 1.03zm-17.243 0a.626.626 0 01-.476-1.03 3.487 3.487 0 014.567-.437.625.625 0 11-.77.985 2.234 2.234 0 00-2.844.263.624.624 0 01-.477.219z" fill="#3F446C"/><path d="M62.24 40.78c-1.625-2.813-3.652-6.313-4.014-9.875-1.393-13.699-9.2-22.55-19.887-22.55-3.864 0-6.806 1.111-8.75 3.304-6.51 2.5-8.782 10.88-10.145 18.763a12.3 12.3 0 01-1.688 3.887c-.431.76-.92 1.622-1.402 2.615-2.463 5.075-2.592 9.575-.375 13.014 2.71 4.198 8.579 6.363 17.023 6.294-.024.051-.042.108-.063.159a.605.605 0 00-.44.83 3.855 3.855 0 01-1.738 1.592 59.05 59.05 0 00-6.992 3.613 30.652 30.652 0 00-7.091 6.774 3.47 3.47 0 00-.85 2.832c.301 1.364 1.696 2.25 2.72 2.796 1.038.529 2.117.971 3.227 1.324a56.113 56.113 0 0016.606 2.598 57.599 57.599 0 0015.896-2.364c1.359-.4 2.679-.92 3.943-1.558 1.024-.547 2.42-1.432 2.72-2.796a3.463 3.463 0 00-.848-2.832 27.457 27.457 0 00-8.242-7.513 50.429 50.429 0 00-5.848-2.874 3.799 3.799 0 01-1.688-1.563.616.616 0 00-.184-.73.63.63 0 00-.245-.112c-.02-.044-.036-.095-.055-.14 1.007.056 1.979.094 2.885.094 9.693 0 13.813-3.098 15.55-5.875 2.15-3.42 1.33-7.368-.025-9.707zM34.672 29.222a6.578 6.578 0 00-5.29.1 63.772 63.772 0 003.038-5.978l.788-1.663a3.25 3.25 0 012.581-1.881 3.09 3.09 0 01.419-.025c2.712 0 4.55 2.675 6.85 6.019.656.95 1.344 1.95 2.094 2.95a6.583 6.583 0 00-3.144.481.62.62 0 00-.338.813.629.629 0 00.813.343 5.196 5.196 0 013.887-.087 24.451 24.451 0 003.157 3.181c1.518 1.262 2.075 3.275 1.756 6.337-.006.02-.006.038-.013.057a14.067 14.067 0 01-9.137 12.1c-1.192.498-2.46.788-3.75.856a11.021 11.021 0 01-3.688-.838 14.25 14.25 0 01-9.2-12.1c0-.025-.006-.043-.006-.068-.244-2.3-.294-5.213 1.519-7.3.433-.496.816-.965 1.167-1.428a.619.619 0 00.62-.035 5.563 5.563 0 015.4-.678.624.624 0 00.68-1.02.624.624 0 00-.203-.136zm.335 24.202a11.47 11.47 0 003.375.651 11.665 11.665 0 003.445-.67 25.12 25.12 0 00.973 3.634c-2.322 1.711-6.478 1.701-8.783-.016.42-1.173.752-2.376.99-3.599zm-13.65 21.26a17.473 17.473 0 01-2.22-.959c-1.262-.675-1.945-1.316-2.087-1.961a2.29 2.29 0 01.625-1.813 28.537 28.537 0 015.342-5.433 39.833 39.833 0 00-1.66 10.165zm37.737-4.73a2.288 2.288 0 01.625 1.812c-.142.645-.824 1.286-2.087 1.96-.953.483-1.943.89-2.96 1.216a50.849 50.849 0 00-2.015-11.225 28.248 28.248 0 016.437 6.236zm-13.55-9.976a35.132 35.132 0 015.421 2.64 48.727 48.727 0 012.474 12.707A56.508 56.508 0 0138.377 77.5a56.017 56.017 0 01-15.78-2.396 38.357 38.357 0 012.155-11.83 34.535 34.535 0 016.468-3.297 5.031 5.031 0 002.182-1.864 9.4 9.4 0 0010.005.023c.516.81 1.26 1.45 2.137 1.841zm15.665-10.15c-1.75 2.792-6.265 5.93-17.813 5.171a12.59 12.59 0 01-.363-2.053 15.437 15.437 0 009.481-12.94.175.175 0 00.006-.056c.232-2.213.257-5.394-2.193-7.438-.588-.487-2.713-2.675-3.188-3.262-1.137-1.381-2.131-2.819-3.05-4.163-2.544-3.7-4.744-6.906-8.425-6.53a4.526 4.526 0 00-3.587 2.587l-.788 1.669c-2.106 4.462-2.975 6.306-5.225 8.887-2.131 2.45-2.094 5.694-1.819 8.231V40A15.412 15.412 0 0033.8 52.97a12.093 12.093 0 01-.359 2.006c-8.12.136-13.938-1.88-16.41-5.717-1.97-3.05-1.813-7.128.447-11.79.464-.955.922-1.763 1.365-2.543a13.377 13.377 0 001.834-4.292c1.313-7.59 3.467-15.648 9.497-17.859a.613.613 0 00.26-.18c1.692-1.984 4.351-2.99 7.905-2.99 10.156 0 17.3 8.21 18.643 21.426.39 3.831 2.489 7.46 4.176 10.375 1.18 2.04 1.902 5.469.05 8.422z" fill="#3F446C"/><path d="M66.796 6.417h-1.25a1.812 1.812 0 00-1.807 1.808v.312a.39.39 0 01-.39.39h-.312a1.813 1.813 0 00-1.806 1.807v1.25a1.813 1.813 0 001.806 1.808h.313a.39.39 0 01.39.39v.312a1.812 1.812 0 001.806 1.807h1.25a1.812 1.812 0 001.807-1.807v-.313a.39.39 0 01.39-.39h.312a1.813 1.813 0 001.807-1.807v-1.25a1.813 1.813 0 00-1.807-1.807h-.313a.39.39 0 01-.389-.39v-.312a1.813 1.813 0 00-1.807-1.808z" fill="#1B89E5"/><path d="M69.602 7.929a2.914 2.914 0 00-2.856-2.357h-1.148a2.915 2.915 0 00-2.856 2.355 2.914 2.914 0 00-2.355 2.857v1.148a2.914 2.914 0 002.355 2.857 2.915 2.915 0 002.856 2.354h1.148a2.913 2.913 0 002.856-2.356 2.914 2.914 0 002.357-2.856v-1.146a2.914 2.914 0 00-2.357-2.856zm1.107 4a1.661 1.661 0 01-1.66 1.658h-.287a.358.358 0 00-.357.358v.287a1.66 1.66 0 01-1.66 1.659h-1.147a1.66 1.66 0 01-1.659-1.659v-.285a.358.358 0 00-.358-.358h-.285a1.661 1.661 0 01-1.66-1.66v-1.146a1.661 1.661 0 011.66-1.659h.285a.358.358 0 00.358-.357V8.48a1.66 1.66 0 011.659-1.659h1.148a1.66 1.66 0 011.659 1.659v.288a.358.358 0 00.357.357h.287a1.661 1.661 0 011.66 1.659v1.143z" fill="#3F446C"/></svg>