<svg width="70" height="70" fill="none" xmlns="http://www.w3.org/2000/svg"><g clip-path="url(#clip0_928_8078)"><path d="M7.227 21.759c1.671-.966 2.068-3.408.885-5.456-1.182-2.048-3.496-2.926-5.167-1.96-1.672.964-2.068 3.407-.886 5.455s3.496 2.926 5.168 1.96zm45.369-2.271l4.129.487a1.147 1.147 0 001.285-1.143V15.87a1.148 1.148 0 00-1.285-1.142l-4.13.487a1.222 1.222 0 00-1.08 1.213v1.848a1.222 1.222 0 001.08 1.213z" fill="#F5F6FF"/><path d="M7.778 55.711a1.892 1.892 0 01-1.89-1.89V31.554a1.958 1.958 0 011.768-1.987 1.887 1.887 0 012.015 1.889V53.82a1.89 1.89 0 01-1.893 1.891z" fill="#2AB7C6"/><path d="M9.668 31.456v3.977H5.885v-3.977a1.891 1.891 0 013.783 0z" fill="#F5F6FF"/><path d="M17.266 55.712a1.891 1.891 0 01-1.89-1.892V31.555a1.957 1.957 0 011.765-1.985 1.887 1.887 0 012.015 1.888V53.82a1.891 1.891 0 01-1.89 1.892z" fill="#2AB7C6"/><path d="M19.156 31.455v3.978h-3.782v-3.978a1.89 1.89 0 012.615-1.749 1.888 1.888 0 011.167 1.75z" fill="#F5F6FF"/><path d="M54.903 55.712a1.891 1.891 0 01-1.89-1.892V31.555a1.957 1.957 0 011.765-1.985 1.887 1.887 0 012.015 1.888V53.82a1.891 1.891 0 01-1.89 1.892z" fill="#2AB7C6"/><path d="M56.793 31.455v3.978H53.01v-3.978a1.891 1.891 0 013.782 0h.001z" fill="#F5F6FF"/><path d="M66.149 55.712a1.892 1.892 0 01-1.89-1.892V31.555a1.957 1.957 0 011.766-1.985 1.887 1.887 0 012.015 1.888V53.82a1.891 1.891 0 01-1.891 1.892z" fill="#2AB7C6"/><path d="M68.04 31.456v3.978h-3.784v-3.978a1.891 1.891 0 013.783 0z" fill="#F5F6FF"/><path d="M26.377 10.561l-.485.887c-.184.336-.46.612-.797.796l-.886.485a.259.259 0 000 .454l.886.485c.337.183.613.46.797.796l.485.886a.26.26 0 00.454 0l.484-.886a2 2 0 01.796-.796l.887-.486a.26.26 0 000-.453l-.887-.485a2.007 2.007 0 01-.796-.796l-.485-.887a.26.26 0 00-.453 0zM12.88 62.334l-.547 1.002a2.26 2.26 0 01-.9.9l-1.003.547a.292.292 0 000 .514l1.002.547c.38.208.693.52.9.9l.548 1.003a.293.293 0 00.513 0l.547-1.002c.208-.38.52-.693.9-.901l1.003-.547a.292.292 0 000-.513l-1.002-.547a2.267 2.267 0 01-.901-.901l-.547-1.002a.293.293 0 00-.513 0zM36.302 50.29l-.485.886c-.184.336-.46.613-.796.797l-.886.484a.258.258 0 000 .454l.886.485c.337.184.613.462.796.8l.485.886a.259.259 0 00.454 0l.485-.887a2.01 2.01 0 01.797-.797l.886-.484a.258.258 0 00.098-.359.257.257 0 00-.099-.095l-.885-.485a2.008 2.008 0 01-.797-.796l-.485-.886a.258.258 0 00-.454-.003zm20.367 9.315l-.484.886c-.184.337-.46.613-.797.797l-.886.485a.258.258 0 000 .453l.886.486c.336.183.613.46.797.796l.484.886a.26.26 0 00.454 0l.485-.886a2 2 0 01.796-.796l.887-.486a.257.257 0 00.098-.358.258.258 0 00-.098-.095l-.887-.485a2.004 2.004 0 01-.796-.797l-.485-.886a.257.257 0 00-.454 0zM9.446 2.903l-.484.887c-.184.336-.46.612-.797.796l-.886.485a.259.259 0 000 .454l.886.485c.336.183.613.46.797.796l.484.886a.259.259 0 00.454 0l.485-.886a2 2 0 01.797-.796l.886-.485a.26.26 0 000-.454l-.886-.485a2.003 2.003 0 01-.797-.796L9.9 2.903a.259.259 0 00-.454 0zm47.153-.741l-.635 1.16a2.626 2.626 0 01-1.043 1.044L53.758 5a.338.338 0 000 .594l1.161.634c.44.241.802.603 1.043 1.043l.635 1.161a.339.339 0 00.594 0l.635-1.16c.241-.44.603-.803 1.043-1.044l1.16-.634a.338.338 0 000-.594l-1.16-.635a2.622 2.622 0 01-1.043-1.043l-.633-1.16a.338.338 0 00-.594 0z" fill="#FFB45A"/><path d="M23.678 55.598a1.89 1.89 0 002.447-1.078l8.06-20.758a1.958 1.958 0 00-.93-2.49 1.886 1.886 0 00-2.562 1.031L22.6 53.151a1.891 1.891 0 001.077 2.447zm22.642 0a1.89 1.89 0 01-2.446-1.078l-8.06-20.758a1.958 1.958 0 01.93-2.49 1.886 1.886 0 012.562 1.031L47.4 53.151a1.89 1.89 0 01-1.08 2.447z" fill="#2AB7C6"/><path d="M26.607 16.305a1.078 1.078 0 01-.947-.561l-.485-.886a1.183 1.183 0 00-.47-.471l-.886-.484a1.08 1.08 0 010-1.894l.887-.485c.198-.108.36-.271.47-.47l.484-.886a1.078 1.078 0 011.893 0l.486.887c.108.198.271.361.47.47l.886.484a1.08 1.08 0 010 1.894l-.888.485c-.198.108-.36.271-.469.47l-.486.886a1.078 1.078 0 01-.945.56zm-1.1-3.35c.462.256.843.637 1.1 1.1a2.819 2.819 0 011.1-1.1 2.818 2.818 0 01-1.1-1.1 2.814 2.814 0 01-1.1 1.1zM13.14 68.722a1.113 1.113 0 01-.976-.579l-.547-1.003a1.44 1.44 0 00-.574-.573l-1.003-.547a1.112 1.112 0 010-1.953l1.003-.546a1.45 1.45 0 00.575-.576l.547-1.002a1.113 1.113 0 011.952.002l.547 1.001c.133.243.332.442.574.575l1.003.546a1.112 1.112 0 010 1.953l-1.003.547a1.44 1.44 0 00-.574.574l-.547 1.002a1.11 1.11 0 01-.975.58l-.002-.001zm-1.468-3.681l.156.086a3.08 3.08 0 011.226 1.225l.086.156.085-.155a3.073 3.073 0 011.228-1.227l.155-.085-.156-.086a3.073 3.073 0 01-1.227-1.227l-.085-.154-.085.155c-.284.518-.71.944-1.228 1.227l-.155.085zm24.857-9.007a1.08 1.08 0 01-.947-.56l-.485-.888a1.177 1.177 0 00-.47-.47l-.887-.485a1.08 1.08 0 010-1.894l.887-.485c.2-.107.363-.27.47-.47l.486-.886a1.079 1.079 0 011.892 0l.486.887c.108.198.271.362.47.47l.887.484a1.08 1.08 0 010 1.893l-.888.486a1.175 1.175 0 00-.47.47l-.485.887a1.08 1.08 0 01-.946.56zm-1.1-3.35c.462.256.844.638 1.1 1.1a2.817 2.817 0 011.1-1.1 2.816 2.816 0 01-1.1-1.1 2.815 2.815 0 01-1.1 1.1zm21.467 12.667a1.076 1.076 0 01-.946-.56l-.486-.887a1.18 1.18 0 00-.47-.47l-.886-.485a1.08 1.08 0 010-1.893l.887-.485a1.18 1.18 0 00.47-.47l.484-.887a1.078 1.078 0 011.893.002l.484.886c.108.198.271.362.47.47l.886.485a1.079 1.079 0 010 1.893l-.887.485a1.178 1.178 0 00-.47.47l-.484.887a1.078 1.078 0 01-.946.56zm-1.1-3.349a2.82 2.82 0 011.1 1.1 2.818 2.818 0 011.1-1.1 2.815 2.815 0 01-1.1-1.1 2.817 2.817 0 01-1.1 1.098v.002zM9.672 8.647a1.078 1.078 0 01-.946-.563L8.242 7.2a1.187 1.187 0 00-.471-.471l-.885-.484a1.08 1.08 0 010-1.895l.885-.484c.199-.108.362-.271.47-.47l.485-.886a1.078 1.078 0 011.892-.001l.483.888c.109.198.272.36.47.469l.886.485a1.08 1.08 0 010 1.893l-.887.485a1.2 1.2 0 00-.47.47l-.484.887a1.08 1.08 0 01-.944.561zM8.573 5.298c.462.256.843.637 1.1 1.1a2.818 2.818 0 011.1-1.1 2.818 2.818 0 01-1.1-1.1 2.818 2.818 0 01-1.101 1.1h.001zM56.897 9.43a1.159 1.159 0 01-1.016-.602l-.635-1.16a1.805 1.805 0 00-.716-.717l-1.161-.635a1.158 1.158 0 010-2.033l1.161-.635c.303-.166.552-.415.717-.717l.635-1.16a1.158 1.158 0 012.032 0l.635 1.16c.166.303.414.552.717.718l1.16.634a1.159 1.159 0 010 2.034l-1.16.634a1.805 1.805 0 00-.717.717l-.634 1.161a1.16 1.16 0 01-1.018.6zm-1.97-4.132l.39.212c.576.315 1.051.79 1.366 1.367l.213.388.212-.388a3.438 3.438 0 011.367-1.367l.389-.212-.389-.213a3.445 3.445 0 01-1.367-1.367l-.212-.388-.213.388a3.435 3.435 0 01-1.367 1.367l-.388.213zM9.695 29.531a2.734 2.734 0 00-1.094-.656v-7.212c1.224-1.435 1.374-3.773.222-5.77a5.605 5.605 0 00-2.82-2.467 3.988 3.988 0 00-3.468.207c-2.06 1.187-2.593 4.14-1.186 6.575a5.605 5.605 0 002.82 2.468c.5.193 1.032.295 1.568.298.417-.001.83-.071 1.223-.207v6.116a2.8 2.8 0 00-1.891 2.672V53.82a2.711 2.711 0 105.422 0V31.457a2.72 2.72 0 00-.796-1.926zM6.817 21.05a2.38 2.38 0 01-2.066.093 3.963 3.963 0 01-1.982-1.754c-.954-1.653-.69-3.598.586-4.335.33-.188.704-.286 1.084-.282.336.002.67.066.984.188.841.341 1.54.96 1.98 1.755.953 1.653.692 3.598-.586 4.335zM8.85 34.61h-.685a.82.82 0 100 1.64h.685v17.57a1.07 1.07 0 11-2.14 0V31.554a1.142 1.142 0 01.998-1.167h.073a1.065 1.065 0 011.07 1.074v3.15zm10.329-5.079a2.72 2.72 0 00-1.084-.656v-6.184a5 5 0 00-.732-2.601l-.683-1.122a1.264 1.264 0 01.252-1.618l1.71-1.48a.82.82 0 10-1.073-1.24l-1.71 1.484a2.899 2.899 0 00-.579 3.713l.684 1.122c.321.526.492 1.13.492 1.746v6.184a2.8 2.8 0 00-1.901 2.675V53.82a2.71 2.71 0 105.422 0V31.457a2.716 2.716 0 00-.798-1.926zm-.845 5.08h-.692a.82.82 0 100 1.64h.692v17.57a1.072 1.072 0 11-2.14 0V31.554a1.143 1.143 0 01.998-1.167h.073a1.063 1.063 0 011.07 1.074v3.149zm39.835-20.214a1.969 1.969 0 00-1.54-.485l-4.129.487a2.042 2.042 0 00-1.804 2.028v.104h-2.829a.82.82 0 000 1.64h2.829v.104a2.042 2.042 0 001.804 2.027l3.26.383-1.497 8.141a2.793 2.793 0 00-2.071 2.729V53.82a2.71 2.71 0 105.422 0V31.457a2.683 2.683 0 00-1.703-2.516l1.511-8.229a1.944 1.944 0 001.407-1.88V15.87a1.97 1.97 0 00-.66-1.473zm-2.196 17.062V53.82a1.07 1.07 0 01-2.14 0V36.254h.73a.82.82 0 100-1.641h-.73v-3.058a1.143 1.143 0 01.999-1.167h.072a1.064 1.064 0 011.069 1.069v.002zm1.217-12.625a.327.327 0 01-.368.329l-4.128-.487a.402.402 0 01-.355-.399V16.43a.402.402 0 01.355-.398l4.128-.488a.336.336 0 01.34.194.328.328 0 01.028.135v2.962zm11.509-2.903l-.561-1.061a.82.82 0 00-1.451.766l.562 1.061c.114.2.162.433.136.662-.144 1.149-.8 6.325-1.244 9.822-.278-3.34-.666-8.149-.707-9.348a3.063 3.063 0 00-.93-2.028l-.81-.836a.82.82 0 00-1.178 1.142l.811.837c.27.243.437.579.47.94.05 1.51.614 8.302.869 11.323a2.834 2.834 0 00-1.227 2.344V53.82a2.71 2.71 0 105.422 0V31.457a2.669 2.669 0 00-1.313-2.321c.402-3.169 1.296-10.208 1.466-11.572a2.714 2.714 0 00-.315-1.633zm-1.48 37.89a1.07 1.07 0 01-2.14 0V36.252h.694a.82.82 0 000-1.64h-.693v-3.058a1.143 1.143 0 01.999-1.167h.073a1.063 1.063 0 011.068 1.074V53.82zm-19.057-.967L40.07 32.006a2.617 2.617 0 00-2.265-1.703l-.656-5.002a3.38 3.38 0 00-1.645-2.574c-2.204-1.297-3.596-2.129-4.026-2.407a.792.792 0 01-.35-.827 39.653 39.653 0 011.792-3.599.819.819 0 00-.956-1.193.82.82 0 00-.487.413 40.12 40.12 0 00-1.928 3.93 2.415 2.415 0 001.04 2.654c.454.295 1.83 1.116 4.086 2.443a1.748 1.748 0 01.845 1.348l.68 5.16a2.774 2.774 0 00-1.15 3.41l8.059 20.758a2.71 2.71 0 005.006.11c.29-.657.308-1.403.048-2.073zm-2.139 1.98a1.072 1.072 0 01-1.386-.611L36.58 33.465a1.142 1.142 0 01.508-1.449 1.061 1.061 0 011.226.229c.098.103.175.223.226.355l8.094 20.847a1.074 1.074 0 01-.61 1.386z" fill="#3F446C"/><path d="M40.455 19.044a40.167 40.167 0 00-1.928-3.93.823.823 0 00-1.123-.353.82.82 0 00-.32 1.133 39.747 39.747 0 011.792 3.598.794.794 0 01-.35.828c-.43.278-1.822 1.11-4.026 2.407a3.367 3.367 0 00-1.64 2.547l-.663 5.031a2.755 2.755 0 00-.834.201 2.71 2.71 0 00-1.43 1.501l-8.094 20.848a2.714 2.714 0 002.588 3.691 2.71 2.71 0 002.466-1.729l8.058-20.758a2.774 2.774 0 00-1.145-3.411l.682-5.186a1.735 1.735 0 01.843-1.321c2.256-1.327 3.631-2.149 4.086-2.443a2.416 2.416 0 001.038-2.654zM33.42 33.465l-8.058 20.758a1.07 1.07 0 01-1.996-.775L31.461 32.6a1.065 1.065 0 011.028-.685c.147.004.291.039.424.101a1.141 1.141 0 01.508 1.45z" fill="#3F446C"/><path d="M39.998-158.644c-87.308 0-153.428 65.428-153.008 146.136.076 14.684 2 44.944 12.624 61.072h280.784c10.608-16.128 12.548-46.4 12.624-61.072.404-80.708-65.716-146.136-153.024-146.136z" fill="#3196AD"/><path d="M151.999 42.44a219.159 219.159 0 01-6.16 45.92c-.68 3.16-1.4 6.12-2.12 8.8a128.167 128.167 0 01-7.44 20.52c-20.84 44.92-64.52 69.04-96.2 69.04h-.12c-31.68 0-75.36-24.12-96.16-69.04a124.475 124.475 0 01-7.44-20.52c-.72-2.68-1.44-5.64-2.16-8.8a219.159 219.159 0 01-6.16-45.92c.44-17.36 12.44-38.24 32.36-54.76a124.84 124.84 0 0179.64-28.76c63.92 0 111.12 48.84 111.96 83.52z" fill="#FF8D98"/><path d="M69.513 26.844a17.093 17.093 0 016.488-4.884 29.231 29.231 0 016.544-2.176 39.536 39.536 0 0113.236-.596c2.295.266 4.554.79 6.732 1.56 1.154.411 2.277.904 3.36 1.476.556.276 1.108.632 1.652.96.544.328 1.268.892 1.268.892a28.143 28.143 0 008.476 3.288 2.844 2.844 0 011.932 2.45 2.842 2.842 0 01-1.472 2.75l-.232.124a15.663 15.663 0 01-6.32 1.764 13.6 13.6 0 01-7.832-1.76l-1.176-.684c-.304-.136-.572-.296-.904-.4a15.73 15.73 0 00-2.032-.692 31.26 31.26 0 00-4.64-.8 41.034 41.034 0 00-9.916.448 35 35 0 00-4.588 1.12 14.59 14.59 0 00-3.116 1.492l-1.044.684a4.824 4.824 0 01-6.424-7.02l.008.004zM3.008 33.18a14.628 14.628 0 00-3.112-1.492 35.195 35.195 0 00-4.592-1.12 41.03 41.03 0 00-9.917-.448c-1.564.15-3.115.417-4.64.8-.692.184-1.37.415-2.032.692-.328.124-.6.284-.904.4l-1.175.684a13.6 13.6 0 01-7.832 1.76 15.669 15.669 0 01-6.32-1.764l-.224-.12a2.849 2.849 0 01.452-5.2 28.2 28.2 0 008.48-3.288s.776-.56 1.264-.892a14.749 14.749 0 011.652-.96 25.94 25.94 0 013.36-1.476 30.91 30.91 0 016.732-1.56 39.53 39.53 0 0113.236.596A29.202 29.202 0 014 21.96a17.064 17.064 0 016.495 4.884 4.824 4.824 0 01-6.4 7.024l-1.087-.688z" fill="#3C3559"/><path d="M136.279 117.68c-20.84 44.92-64.52 69.04-96.2 69.04h-.12c-31.68 0-75.36-24.12-96.16-69.04-4.04-12.36 7.96-53.08 15.36-56.92 21.24-10.88 55.84-15.48 80.88-15 25.04-.48 59.64 4.12 80.84 15 7.4 3.84 19.4 44.56 15.4 56.92z" fill="#3196AD"/><path d="M187.413 48.476c10.224-18.776 11.532-48.508 11.6-60.952a147.53 147.53 0 00-43.26-105.532 161.5 161.5 0 00-115.752-46.636 161.511 161.511 0 00-115.752 46.636 147.531 147.531 0 00-43.256 105.532c.064 12.456 1.376 42.224 11.624 60.996-.364.636-.8 1.2-1.116 1.884a41.396 41.396 0 00.5 31.924c5.956 15.848 21.944 29.632 38.496 29.632a29.014 29.014 0 004.316-.344 129.891 129.891 0 0071.74 74.16c-1.744 19.808-11.028 23.564-23.6 28.628-1.228.492-2.464.992-3.696 1.504C-64.6 234.2-84.963 261-88.6 266.172a20 20 0 00-4.164 16.64c2.076 8.112 10.248 13.104 17.976 16.912 4.116 2.028 42.3 19.784 114.8 19.784s110.664-17.756 114.8-19.784c7.724-3.808 15.896-8.8 17.972-16.912a19.996 19.996 0 00-4.164-16.64c-3.636-5.2-24-32-67.84-50.264-1.228-.512-2.456-1.004-3.672-1.496-12.564-5.06-21.836-8.8-23.6-28.628a129.894 129.894 0 0043.554-29.653 129.904 129.904 0 0028.19-44.515c1.428.222 2.871.337 4.316.344 16.548 0 32.536-13.788 38.492-29.632a41.392 41.392 0 00.496-31.924c-.324-.692-.772-1.276-1.144-1.928zM-96.771 78.108a30.156 30.156 0 01-.856-22.628 14.525 14.525 0 018.724-7.736 26.043 26.043 0 0111.004-.32c.56 14.92 8.704 52.036 8.8 52.424-10.596.108-22.9-9.052-27.672-21.74zM92.585 225.544c1.176.472 2.356.944 3.54 1.44 40.8 17.012 59.332 41.368 62.636 46.08a9.086 9.086 0 012.364 6.776c-.988 3.86-9.016 7.816-11.648 9.116-3.86 1.9-39.716 18.552-109.484 18.552s-105.624-16.652-109.476-18.552c-2.64-1.3-10.668-5.256-11.656-9.116a9.096 9.096 0 012.364-6.776c3.304-4.712 21.852-29.068 62.64-46.084 1.187-.493 2.373-.976 3.56-1.448 12.964-5.2 27.472-11.136 30.716-35.844a85.204 85.204 0 0021.836 3.016h.104a85.197 85.197 0 0021.812-3.012c3.244 24.72 17.74 30.632 30.692 35.852zm-52.504-44.84h-.104c-34.8 0-80.256-30.296-96.092-79.564C-53.6 84.6-46.071 63.476-40.84 60.76c20.24-10.36 52.6-15.04 77.28-15.04h7.2c24.68 0 57.04 4.68 77.24 15.04 5.232 2.716 12.74 23.852 15.288 40.38-15.836 49.268-61.292 79.564-96.088 79.564zm102.22-104.8c-6.924-21.1-13.576-24.604-15.9-25.804-23.56-12.12-59.32-16.4-82.76-16.4h-7.2c-23.44 0-59.2 4.28-82.76 16.36-2.36 1.236-9.008 4.74-15.932 25.816A182.302 182.302 0 01-65.96 42.6c.772-31.284 45.6-77.692 106-77.692S145.245 11.312 146 42.6a182.328 182.328 0 01-3.7 33.324v-.02zm34.528 2.184c-4.768 12.688-17.064 21.836-27.68 21.736.104-.4 8.244-37.508 8.8-52.4a25.864 25.864 0 0111.008.324 14.523 14.523 0 018.724 7.732 30.198 30.198 0 01-.852 22.628v-.02zm1.756-38.912a28.256 28.256 0 00-5.656-2.776 36 36 0 00-15.6-1.008c-6.312-38.94-56.772-82.508-117.308-82.508-60.536 0-110.988 43.588-117.304 82.516a36 36 0 00-15.6 1.008 28.351 28.351 0 00-5.696 2.8c-6-13.752-8.352-34.936-8.436-51.764a135.609 135.609 0 0139.76-97.004A149.63 149.63 0 0140-152.644a149.633 149.633 0 01107.248 43.1 135.604 135.604 0 0139.76 97.004c-.084 16.816-2.412 37.984-8.424 51.736v-.02z" fill="#3C3559"/><path d="M-50.378 4.424a6 6 0 01-3.536-10.848c15.288-11.12 46-15.268 67.04-9.08A6 6 0 119.738-3.992c-17.36-5.1-44.34-1.64-56.592 7.268a5.944 5.944 0 01-3.524 1.148zm180.751 0a5.943 5.943 0 01-3.524-1.148c-12.26-8.908-39.236-12.368-56.596-7.268A6 6 0 1166.869-15.5c21.052-6.2 51.752-2.048 67.04 9.076a5.995 5.995 0 012.169 6.707 5.996 5.996 0 01-5.705 4.14z" fill="#3C3559"/></g><defs><clipPath id="clip0_928_8078"><path fill="#fff" d="M0 0h70v70H0z"/></clipPath></defs></svg>