<svg width="75" height="55" fill="none" xmlns="http://www.w3.org/2000/svg"><path d="M60.761 35.904c1.636 4.305 4.213 8.56 7.658 12.657a3.966 3.966 0 01.347 4.617c-.694 1.141-1.834 1.764-3.073 1.764-.347 0-.694-.026-1.041-.156-7.286-2.23-24.31-10.141-24.781-35.508C39.697 9.499 46.537 1.096 55.433.136c4.932-.519 9.838 1.167 13.481 4.59 3.643 3.45 5.725 8.379 5.725 13.514 0 8.56-5.8 16.056-13.878 17.664zM15.882.136c4.907-.519 9.813 1.167 13.456 4.59 3.643 3.45 5.724 8.379 5.724 13.514 0 8.56-5.798 16.056-13.877 17.664 1.636 4.305 4.213 8.56 7.657 12.657a3.966 3.966 0 01.347 4.617c-.694 1.141-1.834 1.764-3.073 1.764-.346 0-.693-.026-1.04-.156C17.79 52.556.766 44.645.295 19.278v-.363C.295 9.292 7.06 1.095 15.882.136z" fill="#5DB02A"/></svg>