<svg width="17" height="34" fill="none" xmlns="http://www.w3.org/2000/svg"><path d="M14.442 14.616c0 1.599-.477 2.845-1.43 3.74s-2.273 1.342-3.96 1.342H5.884v1.54H9.58c.22 0 .33.103.33.308v1.276c0 .22-.11.33-.33.33H5.884v1.518c0 .22-.103.33-.308.33H3.684c-.22 0-.33-.11-.33-.33v-1.518H2.056c-.22 0-.33-.11-.33-.33v-1.276c0-.205.11-.308.33-.308h1.298V9.6c0-.22.11-.33.33-.33h5.368c1.687 0 3.007.477 3.96 1.43.953.939 1.43 2.244 1.43 3.916zm-3.344 2.09c.513-.484.77-1.225.77-2.222 0-.997-.257-1.73-.77-2.2-.499-.47-1.283-.704-2.354-.704h-2.86v5.83h2.86c1.07 0 1.855-.235 2.354-.704z" fill="#5DB02A"/></svg>