<svg width="15" height="18" fill="none" xmlns="http://www.w3.org/2000/svg"><path d="M14.664 6.672c0 1.744-.52 3.104-1.56 4.08s-2.48 1.464-4.32 1.464H5.328v1.68H9.36c.24 0 .36.112.36.336v1.392c0 .24-.12.36-.36.36H5.328v1.656c0 .24-.112.36-.336.36H2.928c-.24 0-.36-.12-.36-.36v-1.656H1.152c-.24 0-.36-.12-.36-.36v-1.392c0-.224.12-.336.36-.336h1.416V1.2c0-.24.12-.36.36-.36h5.856c1.84 0 3.28.52 4.32 1.56 1.04 1.024 1.56 2.448 1.56 4.272zm-3.648 2.28c.56-.528.84-1.336.84-2.424 0-1.088-.28-1.888-.84-2.4-.544-.512-1.4-.768-2.568-.768h-3.12v6.36h3.12c1.168 0 2.024-.256 2.568-.768z" fill="#AF3BB3"/></svg>