<svg width="60" height="60" fill="none" xmlns="http://www.w3.org/2000/svg"><g clip-path="url(#clip0_882_9479)" fill="#5CA649"><path d="M38.7 9a9.238 9.238 0 00-3.662.752 12.862 12.862 0 01-10.082 0A9.3 9.3 0 0012 18.3a25.289 25.289 0 002.656 11.251l1.369 2.74 1.7 15.29a3.847 3.847 0 007.628.146l2.191-14.609a2.483 2.483 0 014.912 0l2.191 14.609a3.847 3.847 0 007.628-.146l1.7-15.29 1.369-2.74A25.289 25.289 0 0048 18.3 9.307 9.307 0 0038.7 9zm4.855 19.654h-.003l-1.45 2.9c-.052.106-.086.22-.1.337l-1.715 15.466a1.846 1.846 0 01-3.661.07l-2.191-14.609a4.485 4.485 0 00-8.87 0l-2.191 14.609a1.846 1.846 0 01-3.661-.07L17.994 31.89a1.033 1.033 0 00-.1-.337l-1.45-2.9A23.282 23.282 0 0114 18.3a7.3 7.3 0 0110.172-6.71 14.855 14.855 0 0011.656 0A7.3 7.3 0 0146 18.3a23.281 23.281 0 01-2.445 10.354z"/><path d="M19.445 13.168A7.722 7.722 0 0016 19.605V21h2v-1.395a5.724 5.724 0 012.555-4.773l-1.11-1.664zM31 0h-2v4h2V0zm0 56h-2v4h2v-4zM15.865 3.52l-1.732 1 2 3.465 1.732-1-2-3.464zm28 48.495l-1.732 1 2 3.464 1.732-1-2-3.464zM4.52 14.134l-1 1.733 3.464 2 1-1.733-3.465-2zm48.495 27.998l-1 1.732 3.465 2 1-1.732-3.465-2zM4 29H0v2h4v-2zm56 0h-4v2h4v-2zM6.984 42.14L3.52 44.138l1 1.732 3.464-2-1-1.732zm48.5-28.006l-3.465 2 1 1.732 3.465-2-1-1.732zM16.136 52.016l-2 3.464 1.733 1 2-3.465-1.733-1zM44.133 3.521l-2 3.464 1.732 1 2-3.464-1.732-1zM9.985 4.833a1 1 0 00-.82-.82A3.868 3.868 0 015.987.836a1 1 0 00-1.972 0A3.868 3.868 0 01.837 4.014a1 1 0 000 1.972 3.868 3.868 0 013.178 3.179 1 1 0 001.972 0 3.868 3.868 0 013.178-3.18 1 1 0 00.82-1.152zM5 6.428A5.87 5.87 0 003.573 5a5.87 5.87 0 001.428-1.428A5.87 5.87 0 006.43 5a5.87 5.87 0 00-1.428 1.428z"/></g><defs><clipPath id="clip0_882_9479"><path fill="#fff" d="M0 0h60v60H0z"/></clipPath></defs></svg>