<svg width="65" height="65" fill="none" xmlns="http://www.w3.org/2000/svg"><path d="M6.767 61.953c1.08 0 2.134-.303 3.048-.874l3.182-1.989a29.342 29.342 0 017.834-3.428 10.346 10.346 0 007.607-9.96V35.61c0-.911-.013-1.822-.034-2.733a13.217 13.217 0 004.096-5.063 13.226 13.226 0 004.096 5.063c-.022.91-.033 1.822-.033 2.733v10.093c0 4.642 3.128 8.739 7.606 9.96a29.342 29.342 0 017.834 3.428l3.182 1.989a5.742 5.742 0 003.048.874 5.757 5.757 0 005.751-5.751v-12.4c0-4.232-.631-8.429-1.876-12.474a42.276 42.276 0 00-7.06-13.568 109.338 109.338 0 01-4.62-6.41l-.292-.437a6.25 6.25 0 00-5.21-2.789 6.278 6.278 0 00-6.14 5.034A114.318 114.318 0 0037.247 23.2a10.017 10.017 0 01-.684-3.608V4.062c0-.56-.456-1.015-1.016-1.015h-6.094c-.56 0-1.015.455-1.015 1.015v15.531c0 1.238-.241 2.461-.685 3.608-.368-3.37-.875-6.724-1.539-10.042a6.279 6.279 0 00-6.14-5.034 6.25 6.25 0 00-5.211 2.789l-.29.436a108.878 108.878 0 01-4.623 6.41 42.252 42.252 0 00-7.059 13.57 42.357 42.357 0 00-1.875 12.475v12.399a5.757 5.757 0 005.751 5.751zm13.53-8.25a31.366 31.366 0 00-8.376 3.665l-3.183 1.988a3.716 3.716 0 01-1.97.566 3.688 3.688 0 01-1.964-.574l2.824-3.177a16.668 16.668 0 017.558-4.859c4.885-1.503 8.948-4.982 11.221-9.506v3.898a8.31 8.31 0 01-6.11 8zm35.966 5.653l-3.182-1.988a31.379 31.379 0 00-8.375-3.665 8.311 8.311 0 01-6.111-8V35.61c0-4.388.265-8.784.779-13.15a26.247 26.247 0 012.268 10.651v5.677a14.817 14.817 0 0010.145 14.075 12.834 12.834 0 017.606 6.856 3.71 3.71 0 01-1.158.203 3.7 3.7 0 01-1.971-.566h-.001zm5.691-3.153c0 .901-.336 1.72-.872 2.364a14.865 14.865 0 00-8.652-7.63 12.83 12.83 0 01-2.271-1.021 16.715 16.715 0 008.748-14.717c0-1.56.29-3.098.838-4.545.145.422.292.845.424 1.273a40.345 40.345 0 011.785 11.878v12.399-.001zM40.777 13.558a4.242 4.242 0 014.15-3.402c1.417 0 2.733.704 3.52 1.883l.29.437a110.45 110.45 0 004.71 6.531 40.227 40.227 0 015.286 9.008 14.886 14.886 0 00-1.858 7.182c0 5.805-3.37 11.006-8.623 13.4a12.78 12.78 0 01-4.58-9.81v-5.676c0-4.987-1.33-9.88-3.831-14.189.27-1.797.58-3.586.936-5.365zM30.47 19.593V5.078h4.062v14.515c0 2.576.848 5.1 2.379 7.168-.092 1.18-.166 2.361-.22 3.543a11.168 11.168 0 01-3.189-6.097 1.015 1.015 0 00-2.002 0 11.168 11.168 0 01-3.188 6.097 114.638 114.638 0 00-.22-3.543 12.082 12.082 0 002.378-7.168zm-18.914-.585a111.18 111.18 0 004.708-6.532l.29-.436a4.22 4.22 0 013.52-1.884c2.01 0 3.756 1.43 4.15 3.402a112.92 112.92 0 011.964 15.176l-4.079 3.262a11.604 11.604 0 01-7.223 2.534 11.525 11.525 0 01-9.318-4.749 40.193 40.193 0 015.989-10.774l-.001.001zM3.047 43.804c0-3.983.592-7.932 1.75-11.742a13.55 13.55 0 0010.088 4.5 13.64 13.64 0 008.493-2.98l2.935-2.348c.057 1.459.094 2.918.094 4.376v.573l-1.021 2.86a16.746 16.746 0 01-10.798 10.328 18.702 18.702 0 00-8.478 5.45l-2.672 3.006a3.675 3.675 0 01-.39-1.625v-12.4l-.001.002z" fill="#fff"/></svg>