<svg width="65" height="65" fill="none" xmlns="http://www.w3.org/2000/svg"><path d="M61.7 31.611H40.77a3.931 3.931 0 00-3.141 1.55 3.853 3.853 0 00-.676 3.363c.449 1.647.7 3.341.747 5.047a5.349 5.349 0 01-4.976 5.523 5.21 5.21 0 01-5.43-5.2c.023-1.8.271-3.592.741-5.331a3.935 3.935 0 00-2.044-4.556 3.858 3.858 0 00-1.718-.396H3.301a.889.889 0 00-.889.889v20.215a.889.889 0 00.889.889h58.398a.889.889 0 00.889-.889V32.5a.889.889 0 00-.889-.889zm-22.66 2.633a2.166 2.166 0 011.73-.855h20.04v4.784a6.755 6.755 0 01-1.739-.419 9.535 9.535 0 00-6.422 0 7.757 7.757 0 01-5.255 0 9.54 9.54 0 00-6.424 0 6.75 6.75 0 01-1.84.426 25.314 25.314 0 00-.458-2.114 2.085 2.085 0 01.368-1.822zm-14.767-.855a2.093 2.093 0 011.672.821 2.172 2.172 0 01.372 1.898c-.183.69-.325 1.382-.446 2.07a6.746 6.746 0 01-1.832-.424 8.561 8.561 0 00-3.213-.559 8.546 8.546 0 00-3.212.559c-.836.325-1.73.48-2.627.457a6.768 6.768 0 01-2.63-.457 8.554 8.554 0 00-3.213-.559 8.552 8.552 0 00-3.213.559 6.775 6.775 0 01-1.742.418V33.39h20.084zM4.19 51.826V39.954a8.487 8.487 0 002.325-.52 6.768 6.768 0 012.63-.458 6.768 6.768 0 012.63.457c1.025.39 2.116.58 3.213.559a8.55 8.55 0 003.211-.559 6.753 6.753 0 012.628-.457 6.78 6.78 0 012.63.457 8.499 8.499 0 002.172.508c-.065.666-.11 1.32-.11 1.954a6.988 6.988 0 007.287 6.975 7.137 7.137 0 006.674-7.334c-.01-.518-.05-1.054-.102-1.595a8.494 8.494 0 002.177-.507 7.766 7.766 0 015.257 0 9.535 9.535 0 006.423 0 7.757 7.757 0 015.255 0 8.48 8.48 0 002.323.52v11.873H4.19z" fill="#fff"/><path d="M7.236 44.465v-2.867a.889.889 0 00-1.777 0v2.867a.889.889 0 001.777 0zm24.426 1.278c.274.057.553.086.832.087a3.936 3.936 0 003.763-5.108 15.81 15.81 0 01-.825-4.387c-.089-5.876.277-14.782 2.5-23.838a.889.889 0 00-1.665-.591c-.194.409-4.753 10.195-6.489 25.022a15.685 15.685 0 01-.968 3.595 3.983 3.983 0 00-.152 2.235 3.942 3.942 0 003.004 2.985zm-1.186-4.599a17.31 17.31 0 001.066-4.012A95.886 95.886 0 0134.29 23c-.49 4.435-.702 8.897-.635 13.36.067 1.664.373 3.311.907 4.89a2.162 2.162 0 01-2.355 2.808 2.161 2.161 0 01-1.81-1.676 2.184 2.184 0 01.08-1.238zM7.914 50.176a1.396 1.396 0 100-2.793 1.396 1.396 0 000 2.793zm4.371-4.823a1.396 1.396 0 100-2.793 1.396 1.396 0 000 2.793zm8.789 0a1.397 1.397 0 100-2.793 1.397 1.397 0 000 2.793zm-3.513 1.734a1.396 1.396 0 10-1.479 2.367 1.396 1.396 0 001.48-2.367zm6.616 1.016a1.396 1.396 0 10-1.48 2.369 1.396 1.396 0 001.48-2.369zm18.139 2.073a1.396 1.396 0 100-2.793 1.396 1.396 0 000 2.793zm7.897 0a1.397 1.397 0 100-2.793 1.397 1.397 0 000 2.793zm6.978-.508a1.396 1.396 0 100-2.793 1.396 1.396 0 000 2.793zm-11.044-4.315a1.397 1.397 0 100-2.793 1.397 1.397 0 000 2.793zm7.808-.508a1.396 1.396 0 100-2.793 1.396 1.396 0 000 2.793z" fill="#fff"/></svg>