<svg width="60" height="60" fill="none" xmlns="http://www.w3.org/2000/svg"><g clip-path="url(#clip0_882_9540)" fill="#5CA649"><path d="M54 7h-3.6A32.382 32.382 0 0130.614.21a1 1 0 00-1.228 0A32.382 32.382 0 019.6 7H6a1 1 0 00-1 1v10.7a46.78 46.78 0 0024.523 41.179 1 1 0 00.954 0A46.78 46.78 0 0055 18.705V8a1 1 0 00-1-1zm-1 11.7a44.782 44.782 0 01-23 39.159A44.782 44.782 0 017 18.705V9h2.6A34.4 34.4 0 0030 2.256 34.4 34.4 0 0050.4 9H53v9.7z"/><path d="M38.695 10.005a9.293 9.293 0 00-3.654.75 12.854 12.854 0 01-10.082 0A9.3 9.3 0 0012 19.3c.003 2.59.606 5.145 1.762 7.463l2.281 4.562L18.571 44.8a3.919 3.919 0 007.741-.238L27.62 34.1a2.4 2.4 0 014.76 0l1.308 10.465a3.919 3.919 0 007.741.238l2.528-13.482 2.281-4.562A16.775 16.775 0 0048 19.299a9.3 9.3 0 00-9.305-9.294zm5.754 15.86v.003l-2.344 4.688a.983.983 0 00-.087.262l-2.554 13.62a1.919 1.919 0 01-3.791-.117l-1.309-10.468a4.4 4.4 0 00-8.728 0l-1.31 10.465a1.919 1.919 0 01-3.79.117l-2.554-13.62a.983.983 0 00-.087-.262l-2.344-4.688A14.757 14.757 0 0114 19.3a7.3 7.3 0 0110.172-6.71 14.855 14.855 0 0011.656 0A7.3 7.3 0 0146 19.3a14.758 14.758 0 01-1.551 6.565z"/><path d="M19.445 14.168A7.72 7.72 0 0016 20.605V22h2v-1.395a5.724 5.724 0 012.555-4.773l-1.11-1.664zM31 7h-2v2h2V7zm20 4h-2v2h2v-2zm-40 0H9v2h2v-2zm36 26h-2v2h2v-2zM12 25h-2v2h2v-2zm19 27h-2v2h2v-2zm19-27h-2v2h2v-2zM15 37h-2v2h2v-2z"/></g><defs><clipPath id="clip0_882_9540"><path fill="#fff" d="M0 0h60v60H0z"/></clipPath></defs></svg>