<svg width="65" height="65" fill="none" xmlns="http://www.w3.org/2000/svg"><path d="M21.232 31.229a4.57 4.57 0 01-4.456 3.587 1.053 1.053 0 100 2.106c3.337 0 6.11-2.464 6.593-5.67a8.836 8.836 0 005.39-2.621 1.053 1.053 0 00-1.504-1.474 6.758 6.758 0 01-4.864 2.044 6.817 6.817 0 01-6.809-6.809 1.053 1.053 0 10-2.105 0c0 4.523 3.386 8.267 7.755 8.837zm4.458 9.133c0-.582-.471-1.053-1.053-1.053-4.915 0-8.914 3.999-8.914 8.915l.002.152a8.937 8.937 0 00-1.195-.082 1.053 1.053 0 100 2.106 6.816 6.816 0 016.808 6.808 1.053 1.053 0 002.106 0c0-3.736-2.31-6.94-5.578-8.264a6.817 6.817 0 016.771-7.53c.582 0 1.053-.47 1.053-1.052z" fill="#fff"/><path d="M61.63 31.377a8.89 8.89 0 00-2.65-6.34 8.844 8.844 0 00.404-2.645c0-4.334-3.11-7.954-7.215-8.75a6.678 6.678 0 00-3.568-8.61C44.644 1.878 40.315 0 36.993 0A5.54 5.54 0 0032.5 2.3 5.54 5.54 0 0028.007 0c-3.322 0-7.65 1.879-11.609 5.031a6.678 6.678 0 00-3.567 8.61c-4.106.797-7.216 4.417-7.216 8.751 0 .901.136 1.788.404 2.646a8.89 8.89 0 00-2.65 6.339c0 1.874.583 3.614 1.574 5.05a8.822 8.822 0 00-1.574 5.058 8.924 8.924 0 004.565 7.777 10.048 10.048 0 006.917 10.763A10.012 10.012 0 0023.515 65c3.93 0 7.338-2.272 8.985-5.57 1.647 3.298 5.054 5.57 8.985 5.57 3.584 0 6.863-1.895 8.663-4.975a10.048 10.048 0 006.918-10.763 8.924 8.924 0 004.564-7.777 8.82 8.82 0 00-1.574-5.058 8.862 8.862 0 001.575-5.05zM23.515 62.894a7.917 7.917 0 01-7.02-4.247 1.053 1.053 0 00-.659-.527 7.938 7.938 0 01-5.708-9.243 1.053 1.053 0 00-.604-1.172 6.816 6.816 0 01-4.049-6.22c0-1.221.317-2.389.921-3.423a8.876 8.876 0 005.888 2.23 1.053 1.053 0 100-2.106 6.817 6.817 0 01-6.809-6.81c0-2.02.892-3.925 2.447-5.225.35-.293.472-.78.3-1.203a6.78 6.78 0 01-.5-2.556 6.817 6.817 0 016.808-6.809 6.817 6.817 0 016.809 6.809 1.053 1.053 0 102.106 0c0-4.723-3.693-8.598-8.342-8.894a4.569 4.569 0 012.12-6.529 1.04 1.04 0 00.183-.074 4.538 4.538 0 011.617-.297c1.762 0 3.336.986 4.107 2.573a1.053 1.053 0 101.894-.92 6.719 6.719 0 00-4.462-3.575c2.688-1.64 5.333-2.57 7.445-2.57a3.443 3.443 0 013.44 3.44V19.17a5.517 5.517 0 00-3.44-1.2 1.053 1.053 0 100 2.106 3.443 3.443 0 013.44 3.44v25.308a10.023 10.023 0 00-5.326-3.547 1.053 1.053 0 00-.546 2.034 7.937 7.937 0 015.872 7.651c0 4.374-3.558 7.932-7.932 7.932zm31.961-15.189c-.451.2-.703.688-.604 1.172a7.938 7.938 0 01-5.709 9.243 1.053 1.053 0 00-.658.527 7.917 7.917 0 01-7.02 4.247c-4.374 0-7.932-3.558-7.932-7.932 0-.296-.014-.59-.04-.88.025-.09.04-.185.04-.283V19.023a3.443 3.443 0 013.44-3.44 1.053 1.053 0 000-2.106c-1.3 0-2.494.45-3.44 1.2V5.546a3.443 3.443 0 013.44-3.44c2.111 0 4.757.932 7.444 2.571a6.718 6.718 0 00-4.461 3.575 1.052 1.052 0 101.894.92 4.534 4.534 0 014.107-2.573c.57 0 1.114.106 1.617.297.059.03.12.055.183.074a4.57 4.57 0 012.763 4.192 4.54 4.54 0 01-.643 2.337c-4.65.296-8.342 4.171-8.342 8.894a1.053 1.053 0 102.106 0 6.817 6.817 0 016.809-6.809 6.816 6.816 0 016.808 6.809 6.77 6.77 0 01-.5 2.556c-.172.424-.05.91.3 1.203a6.796 6.796 0 012.447 5.226 6.817 6.817 0 01-6.81 6.809 1.053 1.053 0 100 2.106 8.876 8.876 0 005.889-2.23 6.74 6.74 0 01.92 3.423 6.817 6.817 0 01-4.048 6.22z" fill="#fff"/><path d="M50.47 33.693a4.57 4.57 0 01-4.457-3.587c4.37-.57 7.756-4.315 7.756-8.837a1.053 1.053 0 10-2.106 0 6.817 6.817 0 01-6.808 6.809 6.758 6.758 0 01-4.864-2.044 1.053 1.053 0 10-1.505 1.473 8.836 8.836 0 005.39 2.622c.484 3.205 3.257 5.67 6.594 5.67a1.053 1.053 0 100-2.106zM47.1 46.047c-.405 0-.804.03-1.196.083l.003-.153c0-4.915-4-8.914-8.915-8.914a1.053 1.053 0 100 2.105 6.816 6.816 0 016.772 7.53c-3.267 1.324-5.578 4.528-5.578 8.264a1.053 1.053 0 102.105 0 6.817 6.817 0 016.81-6.809 1.053 1.053 0 100-2.105z" fill="#fff"/></svg>