<svg width="65" height="65" fill="none" xmlns="http://www.w3.org/2000/svg"><g clip-path="url(#clip0_952_4280)" fill="#fff"><path d="M64.921 36.234a7.583 7.583 0 00-6.422-6.422v-1.97c0-5.433-4.13-9.857-9.208-9.857-4.931 0-9.06 4.29-9.208 9.563h.063l-.063.01v21.35c0 6.825-5.103 12.367-11.375 12.367s-11.375-5.55-11.375-12.367v-1.85c1.57 0 3.25-1.138 3.25-4.333v-2.724c6.953-1.778 11.916-7.748 11.916-14.517v-2.258h-2.166l-.046-14.1a5.422 5.422 0 00-4.456-5.303 3.232 3.232 0 10-.074 2.21 3.25 3.25 0 012.36 3.1l.05 14.093H26v2.29a8.614 8.614 0 01-6.236 8.082 9.85 9.85 0 01-5.958 0 8.61 8.61 0 01-6.223-8.082v-2.29h-3.25V9.143a3.25 3.25 0 012.405-3.125 3.265 3.265 0 10-.067-2.2 5.417 5.417 0 00-4.504 5.325v14.083H0v2.253C0 32.255 4.967 38.227 11.916 40v2.724c0 3.195 1.68 4.334 3.25 4.334v1.849c0 8.016 6.075 14.534 13.542 14.534s13.541-6.525 13.541-14.534V27.61c.109-4.111 3.27-7.457 7.042-7.457 3.883 0 7.042 3.45 7.042 7.692v1.966a7.583 7.583 0 108.588 6.422zM22.75 5.893a1.083 1.083 0 110-2.167 1.083 1.083 0 010 2.167zm-13-2.167a1.083 1.083 0 110 2.167 1.083 1.083 0 010-2.167zM2.167 25.479v-.087h3.25v.124a10.764 10.764 0 007.732 10.143c2.368.75 4.91.75 7.278 0a10.766 10.766 0 007.74-10.143v-.124h2.166v.087c0 6.026-4.645 11.33-11.05 12.612a15.452 15.452 0 01-6.067-.002c-6.404-1.28-11.05-6.584-11.05-12.61zm13 19.413c-.976 0-1.084-1.517-1.084-2.167v-2.298c.087.01.176.015.263.023.109.012.217.021.325.03.513.046 1.03.077 1.55.078h.055c.52 0 1.035-.032 1.545-.077.108-.01.223-.019.334-.03.086-.01.175-.014.26-.024v2.298c0 .65-.108 2.167-1.083 2.167h-2.166zm42.249-2.167a5.417 5.417 0 115.416-5.416 5.423 5.423 0 01-5.416 5.416z"/><path d="M57.416 34.059a3.25 3.25 0 100 6.5 3.25 3.25 0 000-6.5zm0 4.333a1.083 1.083 0 110-2.166 1.083 1.083 0 010 2.166z"/></g><defs><clipPath id="clip0_952_4280"><path fill="#fff" d="M0 0h65v65H0z"/></clipPath></defs></svg>