<svg width="70" height="70" fill="none" xmlns="http://www.w3.org/2000/svg"><path d="M30.652 55.535c-12.66 0-22.968-10.308-22.968-22.969 0-12.66 10.308-22.968 22.968-22.968 5.551 0 10.91 2.023 15.094 5.66 4.129 3.61 6.863 8.586 7.629 14 .082.52-.3 1.012-.82 1.094-.52.082-1.012-.301-1.094-.82-1.477-10.282-10.445-18.02-20.836-18.02-11.621 0-21.055 9.433-21.055 21.054 0 11.621 9.434 21.055 21.055 21.055a20.95 20.95 0 0013.836-5.195c.355-.301.684-.602.984-.93a20.942 20.942 0 005.907-11.21.946.946 0 011.12-.767c.52.083.876.602.766 1.122a22.965 22.965 0 01-6.453 12.25 38.19 38.19 0 01-1.066 1.011c-4.157 3.637-9.516 5.633-15.067 5.633z" fill="#fff"/><path d="M30.625 51.434c-10.418 0-18.867-8.477-18.867-18.868 0-10.418 8.476-18.867 18.867-18.867 7.766 0 14.848 4.867 17.637 12.114a.95.95 0 01-.547 1.23.95.95 0 01-1.23-.547c-2.489-6.508-8.86-10.883-15.833-10.883-9.351 0-16.953 7.602-16.953 16.953 0 9.352 7.602 16.953 16.953 16.953 4.102 0 8.067-1.476 11.13-4.183.3-.246.546-.492.792-.738 2.489-2.489 4.157-5.606 4.758-9.051a.946.946 0 011.121-.766c.52.082.875.602.766 1.121-.684 3.828-2.516 7.301-5.305 10.063-.273.273-.574.547-.902.82a18.725 18.725 0 01-12.387 4.649zm-18.621 1.668a.95.95 0 01-.684-.274c-.383-.383-.383-.984 0-1.34l3.418-3.418c.383-.383.985-.383 1.34 0 .383.383.383.985 0 1.34l-3.418 3.418a.955.955 0 01-.656.273z" fill="#fff"/><path d="M9.597 60.402a.95.95 0 01-.683-.273.949.949 0 010-1.34l3.773-3.719-3.254-3.254-3.773 3.692a.949.949 0 01-1.34 0 .949.949 0 010-1.34l4.348-4.293c.218-.219.492-.328.793-.328.3 0 .574.11.793.328l4.375 4.375c.218.219.328.492.328.793 0 .3-.11.574-.329.793l-4.347 4.293a1.079 1.079 0 01-.684.273zM42.574 41.7h-.054c-.739-.028-1.368-.493-1.586-1.177L35.19 24.035l-5.879 13.7a1.704 1.704 0 01-1.53 1.038c-.684 0-1.286-.355-1.56-.984l-3.253-7.055-1.313 2.133c-.492.82-1.394 1.313-2.379 1.313h-2.652a.969.969 0 01-.957-.957c0-.52.438-.957.957-.957h2.652a.898.898 0 00.739-.41l1.558-2.544c.328-.519.903-.82 1.504-.793.602.028 1.149.41 1.395.958l3.254 7.054 5.988-13.972a1.583 1.583 0 011.613-.985c.684.055 1.258.492 1.45 1.176l5.769 16.598 4.129-10.418a1.534 1.534 0 011.394-1.012c.63-.027 1.23.328 1.477.902l1.258 2.68c.136.3.465.492.793.492h13.37a.97.97 0 01.958.957c0 .52-.438.957-.957.957h-13.37c-1.067 0-2.078-.629-2.516-1.613l-.902-1.941-4.047 10.199a1.641 1.641 0 01-1.559 1.148z" fill="#fff"/></svg>