<svg width="60" height="60" fill="none" xmlns="http://www.w3.org/2000/svg"><path d="M60 23.5v-2h-2.136c.083-.915.136-1.834.136-2.758a5.243 5.243 0 00-8.95-3.707c-.58.579-1.52.579-2.1 0a5.224 5.224 0 00-7.95.653 5.224 5.224 0 00-7.95-.653c-.58.579-1.52.579-2.1 0a5.224 5.224 0 00-7.95.653 5.224 5.224 0 00-7.95-.653c-.58.579-1.52.579-2.1 0A5.243 5.243 0 002 18.742c0 .924.053 1.843.136 2.758H0v2h2.379c.22 1.342.53 2.668.927 3.968-.1-.01-.2-.038-.306-.038a3.4 3.4 0 00-2.832 1.515A1 1 0 000 29.5v16a1 1 0 001 1h58a1 1 0 001-1v-16c0-.197-.059-.39-.168-.555A3.4 3.4 0 0057 27.43c-.1 0-.2.028-.306.038.397-1.3.707-2.626.927-3.968H60zm-16.757-8c.86-.002 1.686.34 2.293.95a3.49 3.49 0 004.928 0A3.243 3.243 0 0156 18.742c0 .924-.06 1.843-.149 2.758H51v-1a1 1 0 00-1-1h-4a1 1 0 00-1 1v1h-4.851A28.475 28.475 0 0140 18.742a3.246 3.246 0 013.243-3.242zM46 25.5h4a1 1 0 001-1v-1h4.59a28.28 28.28 0 01-1.043 4.2l-.5 1.487a1.025 1.025 0 00-.048.233l-.876 10.518a.625.625 0 01-1.245 0l-.731-9.508a3.165 3.165 0 00-6.311-.017c-.208 2.534-.58 7.142-.738 9.523a.616.616 0 01-1.23.006L42 29.417a1.025 1.025 0 00-.048-.233l-.5-1.487A28.285 28.285 0 0140.41 23.5H45v1a1 1 0 001 1zm1-2v-2h2v2h-2zm-8.556 4.83A30.22 30.22 0 0039 26.41c.169.644.344 1.29.556 1.92l.077.232a3.897 3.897 0 00-1.266 0l.077-.232zM25.243 15.5c.86-.002 1.686.34 2.293.95a3.49 3.49 0 004.928 0A3.243 3.243 0 0138 18.742c0 .924-.06 1.843-.149 2.758H33v-1a1 1 0 00-1-1h-4a1 1 0 00-1 1v1h-4.851A28.475 28.475 0 0122 18.742a3.246 3.246 0 013.243-3.242zM28 25.5h4a1 1 0 001-1v-1h4.59a28.28 28.28 0 01-1.043 4.2l-.5 1.487a1.025 1.025 0 00-.048.233l-.876 10.518a.625.625 0 01-1.245 0l-.731-9.508a3.165 3.165 0 00-6.311-.017c-.208 2.534-.58 7.142-.738 9.523a.616.616 0 01-1.229.006L24 29.417a1.025 1.025 0 00-.048-.233l-.499-1.484a28.28 28.28 0 01-1.043-4.2H27v1a1 1 0 001 1zm1-2v-2h2v2h-2zm-8.556 4.83c.212-.63.387-1.276.556-1.92.169.644.344 1.286.556 1.92l.136.41a3.832 3.832 0 00-1.384 0l.136-.41zM7.244 15.5a3.25 3.25 0 012.292.95 3.49 3.49 0 004.928 0A3.243 3.243 0 0120 18.744c0 .924-.06 1.843-.149 2.758H15v-1a1 1 0 00-1-1h-4a1 1 0 00-1 1v1H4.149A28.483 28.483 0 014 18.741 3.243 3.243 0 017.244 15.5zM10 25.5h4a1 1 0 001-1v-1h4.59a28.28 28.28 0 01-1.043 4.2l-.5 1.487a1.025 1.025 0 00-.048.233l-.876 10.518a.625.625 0 01-1.245 0l-.731-9.508a3.165 3.165 0 00-6.311-.017c-.208 2.534-.58 7.142-.738 9.523a.616.616 0 01-1.229.006L6 29.417a1.023 1.023 0 00-.048-.233l-.5-1.487A28.295 28.295 0 014.41 23.5H9v1a1 1 0 001 1zm1-2v-2h2v2h-2zm47 6.347V44.5H2V29.847a1.445 1.445 0 012.029.047L4.88 40.1a2.616 2.616 0 005.217-.039c.158-2.368.529-6.963.736-9.493a1.166 1.166 0 012.324.008l.731 9.508a2.625 2.625 0 005.232.016l.753-9.029a1.818 1.818 0 012.254 0l.753 9.03a2.616 2.616 0 005.217-.04c.158-2.368.529-6.963.736-9.493a1.166 1.166 0 012.324.008l.731 9.508a2.625 2.625 0 005.232.016l.768-9.214a1.822 1.822 0 012.224 0l.768 9.214a2.616 2.616 0 005.217-.039c.158-2.368.529-6.963.736-9.493a1.166 1.166 0 012.324.008l.731 9.508a2.625 2.625 0 005.232.016l.851-10.207A1.445 1.445 0 0158 29.847z" fill="#5CA649"/></svg>