<svg width="60" height="60" fill="none" xmlns="http://www.w3.org/2000/svg"><g clip-path="url(#clip0_882_9589)" fill="#5CA649"><path d="M38.7 0a9.247 9.247 0 00-3.662.752 12.854 12.854 0 01-10.082 0A9.3 9.3 0 0012 9.3c.005 3.875.9 7.697 2.616 11.171l1.425 4.816A1 1 0 0017 26h3v5a1 1 0 001 1h3v2.327l-2.89-.321-.22 1.988 3.11.346v3.987l-2.89-.321-.22 1.988 3.11.346v3.987l-2.89-.321-.22 1.988 3.11.346v3.987l-2.89-.321-.22 1.988 3.177.353v.024l2 5A1 1 0 0027 60h6a1 1 0 00.929-.629l1.5-3.761 3.457.384.22-1.988L36 53.66v-3.987l2.89.321.22-1.988L36 47.66v-3.987l2.89.321.22-1.988L36 41.66v-3.987l2.89.321.22-1.988L36 35.66V32h3a1 1 0 001-1v-5h3a1 1 0 00.959-.716l1.425-4.816A25.284 25.284 0 0048 9.3 9.307 9.307 0 0038.7 0zm-6.38 58h-4.643l-1.361-3.4 7.055.784L32.32 58zM34 53.438l-8-.889v-3.987l8 .889v3.987zm0-6l-8-.889v-3.987l8 .889v3.987zm0-6l-8-.889v-3.987l8 .889v3.987zm0-6l-8-.889V32h8v3.438zM38 30H22v-4h16v4zm5.555-10.347a1.014 1.014 0 00-.064.163L42.253 24H17.747l-1.238-4.184a1.014 1.014 0 00-.064-.163A23.266 23.266 0 0114 9.3a7.3 7.3 0 0110.171-6.71 14.857 14.857 0 0011.657 0A7.3 7.3 0 0146 9.3a23.266 23.266 0 01-2.445 10.353z"/><path d="M19.5 4.132A6.584 6.584 0 0016 9.805V11h2V9.8a4.612 4.612 0 012.5-3.937l-1-1.731z"/></g><defs><clipPath id="clip0_882_9589"><path fill="#fff" d="M0 0h60v60H0z"/></clipPath></defs></svg>