<svg width="60" height="60" fill="none" xmlns="http://www.w3.org/2000/svg"><g clip-path="url(#clip0_882_9698)" fill="#5CA649"><path d="M35.447 19.363a1.39 1.39 0 00-.964-.301h-5.261l4.948-5.524.463-.514.238-.3c.083-.117.15-.243.2-.376.057-.144.087-.297.088-.451a.94.94 0 00-.463-.902 2.794 2.794 0 00-1.316-.25h-6.15a1.352 1.352 0 00-.915.275.927.927 0 00-.325.739c0 .426.142.685.426.777.407.115.83.166 1.252.15h4.009c-.167.234-.384.51-.652.827l-1.027 1.152-1.39 1.503-1.616 1.791c-.56.627-.927 1.044-1.102 1.253a1.178 1.178 0 00.112 1.616c.33.25.74.37 1.153.338h7.315c.35.028.698-.075.977-.288a.953.953 0 00.326-.739 1.002 1.002 0 00-.326-.776zm11.088 6.4a1.102 1.102 0 00-.777-.238H41.55l3.946-4.409.376-.413.238-.288c.067-.093.122-.194.163-.301.047-.116.073-.239.075-.363a.752.752 0 00-.363-.727c-.33-.151-.69-.22-1.053-.2h-4.96a1.09 1.09 0 00-.727.225.739.739 0 00-.263.589c0 .334.113.543.339.626.326.09.664.129 1.002.113h3.206c-.125.188-.3.4-.526.664l-.826.927-1.078 1.252-1.252 1.428a22.76 22.76 0 00-.89 1.028.94.94 0 00.088 1.252c.263.196.588.29.914.263h5.813a1.14 1.14 0 00.776-.225.764.764 0 00.25-.589.801.801 0 00-.262-.614zm13.14-7.04a1.39 1.39 0 00-.965-.3h-5.299l4.948-5.524.464-.514.3-.363c.083-.116.15-.243.2-.376a1.25 1.25 0 00.089-.451.94.94 0 00-.464-.902 2.795 2.795 0 00-1.315-.25H51.42a1.352 1.352 0 00-.915.275.927.927 0 00-.325.74c0 .425.142.684.425.776.408.116.83.166 1.253.15h4.009c-.167.234-.384.51-.652.827l-1.04 1.177-1.352 1.504-1.616 1.79c-.56.627-.927 1.045-1.103 1.253a1.177 1.177 0 00.113 1.616c.33.25.74.37 1.153.339h7.303c.353.044.71-.045 1.002-.25A.952.952 0 0060 19.5a1.002 1.002 0 00-.325-.777z"/><path d="M55.352 39.818a1.253 1.253 0 00-1.378-.288c-13.577 5.62-29.14-.83-34.76-14.406a26.606 26.606 0 01.475-21.432A1.253 1.253 0 0018.073 2C3.188 8.115-3.92 25.138 2.193 40.023c6.114 14.885 23.137 21.995 38.022 15.88A29.137 29.137 0 0055.577 41.21a1.252 1.252 0 00-.225-1.39zM29.159 55.602C14.444 55.599 2.517 43.668 2.52 28.953a26.644 26.644 0 0113.675-23.27 28.72 28.72 0 00-1.503 9.208c0 16.098 13.052 29.148 29.15 29.147 2.698 0 5.383-.375 7.978-1.113a26.744 26.744 0 01-22.66 12.677z"/></g><defs><clipPath id="clip0_882_9698"><path fill="#fff" d="M0 0h60v60H0z"/></clipPath></defs></svg>