<svg width="60" height="60" fill="none" xmlns="http://www.w3.org/2000/svg"><g clip-path="url(#clip0_952_4254)"><path d="M58 0h-7a7.009 7.009 0 00-7 7v16a10.932 10.932 0 01-10 10.949V9a3 3 0 013-3h2a2 2 0 002-2V2a2 2 0 00-2-2H21a2 2 0 00-2 2v2a2 2 0 002 2h2a3 3 0 013 3l-.012 24.954A10.939 10.939 0 0116 23V7a7.009 7.009 0 00-7-7H2a2 2 0 00-2 2v2a2 2 0 002 2h3a3 3 0 013 3v14c-.003 10.106 7.908 18.444 18 18.972V51a3 3 0 01-3 3h-2a2 2 0 00-2 2v2a2 2 0 002 2h18a2 2 0 002-2v-2a2 2 0 00-2-2h-2a3 3 0 01-3-3l.024-9.026C44.107 41.434 52.004 33.098 52 23V9a3 3 0 013-3h3a2 2 0 002-2V2a2 2 0 00-2-2zm0 4h-3a5.006 5.006 0 00-5 5v14c.005 9.034-7.06 16.492-16.081 16.976a2.01 2.01 0 00-1.919 2V51a5.006 5.006 0 005 5h2v2H21v-2h2a5.006 5.006 0 005-5v-9.028a2.01 2.01 0 00-1.919-2C17.061 39.488 9.997 32.032 10 23V9a5.006 5.006 0 00-5-5H2V2h7a5.006 5.006 0 015 5v16a12.93 12.93 0 0011.807 12.946c.563.047 1.12-.14 1.54-.518A2.01 2.01 0 0028 33.949V9a5.006 5.006 0 00-5-5h-2V2h18v2h-2a5.006 5.006 0 00-5 5v24.949c0 .563.238 1.1.653 1.479.42.378.977.565 1.54.518A12.93 12.93 0 0046 23V7a5.006 5.006 0 015-5h7v2z" fill="#fff"/></g><defs><clipPath id="clip0_952_4254"><path fill="#fff" d="M0 0h60v60H0z"/></clipPath></defs></svg>