<svg width="60" height="60" fill="none" xmlns="http://www.w3.org/2000/svg"><path d="M22.374 8.135a5.085 5.085 0 105.085 5.085 5.091 5.091 0 00-5.085-5.085zm0 8.136a3.05 3.05 0 01-3.051-3.051c.002-.453.106-.9.305-1.307l4.053 4.053a3.002 3.002 0 01-1.307.305zm2.746-1.744l-4.053-4.053a3.001 3.001 0 011.307-.305 3.05 3.05 0 013.05 3.051 2.99 2.99 0 01-.304 1.307z" fill="#5CA649"/><path d="M52.88 7.119V1.017A1.017 1.017 0 0051.728.009L25.49 3.538v.013a10.1 10.1 0 00-3.118-.5 9.5 9.5 0 00-4.523.996c-.77.386-1.573.799-2.448 1.25a15.207 15.207 0 00-8.284 13.568v11.643a7.127 7.127 0 007.119 7.12.982.982 0 00.266-.055l.767 2.303.152 1.518a3.243 3.243 0 00-2.228-.168l-5.337 1.526a1.017 1.017 0 00-.739.977v15.254c0 .562.456 1.017 1.017 1.017H36.61c.561 0 1.017-.455 1.017-1.017V43.729c0-.455-.301-.854-.739-.978l-5.335-1.526a3.228 3.228 0 00-2.23.164l.152-1.516.767-2.302c.085.031.175.05.266.056a7.127 7.127 0 007.119-7.119v-10.17h14.237c.562 0 1.017-.454 1.017-1.016V13.22c0-.561-.455-1.017-1.017-1.017h-15.51a11.847 11.847 0 00-.685-1.743l16.34-2.339c.499-.071.87-.498.872-1.002zM29.447 44.237c.015-.15.057-.295.125-.43.261-.524.86-.787 1.423-.624l4.597 1.313v13.47H9.152v-13.47l4.599-1.314a1.22 1.22 0 011.545 1.055l.804 8.848a3.124 3.124 0 005.71 1.45.674.674 0 011.124 0 3.124 3.124 0 005.709-1.45l.804-8.848zm-6.059 3.935v.057a2.596 2.596 0 003.43 2.481l-.204 2.197a1.089 1.089 0 01-1.991.508 2.71 2.71 0 00-4.51 0 1.09 1.09 0 01-1.99-.508l-.204-2.197a2.596 2.596 0 003.436-2.481v-.057a5.08 5.08 0 002.033 0zm-2.034-2.1v-6.411a1.017 1.017 0 012.034 0v6.412c-.663.2-1.37.2-2.034 0zm8.136-12.68l-1.982 5.948c-.023.07-.04.144-.047.22l-.873 8.728a.584.584 0 01-1.166-.06v-8.567a3.05 3.05 0 10-6.101 0v8.568a.584.584 0 01-1.166.058l-.868-8.728a1.006 1.006 0 00-.047-.22l-1.987-5.944v-4.373a2.58 2.58 0 014.402-1.824 3.931 3.931 0 005.433 0 2.58 2.58 0 014.402 1.82v4.373zm0-8.195a4.609 4.609 0 00-5.84.56 1.85 1.85 0 01-2.557 0 4.609 4.609 0 00-5.84-.56V20.48a10.137 10.137 0 0014.237-.023v4.739zm6.102 5.311a5.093 5.093 0 01-4.068 4.984V20.339h4.068v10.17zm15.254-16.27v4.067h-21.66c-.29 0-.565.123-.758.338a8.117 8.117 0 01-13.283-1.708 1.017 1.017 0 00-1.926.466v18.09a5.093 5.093 0 01-4.068-4.983V18.865a13.202 13.202 0 017.22-11.783c.824-.424 1.618-.832 2.383-1.214a7.494 7.494 0 013.617-.783 8.145 8.145 0 018.136 8.135c0 .562.455 1.017 1.017 1.017h19.322zm-18.572-3.294l1.235-.176c.283.452.517.933.698 1.435H32.49a9.897 9.897 0 00-.217-1.259zm18.572-4.707L31.604 8.983a10.217 10.217 0 00-3.03-3.808L50.847 2.18v4.057z" fill="#5CA649"/></svg>