<svg width="65" height="65" fill="none" xmlns="http://www.w3.org/2000/svg"><path d="M39.663 14.473a6.804 6.804 0 00-9.622 0l-3.924 3.923a7.166 7.166 0 00-1.99 6.281 5.037 5.037 0 01-1.401 4.416l-12.37 12.372a9.347 9.347 0 00-1.108 12.071l-5.235 5.235a1.062 1.062 0 001.502 1.501l5.17-5.17a9.194 9.194 0 0012.53-.452L35.75 42.116a5.048 5.048 0 014.416-1.4 7.162 7.162 0 006.28-1.991c.066-.064 4.034-4.034 3.924-3.924a6.803 6.803 0 000-9.62L39.663 14.472zm5.28 22.75a5.037 5.037 0 01-4.417 1.4 7.167 7.167 0 00-6.279 1.991L21.713 53.148a7.083 7.083 0 01-10.257-.248 7.194 7.194 0 01.4-9.933l12.37-12.372a7.167 7.167 0 001.992-6.28 5.036 5.036 0 011.4-4.417l.547-.546 17.328 17.322-.55.549zm3.925-3.92l-1.873 1.869L29.67 17.848l1.873-1.873a4.684 4.684 0 016.616 0l10.709 10.707a4.686 4.686 0 010 6.62z" fill="#fff"/><path d="M14.207 46.296a3.065 3.065 0 104.334 4.335 3.065 3.065 0 00-4.334-4.335zm2.832 2.833a.962.962 0 01-1.33 0 .94.94 0 111.33 0zm28.183-37.676a1.062 1.062 0 100 2.124 5.956 5.956 0 015.948 5.948 1.062 1.062 0 002.124 0 8.083 8.083 0 00-8.072-8.072zm.428-7.739a1.062 1.062 0 000 2.124A13.275 13.275 0 0158.912 19.1a1.062 1.062 0 102.124 0A15.403 15.403 0 0045.65 3.714z" fill="#fff"/></svg>