<svg width="60" height="60" fill="none" xmlns="http://www.w3.org/2000/svg"><g clip-path="url(#clip0_882_9611)" fill="#5CA649"><path d="M55 4h-9a4 4 0 00-8 0h-9a5.006 5.006 0 00-5 5v6.917h2V9a3 3 0 013-3h5.557l-.75 2H29a1 1 0 00-1 1v6.917h2V10h3.057l-.994 2.648A1 1 0 0033 14h18a1 1 0 00.937-1.352L50.943 10h3.056v30h-7a1 1 0 00-1 1v7H33v2h22a1 1 0 001-1V9a1 1 0 00-1-1h-4.806l-.75-2H55a3 3 0 013 3v40a3 3 0 01-3 2.999H33v2h22a5.006 5.006 0 005-5V9a5.006 5.006 0 00-5-5zm-7 38h4.586l-4.587 4.585V42zm6 6h-4.587L54 43.412V48zm-4.444-36H34.444l2.25-6H39a1 1 0 001-1V4a2 2 0 114 0v1a1 1 0 001 1h2.307l2.25 6z"/><path d="M26.695 18.005a9.3 9.3 0 00-3.654.75 12.853 12.853 0 01-10.082 0A9.3 9.3 0 000 27.3a25.29 25.29 0 002.656 11.247l1.369 2.74 1.7 15.29a3.847 3.847 0 007.628.146l2.19-14.609a2.483 2.483 0 014.913 0l2.19 14.61a3.847 3.847 0 007.628-.147l1.7-15.29 1.37-2.74A25.289 25.289 0 0035.998 27.3a9.3 9.3 0 00-9.305-9.295zm4.86 19.648l-1.45 2.9a.994.994 0 00-.1.337l-1.718 15.466a1.846 1.846 0 01-3.662.07l-2.19-14.609a4.485 4.485 0 00-8.87 0l-2.191 14.61a1.846 1.846 0 01-3.661-.07l-1.72-15.468a1.032 1.032 0 00-.1-.337l-1.45-2.9A23.275 23.275 0 012 27.3a7.3 7.3 0 0110.172-6.71 14.854 14.854 0 0011.656 0 7.3 7.3 0 0110.171 6.71 23.275 23.275 0 01-2.445 10.353z"/><path d="M7.445 22.168A7.72 7.72 0 004 28.604V30h2v-1.395a5.724 5.724 0 012.555-4.773l-1.11-1.663zM51 24H38v2h13v-2zm0 6H38v2h13v-2zm0 6H38v2h13v-2zm0-18H35v2h16v-2zm-7 23.999h-6v2h6v-2z"/></g><defs><clipPath id="clip0_882_9611"><path fill="#fff" d="M0 0h60v60H0z"/></clipPath></defs></svg>