<svg width="60" height="60" fill="none" xmlns="http://www.w3.org/2000/svg"><path d="M17.326 41.129L10.2 48.255a2.62 2.62 0 00-.772 1.864c0 .704.274 1.367.772 1.864.514.515 1.19.771 1.864.771a2.63 2.63 0 001.865-.77l7.126-7.127c.498-.498.772-1.16.772-1.864a2.62 2.62 0 00-.772-1.864 2.64 2.64 0 00-3.729 0zm2.486 2.485l-7.126 7.127a.88.88 0 01-1.243-1.243l7.126-7.126a.88.88 0 011.243 1.242z" fill="#fff"/><path d="M28.117 39.31l2.42.484a.879.879 0 00.794-.24l26.87-26.87a6.16 6.16 0 000-8.7 6.16 6.16 0 00-8.7 0L37.544 15.937a.879.879 0 101.243 1.243L50.743 5.226a4.4 4.4 0 016.215 0 4.4 4.4 0 010 6.215l-13.82 13.82-6.835-6.837a.879.879 0 00-1.243 0L.257 53.226a.879.879 0 000 1.243c4.455 4.455 11.704 4.455 16.159 0l9.114-9.114a.879.879 0 00.24-.794l-.483-2.42a2.4 2.4 0 01.658-2.173 2.4 2.4 0 012.172-.657zm2.303-1.331l-10.357-2.072 8.16-8.16 6.215 6.214-4.018 4.018zm6.504-6.504l-1.243 1.243-6.215-6.215 1.243-1.243 6.215 6.215zm-4.972-7.458l1.243-1.242 6.215 6.214-1.243 1.243-6.215-6.215zm3.729-3.728l6.215 6.214-1.243 1.243-6.215-6.214 1.243-1.243zM23.563 42.486l.392 1.958-8.782 8.782c-3.56 3.56-9.229 3.758-13.023.594L18.569 37.4l6.219 1.245c-.029.027-.058.052-.086.08a4.155 4.155 0 00-1.139 3.76zm-3.815 13.572h-2.11a.879.879 0 100 1.758h2.11a.879.879 0 100-1.758zm5.623 0h-2.11a.879.879 0 100 1.758h2.11a.879.879 0 100-1.758zm5.625 0h-2.11a.879.879 0 100 1.758h2.11a.879.879 0 100-1.758zm5.625 0h-2.11a.879.879 0 100 1.758h2.11a.879.879 0 100-1.758zm5.625 0h-2.11a.879.879 0 100 1.758h2.11a.879.879 0 100-1.758zm5.625 0h-2.11a.879.879 0 100 1.758h2.11a.879.879 0 100-1.758zm5.625 0h-2.11a.879.879 0 100 1.758h2.11a.879.879 0 100-1.758zm5.623 0h-2.11a.879.879 0 100 1.758h2.11a.879.879 0 100-1.758z" fill="#fff"/></svg>