<svg width="65" height="65" fill="none" xmlns="http://www.w3.org/2000/svg"><path d="M32.503 22.344c-1.897 0-3.863-.335-5.848-.996-3.087-1.027-5.377-3.709-5.974-6.997l-1.663-9.17a3.042 3.042 0 01.656-2.496c.853-1.017 2.305-1.38 3.53-.849 2.356 1.016 5.88 2.227 9.295 2.227 3.42 0 6.953-1.217 9.316-2.237a3.04 3.04 0 014.186 3.335l-1.615 9.153c-.589 3.346-2.91 6.053-6.053 7.067-1.985.638-3.947.963-5.83.963zM22.006 3.616c-.29 0-.577.138-.772.371a.987.987 0 00-.216.833l1.662 9.17c.465 2.559 2.235 4.64 4.617 5.433 3.543 1.182 6.833 1.18 10.412.024 2.426-.78 4.217-2.882 4.678-5.484l1.615-9.153a1.008 1.008 0 00-.22-.83.99.99 0 00-1.161-.285c-2.54 1.09-6.356 2.399-10.122 2.399-3.762 0-7.568-1.302-10.1-2.395a1.003 1.003 0 00-.393-.083zm10.493 55.29c-1.077 0-2.14-.06-3.157-.183a1.016 1.016 0 01-.887-1.129 1.032 1.032 0 011.129-.888c3.333.403 7.154.061 9.754-.891a1.016 1.016 0 11.699 1.907c-2.084.762-4.764 1.184-7.538 1.184zm.001-4.062c-1.07 0-2.13-.061-3.148-.183a1.018 1.018 0 01-.888-1.13c.067-.558.591-.95 1.13-.89 1.84.22 3.867.222 5.718.011 1.416-.165 2.75-.455 3.86-.845a1.015 1.015 0 11.674 1.915c-1.252.44-2.739.766-4.3.947-.984.118-2.01.175-3.045.175zm0-20.313a15.16 15.16 0 01-4.143-.593 1.015 1.015 0 11.554-1.954c1.205.343 2.413.516 3.59.516 3.316 0 6.136-1.353 7.92-2.488a1.015 1.015 0 111.09 1.712c-2.009 1.282-5.204 2.807-9.01 2.807zm0-5.078c-4.953 0-8.91-2.622-10.38-3.75a1.014 1.014 0 111.232-1.612c1.309 1.001 4.817 3.33 9.147 3.33 4.71 0 8.418-2.741 9.44-3.58a1.02 1.02 0 011.43.14 1.017 1.017 0 01-.14 1.43c-1.157.948-5.345 4.042-10.73 4.042z" fill="#fff"/><path d="M35.846 62.969h-6.744c-2.64 0-4.865-2.062-5.064-4.694l-.357-4.68a1.018 1.018 0 01.936-1.091c.5-.055 1.048.373 1.09.934l.358 4.68a3.06 3.06 0 003.037 2.82h6.744a3.061 3.061 0 003.039-2.814l.375-4.86c.043-.561.577-.98 1.09-.935.558.043.976.532.933 1.09l-.375 4.862c-.2 2.628-2.426 4.688-5.062 4.688zm-3.324-22.242c-1.906-.035-3.827-.73-5.178-1.861a1.118 1.118 0 011.432-1.714c.959.802 2.393 1.314 3.744 1.34 1.096-.022 2.809-.41 3.875-1.21a1.117 1.117 0 111.343 1.787c-1.576 1.18-3.795 1.631-5.216 1.657zm-4.556 10.436a1.117 1.117 0 01-.66-2.019c2.816-2.064 7.508-2.145 10.461-.175a1.116 1.116 0 11-1.239 1.859c-2.16-1.44-5.852-1.387-7.903.118a1.102 1.102 0 01-.659.217z" fill="#fff"/><path d="M44.95 55.872c-.216 0-.436-.009-.653-.027-2.35-.185-6.709-1.57-9.467-8.763a1.016 1.016 0 111.897-.727c1.749 4.56 4.495 7.211 7.733 7.467 3.036.234 5.62-1.637 6.689-3.486 1.716-2.97 3.719-8.36 3.719-13.773 0-8.335-3.145-14.325-10.195-19.421-.28 10.804-4.032 17.213-6.275 21.041-.873 1.49-1.625 2.775-1.625 3.456a1.016 1.016 0 01-2.03 0c0-1.233.797-2.596 1.902-4.483 2.284-3.898 5.73-9.789 6.017-20.039a2.067 2.067 0 011.15-1.793 1.997 1.997 0 012.051.17C53.495 21.011 56.9 27.51 56.9 36.56c0 4.786-1.566 10.591-3.993 14.79-1.575 2.728-4.778 4.522-7.957 4.522zm-24.67 0c-3.18 0-6.383-1.794-7.955-4.52-2.423-4.2-3.99-10.006-3.99-14.79 0-9.053 3.405-15.549 11.037-21.066a1.996 1.996 0 012.051-.17 2.055 2.055 0 011.148 1.795c.286 10.248 3.735 16.139 6.018 20.037 1.106 1.887 1.904 3.25 1.904 4.483a1.016 1.016 0 01-2.031 0c0-.68-.752-1.967-1.625-3.456-2.243-3.828-5.997-10.237-6.297-21.009-7.03 5.062-10.173 11.052-10.173 19.387 0 5.41 2.003 10.802 3.717 13.773 1.069 1.849 3.58 3.734 6.691 3.484 3.238-.254 5.982-2.907 7.731-7.465a1.023 1.023 0 011.312-.585c.524.201.787.788.585 1.312-2.756 7.193-7.115 8.578-9.467 8.763-.22.016-.437.027-.656.027z" fill="#fff"/></svg>