<svg width="70" height="70" fill="none" xmlns="http://www.w3.org/2000/svg"><path d="M64.704 18.843a10.451 10.451 0 01-4.17-6.852c-.377-2.466-2.038-4.466-4.336-5.22L36.993.468a6.373 6.373 0 00-3.986 0L13.802 6.77c-2.298.754-3.96 2.754-4.337 5.22a10.445 10.445 0 01-4.169 6.852C3.154 20.39 2.121 22.88 2.6 25.338 6.589 45.802 16.443 60.51 31.888 69.055a6.478 6.478 0 006.224 0c15.446-8.545 25.299-23.253 29.287-43.717.479-2.458-.555-4.947-2.695-6.495zm1.078 6.18c-3.89 19.963-13.468 34.293-28.468 42.591a4.81 4.81 0 01-4.629 0c-15-8.297-24.577-22.628-28.469-42.591-.354-1.822.428-3.677 2.045-4.846 2.586-1.867 4.347-4.76 4.831-7.937.284-1.848 1.518-3.345 3.222-3.904l19.205-6.303a4.72 4.72 0 012.96 0l19.207 6.304c1.704.558 2.938 2.055 3.22 3.903.487 3.176 2.248 6.07 4.833 7.937 1.615 1.169 2.398 3.025 2.043 4.846z" fill="#fff"/><path d="M54.104 13.47a.822.822 0 00-.553-.635L35.256 6.83a.837.837 0 00-.513 0l-18.295 6.004a.822.822 0 00-.553.634c-.753 4.117-3.083 7.926-6.391 10.453a.822.822 0 00-.308.816c3.678 18.154 11.985 30.677 25.397 38.284.25.141.56.144.813 0 13.413-7.606 21.72-20.129 25.396-38.284a.822.822 0 00-.307-.816c-3.309-2.528-5.638-6.338-6.39-10.453zM35 61.356c-12.614-7.31-20.5-19.243-24.088-36.45 3.286-2.663 5.629-6.5 6.507-10.657l17.58-5.77 17.581 5.77c.878 4.155 3.22 7.992 6.506 10.658C55.5 42.115 47.614 54.047 35 61.357z" fill="#fff"/><path d="M41.312 26.51c-1.132-.78-1.933-1.548-2.41-2.291h.107c.952 0 1.726-.774 1.726-1.726V21c0-.953-.774-1.727-1.726-1.727h-8.02c-.952 0-1.726.774-1.726 1.726v1.493c0 .952.774 1.726 1.725 1.726h.109c-.478.744-1.279 1.51-2.41 2.29a3.508 3.508 0 00-1.513 2.894V43.83a3.533 3.533 0 003.529 3.53h8.592a3.535 3.535 0 003.53-3.53V29.403a3.51 3.51 0 00-1.513-2.893zM30.91 22.493V21c0-.044.035-.079.078-.079h8.02a.08.08 0 01.08.08v1.492a.08.08 0 01-.08.079h-8.02a.079.079 0 01-.078-.08zM28.82 33.68h12.358v6.873H28.82V33.68zm.801-5.815c1.737-1.197 2.834-2.395 3.333-3.645h4.09c.5 1.25 1.596 2.448 3.333 3.645.502.346.8.92.8 1.538v2.63H28.82v-2.63c0-.618.3-1.192.801-1.538zm1.082 17.849a1.885 1.885 0 01-1.883-1.883V42.2h12.358v1.631a1.886 1.886 0 01-1.884 1.883h-8.591z" fill="#fff"/></svg>