<svg width="65" height="65" fill="none" xmlns="http://www.w3.org/2000/svg"><path d="M63.985 20.882a3.757 3.757 0 00-1.888-3.25l-.376-.214.685-1.028a3.35 3.35 0 00-2.788-5.218 5.634 5.634 0 01-3.961-1.64 4.903 4.903 0 00-4.53-1.282 39.603 39.603 0 00-16.057 7.695l-2.926 2.336h-.628l-.938-3.75 3.656-3.657a1.015 1.015 0 00-.083-1.511L23.995 1.238a1.016 1.016 0 00-1.544 1.247l3.782 7.57-2.67 3.554a1.015 1.015 0 00.048 1.279l2.97 3.393h-5.252v-5.078a1.015 1.015 0 00-.669-.955L9.488 8.186a1.016 1.016 0 00-1.065 1.673l6.812 6.812v1.407c-4.708-.284-9.39-.889-14.016-1.808l-.406 1.99c4.76.946 9.578 1.564 14.422 1.85v1.218a1.016 1.016 0 00.639.944l10.156 4.062a1.015 1.015 0 001.095-1.661l-4.36-4.36h5.593l2.362 2.7a1.015 1.015 0 001.75-.914l-.447-1.787h.477c.231 0 .455-.078.635-.222l3.205-2.564a37.568 37.568 0 0115.227-7.294 2.875 2.875 0 012.654.737 7.68 7.68 0 005.397 2.234 1.32 1.32 0 011.1 2.057l-.762 1.144-2.192-1.25a7.211 7.211 0 00-6.688-.187l-1.392.696a3.453 3.453 0 00-1.858 3.901 6.519 6.519 0 00-1.559 1.625 3.335 3.335 0 00-.382 2.945 3.567 3.567 0 00-.892 4.1 3.538 3.538 0 002.234 6.297h1.284a2.64 2.64 0 012.377 1.47l1.818-.908a4.672 4.672 0 00-4.195-2.593h-1.284a1.523 1.523 0 010-3.047h1.164a16.892 16.892 0 019.398 2.844 2.505 2.505 0 01-.268 4.329l-4.917 2.458a5.006 5.006 0 01-3.237.418L33.66 36.197a30.225 30.225 0 00-3.878-.558l1.345-1.345 5.64-4.028a4.374 4.374 0 001.827-3.555 3.351 3.351 0 00-5.215-2.791l-5.368 3.581-8.174 2.234a8.872 8.872 0 00-5.819 5.06l-.397.927-12.672.84.134 2.032 11.64-.776-1.348 3.134-10.904 6.94 1.09 1.715 11.172-7.11c.173-.109.308-.268.388-.456l2.765-6.448a6.837 6.837 0 014.485-3.905l8.334-2.273a1.04 1.04 0 00.297-.136l5.504-3.669a1.32 1.32 0 012.057 1.1 2.336 2.336 0 01-.977 1.9l-5.707 4.076a1.005 1.005 0 00-.128.108l-3.047 3.047a1.015 1.015 0 00.718 1.737 28.3 28.3 0 015.819.61l10.828 2.279-1.94 2.77a5.946 5.946 0 01-4.505 2.528l-15.343.954a1.015 1.015 0 00-.633.274L4.382 63.243l1.393 1.479 16.999-15.996 14.977-.937a7.985 7.985 0 006.043-3.39l2.438-3.48 2.718.572a7.05 7.05 0 004.564-.588l4.917-2.459a4.507 4.507 0 002.315-5.349 4.296 4.296 0 00.972-4.398 4.155 4.155 0 00.804-4.852 3.732 3.732 0 001.463-2.963zm-46.719-.242v-4.39c0-.27-.107-.528-.297-.718l-3.867-3.873 6.195 2.255v5.383c0 .27.107.527.298.718l2.595 2.595-4.924-1.97zm8.416-6.47l2.553-3.404a1.015 1.015 0 00.101-1.064l-2-3.99 5.657 4.529-3.26 3.26a1.015 1.015 0 00-.268.965l1.01 4.044-3.793-4.34zm24.91 3.31l1.393-.696a5.14 5.14 0 014.774.132l4.331 2.476a1.706 1.706 0 01.174 2.855l-2.234-2.234a5.96 5.96 0 00-4.186-1.732h-3.14a6.528 6.528 0 00-1.904.295 1.48 1.48 0 01.792-1.096zm-2.201 9.942h-1.164c-.12.006-.238.018-.356.036a1.585 1.585 0 01.572-2.006 6.383 6.383 0 013.555-1.077 9.63 9.63 0 016.15 2.226l1.898 1.582a2.408 2.408 0 01.578 3.019 4.58 4.58 0 00-.711-.593 18.92 18.92 0 00-10.522-3.187zm11.956-.8l-1.897-1.58a11.662 11.662 0 00-7.452-2.698 8.405 8.405 0 00-3.258.673 1.32 1.32 0 01.217-.699 4.492 4.492 0 013.747-2.006h3.14a3.917 3.917 0 012.75 1.139l2.701 2.703a2.158 2.158 0 01.29 2.717c-.082-.08-.149-.174-.238-.248z" fill="#fff"/></svg>