<svg width="65" height="65" fill="none" xmlns="http://www.w3.org/2000/svg"><path d="M45.889 37.187c2.42-3.297 6.923-9.433 6.923-14.843 0-11.2-9.112-20.313-20.312-20.313-11.2 0-20.313 9.112-20.313 20.313a1.016 1.016 0 002.032 0c0-10.08 8.2-18.282 18.281-18.282 10.08 0 18.281 8.201 18.281 18.282 0 4.745-4.248 10.532-6.53 13.64-.696.95-1.2 1.635-1.467 2.116-2.207 3.97-3.553 7.864-5.113 12.375a425.92 425.92 0 01-1.05 3.014 11.639 11.639 0 01-3.72 5.206 10.403 10.403 0 01-6.495 2.242c-5.04 0-9.14-4.1-9.14-9.14a1.016 1.016 0 10-2.032 0c0 6.16 5.012 11.172 11.172 11.172 2.844 0 5.524-.926 7.75-2.678a13.696 13.696 0 004.38-6.124 455.84 455.84 0 001.055-3.028c1.528-4.42 2.848-8.238 4.968-12.052.206-.37.727-1.079 1.33-1.9zm-26.295 1.11c-.973-.974-1.487-2.1-1.487-3.258s.514-2.284 1.488-3.257c1.97-1.97 5.559-1.97 7.53 0a1.016 1.016 0 01-1.437 1.436c-1.197-1.197-3.46-1.197-4.657 0-.407.407-.893 1.054-.893 1.821 0 .767.485 1.414.893 1.821l1.015 1.016c1.802 1.8 2.287 4.625 1.238 7.195-.074.181.02.473.24.744.312.385.788.619 1.131.556.424-.077.676-.653.788-.99.235-.706.355-1.593.482-2.532.394-2.907.883-6.525 5.182-8.245 3.594-1.438 3.357-4.836 3.089-6.23-.559-2.9-2.92-6.03-5.758-6.03-4.273 0-6.833-1.044-8.101-1.773-.016.249-.024.5-.024.753 0 .01.015 1.102.555 2.143.67 1.294 1.817 1.924 3.507 1.924a1.016 1.016 0 010 2.03c-3.142 0-4.645-1.685-5.352-3.1a7.38 7.38 0 01-.742-2.993c0-7.84 6.379-14.219 14.219-14.219 7.707 0 14.219 6.512 14.219 14.22 0 1.536-.384 4.193-1.462 7.042-1.473 3.892-3.834 7.25-7.018 9.978a1.014 1.014 0 01-1.432-.11 1.016 1.016 0 01.11-1.432c7.682-6.585 7.77-15.119 7.77-15.479 0-6.606-5.58-12.187-12.187-12.187-5.694 0-10.488 3.925-11.82 9.209a.734.734 0 01.06.051c.006.005.538.48 1.739.95 1.12.439 3.062.962 5.959.962 3.927 0 7.026 3.903 7.752 7.676.747 3.877-.912 7.134-4.329 8.5-3.199 1.28-3.55 3.88-3.923 6.632-.14 1.036-.272 2.015-.568 2.903-.592 1.777-1.727 2.232-2.351 2.346a2.643 2.643 0 01-.473.042c-.945 0-1.926-.486-2.6-1.317-.7-.864-.904-1.908-.543-2.791.74-1.811.428-3.77-.793-4.992l-1.015-1.016z" fill="#fff"/></svg>