<svg width="65" height="65" fill="none" xmlns="http://www.w3.org/2000/svg"><g clip-path="url(#clip0_952_4088)" fill="#fff"><path d="M11.89 37.558a.952.952 0 00-1.902.097c.026.526 1.176 9.485 1.176 9.485a9.54 9.54 0 01-.464 3.474l-4.273 13.04a.952.952 0 001.81.594l4.273-13.04a11.44 11.44 0 00.556-4.166l-1.177-9.484zm47.453 26.247l-2.93-11.113c-.537-2.034-.07-3.27.149-6.606a16.547 16.547 0 00-4.714-13.193l-5.295-5.36a127.92 127.92 0 00-.903-10.847 8.203 8.203 0 00-1.852-4.24l.792-1.539a2.895 2.895 0 00-.21-3.005c-.638-.904-1.789-1.434-3.06-1.146a2.75 2.75 0 00-.872-1.564c-1.371-1.224-2.906-.47-2.973-.464a3.217 3.217 0 00-1.124-1.485 3.222 3.222 0 00-3.234-.32l-.115.053A3.339 3.339 0 0030.166.644c-1.572-.168-2.913.823-3.465 1.958C25.747 1.039 24.03 0 22.1 0c-3.338 0-5.85 2.998-5.316 6.287.085.525.354 5.574.247 6.109 0 .534.518.781 1.042.729.523-.05.934-1.001.883-1.524-.056-.577-.201-5.054-.293-5.62-.347-2.14 1.283-4.077 3.437-4.077 1.822 0 3.35 1.434 3.48 3.265.077 1.077.119 2.248.114 3.417a2.768 2.768 0 002.768 2.786h8.983c3.2 0 5.916 2.387 6.316 5.553.749 5.913 1.076 11.9.978 17.83L40.385 30.7a3.228 3.228 0 00-4.201-.152 3.226 3.226 0 00-.636 4.317l2.362 3.45a.952.952 0 101.572-1.077l-2.363-3.45a1.313 1.313 0 01.258-1.756 1.314 1.314 0 011.71.062l7.202 6.705a.952.952 0 101.297-1.394l-.984-.916c.062-2.048.074-4.104.035-6.163l3.856 3.904a14.647 14.647 0 014.173 11.678c-.202 3.285-.746 4.798-.094 7.269l2.93 11.112a.952.952 0 101.84-.485zm-16.446-53.77l-.54 1.052a8.303 8.303 0 00-1.74-.984l.363-1.187c1.535-.923 2.336.306 1.917 1.12zm-7.664-5.25c.414.3.617.818.518 1.319l-.668 3.364h-2.426c.305-1.59.47-3.037.501-4.372.111-.112.239-.205.383-.271.145-.036.906-.611 1.692-.04zm-7.636 3.81c.004-.85-.017-1.708-.06-2.561l.805-2.423c.183-.554.85-1.156 1.624-1.074a1.428 1.428 0 011.276 1.327c.089 1.852-.159 3.791-.526 5.604h-2.255a.865.865 0 01-.864-.874zm9.428.873c.26-1.29.437-2.249.485-2.392.178-.525.69-.558.834-.632a.846.846 0 011.081 1.046l-.64 2.09c-.899-.149-1.491-.104-1.76-.112z"/><path d="M47.355 58.003a15.38 15.38 0 01-3.828-13.117 3.107 3.107 0 00-.498-2.322l-5.049-7.521a.952.952 0 10-1.571 1.076c.297.434 5.05 7.52 5.05 7.52.182.268.251.59.194.908a17.16 17.16 0 00.047 6.316 9.749 9.749 0 01-7.287 3.26h-1.352c-3.954 0-7.637-2.352-8.97-6.346 1.723-4.688 1.502-8.762 1.522-8.997a6.013 6.013 0 01.414-2.203l2.795-8.934a3.093 3.093 0 00-1.005-3.528 3.11 3.11 0 00-4.553.814l-1.796 2.84a63.364 63.364 0 00-2.712-7.518 6.446 6.446 0 01-.357-4.072 32.5 32.5 0 00.561-4.344.952.952 0 10-1.901-.11 30.589 30.589 0 01-.526 4.073 8.364 8.364 0 00.476 5.212c.335.772.653 1.546.954 2.323l-5.259 7.06A13.733 13.733 0 0010 37.829a.952.952 0 001.9.11c.134-2.325.94-4.541 2.332-6.409l4.512-6.058a57.03 57.03 0 011.345 4.48l-2.845 4.5a.952.952 0 001.61 1.017l6.026-9.532a1.203 1.203 0 012.151 1.058c-.019.05.107-.345-2.813 8.987a7.913 7.913 0 00-.51 2.798c-.045.292.524 7.294-4.463 14.02a.952.952 0 001.29 1.36l-.99 9.938a.952.952 0 101.894.189l1.354-13.578c.092-.176.183-.354.27-.532 2.05 3.782 5.966 5.851 9.998 5.851h1.352c2.927 0 5.71-1.087 7.844-3.026a17.262 17.262 0 002.568 4.932l1.465 6.469a.952.952 0 101.857-.42l-.697-3.08a.95.95 0 001.342-1.347l-1.437-1.553z"/><path d="M30.901 28.894a.952.952 0 00.953-.952v-2.947a5.14 5.14 0 00-2.325-4.307 5.15 5.15 0 00-5.658-.001l-1.896 1.245a.952.952 0 101.045 1.592l1.896-1.245a3.247 3.247 0 015.033 2.716v2.947c0 .526.427.952.952.952zm4.174.699a3.42 3.42 0 013.83-.408l.985.533a.952.952 0 00.907-1.675l-.985-.532a5.336 5.336 0 00-5.976.637 5.278 5.278 0 00-1.567 5.747l.651 1.903a.952.952 0 001.802-.617l-.652-1.903a3.383 3.383 0 011.005-3.684z"/></g><defs><clipPath id="clip0_952_4088"><path fill="#fff" d="M0 0h65v65H0z"/></clipPath></defs></svg>