<svg width="65" height="65" fill="none" xmlns="http://www.w3.org/2000/svg"><path d="M18.456 10.214a11.895 11.895 0 00-7.401 2.672 1.015 1.015 0 101.271 1.583 9.864 9.864 0 016.13-2.224 1.016 1.016 0 100-2.03z" fill="#fff"/><path d="M61.756 29.82a17.673 17.673 0 00-1.206-15.382l.986-.54a2.752 2.752 0 000-4.828l-1.24-.679a5.922 5.922 0 01-2.36-2.36l-.678-1.24a2.753 2.753 0 00-4.83 0l-.678 1.24a5.97 5.97 0 01-.583.857c-6.392-2.021-13.11.179-18.668 6.124-7.403-7.934-15.524-7.977-21.114-5.149-4.768.358-7.877 1.93-8.98 4.57a6.93 6.93 0 00.432 5.698 17.658 17.658 0 00.406 11.69 35.602 35.602 0 003.758 6.833c1.757 2.695 3.417 5.243 4.1 8.285.248 1.306.377 2.632.382 3.961.001 1.59.179 3.176.53 4.727 1.362 5.186 4.407 8.107 8.43 8.014 6.334-.144 7.904-6.303 9.164-11.246.752-2.945 1.429-6.04 2.895-6.04 1.465 0 2.142 3.094 2.894 6.04 1.26 4.943 2.83 11.096 9.163 11.246 4.005.046 7.07-2.825 8.43-8.014.351-1.551.53-3.136.53-4.727.005-1.329.134-2.655.383-3.96.213-.92.51-1.816.888-2.68 4.12-.49 6.847-2.01 7.87-4.44.854-2.025.412-4.508-1.243-7.204.11-.267.237-.523.339-.795zM53.53 7.009l.678-1.24a.723.723 0 011.268 0l.678 1.24a7.944 7.944 0 003.166 3.167l1.241.679a.722.722 0 010 1.267l-1.24.678a7.94 7.94 0 00-3.167 3.166l-.678 1.24a.723.723 0 01-1.267 0l-.679-1.238a7.937 7.937 0 00-3.166-3.17l-1.24-.68a.721.721 0 010-1.265l1.24-.678a7.944 7.944 0 003.166-3.166zM4.273 13.22a5.047 5.047 0 013.163-2.529 17.79 17.79 0 00-3.394 4.54 3.853 3.853 0 01.235-2.014l-.004.003zm47.638 31.282a23.311 23.311 0 00-.431 4.33 19.562 19.562 0 01-.466 4.286c-.645 2.47-2.378 6.573-6.412 6.5-4.795-.113-6.04-4.996-7.244-9.716-.98-3.79-1.87-7.697-4.976-7.577-2.917.112-3.797 3.86-4.745 7.577-1.205 4.72-2.449 9.595-7.244 9.716-4.053.102-5.768-4.028-6.412-6.5a19.562 19.562 0 01-.466-4.286 23.311 23.311 0 00-.431-4.33c-.762-3.4-2.6-6.222-4.379-8.951a33.552 33.552 0 01-3.561-6.44 15.852 15.852 0 01-.835-8.474c3.99 5.586 12.765 11.727 23.307 16.166 9.148 3.79 17.672 5.828 24.918 5.639a16.69 16.69 0 00-.619 2.051l-.004.009zm1.517-4.143c-6.5.467-15.791-1.538-25.028-5.428C17.175 30.205 8.088 23.597 5.028 17.983a15.437 15.437 0 016.43-7.843c5.048-3.008 12.994-3.268 20.19 4.977 1.13 2.25 2.375 5.274 7.96 5.333a1.015 1.015 0 100-2.032c-3.96 0-4.986-1.856-5.89-3.713 4.664-5.135 10.197-7.339 15.519-6.229l-1.084.593a2.752 2.752 0 000 4.83l1.24.678a5.915 5.915 0 012.36 2.36l.678 1.239a2.752 2.752 0 004.83 0l.679-1.24c.257-.465.574-.893.944-1.274a15.659 15.659 0 01.974 13.442 33.597 33.597 0 01-3.564 6.443 47.681 47.681 0 00-2.861 4.804l-.005.008zm7.35-3.321c-.615 1.462-2.352 2.498-4.89 3.008.641-1.133 1.361-2.248 2.104-3.386.799-1.228 1.603-2.488 2.33-3.806a5.21 5.21 0 01.46 4.176l-.003.008z" fill="#fff"/><path d="M51.008 22.008l-.694-.375a2.869 2.869 0 01-1.143-1.145l-.38-.693a1.986 1.986 0 00-1.745-1.035 1.99 1.99 0 00-1.75 1.028l-.38.695a2.862 2.862 0 01-1.143 1.15l-.693.379a1.989 1.989 0 000 3.49l.694.38c.483.264.88.66 1.144 1.144l.38.694a1.989 1.989 0 003.49 0l.38-.695a2.87 2.87 0 011.143-1.143l.694-.38a1.988 1.988 0 000-3.49l.003-.004zm-1.668 2.088a4.89 4.89 0 00-1.951 1.95l-.305.693-.38-.692a4.887 4.887 0 00-1.95-1.951l-.695-.305.693-.38a4.896 4.896 0 001.952-1.95l.305-.695.38.693a4.9 4.9 0 001.95 1.951l.696.305-.695.38zm-40.2-6.519a1.016 1.016 0 100-2.03 1.016 1.016 0 000 2.03z" fill="#fff"/></svg>