<svg width="65" height="65" fill="none" xmlns="http://www.w3.org/2000/svg"><path d="M45.513 2.808c-4.85 0-9.432 1.761-13.013 4.982a19.346 19.346 0 00-13.012-4.982C8.742 2.808 0 11.55 0 22.295c0 6.793 3.687 14.89 10.382 22.797 6.158 7.274 14.058 13.471 21.675 17.003a1.053 1.053 0 00.886 0c7.617-3.532 15.517-9.729 21.675-17.003C61.313 37.184 65 29.088 65 22.295 65 11.55 56.258 2.808 45.513 2.808zM19.488 4.914a17.27 17.27 0 0112.269 5.071c.41.41 1.075.41 1.486 0a17.27 17.27 0 0112.27-5.071c9.584 0 17.381 7.797 17.381 17.381 0 2.332-.483 4.845-1.413 7.467H48.223c-.493 0-.92.343-1.027.825l-1.248 5.615-3.439-14.613a1.053 1.053 0 00-1.017-.811h-.008c-.483 0-.904.328-1.021.797l-2.047 8.187H25.761c-.493 0-.92.343-1.027.825l-1.248 5.615-3.438-14.613a1.053 1.053 0 00-1.018-.811h-.008a1.05 1.05 0 00-1.02.797l-2.048 8.187H3.52c-.93-2.622-1.413-5.135-1.413-7.467 0-9.584 7.797-17.381 17.381-17.381zM53.01 43.73c-5.76 6.804-13.395 12.845-20.511 16.245-7.116-3.4-14.75-9.441-20.511-16.245-3.387-4-5.965-8.025-7.638-11.863h12.425c.483 0 .905-.328 1.022-.797l1.194-4.775 3.498 14.868c.112.476.537.812 1.025.812h.007a1.053 1.053 0 001.02-.824l2.064-9.284H39.24c.483 0 .904-.328 1.021-.797l1.193-4.775 3.499 14.868c.112.476.536.812 1.025.812h.006a1.053 1.053 0 001.022-.824l2.063-9.284h11.58c-1.672 3.838-4.25 7.863-7.637 11.863z" fill="#fff"/></svg>