<svg width="70" height="70" fill="none" xmlns="http://www.w3.org/2000/svg"><path d="M18.11 45.966c3.925.095 8.808.214 12.197-3.092 2.421-2.364 3.6-6.013 3.6-11.155 0-6.293-2.957-9.283-5.816-12.175-3.056-3.09-6.216-6.286-6.216-14.075 0-1.446-2.188-1.448-2.188 0 0 8.687 3.638 12.367 6.847 15.613 2.783 2.813 5.185 5.242 5.185 10.637 0 10.494-4.765 12.265-13.557 12.06a71.98 71.98 0 00-1.756-.03C6.23 43.75 5.47 51.98 5.47 64.532c0 1.446 2.187 1.448 2.187 0 0-13.722 1.321-18.594 8.75-18.594.536 0 1.107.015 1.703.029z" fill="#fff"/><path d="M45.938 7.656c-6.025 0-6.807 2.278-12.032 2.278-3.08 0-5.468-2.4-5.468-4.465 0-1.446-2.188-1.448-2.188 0 0 3.545 3.578 6.653 7.656 6.653 5.763 0 6.453-2.278 12.032-2.278 7.744 0 16.406 7.951 16.406 18.593 0 16.356-19.106 31.72-30.625 31.72-5.975 0-7.717-1.54-9.399-3.032-1.355-1.198-2.756-2.438-5.914-2.438-3.588 0-4.375 7.107-4.375 9.844 0 1.446 2.188 1.448 2.188 0 0-3.87 1.252-7.656 2.187-7.656 2.329 0 3.225.793 4.464 1.889 1.802 1.596 4.044 3.58 10.849 3.58 12.343 0 32.812-16.423 32.812-33.907 0-11.07-8.689-20.78-18.594-20.78z" fill="#fff"/><path d="M55.78 27.344c0 1.446 2.188 1.448 2.188 0 0-6.887-5.196-12.032-9.844-12.032-1.446 0-1.448 2.188 0 2.188 3.122 0 7.657 3.835 7.657 9.844z" fill="#fff"/></svg>