<svg width="65" height="65" fill="none" xmlns="http://www.w3.org/2000/svg"><path d="M27.92 64.095a.985.985 0 01-.987-.987v-5.134a.6.6 0 00-.325-.535c-3.201-1.56-5.114-4.246-5.114-7.18 0-2.476 1.386-4.817 3.801-6.425.23-.152.33-.44.243-.695a18.643 18.643 0 01-.79-3.074c-.522-3.171-.3-6.318-.053-8.7.123-1.173.275-2.358.423-3.501L25.23 27c.153-1.19.194-3.39-1.267-4.76-1.92-1.806-4.492-1.83-7.211-1.855-.173 0-.342-.005-.515-.005-1.394-.016-3.027-.107-4.57-.645-1.77-.622-3.328-1.959-4.764-4.09-.017-.02-.029-.045-.045-.07l-.009-.008a.986.986 0 011.646-1.086l.008.012c.013.017.02.033.033.05 1.189 1.769 2.427 2.855 3.777 3.328 1.275.444 2.707.522 3.945.535.169 0 .337.004.51.004 1.436.012 2.921.029 4.357.313 1.695.337 3.065 1.02 4.192 2.077 1.555 1.46 2.217 3.752 1.872 6.45l-.111.869c-.149 1.131-.3 2.303-.42 3.451-.239 2.263-.448 5.233.037 8.175.148.9.387 1.826.704 2.744a2.58 2.58 0 01-1.013 2.986c-1.855 1.239-2.92 2.979-2.92 4.785 0 2.16 1.497 4.18 4.002 5.401a2.58 2.58 0 011.436 2.308v5.139a.979.979 0 01-.983.987z" fill="#fff"/><path d="M13.44 36.178a7.32 7.32 0 01-2.123-.337C6.5 34.375 3.213 27.328 2.18 22.947a20.117 20.117 0 01-.527-5.13 18.98 18.98 0 01.823-5.102c.317-1.036 1.53-4.649 3.74-7.643C7.24 3.681 8.339 2.624 9.478 1.928c1.399-.855 2.86-1.176 4.34-.954 2.086.313 3.493 1.214 4.291 2.756.667 1.284.786 2.773.905 4.213.033.424.066.823.115 1.214a.986.986 0 01-.868 1.094.986.986 0 01-1.094-.868c-.05-.428-.086-.864-.12-1.284-.246-3.007-.53-4.73-3.52-5.18-1.955-.291-3.88.824-5.723 3.32-2.024 2.745-3.147 6.09-3.444 7.052-.884 2.88-.979 6.146-.259 9.199.53 2.25 1.588 4.809 2.835 6.837 1.07 1.745 2.793 3.962 4.953 4.616a5.301 5.301 0 001.539.251c.839 0 1.542-.267 2.098-.798 1.563-1.498 1.797-4.694 1.226-6.94a17.39 17.39 0 01-.379-1.942.99.99 0 01.848-1.11.99.99 0 011.11.847c.078.572.19 1.147.334 1.715.378 1.481.452 3.139.205 4.67-.284 1.773-.967 3.216-1.979 4.183-.707.683-1.818 1.358-3.451 1.358z" fill="#fff"/><path d="M14.374 16.16a.988.988 0 01-.806-1.555c.304-.432 1.012-1.576 1.049-2.888a.984.984 0 011.012-.959.984.984 0 01.958 1.012c-.049 1.781-.9 3.254-1.406 3.97a.98.98 0 01-.807.42zm-7.142 6.903a.985.985 0 01-.77-1.6c1.264-1.58 2.91-2.81 4.896-3.658a.988.988 0 01.774 1.818c-1.683.716-3.07 1.749-4.123 3.073-.201.24-.49.367-.777.367zm4.948 1.32a.986.986 0 01-.88-1.427c1.238-2.473 2.884-3.699 4.01-4.402a.988.988 0 111.046 1.678c-.926.58-2.28 1.58-3.291 3.608a.994.994 0 01-.885.543zm24.587 39.712a.985.985 0 01-.988-.987V58.13c0-1.012.593-1.934 1.506-2.35 2.658-1.209 4.246-3.27 4.246-5.516 0-1.76-1.078-3.505-2.954-4.785a2.574 2.574 0 01-.988-2.966c.325-.925.564-1.855.712-2.764.486-2.942.276-5.916.037-8.175-.12-1.147-.271-2.316-.42-3.447l-.11-.868c-.346-2.699.316-4.99 1.871-6.45 1.127-1.058 2.497-1.737 4.192-2.078 1.432-.288 2.921-.3 4.357-.313.169 0 .341-.004.51-.004 1.234-.017 2.67-.09 3.945-.535 1.354-.473 2.588-1.563 3.777-3.328.012-.017.02-.033.029-.045l.012-.017a.984.984 0 011.366-.28c.457.3.58.914.28 1.366l-.008.017c-.013.02-.03.04-.042.066-1.435 2.13-2.995 3.472-4.764 4.089-1.542.539-3.175.63-4.57.646-.173 0-.342.004-.514.004-2.72.025-5.29.05-7.212 1.855-1.46 1.362-1.42 3.563-1.267 4.752l.11.868c.149 1.143.301 2.324.425 3.497.25 2.386.469 5.529-.054 8.7a18.494 18.494 0 01-.798 3.094.592.592 0 00.234.683c2.424 1.654 3.814 3.995 3.814 6.414 0 1.53-.53 3.032-1.53 4.336-.942 1.226-2.28 2.254-3.871 2.978a.608.608 0 00-.35.556v4.978a.979.979 0 01-.983.987z" fill="#fff"/><path d="M51.56 36.178c-1.634 0-2.745-.675-3.452-1.35-1.012-.966-1.695-2.414-1.98-4.183a11.73 11.73 0 01.207-4.67 15.4 15.4 0 00.333-1.715.988.988 0 111.958.263c-.086.65-.214 1.3-.378 1.942-.572 2.25-.338 5.447 1.226 6.94.868.831 2.094 1.016 3.636.547 2.16-.654 3.888-2.871 4.953-4.616 1.243-2.032 2.304-4.587 2.835-6.837.72-3.048.625-6.315-.26-9.199-.295-.958-1.414-4.307-3.443-7.05-1.843-2.494-3.768-3.613-5.722-3.32-2.987.448-3.275 2.171-3.522 5.179-.032.42-.07.855-.119 1.283a.989.989 0 01-1.962-.226c.045-.395.078-.794.115-1.214.12-1.44.239-2.933.905-4.212.802-1.543 2.205-2.448 4.29-2.757 1.486-.222 2.946.099 4.341.955 1.14.7 2.238 1.756 3.262 3.143 2.21 2.995 3.423 6.607 3.74 7.643a18.98 18.98 0 01.823 5.102 19.9 19.9 0 01-.531 5.126c-1.033 4.381-4.316 11.428-9.137 12.889-.786.234-1.49.337-2.119.337z" fill="#fff"/><path d="M32.5 42.9c-2.18 0-3.661-1.674-4.068-4.591-.395-2.835.115-5.616.613-8.306l.024-.132c.585-3.172.95-7.17-1.427-9.951-2.164-2.526-5.558-3.99-8.862-3.818-.386.02-.777.062-1.184.103-.572.057-1.16.12-1.765.127h-.062c-2.11 0-4.027-.975-5.854-2.978a.988.988 0 011.46-1.329c1.444 1.584 2.896 2.35 4.44 2.337.51-.004 1.028-.058 1.575-.116.42-.045.851-.09 1.287-.11 1.93-.1 3.917.263 5.748 1.057a13.04 13.04 0 014.714 3.447c1.292 1.51 2.057 3.423 2.271 5.694.16 1.687.033 3.563-.399 5.9l-.025.13c-.469 2.535-.95 5.156-.6 7.673.185 1.317.7 2.888 2.114 2.888 1.416 0 1.93-1.571 2.115-2.888.35-2.521-.132-5.138-.6-7.672l-.025-.136c-.432-2.34-.56-4.217-.4-5.9.214-2.27.98-4.183 2.271-5.693a12.995 12.995 0 014.715-3.447 12.948 12.948 0 015.747-1.058c.44.025.872.07 1.288.111.547.058 1.065.111 1.575.116h.041c1.527 0 2.967-.766 4.398-2.337a.988.988 0 011.46 1.329c-1.826 2.003-3.743 2.978-5.853 2.978h-.062a17.367 17.367 0 01-1.765-.127c-.411-.041-.798-.083-1.185-.103-3.303-.173-6.697 1.292-8.861 3.818-2.378 2.776-2.016 6.775-1.428 9.951l.025.132c.494 2.69 1.008 5.467.613 8.306-.407 2.925-1.888 4.595-4.069 4.595z" fill="#fff"/><path d="M50.626 16.16a.975.975 0 01-.806-.42c-.507-.72-1.362-2.189-1.407-3.97a.982.982 0 01.958-1.012.984.984 0 011.012.959c.037 1.312.745 2.455 1.05 2.887a.988.988 0 01-.807 1.556zm7.141 6.903a.992.992 0 01-.774-.37c-1.053-1.321-2.443-2.358-4.122-3.074a.988.988 0 01.774-1.818c1.987.843 3.632 2.078 4.895 3.657a.983.983 0 01-.156 1.387.976.976 0 01-.617.218zm-4.948 1.32a.99.99 0 01-.885-.547c-1.016-2.028-2.365-3.032-3.29-3.608a.991.991 0 01-.318-1.362.991.991 0 011.362-.316c1.131.703 2.777 1.93 4.011 4.402a.99.99 0 01-.88 1.431zm-16.394 24.77a.995.995 0 01-.593-.197c-1.806-1.362-4.854-1.362-6.66 0a.985.985 0 01-1.382-.194.985.985 0 01.193-1.382c1.218-.917 2.822-1.423 4.521-1.423 1.7 0 3.3.506 4.521 1.423.437.33.523.946.194 1.382a1.01 1.01 0 01-.794.391z" fill="#fff"/></svg>