<svg width="65" height="65" fill="none" xmlns="http://www.w3.org/2000/svg"><path d="M38.834 61.43h-12.67a.99.99 0 01-.984-.885l-1.317-12.803a5.25 5.25 0 01.877-3.488c.925-1.358 1.839-3.3.942-4.834-.226-.387-.51-.753-.815-1.144-.304-.39-.617-.794-.893-1.247-.625-1.028-.958-2.151-.958-3.258 0-1.715.88-2.888 1.662-3.925.3-.398.584-.773.823-1.18.42-.704.444-1.403.078-2.267-.366-.876-1.061-1.74-1.732-2.58-.181-.226-.35-.435-.514-.653-.955-1.239-1.675-2.703-2.148-4.361-.732-2.571-.79-5.229-.168-7.488.724-2.62 2.328-4.677 4.644-5.944 1.983-1.086 4.41-1.679 6.834-1.67h.053c2.407 0 4.813.592 6.78 1.67 2.316 1.267 3.92 3.324 4.644 5.944.626 2.259.564 4.92-.168 7.488-.474 1.658-1.193 3.122-2.148 4.36-.164.214-.337.428-.514.655-.67.839-1.362 1.703-1.732 2.58-.362.863-.337 1.562.078 2.266.239.403.523.782.823 1.18.777 1.033 1.662 2.206 1.662 3.925 0 1.103-.333 2.23-.959 3.258-.275.453-.592.856-.892 1.247-.305.39-.589.757-.815 1.144-.897 1.534.017 3.476.942 4.834a5.256 5.256 0 01.877 3.488l-1.317 12.803a.976.976 0 01-.975.884zm-11.778-1.976H37.94l1.226-11.918a3.279 3.279 0 00-.547-2.176c-1.785-2.62-2.135-5.023-1.012-6.94.292-.498.634-.934.963-1.358.284-.362.547-.703.765-1.061.436-.716.67-1.49.67-2.23 0-1.053-.555-1.798-1.263-2.731a14.68 14.68 0 01-.946-1.362c-.736-1.242-.806-2.604-.201-4.04.473-1.131 1.292-2.148 2.007-3.048.173-.218.338-.424.494-.626.798-1.037 1.407-2.279 1.81-3.694 1.05-3.682.753-8.816-3.525-11.161-1.695-.93-3.785-1.432-5.88-1.428h-.008c-2.098-.008-4.188.498-5.878 1.428-4.283 2.345-4.575 7.475-3.526 11.16.403 1.416 1.012 2.659 1.81 3.695.157.202.321.408.494.626.72.9 1.534 1.917 2.007 3.048.605 1.436.535 2.797-.201 4.04a14.68 14.68 0 01-.946 1.362c-.708.938-1.263 1.678-1.263 2.731 0 .74.23 1.514.67 2.23.218.358.486.7.765 1.061.33.424.671.86.963 1.358 1.123 1.921.774 4.32-1.012 6.94a3.279 3.279 0 00-.547 2.176l1.226 11.918z" fill="#fff"/><path d="M32.5 51.383a4.267 4.267 0 01-3.472-1.76 4.234 4.234 0 01-.634-3.81c.136-.436.3-.864.49-1.28 1.608-3.55.53-6.072-.004-6.99-.35-.596-.74-1.102-1.09-1.546-.252-.325-.49-.63-.655-.901-.267-.44-.415-.913-.415-1.333 0-.436.238-.79.917-1.69.334-.441.708-.939 1.053-1.519 2.255-3.801-.477-7.216-1.946-9.05-.168-.21-.329-.412-.473-.601-.666-.864-1.176-1.909-1.518-3.114-.547-1.926-.604-3.876-.16-5.488.457-1.658 1.42-2.897 2.855-3.682 1.411-.774 3.234-1.214 5.002-1.214h.103c1.77 0 3.592.444 5.003 1.214 1.436.785 2.398 2.024 2.855 3.682.444 1.612.39 3.562-.16 5.488-.342 1.2-.852 2.25-1.518 3.114-.149.19-.313.399-.474.6-1.468 1.835-4.2 5.25-1.946 9.051.346.58.72 1.078 1.05 1.518.678.901.917 1.255.917 1.695 0 .42-.148.893-.416 1.333-.168.271-.403.58-.654.901-.345.444-.74.95-1.09 1.547-.539.917-1.612 3.44-.004 6.99.19.415.354.843.49 1.279a4.236 4.236 0 01-.634 3.81 4.274 4.274 0 01-3.472 1.756zM28.74 33.91c.02.045.045.099.082.16.107.177.32.453.527.716.382.494.818 1.053 1.234 1.761.691 1.185 2.086 4.41.099 8.8a8.87 8.87 0 00-.404 1.057 2.271 2.271 0 00.342 2.049c.444.605 1.127.95 1.876.95.748 0 1.436-.345 1.876-.954a2.27 2.27 0 00.341-2.049 10.568 10.568 0 00-.403-1.057c-1.987-4.394-.592-7.62.099-8.8.415-.708.851-1.267 1.234-1.76.206-.268.42-.54.53-.717a.989.989 0 00.083-.16c-.144-.21-.37-.514-.473-.65-.362-.481-.774-1.024-1.173-1.7-1.28-2.159-1.485-4.467-.604-6.87.699-1.912 1.908-3.422 2.707-4.422.164-.206.316-.395.452-.572.51-.662.91-1.489 1.185-2.447.452-1.584.506-3.152.156-4.423-.32-1.156-.921-1.942-1.9-2.476-1.128-.618-2.605-.971-4.053-.971h-.102c-1.449 0-2.925.353-4.053.97-.975.535-1.58 1.321-1.9 2.477-.35 1.267-.297 2.839.156 4.423.276.962.67 1.785 1.185 2.447l.452.572c.799 1 2.008 2.51 2.707 4.423.877 2.402.675 4.71-.604 6.87-.4.675-.81 1.218-1.173 1.699a17.47 17.47 0 00-.481.654zM8.552 27.662a1.01 1.01 0 01-.403-.086A11.672 11.672 0 014.29 24.79c-1.69-1.84-2.801-4.156-3.213-6.706-.407-2.526-.082-5.04.93-7.278C3.13 8.34 5.035 6.377 7.515 5.13c5.9-2.958 13.03-1.168 17.97.856a.986.986 0 01.539 1.287.986.986 0 01-1.288.54C20.174 5.944 13.633 4.27 8.4 6.894c-2.078 1.04-3.666 2.674-4.595 4.727-.856 1.884-1.123 4.01-.782 6.15.35 2.168 1.288 4.13 2.715 5.681a9.825 9.825 0 003.213 2.32c.498.223.72.807.498 1.305a.98.98 0 01-.897.584z" fill="#fff"/><path d="M10.21 24.24a.94.94 0 01-.391-.083c-1.407-.605-2.62-1.62-3.514-2.942A9.358 9.358 0 014.83 17.48c-.264-1.65-.083-3.365.518-4.83.732-1.79 2.07-3.217 3.875-4.122 4.279-2.143 9.804-.893 13.687.54a.988.988 0 01-.683 1.85c-3.517-1.295-8.474-2.456-12.12-.625-3.023 1.518-3.702 4.546-3.327 6.874.296 1.835 1.452 4.16 3.821 5.176a.99.99 0 01-.39 1.896z" fill="#fff"/><path d="M11.786 30.394a4.27 4.27 0 01-4.266-4.266 4.27 4.27 0 014.266-4.267 4.27 4.27 0 014.266 4.267 4.27 4.27 0 01-4.266 4.266zm0-6.558a2.295 2.295 0 00-2.292 2.292 2.295 2.295 0 002.292 2.291 2.295 2.295 0 002.291-2.291 2.295 2.295 0 00-2.291-2.292zm43.001.404a.986.986 0 01-.39-1.892c2.364-1.017 3.524-3.342 3.82-5.176.375-2.329-.304-5.357-3.328-6.875-3.644-1.826-8.602-.666-12.12.625a.988.988 0 01-.682-1.85c3.883-1.432 9.408-2.683 13.687-.54 1.806.905 3.143 2.329 3.875 4.122.597 1.465.782 3.18.519 4.83a9.38 9.38 0 01-1.477 3.736c-.893 1.32-2.107 2.336-3.514 2.941a.991.991 0 01-.39.078z" fill="#fff"/><path d="M56.45 27.662a.987.987 0 01-.404-1.888 9.766 9.766 0 003.213-2.32c1.428-1.552 2.366-3.518 2.716-5.682.345-2.14.074-4.266-.782-6.146-.934-2.053-2.522-3.686-4.595-4.727-5.233-2.625-11.774-.95-16.337.917a.99.99 0 01-1.287-.538.99.99 0 01.539-1.288c4.94-2.024 12.07-3.814 17.97-.856 2.484 1.247 4.389 3.209 5.508 5.677 1.016 2.234 1.337 4.752.93 7.278-.412 2.55-1.523 4.87-3.213 6.706a11.772 11.772 0 01-3.86 2.785 1.05 1.05 0 01-.398.082z" fill="#fff"/><path d="M53.211 30.394a4.27 4.27 0 01-4.266-4.266 4.27 4.27 0 014.266-4.267 4.27 4.27 0 014.267 4.267 4.27 4.27 0 01-4.267 4.266zm0-6.558a2.295 2.295 0 00-2.291 2.292 2.295 2.295 0 002.291 2.291 2.292 2.292 0 000-4.583z" fill="#fff"/></svg>