<svg width="72" height="72" fill="none" xmlns="http://www.w3.org/2000/svg"><path d="M41.953 71.711a.844.844 0 01-.843-.835c-.014-2.501.044-5.794.406-7.265.85-3.458 4.208-6.725 8.856-11.25a299.938 299.938 0 003.263-3.206c3.186-3.186 6.677-4.456 9.225-5.384 2.51-.914 3.828-1.45 3.986-2.746a1.48 1.48 0 00-.486-1.382c-.964-.874-3.178-1.14-5.383-.646-1.332.426-2.623.97-3.859 1.627-3.498 1.683-7.465 3.588-9.685 2.17-3.987-2.548-2.233-11.65-.823-18.963.191-.99.37-1.92.517-2.756.185-1.048.402-2.16.624-3.29.871-4.448 2.189-11.171.385-11.608a.921.921 0 00-.756.132c-1.9 1.191-3.322 7.585-4.574 13.229l-.474 2.14c-1.016 4.609-1.977 8.963-2.985 11.912a1.42 1.42 0 01-1.228.984 1.38 1.38 0 01-1.474-1.237c-.417-3.876-.806-12.253-.852-18.294-.064-8.668-.43-13.07-2.254-13.07-2.034 0-2.44 4.79-2.452 13.065-.009 5.569-.295 14.634-.49 18.49a1.426 1.426 0 01-1.012 1.32 1.38 1.38 0 01-1.716-.996c-1.018-4.032-2.143-13.2-2.685-19.778-.04-.471-.076-.938-.113-1.397-.35-4.491-.654-8.37-2.654-8.566a1.136 1.136 0 00-1.008.3c-1.266 1.273-.782 5.958-.462 9.056l.056.545c.344 3.369.856 13.864 1.134 19.874a1.437 1.437 0 01-1.118 1.494 1.362 1.362 0 01-1.561-.88c-.345-.93-.731-1.957-1.132-3.012-1.153-3.05-2.345-6.203-2.909-8.104-.12-.404-.247-.85-.383-1.323-.69-2.411-1.636-5.719-2.612-6.965-.181-.23-.834-.946-1.615-.43-1.437.947.595 7.631 1.463 10.486.373 1.227 1.121 4.447 1.385 5.768.963 4.829 2.756 13.816 3.344 16.165.21.844.613 2.053 1.079 3.456 1.148 3.458 2.721 8.194 2.882 11.9.134 3.084.204 5.921.209 8.432a.84.84 0 01-.844.838.844.844 0 01-.844-.843 202.627 202.627 0 00-.206-8.356c-.15-3.47-1.683-8.075-2.8-11.437-.477-1.434-.889-2.674-1.114-3.579-.598-2.388-2.396-11.402-3.362-16.244-.263-1.317-.999-4.47-1.345-5.607-1.786-5.879-3.078-10.868-.775-12.386 1.28-.844 2.835-.522 3.871.799 1.181 1.505 2.138 4.854 2.907 7.545.133.468.26.91.378 1.308.546 1.839 3.178 8.803 3.327 9.202-.258-5.465-.727-14.861-1.04-17.925l-.056-.543c-.413-4.022-.884-8.582.946-10.421a2.825 2.825 0 012.368-.788c3.41.333 3.763 4.866 4.173 10.114.035.457.071.92.113 1.39.43 5.223 1.23 12.009 2.022 16.499a.078.078 0 00.133.041.078.078 0 00.022-.052c.169-4.45.35-11.006.357-15.388.01-8.91.307-14.751 4.137-14.751 3.454 0 3.867 4.725 3.942 14.744.039 5.14.327 11.972.667 16.231a.078.078 0 00.153.015c.788-2.728 1.567-6.264 2.384-9.964l.473-2.143c1.52-6.83 2.83-12.73 5.335-14.288a2.624 2.624 0 012.045-.34c3.375.817 2.159 7.013.873 13.574-.219 1.118-.435 2.22-.618 3.258-.149.843-.33 1.78-.522 2.779-1.103 5.719-2.948 15.29.074 17.222 1.43.913 5.254-.926 8.044-2.27a23.505 23.505 0 014.219-1.752c2.121-.475 5.197-.487 6.885 1.041a3.161 3.161 0 011.032 2.835c-.29 2.384-2.512 3.192-5.084 4.128-2.534.922-5.688 2.07-8.61 4.991-1.14 1.14-2.24 2.21-3.28 3.222-4.28 4.163-7.66 7.453-8.395 10.442-.246 1.001-.376 3.5-.357 6.854a.84.84 0 01-.84.844h-.004z" fill="#fff"/><path d="M40.78 44.536a.703.703 0 100-1.406.703.703 0 000 1.406zm-9.704 9.222a.703.703 0 100-1.406.703.703 0 000 1.406zM25.592 38.11a.703.703 0 100-1.407.703.703 0 000 1.406zm-3.094 6.426a.703.703 0 100-1.406.703.703 0 000 1.406zm10.828-21.481a.703.703 0 100-1.406.703.703 0 000 1.406zm-9.703-5.437a.703.703 0 100-1.407.703.703 0 000 1.407zm-7.33 14.625a.703.703 0 100-1.407.703.703 0 000 1.407zm27.299-1.407a.703.703 0 100-1.406.703.703 0 000 1.406zm2.39-15.328a.703.703 0 100-1.406.703.703 0 000 1.406zm3.094 32.732a.703.703 0 100-1.407.703.703 0 000 1.406zM38.6 60.274a.703.703 0 100-1.406.703.703 0 000 1.406zm-6.82 9.711a.703.703 0 100-1.407.703.703 0 000 1.407z" fill="#fff"/></svg>