<svg width="65" height="65" fill="none" xmlns="http://www.w3.org/2000/svg"><path d="M51.618 35.218a1.016 1.016 0 01-1.008-1.15c.114-.851.171-1.72.171-2.584 0-10.64-8.657-19.297-19.297-19.297a19.306 19.306 0 00-17.692 11.579 1.01 1.01 0 01-1.337.524 1.014 1.014 0 01-.524-1.337 21.336 21.336 0 0119.553-12.797c11.761 0 21.328 9.567 21.328 21.328 0 .955-.063 1.914-.189 2.852-.069.51-.505.882-1.005.882zM31.483 52.813A21.331 21.331 0 0111.915 39.98a1.016 1.016 0 011.863-.81 19.305 19.305 0 0017.706 11.61c5.241 0 10.143-2.066 13.807-5.815a1.018 1.018 0 011.436-.017c.4.393.408 1.036.016 1.439-4.048 4.141-9.467 6.425-15.258 6.425z" fill="#fff"/><path d="M13.203 40.625c-2.848 0-5.078-4.016-5.078-9.14 0-5.125 2.23-9.141 5.078-9.141 2.848 0 5.078 4.015 5.078 9.14 0 5.125-2.23 9.141-5.078 9.141zm0-16.25c-1.438 0-3.047 3.04-3.047 7.11 0 4.068 1.609 7.109 3.047 7.109 1.438 0 3.047-3.041 3.047-7.11 0-4.068-1.609-7.109-3.047-7.109z" fill="#fff"/><path d="M31.484 56.875c-8.088 0-15.762-3.92-20.527-10.49-1.047-1.44-2.889-3.339-4.372-4.864l-.885-.916a13.113 13.113 0 01-3.669-9.12A13.12 13.12 0 015.7 22.362l.885-.916c1.481-1.526 3.325-3.425 4.372-4.867 4.765-6.565 12.439-10.485 20.527-10.485 14.002 0 25.391 11.389 25.391 25.39 0 .94-.057 1.906-.17 2.868-.135 1.138.68 3.316 2.11 4.745l3.857 3.858a1.016 1.016 0 01-1.436 1.436l-3.857-3.857c-1.76-1.76-2.917-4.52-2.692-6.42.104-.883.157-1.768.157-2.63 0-12.88-10.48-23.359-23.36-23.359-7.44 0-14.499 3.607-18.884 9.648-1.134 1.56-3.033 3.517-4.558 5.087l-.878.908a11.103 11.103 0 00-3.101 7.716c0 2.889 1.1 5.629 3.101 7.715l.878.908c1.525 1.57 3.424 3.526 4.558 5.086 4.385 6.043 11.444 9.65 18.884 9.65a23.328 23.328 0 0015.344-5.75c1.812-1.578 5.016-2.61 7.634-1.52l7.881 3.285a1.016 1.016 0 01-.782 1.875L53.68 49.45c-1.58-.658-4.004-.142-5.517 1.176a25.364 25.364 0 01-16.679 6.25z" fill="#fff"/><path d="M61.953 48.75a1.01 1.01 0 01-.508-.136l-7.376-4.256a15.256 15.256 0 01-7.036-8.925l-3.487-11.785a1.015 1.015 0 111.948-.579l3.487 11.787a13.24 13.24 0 006.104 7.743l7.376 4.256a1.016 1.016 0 01-.508 1.895z" fill="#fff"/><path d="M61.953 48.75c-.173 0-.345-.043-.508-.136l-6.76-3.898a13.31 13.31 0 00-10.837-1.099l-9.167 3.049a1.016 1.016 0 01-.64-1.928l9.168-3.049A15.338 15.338 0 0155.7 42.957l6.76 3.898a1.016 1.016 0 01-.508 1.895zM45.95 29.211a.965.965 0 01-.168-.014l-3.632-.603a1.015 1.015 0 01-.835-1.168c.093-.553.61-.936 1.168-.835l3.632.603a1.014 1.014 0 01-.165 2.017z" fill="#fff"/><path d="M38.627 45.299c-.184 0-.373-.05-.542-.157L33.903 42.5a1.018 1.018 0 01-.317-1.402c.3-.473.928-.615 1.401-.317l4.183 2.643c.473.3.615.928.317 1.402a1.011 1.011 0 01-.86.473z" fill="#fff"/></svg>