<svg width="60" height="60" fill="none" xmlns="http://www.w3.org/2000/svg"><g clip-path="url(#clip0_882_9381)" fill="#5CA649"><path d="M22.628 27.6l-3.117 1.248A2.075 2.075 0 0116.885 26l.687-1.374a2 2 0 00-.375-2.31l-4.783-4.782 1.293-1.293a1 1 0 000-1.414l-3.293-3.293.293-.293a1 1 0 00.02-1.394l-9-9.533A1 1 0 000 1v13a1 1 0 00.355.764l3 2.536a1 1 0 001.352-.057L5 16.947l3.293 3.293a1 1 0 001.414 0L11 18.947l4.783 4.783-.683 1.37a4.072 4.072 0 005.157 5.6l3.119-1.247-.748-1.853zM4.293 14.829l-.35.35L2 13.536V3.516l6.606 7-.313.313-4 4zM9 18.119l-2.586-2.586L9 12.947l2.586 2.589L9 18.119zm50.383 10.957a1 1 0 00-1.09.217l-14 14a1 1 0 000 1.414l.793.793-3.924 3.924A9.66 9.66 0 0036 48c-4.411 0-8 2.69-8 6 0 3.309 3.589 6 8 6s8-2.691 8-6a4.965 4.965 0 00-1.308-3.278l3.808-3.808.793.793a1 1 0 001.414 0l11-11A1 1 0 0060 36v-6a1 1 0 00-.617-.924zM36 58c-3.252 0-6-1.832-6-4s2.748-4 6-4 6 1.832 6 4-2.748 4-6 4zm22-22.414l-10 10L46.414 44 58 32.414v3.172z"/><path d="M34.48 33.793a4.541 4.541 0 00-8.957 0L22.502 51.92a2.49 2.49 0 01-4.921-.072l-2.588-18.983a1.001 1.001 0 00-.143-.4l-.556-.89a28.165 28.165 0 01-3.61-8.8l-1.954.436a30.172 30.172 0 003.871 9.43l.442.707 2.56 18.77a4.488 4.488 0 008.874.132l3.021-18.126A2.533 2.533 0 0130.002 32a2.533 2.533 0 012.507 2.124l2.008 12.041 1.971-.33-2.007-12.04zM39.384 4c-1.709 0-3.4.347-4.97 1.02a11.262 11.262 0 01-8.83 0 12.616 12.616 0 00-14.326 3.134L12.742 9.5A10.636 10.636 0 0120.616 6a10.54 10.54 0 014.18.858 13.26 13.26 0 0010.407 0c5.39-2.31 11.63.187 13.939 5.577a10.61 10.61 0 01.858 4.18 28.2 28.2 0 01-4.292 14.965l-.556.89a1.001 1.001 0 00-.143.4l-.818 6 1.98.27.79-5.787.443-.708A30.2 30.2 0 0052 16.615C52 9.649 46.35 4 39.384 4z"/></g><defs><clipPath id="clip0_882_9381"><path fill="#fff" d="M0 0h60v60H0z"/></clipPath></defs></svg>