<svg width="60" height="60" fill="none" xmlns="http://www.w3.org/2000/svg"><g clip-path="url(#clip0_882_9726)" fill="#5CA649"><path d="M44.5 3A20.585 20.585 0 0030 9.021 20.585 20.585 0 0015.5 3C6.809 3 0 11.4 0 22.121c0 8.964 4.615 20.568 16.73 28.665a.978.978 0 00.249.169 52.058 52.058 0 0012.713 6c.2.064.416.064.616 0C52.224 49.877 60 33.768 60 22.121 60 11.4 53.191 3 44.5 3zM30 54.948a50.013 50.013 0 01-11.739-5.542 11.6 11.6 0 01.532-7.739 37.163 37.163 0 013.794-5.4 53.81 53.81 0 012.044-2.361 1 1 0 00-1.463-1.365c-.035.038-.824.887-1.875 2.153a58.429 58.429 0 00-6.957 1.278 4.758 4.758 0 01-4.854-.862 5.072 5.072 0 01-1.369-4.586 1.808 1.808 0 011.131-1.413c1.69-.485 2.242.222 2.95 1.447.348.6.936 1.6 2 1.293l11.487-3.3a4.614 4.614 0 012.4-.089 4.41 4.41 0 00-.017.673c.1 1.844 1.256 3.837 3.318 5.844-.066.995-.188 1.8-.21 1.915-.381 1.843-2.455 4.416-4.934 6.117a1 1 0 101.133 1.649c2.954-2.029 5.27-4.987 5.764-7.381.023-.127.06-.37.1-.685a41.815 41.815 0 007 4.357 1 1 0 10.903-1.786c-7.977-4.032-10.954-7.883-11.08-10.141-.078-.708.254-1.4.856-1.781 2.778-1.82 7.982-.092 8.034-.075a1 1 0 00.644-1.893 18.51 18.51 0 00-3.516-.753 9.8 9.8 0 01-.747-5.316 9.488 9.488 0 013.746-6.368 9.264 9.264 0 017-1.722c6.577 1.009 8.6 8.058 7.932 12.736a13.263 13.263 0 01-4.139 7.221c-.33.303-.59.676-.758 1.091a5.133 5.133 0 00-2.507-1.193l-8.794-1.635-.361 1.964 8.794 1.635c.985.184 2.183.685 2.737 2.912.185 1.43.154 2.88-.092 4.3a26.639 26.639 0 01-2.3 5.451l-.117.214A46.58 46.58 0 0130 54.948zm20.569-13.367c.117-.35.213-.706.285-1.068a17.2 17.2 0 00.078-5.258c-.168-1.614-.186-2.266.295-2.709a14.992 14.992 0 004.763-8.405c.926-6.507-2.415-13.9-9.605-15-3-.479-6.066.276-8.5 2.093a11.462 11.462 0 00-4.533 7.7c-.26 1.85-.078 3.734.53 5.5a7.947 7.947 0 00-4.061 1.135c-.413.27-.773.614-1.059 1.015a6.482 6.482 0 00-3.636.045l-11.054 3.178c-.05-.082-.1-.171-.146-.248-.623-1.078-1.91-3.323-5.235-2.367a3.737 3.737 0 00-2.519 2.852 7.087 7.087 0 001.922 6.509 6.139 6.139 0 004.373 1.7 8.782 8.782 0 002.422-.36c1.519-.392 3.058-.7 4.611-.92a32.286 32.286 0 00-2.466 3.738 13.143 13.143 0 00-1.134 7.034C5.876 40.185 2 30.049 2 22.121 2 12.521 7.93 5 15.5 5a18.839 18.839 0 0113.183 5.543l-2.444 3.043a1 1 0 001.561 1.252l2.981-3.712A18.673 18.673 0 0144.5 5C52.07 5 58 12.521 58 22.121a31.123 31.123 0 01-7.431 19.46z"/><path d="M47.004 25.673a2.976 2.976 0 002.281.259 3 3 0 00.625-5.508 1 1 0 10-.969 1.749 1 1 0 01-.968 1.751 1 1 0 10-.969 1.749z"/></g><defs><clipPath id="clip0_882_9726"><path fill="#fff" d="M0 0h60v60H0z"/></clipPath></defs></svg>