<svg width="18" height="22" fill="none" xmlns="http://www.w3.org/2000/svg"><path d="M9 .474a5.31 5.31 0 100 10.62A5.31 5.31 0 009 .475zm0 7.958a2.647 2.647 0 110-5.295 2.647 2.647 0 010 5.295z" fill="#FF9800"/><path d="M16.826 11.908a1.799 1.799 0 00-2.452-.69c-3.616 2.027-7.132 2.027-10.748 0a1.808 1.808 0 10-1.763 3.158 16.033 16.033 0 003.771 1.545l-2.558 2.558a1.792 1.792 0 002.534 2.534L9 17.61 12.39 21a1.792 1.792 0 002.534-2.534l-2.558-2.558a16.038 16.038 0 003.77-1.545 1.8 1.8 0 00.69-2.455z" fill="#FF9800"/></svg>