<svg width="25" height="25" fill="none" xmlns="http://www.w3.org/2000/svg"><g clip-path="url(#clip0_9_1442)"><path d="M12.5 25C19.404 25 25 19.404 25 12.5S19.404 0 12.5 0 0 5.596 0 12.5 5.596 25 12.5 25z" fill="#4065D6"/><path d="M18.265 16.073c-.293.04-1.716 0-1.79 0a1.4 1.4 0 01-.987-.393c-.3-.29-.572-.609-.86-.91a2.574 2.574 0 00-.281-.255c-.235-.179-.467-.138-.577.138a5.24 5.24 0 00-.178.916.494.494 0 01-.512.474c-.194.01-.388.015-.58.01a4.441 4.441 0 01-2.012-.493 5.5 5.5 0 01-1.718-1.504 18.179 18.179 0 01-1.905-3.125 52.722 52.722 0 01-.595-1.29.329.329 0 01.153-.427c.098-.038 1.926 0 1.955 0a.638.638 0 01.614.443c.338.861.8 1.67 1.37 2.398.08.098.173.184.278.255a.209.209 0 00.207.05.21.21 0 00.145-.157c.072-.238.114-.484.126-.732.01-.494 0-.822-.028-1.316a.64.64 0 00-.593-.676c-.145-.025-.165-.143-.065-.261.193-.246.46-.285.749-.3.437-.024.876 0 1.316 0h.095c.193 0 .385.019.574.058a.523.523 0 01.416.467c.022.124.032.25.03.377-.012.537-.038 1.075-.045 1.615-.004.213.016.426.058.634.064.287.26.36.46.15.25-.268.48-.555.686-.858a8.562 8.562 0 00.911-1.768c.127-.32.224-.39.568-.39h1.939a1.13 1.13 0 01.342.046.296.296 0 01.204.381 3.215 3.215 0 01-.572 1.135c-.395.558-.81 1.102-1.214 1.645a2.085 2.085 0 00-.14.222c-.151.273-.14.428.079.658.352.362.729.702 1.067 1.074.25.27.476.563.675.873.25.402.097.77-.365.836z" fill="#fff"/></g><defs><clipPath id="clip0_9_1442"><path fill="#fff" d="M0 0h25v25H0z"/></clipPath></defs></svg>