<svg width="24" height="24" fill="none" xmlns="http://www.w3.org/2000/svg"><path d="M16.249.889h-8.49A6.866 6.866 0 00.899 7.75v8.489a6.866 6.866 0 006.862 6.862h8.489a6.866 6.866 0 006.862-6.862V7.75A6.866 6.866 0 0016.249.89zm4.382 15.36a4.395 4.395 0 01-4.391 4.39H7.75a4.395 4.395 0 01-4.391-4.39v-8.49A4.395 4.395 0 017.75 3.37h8.489a4.395 4.395 0 014.391 4.39v8.49z" fill="url(#paint0_linear_876_6469)"/><path d="M12 6.32A5.69 5.69 0 006.32 12 5.69 5.69 0 0012 17.68 5.69 5.69 0 0017.68 12 5.69 5.69 0 0012 6.32zm0 9.129a3.452 3.452 0 01-3.45-3.45A3.452 3.452 0 0112 8.552 3.452 3.452 0 0115.449 12a3.452 3.452 0 01-3.45 3.449z" fill="url(#paint1_linear_876_6469)"/><path d="M18.113 6.943a.96.96 0 10-.308-1.895.96.96 0 00.308 1.895z" fill="url(#paint2_linear_876_6469)"/><defs><linearGradient id="paint0_linear_876_6469" x1="3.547" y1="20.452" x2="19.331" y2="4.668" gradientUnits="userSpaceOnUse"><stop stop-color="#FF6B00"/><stop offset=".151" stop-color="#E97814"/><stop offset=".292" stop-color="#FE5F5E"/><stop offset=".427" stop-color="#FE2181"/><stop offset="1" stop-color="#9000DC"/></linearGradient><linearGradient id="paint1_linear_876_6469" x1="7.675" y1="16.325" x2="15.747" y2="8.253" gradientUnits="userSpaceOnUse"><stop stop-color="#FF6B00"/><stop offset=".151" stop-color="#E97814"/><stop offset=".292" stop-color="#FE5F5E"/><stop offset=".427" stop-color="#FE2181"/><stop offset="1" stop-color="#9000DC"/></linearGradient><linearGradient id="paint2_linear_876_6469" x1="17.355" y1="6.834" x2="18.483" y2="5.269" gradientUnits="userSpaceOnUse"><stop stop-color="#FF6B00"/><stop offset=".151" stop-color="#E97814"/><stop offset=".292" stop-color="#FE5F5E"/><stop offset=".427" stop-color="#FE2181"/><stop offset="1" stop-color="#9000DC"/></linearGradient></defs></svg>