<svg width="22" height="12" fill="none" xmlns="http://www.w3.org/2000/svg"><path d="M20.224 11.716c-.469.066-2.745 0-2.863 0a2.24 2.24 0 01-1.58-.63c-.48-.462-.915-.973-1.376-1.454a4.138 4.138 0 00-.45-.408c-.376-.287-.747-.221-.923.22-.138.48-.233.97-.284 1.467a.79.79 0 01-.819.758c-.31.015-.62.023-.929.015a7.105 7.105 0 01-3.218-.79 8.802 8.802 0 01-2.75-2.404 29.092 29.092 0 01-3.048-5c-.044-.09-.931-1.977-.952-2.064a.526.526 0 01.244-.684c.158-.06 3.082 0 3.13 0a1.021 1.021 0 01.981.708 15.263 15.263 0 002.192 3.837c.127.157.277.295.445.408a.337.337 0 00.563-.171 4.8 4.8 0 00.203-1.171c.015-.79 0-1.316-.045-2.106a1.024 1.024 0 00-.95-1.081c-.232-.04-.263-.23-.103-.419C8 .355 8.426.292 8.89.27c.7-.04 1.402 0 2.105 0h.153c.308-.001.616.03.918.092a.837.837 0 01.666.747c.035.199.051.4.047.603-.018.86-.06 1.72-.07 2.584-.007.34.024.681.091 1.016.103.458.416.573.737.24.4-.43.767-.89 1.097-1.375a13.71 13.71 0 001.458-2.829c.203-.51.358-.623.908-.623h3.103c.185-.003.37.022.547.073a.474.474 0 01.327.611 5.145 5.145 0 01-.916 1.816c-.632.892-1.295 1.763-1.942 2.631a3.342 3.342 0 00-.224.356c-.242.436-.224.684.126 1.052.563.58 1.166 1.124 1.708 1.719.4.433.76.9 1.08 1.397.4.642.154 1.232-.585 1.337z" fill="#4065D6"/></svg>