<svg width="40" height="40" fill="none" xmlns="http://www.w3.org/2000/svg"><g clip-path="url(#clip0_876_6486)"><circle cx="20" cy="20" r="20" fill="#EA412C"/><path fill-rule="evenodd" clip-rule="evenodd" d="M30 20.755c0 1.619-.2 3.238-.2 3.238s-.195 1.377-.795 1.985c-.76.796-1.613.8-2.004.846-2.799.202-7.001.208-7.001.208s-5.2-.047-6.8-.2c-.445-.083-1.445-.058-2.205-.855-.6-.607-.795-1.985-.795-1.985s-.2-1.618-.2-3.237v-1.517c0-1.62.2-3.237.2-3.237s.195-1.379.795-1.986c.76-.796 1.613-.8 2.004-.846 2.798-.203 6.997-.203 6.997-.203h.008s4.198 0 6.997.203c.391.046 1.244.05 2.004.846.6.607.795 1.986.795 1.986s.2 1.618.2 3.236v1.518zM20 0C8.954 0 0 8.954 0 20c0 11.045 8.954 20 20 20s20-8.955 20-20C40 8.954 31.046 0 20 0z" fill="#fff"/><path fill-rule="evenodd" clip-rule="evenodd" d="M17.935 22.594l5.404-2.8-5.405-2.82.001 5.62z" fill="#fff"/></g><defs><clipPath id="clip0_876_6486"><path fill="#fff" d="M0 0h40v40H0z"/></clipPath></defs></svg>