<svg width="25" height="25" fill="none" xmlns="http://www.w3.org/2000/svg"><g clip-path="url(#clip0_9_1434)"><path d="M12.5 25C19.404 25 25 19.404 25 12.5S19.404 0 12.5 0 0 5.596 0 12.5 5.596 25 12.5 25z" fill="#FF9800"/><path d="M12.5 5.92a3.319 3.319 0 100 6.639 3.319 3.319 0 000-6.638zm0 4.975a1.655 1.655 0 110-3.31 1.655 1.655 0 010 3.31z" fill="#fff"/><path d="M17.392 13.068a1.125 1.125 0 00-1.533-.431c-2.26 1.266-4.457 1.266-6.717 0A1.13 1.13 0 108.04 14.61a10.03 10.03 0 002.357.966l-1.6 1.598a1.12 1.12 0 001.585 1.584l2.118-2.126 2.119 2.118a1.12 1.12 0 001.584-1.584l-1.6-1.598c.824-.22 1.616-.545 2.358-.966a1.127 1.127 0 00.43-1.534z" fill="#fff"/></g><defs><clipPath id="clip0_9_1434"><path fill="#fff" d="M0 0h25v25H0z"/></clipPath></defs></svg>