<svg width="25" height="25" fill="none" xmlns="http://www.w3.org/2000/svg"><g clip-path="url(#clip0_9_1427)"><path d="M12.5 25C19.404 25 25 19.404 25 12.5S19.404 0 12.5 0 0 5.596 0 12.5 5.596 25 12.5 25z" fill="url(#paint0_linear_9_1427)"/><path d="M15.155 5.556H9.85a4.291 4.291 0 00-4.29 4.289v5.305a4.291 4.291 0 004.29 4.29h5.306a4.292 4.292 0 004.288-4.289V9.845a4.292 4.292 0 00-4.288-4.29zm2.74 9.6A2.747 2.747 0 0115.15 17.9H9.844A2.747 2.747 0 017.1 15.156V9.85a2.747 2.747 0 012.744-2.744h5.306a2.747 2.747 0 012.744 2.744v5.306z" fill="#fff"/><path d="M12.5 8.95a3.556 3.556 0 00-3.55 3.55 3.557 3.557 0 003.55 3.55 3.556 3.556 0 003.55-3.55 3.556 3.556 0 00-3.55-3.55zm0 5.706a2.157 2.157 0 01-2.156-2.156 2.157 2.157 0 014.311 0 2.158 2.158 0 01-2.155 2.156zm3.82-5.316a.6.6 0 10-.192-1.185.6.6 0 00.192 1.184z" fill="#fff"/></g><defs><linearGradient id="paint0_linear_9_1427" x1="2.982" y1="22.018" x2="20.746" y2="4.254" gradientUnits="userSpaceOnUse"><stop stop-color="#FEE411"/><stop offset=".052" stop-color="#FEDB16"/><stop offset=".138" stop-color="#FEC125"/><stop offset=".248" stop-color="#FE983D"/><stop offset=".376" stop-color="#FE5F5E"/><stop offset=".5" stop-color="#FE2181"/><stop offset="1" stop-color="#9000DC"/></linearGradient><clipPath id="clip0_9_1427"><path fill="#fff" d="M0 0h25v25H0z"/></clipPath></defs></svg>