<svg width="25" height="25" fill="none" xmlns="http://www.w3.org/2000/svg"><g clip-path="url(#clip0_9_1447)"><circle cx="12.5" cy="12.5" r="12.5" fill="#fff"/><path fill-rule="evenodd" clip-rule="evenodd" d="M18.75 12.972c0 1.012-.125 2.023-.125 2.023s-.122.861-.497 1.24c-.475.499-1.008.5-1.252.53-1.75.126-4.376.13-4.376.13s-3.25-.03-4.25-.125c-.278-.052-.903-.036-1.378-.534-.375-.38-.497-1.24-.497-1.24s-.125-1.012-.125-2.024v-.949c0-1.011.125-2.022.125-2.022s.122-.862.497-1.242c.475-.497 1.008-.5 1.252-.529 1.75-.126 4.374-.126 4.374-.126h.004s2.625 0 4.374.126c.244.03.777.032 1.252.53.375.38.497 1.24.497 1.24s.125 1.012.125 2.023v.949zM12.5 0C5.596 0 0 5.596 0 12.5 0 19.403 5.596 25 12.5 25S25 19.403 25 12.5C25 5.596 19.404 0 12.5 0z" fill="#EA412C"/><path fill-rule="evenodd" clip-rule="evenodd" d="M11.21 14.12l3.377-1.75-3.378-1.762v3.513z" fill="#EA412C"/></g><defs><clipPath id="clip0_9_1447"><path fill="#fff" d="M0 0h25v25H0z"/></clipPath></defs></svg>