<svg width="25" height="25" fill="none" xmlns="http://www.w3.org/2000/svg"><path d="M12.5 25C19.404 25 25 19.404 25 12.5S19.404 0 12.5 0 0 5.596 0 12.5 5.596 25 12.5 25z" fill="#665CAC"/><path d="M13.816 5.921h-2.632a4.605 4.605 0 00-4.605 4.605V12.5a4.605 4.605 0 002.631 4.163v2.199a.22.22 0 00.374.155l1.911-1.912h2.32a4.605 4.605 0 004.606-4.605v-1.974a4.605 4.605 0 00-4.605-4.605zm1.723 8.632l-.657.658c-.701.685-2.53-.098-4.142-1.744-1.612-1.646-2.319-3.493-1.645-4.18l.658-.657a.692.692 0 01.936.01l.96.987a.646.646 0 01-.263 1.064.629.629 0 00-.424.756c.165.73 1.092 1.645 1.783 1.824a.658.658 0 00.768-.408.645.645 0 011.077-.23l.96.987a.69.69 0 01-.01.933zM13.1 9.046c-.066 0-.131.004-.196.012a.219.219 0 11-.048-.436 2.196 2.196 0 012.428 2.423.219.219 0 11-.436-.048 1.758 1.758 0 00-1.748-1.95zm1.315 1.755a.22.22 0 01-.439 0 .877.877 0 00-.876-.877.22.22 0 110-.439 1.316 1.316 0 011.315 1.316zm1.673.712a.22.22 0 11-.428-.102 2.632 2.632 0 00-2.56-3.238h-.204a.219.219 0 11-.033-.438 3.075 3.075 0 013.225 3.778z" fill="#fff"/></svg>