<svg width="26" height="26" fill="none" xmlns="http://www.w3.org/2000/svg"><path d="M12.5 25.48c6.904 0 12.5-5.596 12.5-12.5S19.404.48 12.5.48 0 6.076 0 12.98s5.596 12.5 12.5 12.5z" fill="#67D449"/><path d="M12.999 6.376c-3.498 0-6.347 2.74-6.347 6.103a5.9 5.9 0 001.173 3.53l.056.078-.716 2.04 2.026-.766.086.058a6.467 6.467 0 003.717 1.157c3.498 0 6.346-2.738 6.346-6.102 0-3.364-2.843-6.098-6.341-6.098zm-1.427 4.472c-.04.103-.167.23-.294.357-.209.205-.442.434-.427.722.005.064.015.235.711.923.437.43.924.84 1.335 1.123.69.478.985.478 1.148.434.294-.078.447-.312.579-.517.121-.19.208-.313.335-.332.315-.054 1.401.356 1.756.717.016.02.026.044.02.069-.045.293-.218 1.01-.812 1.352-.421.244-.985.244-1.68.01-2.605-.889-4.346-2.426-4.905-4.335-.3-1.026.026-1.592.35-1.885.31-.283.676-.361.823-.361.025 0 .04 0 .05.005.082.03.341.307.63.8.29.489.396.84.381.918z" fill="#fff"/></svg>